<?xml version="1.0" encoding="utf-8" standalone="no"?>
<!DOCTYPE svg PUBLIC "-//W3C//DTD SVG 1.1//EN"
  "http://www.w3.org/Graphics/SVG/1.1/DTD/svg11.dtd">
<svg xmlns:xlink="http://www.w3.org/1999/xlink" width="129.6pt" height="100.8pt" viewBox="0 0 129.6 100.8" xmlns="http://www.w3.org/2000/svg" version="1.1">
 <metadata>
  <rdf:RDF xmlns:dc="http://purl.org/dc/elements/1.1/" xmlns:cc="http://creativecommons.org/ns#" xmlns:rdf="http://www.w3.org/1999/02/22-rdf-syntax-ns#">
   <cc:Work>
    <dc:type rdf:resource="http://purl.org/dc/dcmitype/StillImage"/>
    <dc:date>2025-05-08T16:45:25.860073</dc:date>
    <dc:format>image/svg+xml</dc:format>
    <dc:creator>
     <cc:Agent>
      <dc:title>Matplotlib v3.7.2, https://matplotlib.org/</dc:title>
     </cc:Agent>
    </dc:creator>
   </cc:Work>
  </rdf:RDF>
 </metadata>
 <defs>
  <style type="text/css">*{stroke-linejoin: round; stroke-linecap: butt}</style>
 </defs>
 <g id="figure_1">
  <g id="patch_1">
   <path d="M 0 100.8 
L 129.6 100.8 
L 129.6 0 
L 0 0 
z
" style="fill: #ffffff"/>
  </g>
  <g id="axes_1">
   <g id="patch_2">
    <path d="M 16.2 89.712 
L 116.64 89.712 
L 116.64 12.096 
L 16.2 12.096 
z
" style="fill: #ffffff"/>
   </g>
   <g id="matplotlib.axis_1">
    <g id="xtick_1">
     <g id="line2d_1">
      <defs>
       <path id="md30d32bcac" d="M 0 0 
L 0 3.5 
" style="stroke: #000000; stroke-width: 0.8"/>
      </defs>
      <g>
       <use xlink:href="#md30d32bcac" x="16.2" y="89.712" style="stroke: #000000; stroke-width: 0.8"/>
      </g>
     </g>
     <g id="text_1">
      <!-- 0 -->
      <g transform="translate(14.29125 101.271062) scale(0.06 -0.06)">
       <defs>
        <path id="DejaVuSans-30" d="M 2034 4250 
Q 1547 4250 1301 3770 
Q 1056 3291 1056 2328 
Q 1056 1369 1301 889 
Q 1547 409 2034 409 
Q 2525 409 2770 889 
Q 3016 1369 3016 2328 
Q 3016 3291 2770 3770 
Q 2525 4250 2034 4250 
z
M 2034 4750 
Q 2819 4750 3233 4129 
Q 3647 3509 3647 2328 
Q 3647 1150 3233 529 
Q 2819 -91 2034 -91 
Q 1250 -91 836 529 
Q 422 1150 422 2328 
Q 422 3509 836 4129 
Q 1250 4750 2034 4750 
z
" transform="scale(0.015625)"/>
       </defs>
       <use xlink:href="#DejaVuSans-30"/>
      </g>
     </g>
    </g>
    <g id="xtick_2">
     <g id="line2d_2">
      <g>
       <use xlink:href="#md30d32bcac" x="66.42" y="89.712" style="stroke: #000000; stroke-width: 0.8"/>
      </g>
     </g>
     <g id="text_2">
      <!-- 1000 -->
      <g transform="translate(58.785 101.271062) scale(0.06 -0.06)">
       <defs>
        <path id="DejaVuSans-31" d="M 794 531 
L 1825 531 
L 1825 4091 
L 703 3866 
L 703 4441 
L 1819 4666 
L 2450 4666 
L 2450 531 
L 3481 531 
L 3481 0 
L 794 0 
L 794 531 
z
" transform="scale(0.015625)"/>
       </defs>
       <use xlink:href="#DejaVuSans-31"/>
       <use xlink:href="#DejaVuSans-30" x="63.623047"/>
       <use xlink:href="#DejaVuSans-30" x="127.246094"/>
       <use xlink:href="#DejaVuSans-30" x="190.869141"/>
      </g>
     </g>
    </g>
    <g id="xtick_3">
     <g id="line2d_3">
      <g>
       <use xlink:href="#md30d32bcac" x="116.64" y="89.712" style="stroke: #000000; stroke-width: 0.8"/>
      </g>
     </g>
     <g id="text_3">
      <!-- 2000 -->
      <g transform="translate(109.005 101.271062) scale(0.06 -0.06)">
       <defs>
        <path id="DejaVuSans-32" d="M 1228 531 
L 3431 531 
L 3431 0 
L 469 0 
L 469 531 
Q 828 903 1448 1529 
Q 2069 2156 2228 2338 
Q 2531 2678 2651 2914 
Q 2772 3150 2772 3378 
Q 2772 3750 2511 3984 
Q 2250 4219 1831 4219 
Q 1534 4219 1204 4116 
Q 875 4013 500 3803 
L 500 4441 
Q 881 4594 1212 4672 
Q 1544 4750 1819 4750 
Q 2544 4750 2975 4387 
Q 3406 4025 3406 3419 
Q 3406 3131 3298 2873 
Q 3191 2616 2906 2266 
Q 2828 2175 2409 1742 
Q 1991 1309 1228 531 
z
" transform="scale(0.015625)"/>
       </defs>
       <use xlink:href="#DejaVuSans-32"/>
       <use xlink:href="#DejaVuSans-30" x="63.623047"/>
       <use xlink:href="#DejaVuSans-30" x="127.246094"/>
       <use xlink:href="#DejaVuSans-30" x="190.869141"/>
      </g>
     </g>
    </g>
    <g id="text_4">
     <!-- Number of Iterations -->
     <g transform="translate(35.281875 111.077937) scale(0.06 -0.06)">
      <defs>
       <path id="DejaVuSans-4e" d="M 628 4666 
L 1478 4666 
L 3547 763 
L 3547 4666 
L 4159 4666 
L 4159 0 
L 3309 0 
L 1241 3903 
L 1241 0 
L 628 0 
L 628 4666 
z
" transform="scale(0.015625)"/>
       <path id="DejaVuSans-75" d="M 544 1381 
L 544 3500 
L 1119 3500 
L 1119 1403 
Q 1119 906 1312 657 
Q 1506 409 1894 409 
Q 2359 409 2629 706 
Q 2900 1003 2900 1516 
L 2900 3500 
L 3475 3500 
L 3475 0 
L 2900 0 
L 2900 538 
Q 2691 219 2414 64 
Q 2138 -91 1772 -91 
Q 1169 -91 856 284 
Q 544 659 544 1381 
z
M 1991 3584 
L 1991 3584 
z
" transform="scale(0.015625)"/>
       <path id="DejaVuSans-6d" d="M 3328 2828 
Q 3544 3216 3844 3400 
Q 4144 3584 4550 3584 
Q 5097 3584 5394 3201 
Q 5691 2819 5691 2113 
L 5691 0 
L 5113 0 
L 5113 2094 
Q 5113 2597 4934 2840 
Q 4756 3084 4391 3084 
Q 3944 3084 3684 2787 
Q 3425 2491 3425 1978 
L 3425 0 
L 2847 0 
L 2847 2094 
Q 2847 2600 2669 2842 
Q 2491 3084 2119 3084 
Q 1678 3084 1418 2786 
Q 1159 2488 1159 1978 
L 1159 0 
L 581 0 
L 581 3500 
L 1159 3500 
L 1159 2956 
Q 1356 3278 1631 3431 
Q 1906 3584 2284 3584 
Q 2666 3584 2933 3390 
Q 3200 3197 3328 2828 
z
" transform="scale(0.015625)"/>
       <path id="DejaVuSans-62" d="M 3116 1747 
Q 3116 2381 2855 2742 
Q 2594 3103 2138 3103 
Q 1681 3103 1420 2742 
Q 1159 2381 1159 1747 
Q 1159 1113 1420 752 
Q 1681 391 2138 391 
Q 2594 391 2855 752 
Q 3116 1113 3116 1747 
z
M 1159 2969 
Q 1341 3281 1617 3432 
Q 1894 3584 2278 3584 
Q 2916 3584 3314 3078 
Q 3713 2572 3713 1747 
Q 3713 922 3314 415 
Q 2916 -91 2278 -91 
Q 1894 -91 1617 61 
Q 1341 213 1159 525 
L 1159 0 
L 581 0 
L 581 4863 
L 1159 4863 
L 1159 2969 
z
" transform="scale(0.015625)"/>
       <path id="DejaVuSans-65" d="M 3597 1894 
L 3597 1613 
L 953 1613 
Q 991 1019 1311 708 
Q 1631 397 2203 397 
Q 2534 397 2845 478 
Q 3156 559 3463 722 
L 3463 178 
Q 3153 47 2828 -22 
Q 2503 -91 2169 -91 
Q 1331 -91 842 396 
Q 353 884 353 1716 
Q 353 2575 817 3079 
Q 1281 3584 2069 3584 
Q 2775 3584 3186 3129 
Q 3597 2675 3597 1894 
z
M 3022 2063 
Q 3016 2534 2758 2815 
Q 2500 3097 2075 3097 
Q 1594 3097 1305 2825 
Q 1016 2553 972 2059 
L 3022 2063 
z
" transform="scale(0.015625)"/>
       <path id="DejaVuSans-72" d="M 2631 2963 
Q 2534 3019 2420 3045 
Q 2306 3072 2169 3072 
Q 1681 3072 1420 2755 
Q 1159 2438 1159 1844 
L 1159 0 
L 581 0 
L 581 3500 
L 1159 3500 
L 1159 2956 
Q 1341 3275 1631 3429 
Q 1922 3584 2338 3584 
Q 2397 3584 2469 3576 
Q 2541 3569 2628 3553 
L 2631 2963 
z
" transform="scale(0.015625)"/>
       <path id="DejaVuSans-20" transform="scale(0.015625)"/>
       <path id="DejaVuSans-6f" d="M 1959 3097 
Q 1497 3097 1228 2736 
Q 959 2375 959 1747 
Q 959 1119 1226 758 
Q 1494 397 1959 397 
Q 2419 397 2687 759 
Q 2956 1122 2956 1747 
Q 2956 2369 2687 2733 
Q 2419 3097 1959 3097 
z
M 1959 3584 
Q 2709 3584 3137 3096 
Q 3566 2609 3566 1747 
Q 3566 888 3137 398 
Q 2709 -91 1959 -91 
Q 1206 -91 779 398 
Q 353 888 353 1747 
Q 353 2609 779 3096 
Q 1206 3584 1959 3584 
z
" transform="scale(0.015625)"/>
       <path id="DejaVuSans-66" d="M 2375 4863 
L 2375 4384 
L 1825 4384 
Q 1516 4384 1395 4259 
Q 1275 4134 1275 3809 
L 1275 3500 
L 2222 3500 
L 2222 3053 
L 1275 3053 
L 1275 0 
L 697 0 
L 697 3053 
L 147 3053 
L 147 3500 
L 697 3500 
L 697 3744 
Q 697 4328 969 4595 
Q 1241 4863 1831 4863 
L 2375 4863 
z
" transform="scale(0.015625)"/>
       <path id="DejaVuSans-49" d="M 628 4666 
L 1259 4666 
L 1259 0 
L 628 0 
L 628 4666 
z
" transform="scale(0.015625)"/>
       <path id="DejaVuSans-74" d="M 1172 4494 
L 1172 3500 
L 2356 3500 
L 2356 3053 
L 1172 3053 
L 1172 1153 
Q 1172 725 1289 603 
Q 1406 481 1766 481 
L 2356 481 
L 2356 0 
L 1766 0 
Q 1100 0 847 248 
Q 594 497 594 1153 
L 594 3053 
L 172 3053 
L 172 3500 
L 594 3500 
L 594 4494 
L 1172 4494 
z
" transform="scale(0.015625)"/>
       <path id="DejaVuSans-61" d="M 2194 1759 
Q 1497 1759 1228 1600 
Q 959 1441 959 1056 
Q 959 750 1161 570 
Q 1363 391 1709 391 
Q 2188 391 2477 730 
Q 2766 1069 2766 1631 
L 2766 1759 
L 2194 1759 
z
M 3341 1997 
L 3341 0 
L 2766 0 
L 2766 531 
Q 2569 213 2275 61 
Q 1981 -91 1556 -91 
Q 1019 -91 701 211 
Q 384 513 384 1019 
Q 384 1609 779 1909 
Q 1175 2209 1959 2209 
L 2766 2209 
L 2766 2266 
Q 2766 2663 2505 2880 
Q 2244 3097 1772 3097 
Q 1472 3097 1187 3025 
Q 903 2953 641 2809 
L 641 3341 
Q 956 3463 1253 3523 
Q 1550 3584 1831 3584 
Q 2591 3584 2966 3190 
Q 3341 2797 3341 1997 
z
" transform="scale(0.015625)"/>
       <path id="DejaVuSans-69" d="M 603 3500 
L 1178 3500 
L 1178 0 
L 603 0 
L 603 3500 
z
M 603 4863 
L 1178 4863 
L 1178 4134 
L 603 4134 
L 603 4863 
z
" transform="scale(0.015625)"/>
       <path id="DejaVuSans-6e" d="M 3513 2113 
L 3513 0 
L 2938 0 
L 2938 2094 
Q 2938 2591 2744 2837 
Q 2550 3084 2163 3084 
Q 1697 3084 1428 2787 
Q 1159 2491 1159 1978 
L 1159 0 
L 581 0 
L 581 3500 
L 1159 3500 
L 1159 2956 
Q 1366 3272 1645 3428 
Q 1925 3584 2291 3584 
Q 2894 3584 3203 3211 
Q 3513 2838 3513 2113 
z
" transform="scale(0.015625)"/>
       <path id="DejaVuSans-73" d="M 2834 3397 
L 2834 2853 
Q 2591 2978 2328 3040 
Q 2066 3103 1784 3103 
Q 1356 3103 1142 2972 
Q 928 2841 928 2578 
Q 928 2378 1081 2264 
Q 1234 2150 1697 2047 
L 1894 2003 
Q 2506 1872 2764 1633 
Q 3022 1394 3022 966 
Q 3022 478 2636 193 
Q 2250 -91 1575 -91 
Q 1294 -91 989 -36 
Q 684 19 347 128 
L 347 722 
Q 666 556 975 473 
Q 1284 391 1588 391 
Q 1994 391 2212 530 
Q 2431 669 2431 922 
Q 2431 1156 2273 1281 
Q 2116 1406 1581 1522 
L 1381 1569 
Q 847 1681 609 1914 
Q 372 2147 372 2553 
Q 372 3047 722 3315 
Q 1072 3584 1716 3584 
Q 2034 3584 2315 3537 
Q 2597 3491 2834 3397 
z
" transform="scale(0.015625)"/>
      </defs>
      <use xlink:href="#DejaVuSans-4e"/>
      <use xlink:href="#DejaVuSans-75" x="74.804688"/>
      <use xlink:href="#DejaVuSans-6d" x="138.183594"/>
      <use xlink:href="#DejaVuSans-62" x="235.595703"/>
      <use xlink:href="#DejaVuSans-65" x="299.072266"/>
      <use xlink:href="#DejaVuSans-72" x="360.595703"/>
      <use xlink:href="#DejaVuSans-20" x="401.708984"/>
      <use xlink:href="#DejaVuSans-6f" x="433.496094"/>
      <use xlink:href="#DejaVuSans-66" x="494.677734"/>
      <use xlink:href="#DejaVuSans-20" x="529.882812"/>
      <use xlink:href="#DejaVuSans-49" x="561.669922"/>
      <use xlink:href="#DejaVuSans-74" x="591.162109"/>
      <use xlink:href="#DejaVuSans-65" x="630.371094"/>
      <use xlink:href="#DejaVuSans-72" x="691.894531"/>
      <use xlink:href="#DejaVuSans-61" x="733.007812"/>
      <use xlink:href="#DejaVuSans-74" x="794.287109"/>
      <use xlink:href="#DejaVuSans-69" x="833.496094"/>
      <use xlink:href="#DejaVuSans-6f" x="861.279297"/>
      <use xlink:href="#DejaVuSans-6e" x="922.460938"/>
      <use xlink:href="#DejaVuSans-73" x="985.839844"/>
     </g>
    </g>
   </g>
   <g id="matplotlib.axis_2">
    <g id="ytick_1">
     <g id="line2d_4">
      <defs>
       <path id="m09ab8fa6f9" d="M 0 0 
L -3.5 0 
" style="stroke: #000000; stroke-width: 0.8"/>
      </defs>
      <g>
       <use xlink:href="#m09ab8fa6f9" x="16.2" y="78.58426" style="stroke: #000000; stroke-width: 0.8"/>
      </g>
     </g>
     <g id="text_5">
      <!-- $\mathdefault{10^{0}}$ -->
      <g transform="translate(-1.36 80.863792) scale(0.06 -0.06)">
       <use xlink:href="#DejaVuSans-31" transform="translate(0 0.765625)"/>
       <use xlink:href="#DejaVuSans-30" transform="translate(63.623047 0.765625)"/>
       <use xlink:href="#DejaVuSans-30" transform="translate(128.203125 39.046875) scale(0.7)"/>
      </g>
     </g>
    </g>
    <g id="ytick_2">
     <g id="line2d_5">
      <g>
       <use xlink:href="#m09ab8fa6f9" x="16.2" y="53.648744" style="stroke: #000000; stroke-width: 0.8"/>
      </g>
     </g>
     <g id="text_6">
      <!-- $\mathdefault{10^{1}}$ -->
      <g transform="translate(-1.36 55.928275) scale(0.06 -0.06)">
       <use xlink:href="#DejaVuSans-31" transform="translate(0 0.684375)"/>
       <use xlink:href="#DejaVuSans-30" transform="translate(63.623047 0.684375)"/>
       <use xlink:href="#DejaVuSans-31" transform="translate(128.203125 38.965625) scale(0.7)"/>
      </g>
     </g>
    </g>
    <g id="ytick_3">
     <g id="line2d_6">
      <g>
       <use xlink:href="#m09ab8fa6f9" x="16.2" y="28.713228" style="stroke: #000000; stroke-width: 0.8"/>
      </g>
     </g>
     <g id="text_7">
      <!-- $\mathdefault{10^{2}}$ -->
      <g transform="translate(-1.36 30.992759) scale(0.06 -0.06)">
       <use xlink:href="#DejaVuSans-31" transform="translate(0 0.765625)"/>
       <use xlink:href="#DejaVuSans-30" transform="translate(63.623047 0.765625)"/>
       <use xlink:href="#DejaVuSans-32" transform="translate(128.203125 39.046875) scale(0.7)"/>
      </g>
     </g>
    </g>
    <g id="ytick_4">
     <g id="line2d_7">
      <defs>
       <path id="mc9f4260492" d="M 0 0 
L -2 0 
" style="stroke: #000000; stroke-width: 0.6"/>
      </defs>
      <g>
       <use xlink:href="#mc9f4260492" x="16.2" y="88.5071" style="stroke: #000000; stroke-width: 0.6"/>
      </g>
     </g>
    </g>
    <g id="ytick_5">
     <g id="line2d_8">
      <g>
       <use xlink:href="#mc9f4260492" x="16.2" y="86.090599" style="stroke: #000000; stroke-width: 0.6"/>
      </g>
     </g>
    </g>
    <g id="ytick_6">
     <g id="line2d_9">
      <g>
       <use xlink:href="#mc9f4260492" x="16.2" y="84.116174" style="stroke: #000000; stroke-width: 0.6"/>
      </g>
     </g>
    </g>
    <g id="ytick_7">
     <g id="line2d_10">
      <g>
       <use xlink:href="#mc9f4260492" x="16.2" y="82.446821" style="stroke: #000000; stroke-width: 0.6"/>
      </g>
     </g>
    </g>
    <g id="ytick_8">
     <g id="line2d_11">
      <g>
       <use xlink:href="#mc9f4260492" x="16.2" y="81.000762" style="stroke: #000000; stroke-width: 0.6"/>
      </g>
     </g>
    </g>
    <g id="ytick_9">
     <g id="line2d_12">
      <g>
       <use xlink:href="#mc9f4260492" x="16.2" y="79.725247" style="stroke: #000000; stroke-width: 0.6"/>
      </g>
     </g>
    </g>
    <g id="ytick_10">
     <g id="line2d_13">
      <g>
       <use xlink:href="#mc9f4260492" x="16.2" y="71.077922" style="stroke: #000000; stroke-width: 0.6"/>
      </g>
     </g>
    </g>
    <g id="ytick_11">
     <g id="line2d_14">
      <g>
       <use xlink:href="#mc9f4260492" x="16.2" y="66.686996" style="stroke: #000000; stroke-width: 0.6"/>
      </g>
     </g>
    </g>
    <g id="ytick_12">
     <g id="line2d_15">
      <g>
       <use xlink:href="#mc9f4260492" x="16.2" y="63.571584" style="stroke: #000000; stroke-width: 0.6"/>
      </g>
     </g>
    </g>
    <g id="ytick_13">
     <g id="line2d_16">
      <g>
       <use xlink:href="#mc9f4260492" x="16.2" y="61.155082" style="stroke: #000000; stroke-width: 0.6"/>
      </g>
     </g>
    </g>
    <g id="ytick_14">
     <g id="line2d_17">
      <g>
       <use xlink:href="#mc9f4260492" x="16.2" y="59.180657" style="stroke: #000000; stroke-width: 0.6"/>
      </g>
     </g>
    </g>
    <g id="ytick_15">
     <g id="line2d_18">
      <g>
       <use xlink:href="#mc9f4260492" x="16.2" y="57.511304" style="stroke: #000000; stroke-width: 0.6"/>
      </g>
     </g>
    </g>
    <g id="ytick_16">
     <g id="line2d_19">
      <g>
       <use xlink:href="#mc9f4260492" x="16.2" y="56.065245" style="stroke: #000000; stroke-width: 0.6"/>
      </g>
     </g>
    </g>
    <g id="ytick_17">
     <g id="line2d_20">
      <g>
       <use xlink:href="#mc9f4260492" x="16.2" y="54.789731" style="stroke: #000000; stroke-width: 0.6"/>
      </g>
     </g>
    </g>
    <g id="ytick_18">
     <g id="line2d_21">
      <g>
       <use xlink:href="#mc9f4260492" x="16.2" y="46.142406" style="stroke: #000000; stroke-width: 0.6"/>
      </g>
     </g>
    </g>
    <g id="ytick_19">
     <g id="line2d_22">
      <g>
       <use xlink:href="#mc9f4260492" x="16.2" y="41.751479" style="stroke: #000000; stroke-width: 0.6"/>
      </g>
     </g>
    </g>
    <g id="ytick_20">
     <g id="line2d_23">
      <g>
       <use xlink:href="#mc9f4260492" x="16.2" y="38.636067" style="stroke: #000000; stroke-width: 0.6"/>
      </g>
     </g>
    </g>
    <g id="ytick_21">
     <g id="line2d_24">
      <g>
       <use xlink:href="#mc9f4260492" x="16.2" y="36.219566" style="stroke: #000000; stroke-width: 0.6"/>
      </g>
     </g>
    </g>
    <g id="ytick_22">
     <g id="line2d_25">
      <g>
       <use xlink:href="#mc9f4260492" x="16.2" y="34.245141" style="stroke: #000000; stroke-width: 0.6"/>
      </g>
     </g>
    </g>
    <g id="ytick_23">
     <g id="line2d_26">
      <g>
       <use xlink:href="#mc9f4260492" x="16.2" y="32.575788" style="stroke: #000000; stroke-width: 0.6"/>
      </g>
     </g>
    </g>
    <g id="ytick_24">
     <g id="line2d_27">
      <g>
       <use xlink:href="#mc9f4260492" x="16.2" y="31.129729" style="stroke: #000000; stroke-width: 0.6"/>
      </g>
     </g>
    </g>
    <g id="ytick_25">
     <g id="line2d_28">
      <g>
       <use xlink:href="#mc9f4260492" x="16.2" y="29.854214" style="stroke: #000000; stroke-width: 0.6"/>
      </g>
     </g>
    </g>
    <g id="ytick_26">
     <g id="line2d_29">
      <g>
       <use xlink:href="#mc9f4260492" x="16.2" y="21.206889" style="stroke: #000000; stroke-width: 0.6"/>
      </g>
     </g>
    </g>
    <g id="ytick_27">
     <g id="line2d_30">
      <g>
       <use xlink:href="#mc9f4260492" x="16.2" y="16.815963" style="stroke: #000000; stroke-width: 0.6"/>
      </g>
     </g>
    </g>
    <g id="ytick_28">
     <g id="line2d_31">
      <g>
       <use xlink:href="#mc9f4260492" x="16.2" y="13.700551" style="stroke: #000000; stroke-width: 0.6"/>
      </g>
     </g>
    </g>
    <g id="text_8">
     <!-- Loss Function -->
     <g transform="translate(-6.607813 71.196656) rotate(-90) scale(0.06 -0.06)">
      <defs>
       <path id="DejaVuSans-4c" d="M 628 4666 
L 1259 4666 
L 1259 531 
L 3531 531 
L 3531 0 
L 628 0 
L 628 4666 
z
" transform="scale(0.015625)"/>
       <path id="DejaVuSans-46" d="M 628 4666 
L 3309 4666 
L 3309 4134 
L 1259 4134 
L 1259 2759 
L 3109 2759 
L 3109 2228 
L 1259 2228 
L 1259 0 
L 628 0 
L 628 4666 
z
" transform="scale(0.015625)"/>
       <path id="DejaVuSans-63" d="M 3122 3366 
L 3122 2828 
Q 2878 2963 2633 3030 
Q 2388 3097 2138 3097 
Q 1578 3097 1268 2742 
Q 959 2388 959 1747 
Q 959 1106 1268 751 
Q 1578 397 2138 397 
Q 2388 397 2633 464 
Q 2878 531 3122 666 
L 3122 134 
Q 2881 22 2623 -34 
Q 2366 -91 2075 -91 
Q 1284 -91 818 406 
Q 353 903 353 1747 
Q 353 2603 823 3093 
Q 1294 3584 2113 3584 
Q 2378 3584 2631 3529 
Q 2884 3475 3122 3366 
z
" transform="scale(0.015625)"/>
      </defs>
      <use xlink:href="#DejaVuSans-4c"/>
      <use xlink:href="#DejaVuSans-6f" x="53.962891"/>
      <use xlink:href="#DejaVuSans-73" x="115.144531"/>
      <use xlink:href="#DejaVuSans-73" x="167.244141"/>
      <use xlink:href="#DejaVuSans-20" x="219.34375"/>
      <use xlink:href="#DejaVuSans-46" x="251.130859"/>
      <use xlink:href="#DejaVuSans-75" x="303.150391"/>
      <use xlink:href="#DejaVuSans-6e" x="366.529297"/>
      <use xlink:href="#DejaVuSans-63" x="429.908203"/>
      <use xlink:href="#DejaVuSans-74" x="484.888672"/>
      <use xlink:href="#DejaVuSans-69" x="524.097656"/>
      <use xlink:href="#DejaVuSans-6f" x="551.880859"/>
      <use xlink:href="#DejaVuSans-6e" x="613.0625"/>
     </g>
    </g>
   </g>
   <g id="line2d_32">
    <path d="M 16.2 39.881652 
L 16.25022 39.463676 
L 16.30044 39.878103 
L 16.35066 40.129395 
L 16.40088 41.080516 
L 16.4511 39.653073 
L 16.50132 25.201776 
L 16.55154 43.784248 
L 16.60176 20.014798 
L 16.65198 43.458589 
L 16.7022 68.705246 
L 16.75242 41.122841 
L 16.80264 41.444334 
L 16.85286 39.929872 
L 16.90308 32.088914 
L 16.9533 39.843283 
L 17.00352 39.521309 
L 17.05374 40.002507 
L 17.10396 39.893159 
L 17.25462 39.660367 
L 17.30484 27.798159 
L 17.35506 39.817244 
L 17.40528 39.964628 
L 17.4555 39.88155 
L 17.50572 61.236645 
L 17.55594 44.006538 
L 17.75682 27.929263 
L 17.85726 27.649263 
L 17.90748 41.902127 
L 17.9577 15.624 
L 18.00792 32.748395 
L 18.05814 31.904055 
L 18.2088 45.200596 
L 18.25902 22.994537 
L 18.30924 49.293332 
L 18.35946 23.191763 
L 18.40968 52.570638 
L 18.51012 51.416598 
L 18.61056 29.52503 
L 18.76122 49.763914 
L 18.81144 29.197697 
L 18.91188 32.923747 
L 18.9621 46.7699 
L 19.01232 28.604441 
L 19.06254 57.417013 
L 19.16298 55.234188 
L 19.4643 61.539475 
L 19.51452 61.095715 
L 19.7154 59.438544 
L 19.86606 53.185139 
L 20.06694 39.989179 
L 20.11716 48.454834 
L 20.26782 38.012537 
L 20.36826 37.522945 
L 20.41848 48.911094 
L 20.51892 49.111187 
L 20.56914 37.354516 
L 20.61936 49.227449 
L 20.66958 42.780372 
L 20.7198 22.872692 
L 20.87046 49.936613 
L 20.92068 43.067493 
L 20.9709 51.335337 
L 21.02112 58.928589 
L 21.07134 38.300418 
L 21.12156 50.278606 
L 21.17178 51.691334 
L 21.222 26.472773 
L 21.27222 48.958976 
L 21.32244 46.39764 
L 21.37266 17.937904 
L 21.42288 48.647281 
L 21.4731 45.924465 
L 21.52332 52.469366 
L 21.57354 52.037526 
L 21.67398 46.247202 
L 21.7242 55.071129 
L 21.77442 35.965491 
L 21.82464 56.422507 
L 21.87486 46.666296 
L 21.9753 48.033499 
L 22.02552 59.068909 
L 22.07574 47.5003 
L 22.12596 55.783196 
L 22.17618 46.085142 
L 22.2264 54.470548 
L 22.27662 45.932021 
L 22.32684 56.150626 
L 22.37706 46.31635 
L 22.42728 56.459527 
L 22.4775 38.538514 
L 22.52772 57.797823 
L 22.57794 48.917998 
L 22.62816 60.259286 
L 22.67838 49.275385 
L 22.7286 57.750612 
L 22.77882 38.353589 
L 22.82904 55.54171 
L 22.87926 48.669091 
L 22.92948 56.777164 
L 22.9797 49.317526 
L 23.02992 57.419394 
L 23.08014 51.523024 
L 23.13036 45.275615 
L 23.28102 61.031918 
L 23.33124 45.498935 
L 23.38146 56.991929 
L 23.43168 49.110811 
L 23.4819 61.112444 
L 23.53212 53.625345 
L 23.58234 51.802679 
L 23.68278 51.521575 
L 23.733 60.590515 
L 23.78322 51.906505 
L 23.83344 61.54888 
L 23.93388 54.47688 
L 23.9841 62.764852 
L 24.03432 55.034047 
L 24.13476 54.733427 
L 24.18498 60.815532 
L 24.2352 51.446121 
L 24.28542 60.993393 
L 24.33564 53.928336 
L 24.38586 61.194674 
L 24.4863 55.510897 
L 24.63696 61.793472 
L 24.68718 55.931551 
L 24.78762 56.203246 
L 24.83784 61.194117 
L 24.88806 53.942564 
L 24.93828 58.713609 
L 24.9885 56.062034 
L 25.13916 61.480806 
L 25.18938 54.81921 
L 25.2396 61.674019 
L 25.28982 58.64387 
L 25.34004 63.946151 
L 25.39026 55.80393 
L 25.4907 56.041194 
L 25.64136 63.673625 
L 25.69158 62.068781 
L 25.7418 53.619846 
L 25.79202 62.349943 
L 25.89246 58.107617 
L 25.94268 62.383852 
L 25.9929 60.681591 
L 26.04312 60.759775 
L 26.09334 58.049487 
L 26.14356 62.281559 
L 26.19378 48.426345 
L 26.244 63.824308 
L 26.39466 58.905905 
L 26.44488 62.714129 
L 26.54532 62.064948 
L 26.59554 63.939325 
L 26.7462 59.261661 
L 26.79642 63.319714 
L 26.84664 60.9262 
L 26.89686 59.174831 
L 26.94708 63.411547 
L 26.9973 62.168277 
L 27.04752 57.373897 
L 27.09774 65.20919 
L 27.14796 63.578353 
L 27.19818 60.552254 
L 27.2484 63.085365 
L 27.29862 64.867047 
L 27.34884 64.319267 
L 27.4995 58.921797 
L 27.59994 65.881237 
L 27.65016 59.054366 
L 27.70038 63.937905 
L 27.90126 58.353411 
L 27.95148 63.654959 
L 28.0017 61.760274 
L 28.05192 61.649125 
L 28.10214 61.690408 
L 28.30302 65.832338 
L 28.35324 64.560748 
L 28.5039 61.78199 
L 28.60434 64.699594 
L 28.65456 63.93166 
L 28.70478 60.842489 
L 28.755 61.414578 
L 28.85544 67.383152 
L 28.90566 64.516391 
L 28.95588 64.147022 
L 29.10654 66.10344 
L 29.15676 61.718343 
L 29.20698 65.953999 
L 29.2572 64.731213 
L 29.30742 67.040714 
L 29.35764 64.141035 
L 29.40786 65.285462 
L 29.5083 66.734633 
L 29.60874 62.732039 
L 29.70918 66.777057 
L 29.7594 65.895443 
L 29.80962 65.555974 
L 29.85984 66.520901 
L 29.91006 65.407626 
L 29.96028 65.276071 
L 30.0105 64.356151 
L 30.16116 66.22299 
L 30.2616 62.169752 
L 30.31182 63.755983 
L 30.36204 66.063369 
L 30.41226 66.015847 
L 30.46248 65.521244 
L 30.5127 66.303101 
L 30.66336 64.101137 
L 30.7638 66.795657 
L 30.81402 65.810823 
L 30.86424 65.401299 
L 30.91446 65.795579 
L 31.0149 66.674598 
L 31.16556 65.211131 
L 31.31622 66.328485 
L 31.36644 65.50136 
L 31.41666 65.882589 
L 31.46688 68.269886 
L 31.5171 64.913129 
L 31.56732 65.438958 
L 31.66776 66.879588 
L 31.71798 64.94766 
L 31.7682 65.163614 
L 31.81842 68.645885 
L 31.91886 68.059838 
L 31.96908 68.108585 
L 32.0193 67.021384 
L 32.06952 67.861951 
L 32.11974 67.841009 
L 32.22018 67.999375 
L 32.2704 67.767723 
L 32.32062 67.945235 
L 32.37084 65.18579 
L 32.42106 65.491271 
L 32.47128 67.657292 
L 32.57172 67.647957 
L 32.62194 67.623473 
L 32.72238 65.520996 
L 32.82282 65.756644 
L 32.87304 66.904241 
L 32.97348 66.746775 
L 33.07392 67.678839 
L 33.17436 67.439924 
L 33.22458 65.700242 
L 33.2748 66.766395 
L 33.32502 66.658604 
L 33.42546 64.510497 
L 33.47568 67.399644 
L 33.57612 67.313539 
L 33.62634 64.867605 
L 33.67656 67.374531 
L 33.72678 67.386225 
L 33.777 68.278903 
L 33.87744 68.145795 
L 34.0281 68.74623 
L 34.07832 68.139933 
L 34.12854 68.666077 
L 34.17876 68.773692 
L 34.22898 68.051311 
L 34.2792 68.834548 
L 34.42986 68.48022 
L 34.5303 68.958094 
L 34.68096 68.734091 
L 34.7814 68.92156 
L 34.83162 68.695678 
L 34.88184 67.176994 
L 34.98228 67.274244 
L 35.08272 69.090574 
L 35.13294 68.409346 
L 35.33382 68.908711 
L 35.43426 68.54344 
L 35.5347 68.929681 
L 35.58492 67.445188 
L 35.63514 68.579576 
L 35.7858 68.809928 
L 35.93646 67.933513 
L 36.0369 69.382067 
L 36.08712 69.056685 
L 36.13734 68.990845 
L 36.288 67.023688 
L 36.33822 68.881487 
L 36.43866 68.778434 
L 36.5391 68.142998 
L 36.68976 68.790179 
L 36.73998 68.146674 
L 36.89064 68.95305 
L 36.94086 68.501715 
L 37.14174 70.005509 
L 37.2924 68.493304 
L 37.44306 69.026825 
L 37.5435 68.069007 
L 37.59372 69.056354 
L 37.69416 69.030499 
L 37.74438 69.13241 
L 37.84482 69.219445 
L 37.89504 68.395486 
L 37.99548 69.285457 
L 38.0457 68.941145 
L 38.09592 68.756115 
L 38.14614 69.542269 
L 38.19636 69.36198 
L 38.2968 69.256415 
L 38.34702 69.53729 
L 38.44746 69.040963 
L 38.49768 69.623766 
L 38.5479 69.520684 
L 38.59812 69.490702 
L 38.74878 68.868766 
L 38.89944 69.898055 
L 38.94966 69.751367 
L 39.10032 68.846027 
L 39.25098 69.800337 
L 39.3012 69.690143 
L 39.35142 69.589003 
L 39.40164 69.680447 
L 39.45186 69.724532 
L 39.50208 69.934728 
L 39.5523 69.691301 
L 39.60252 69.590012 
L 39.75318 70.331719 
L 39.8034 70.052773 
L 39.85362 69.732875 
L 39.90384 69.745617 
L 39.95406 69.870904 
L 40.00428 69.65929 
L 40.0545 70.105745 
L 40.10472 70.000256 
L 40.15494 69.928556 
L 40.20516 69.490173 
L 40.25538 69.755262 
L 40.45626 70.754054 
L 40.5567 70.109836 
L 40.60692 70.329358 
L 40.65714 70.023722 
L 40.70736 70.384531 
L 40.75758 70.218563 
L 40.8078 70.419536 
L 40.85802 69.398768 
L 40.90824 69.901007 
L 41.0589 70.528389 
L 41.15934 70.800737 
L 41.20956 71.342491 
L 41.36022 70.398021 
L 41.41044 70.90451 
L 41.46066 70.121215 
L 41.51088 70.547657 
L 41.61132 70.622877 
L 41.66154 70.896154 
L 41.71176 70.617922 
L 41.76198 70.440857 
L 41.91264 71.149611 
L 42.01308 70.838145 
L 42.0633 71.278188 
L 42.11352 71.22576 
L 42.16374 70.828281 
L 42.21396 71.314638 
L 42.26418 70.925737 
L 42.3144 71.084464 
L 42.36462 71.208835 
L 42.41484 70.999208 
L 42.51528 71.634375 
L 42.5655 71.423635 
L 42.61572 71.485871 
L 42.71616 70.87096 
L 42.76638 71.505135 
L 42.86682 71.406911 
L 42.91704 71.31134 
L 43.01748 71.605058 
L 43.0677 71.283623 
L 43.16814 71.811985 
L 43.21836 71.458029 
L 43.26858 71.852497 
L 43.3188 71.866326 
L 43.36902 71.120866 
L 43.41924 71.835395 
L 43.51968 71.065679 
L 43.62012 72.725699 
L 43.67034 72.135812 
L 43.77078 71.910875 
L 43.821 72.526363 
L 43.87122 72.369649 
L 43.92144 71.543478 
L 44.02188 71.663087 
L 44.22276 73.521021 
L 44.37342 71.632592 
L 44.47386 72.761039 
L 44.52408 71.905374 
L 44.5743 73.066366 
L 44.67474 72.870132 
L 44.72496 72.019512 
L 44.77518 72.790318 
L 44.8254 72.703005 
L 44.87562 73.062104 
L 44.92584 72.245689 
L 45.0765 74.486953 
L 45.12672 72.230994 
L 45.17694 72.458589 
L 45.3276 73.792521 
L 45.37782 72.553075 
L 45.42804 73.313717 
L 45.47826 73.981849 
L 45.5787 72.276841 
L 45.62892 73.891799 
L 45.72936 73.587477 
L 45.77958 74.183171 
L 45.88002 73.269224 
L 45.93024 74.035074 
L 45.98046 73.918357 
L 46.0809 73.419294 
L 46.13112 74.130171 
L 46.18134 73.998626 
L 46.332 72.19106 
L 46.53288 74.93866 
L 46.63332 73.118144 
L 46.73376 76.115679 
L 46.78398 74.672873 
L 46.8342 73.190182 
L 46.88442 75.09823 
L 46.93464 74.957515 
L 47.03508 73.069465 
L 47.13552 75.093749 
L 47.18574 74.611323 
L 47.3364 75.490759 
L 47.38662 75.560499 
L 47.43684 73.604151 
L 47.53728 73.918195 
L 47.5875 73.506215 
L 47.73816 75.4601 
L 47.78838 75.060277 
L 47.8386 76.027816 
L 47.98926 74.117591 
L 48.0897 77.459993 
L 48.13992 76.142464 
L 48.29058 75.114043 
L 48.39102 76.705721 
L 48.44124 74.994231 
L 48.54168 75.34355 
L 48.64212 77.063013 
L 48.69234 76.582707 
L 48.74256 76.416401 
L 48.79278 74.412115 
L 48.843 77.170974 
L 48.89322 77.108079 
L 48.99366 74.301648 
L 49.04388 75.79249 
L 49.0941 75.886435 
L 49.14432 77.218625 
L 49.19454 75.810897 
L 49.24476 77.016517 
L 49.29498 75.236037 
L 49.3452 76.813091 
L 49.44564 76.766838 
L 49.54608 78.60059 
L 49.5963 76.725819 
L 49.69674 77.047631 
L 49.74696 75.745365 
L 49.79718 76.866616 
L 49.89762 78.373704 
L 49.99806 75.523095 
L 50.14872 77.989539 
L 50.24916 78.871975 
L 50.29938 80.294628 
L 50.3496 75.294052 
L 50.39982 76.716369 
L 50.45004 78.498861 
L 50.50026 76.627868 
L 50.65092 78.461444 
L 50.70114 75.646257 
L 50.75136 77.037346 
L 50.80158 78.555763 
L 50.8518 76.811831 
L 51.1029 79.617319 
L 51.20334 78.369025 
L 51.25356 78.955224 
L 51.30378 76.863659 
L 51.354 79.836618 
L 51.40422 79.035374 
L 51.55488 76.777638 
L 51.65532 79.280836 
L 51.80598 77.391739 
L 52.1073 81.966063 
L 52.15752 80.155054 
L 52.20774 80.477446 
L 52.25796 80.906218 
L 52.3584 78.061173 
L 52.40862 81.000466 
L 52.45884 80.764318 
L 52.50906 79.896116 
L 52.55928 80.597925 
L 52.6095 80.595761 
L 52.65972 80.414636 
L 52.70994 80.857244 
L 52.8606 77.703691 
L 53.01126 80.410852 
L 53.06148 80.070397 
L 53.1117 78.779314 
L 53.16192 81.752598 
L 53.26236 81.535734 
L 53.3628 80.683479 
L 53.41302 81.572052 
L 53.51346 77.688824 
L 53.56368 79.882391 
L 53.66412 79.391057 
L 53.81478 83.383442 
L 53.865 80.159441 
L 53.96544 80.394281 
L 54.16632 82.719172 
L 54.31698 79.244054 
L 54.41742 83.150134 
L 54.46764 82.401768 
L 54.51786 82.913524 
L 54.66852 81.039927 
L 54.81918 82.560293 
L 54.8694 82.233622 
L 54.91962 80.665355 
L 54.96984 83.157628 
L 55.02006 80.502255 
L 55.07028 80.470423 
L 55.1205 81.96757 
L 55.22094 81.955457 
L 55.32138 79.850883 
L 55.47204 84.297625 
L 55.57248 80.69989 
L 55.6227 81.360178 
L 55.67292 81.446838 
L 55.72314 81.116424 
L 55.77336 81.900401 
L 55.82358 80.603253 
L 55.97424 83.581403 
L 56.07468 80.629082 
L 56.1249 82.199591 
L 56.27556 83.642293 
L 56.376 80.411004 
L 56.42622 82.473451 
L 56.52666 82.366113 
L 56.6271 81.240757 
L 56.67732 82.848543 
L 56.72754 80.710592 
L 56.77776 82.512199 
L 56.82798 81.221143 
L 56.92842 83.443689 
L 56.97864 81.228165 
L 57.02886 82.822571 
L 57.07908 82.787556 
L 57.1293 80.922023 
L 57.17952 83.051488 
L 57.22974 81.964023 
L 57.33018 83.654552 
L 57.43062 81.567162 
L 57.53106 81.914496 
L 57.6315 83.922916 
L 57.68172 82.482583 
L 57.83238 81.561613 
L 57.8826 83.046088 
L 57.98304 83.008603 
L 58.08348 80.961886 
L 58.18392 83.861383 
L 58.23414 83.194949 
L 58.28436 81.091843 
L 58.33458 83.240876 
L 58.3848 82.136709 
L 58.43502 83.802 
L 58.48524 82.149276 
L 58.53546 82.400226 
L 58.58568 81.994534 
L 58.6359 83.63659 
L 58.68612 82.498947 
L 58.78656 83.74131 
L 58.83678 83.127057 
L 58.887 82.179007 
L 58.98744 83.556094 
L 59.08788 82.459789 
L 59.18832 82.312567 
L 59.23854 83.738852 
L 59.28876 82.475606 
L 59.33898 83.328172 
L 59.3892 84.294495 
L 59.53986 82.417911 
L 59.59008 83.907713 
L 59.6403 83.073795 
L 59.69052 82.628609 
L 59.84118 83.879012 
L 59.8914 83.957622 
L 59.94162 82.466355 
L 59.99184 83.852595 
L 60.04206 83.650698 
L 60.09228 82.62727 
L 60.19272 84.109317 
L 60.24294 82.496306 
L 60.29316 83.889932 
L 60.3936 83.355232 
L 60.44382 83.58039 
L 60.49404 84.019752 
L 60.59448 82.674228 
L 60.6447 84.040963 
L 60.74514 84.020337 
L 60.84558 84.055376 
L 60.94602 83.247124 
L 60.99624 82.245636 
L 61.1469 84.006915 
L 61.29756 83.019485 
L 61.44822 83.9839 
L 61.49844 82.651248 
L 61.54866 83.983803 
L 61.59888 83.104852 
L 61.6491 83.952113 
L 61.74954 83.39317 
L 61.9002 84.137408 
L 61.95042 84.157491 
L 62.00064 83.672177 
L 62.05086 84.318714 
L 62.10108 84.069111 
L 62.20152 84.157772 
L 62.25174 83.452249 
L 62.4024 84.390817 
L 62.50284 83.538095 
L 62.55306 84.091804 
L 62.60328 83.780885 
L 62.6535 83.758975 
L 62.75394 83.972992 
L 62.80416 83.934834 
L 62.85438 83.738499 
L 62.9046 84.174866 
L 62.95482 84.115565 
L 63.05526 83.786552 
L 63.10548 84.20271 
L 63.1557 83.601017 
L 63.20592 84.193336 
L 63.30636 83.672185 
L 63.35658 84.292318 
L 63.4068 83.945462 
L 63.45702 83.891312 
L 63.50724 84.135414 
L 63.55746 83.426081 
L 63.60768 84.277465 
L 63.6579 83.65194 
L 63.70812 84.241426 
L 63.75834 83.930524 
L 63.80856 83.964821 
L 63.85878 84.231713 
L 63.909 84.010882 
L 63.95922 83.753553 
L 64.10988 84.402705 
L 64.21032 83.813297 
L 64.26054 84.279916 
L 64.36098 84.26897 
L 64.4112 83.941536 
L 64.46142 84.252766 
L 64.56186 83.931949 
L 64.61208 84.23867 
L 64.6623 84.050747 
L 64.71252 83.972478 
L 64.81296 83.930888 
L 64.86318 84.318156 
L 64.9134 83.948921 
L 64.96362 84.248059 
L 65.01384 84.278453 
L 65.1645 83.951127 
L 65.21472 84.289793 
L 65.26494 84.211853 
L 65.31516 83.987054 
L 65.46582 84.298271 
L 65.6667 84.01208 
L 65.76714 84.334294 
L 65.81736 84.304878 
L 65.86758 83.985164 
L 65.9178 84.338186 
L 65.96802 84.312157 
L 66.11868 84.11673 
L 66.26934 84.377194 
L 66.31956 83.960018 
L 66.36978 84.371783 
L 66.52044 84.005934 
L 66.57066 84.371956 
L 66.62088 83.870744 
L 66.6711 84.410746 
L 66.72132 84.34096 
L 66.77154 84.047181 
L 66.82176 84.403248 
L 66.87198 84.081887 
L 67.02264 84.470961 
L 67.1733 84.193471 
L 67.22352 84.367522 
L 67.27374 84.349368 
L 67.4244 84.189037 
L 67.52484 84.414971 
L 67.57506 84.338527 
L 67.87638 84.349221 
L 67.9266 84.489907 
L 67.97682 84.329829 
L 68.07726 84.173407 
L 68.12748 84.448442 
L 68.1777 84.380914 
L 68.22792 84.158676 
L 68.37858 84.435649 
L 68.4288 83.980018 
L 68.47902 84.422086 
L 68.52924 84.365863 
L 68.57946 84.464346 
L 69.03144 84.456941 
L 69.13188 84.484501 
L 69.1821 84.208931 
L 69.23232 84.484981 
L 69.28254 84.023894 
L 69.33276 84.503479 
L 69.38298 84.565529 
L 69.4332 84.478408 
L 69.53364 84.329515 
L 69.63408 84.482581 
L 69.6843 84.33229 
L 69.78474 84.373228 
L 69.83496 84.259635 
L 69.98562 84.500071 
L 70.13628 84.38638 
L 70.28694 84.445941 
L 70.33716 84.299031 
L 70.38738 84.497579 
L 70.4376 84.47468 
L 70.48782 84.177833 
L 70.53804 84.509541 
L 70.6887 84.611929 
L 70.78914 84.422841 
L 70.9398 84.595398 
L 71.14068 84.51296 
L 71.24112 84.63738 
L 71.39178 84.457801 
L 71.49222 84.65833 
L 71.54244 84.345846 
L 71.59266 84.57166 
L 71.6931 84.655017 
L 71.9442 84.435581 
L 72.09486 84.631495 
L 72.1953 84.478421 
L 72.24552 84.565021 
L 72.39618 84.54523 
L 72.49662 84.62731 
L 72.64728 84.716997 
L 72.6975 84.71706 
L 72.79794 84.491325 
L 72.84816 84.710306 
L 72.89838 84.483509 
L 73.04904 84.728933 
L 73.09926 84.666675 
L 73.1997 84.903122 
L 73.24992 84.5821 
L 73.30014 84.743329 
L 73.4508 84.599551 
L 73.50102 84.822717 
L 73.55124 84.600033 
L 73.7019 84.735663 
L 74.10366 84.778842 
L 74.25432 84.89691 
L 74.30454 84.721891 
L 74.35476 84.840348 
L 74.60586 84.754845 
L 74.80674 85.109839 
L 74.9574 84.780334 
L 75.00762 84.989618 
L 75.05784 84.782185 
L 75.30894 85.05373 
L 75.40938 84.895095 
L 75.50982 85.028648 
L 75.61026 84.891945 
L 75.76092 84.974853 
L 75.86136 84.996948 
L 76.01202 85.034892 
L 76.06224 85.014075 
L 76.11246 85.123024 
L 76.16268 84.98573 
L 76.31334 85.220436 
L 76.41378 84.877824 
L 76.464 84.971949 
L 76.56444 85.176561 
L 76.61466 85.075062 
L 76.81554 85.110075 
L 76.91598 85.361582 
L 76.9662 85.263093 
L 77.01642 84.939074 
L 77.06664 85.177824 
L 77.2173 85.113456 
L 77.41818 85.285311 
L 77.51862 85.276856 
L 77.56884 84.992863 
L 77.61906 85.050101 
L 77.76972 85.295001 
L 77.81994 85.356721 
L 77.87016 85.293582 
L 77.92038 84.965016 
L 77.9706 85.164569 
L 78.17148 85.512701 
L 78.2217 85.320729 
L 78.27192 85.40155 
L 78.32214 85.437203 
L 78.37236 85.36253 
L 78.4728 85.281557 
L 78.52302 85.075781 
L 78.57324 85.481895 
L 78.67368 85.464501 
L 78.7239 85.094512 
L 78.77412 85.284356 
L 78.82434 85.433089 
L 78.87456 85.077277 
L 78.92478 85.27307 
L 78.975 85.369141 
L 79.02522 85.30926 
L 79.07544 85.280051 
L 79.12566 85.371215 
L 79.2261 85.594059 
L 79.27632 85.461105 
L 79.32654 85.509431 
L 79.62786 85.589138 
L 79.67808 85.51232 
L 79.77852 85.718528 
L 79.87896 85.401519 
L 80.02962 85.645713 
L 80.07984 85.668474 
L 80.13006 84.829258 
L 80.18028 85.462602 
L 80.2305 85.594323 
L 80.28072 85.389787 
L 80.33094 85.523738 
L 80.4816 85.738452 
L 80.53182 85.736562 
L 80.68248 84.976572 
L 80.83314 85.671446 
L 80.9838 85.757524 
L 81.18468 85.483801 
L 81.2349 85.699888 
L 81.28512 85.569206 
L 81.33534 85.38955 
L 81.38556 85.529531 
L 81.53622 85.755933 
L 81.58644 85.595334 
L 81.63666 85.668339 
L 81.7371 85.789716 
L 81.83754 85.44086 
L 81.88776 85.620265 
L 81.9882 85.916234 
L 82.03842 85.455096 
L 82.08864 85.623917 
L 82.2393 85.677021 
L 82.28952 85.132581 
L 82.33974 85.649558 
L 82.4904 85.678371 
L 82.59084 85.774205 
L 82.64106 84.85081 
L 82.69128 85.697419 
L 82.7415 85.412828 
L 82.79172 85.724271 
L 82.84194 85.906313 
L 82.89216 85.806372 
L 82.94238 85.827478 
L 82.9926 85.614441 
L 83.09304 85.671971 
L 83.14326 85.662122 
L 83.19348 85.835791 
L 83.2437 85.744502 
L 83.29392 85.674732 
L 83.39436 85.628859 
L 83.44458 85.820804 
L 83.4948 85.591397 
L 83.54502 85.752324 
L 83.59524 85.881537 
L 83.69568 85.839247 
L 83.84634 85.515054 
L 83.94678 85.861264 
L 84.09744 85.599978 
L 84.2481 85.818652 
L 84.44898 85.698544 
L 84.4992 85.862531 
L 84.54942 85.789179 
L 84.59964 85.670675 
L 84.64986 85.851923 
L 84.7503 85.816776 
L 84.80052 85.664464 
L 84.85074 85.837276 
L 85.20228 85.885654 
L 85.30272 85.965552 
L 85.45338 85.787905 
L 85.65426 85.823299 
L 85.70448 85.649041 
L 85.7547 85.855611 
L 85.80492 85.943597 
L 85.85514 85.813651 
L 85.90536 85.710853 
L 86.05602 85.875698 
L 86.20668 85.747575 
L 86.35734 85.91735 
L 86.508 85.877856 
L 86.65866 85.769541 
L 86.80932 85.891798 
L 86.90976 85.795568 
L 87.06042 85.929198 
L 87.11064 85.935278 
L 87.16086 85.78783 
L 87.21108 85.920185 
L 87.36174 85.879469 
L 87.56262 85.943577 
L 87.61284 85.825249 
L 87.66306 85.91764 
L 87.86394 85.76702 
L 87.91416 85.910812 
L 87.96438 85.870436 
L 88.0146 85.812124 
L 88.06482 85.931136 
L 88.16526 85.883635 
L 88.31592 85.935851 
L 88.46658 85.88588 
L 88.91856 85.921135 
L 89.06922 85.855123 
L 89.11944 85.955166 
L 89.16966 85.903589 
L 89.21988 85.855998 
L 89.2701 85.952146 
L 89.5212 85.899835 
L 90.22428 85.941354 
L 90.42516 85.903576 
L 90.57582 85.953539 
L 90.72648 85.863176 
L 90.87714 85.954171 
L 91.0278 85.875306 
L 91.17846 85.952237 
L 91.22868 85.888997 
L 91.2789 85.944044 
L 91.63044 85.953467 
L 91.7811 85.935008 
L 93.23748 85.955182 
L 93.5388 85.971204 
L 93.94056 85.956445 
L 94.69386 85.973121 
L 95.09562 85.977473 
L 96.90354 85.98581 
L 97.40574 85.978222 
L 98.3097 85.974716 
L 98.71146 85.991296 
L 111.8691 86.00983 
L 114.53076 86.012553 
L 115.98714 86.018325 
L 116.69022 86.015377 
L 116.69022 86.015377 
" clip-path="url(#pf8ccf2a1fc)" style="fill: none; stroke: #1f77b4; stroke-width: 1.5; stroke-linecap: square"/>
   </g>
   <g id="patch_3">
    <path d="M 16.2 89.712 
L 16.2 12.096 
" style="fill: none; stroke: #000000; stroke-width: 0.8; stroke-linejoin: miter; stroke-linecap: square"/>
   </g>
   <g id="patch_4">
    <path d="M 116.64 89.712 
L 116.64 12.096 
" style="fill: none; stroke: #000000; stroke-width: 0.8; stroke-linejoin: miter; stroke-linecap: square"/>
   </g>
   <g id="patch_5">
    <path d="M 16.2 89.712 
L 116.64 89.712 
" style="fill: none; stroke: #000000; stroke-width: 0.8; stroke-linejoin: miter; stroke-linecap: square"/>
   </g>
   <g id="patch_6">
    <path d="M 16.2 12.096 
L 116.64 12.096 
" style="fill: none; stroke: #000000; stroke-width: 0.8; stroke-linejoin: miter; stroke-linecap: square"/>
   </g>
   <g id="text_9">
    <!-- Loss Function over  -->
    <g transform="translate(27.9 -2.86225) scale(0.08 -0.08)">
     <defs>
      <path id="DejaVuSans-76" d="M 191 3500 
L 800 3500 
L 1894 563 
L 2988 3500 
L 3597 3500 
L 2284 0 
L 1503 0 
L 191 3500 
z
" transform="scale(0.015625)"/>
     </defs>
     <use xlink:href="#DejaVuSans-4c"/>
     <use xlink:href="#DejaVuSans-6f" x="53.962891"/>
     <use xlink:href="#DejaVuSans-73" x="115.144531"/>
     <use xlink:href="#DejaVuSans-73" x="167.244141"/>
     <use xlink:href="#DejaVuSans-20" x="219.34375"/>
     <use xlink:href="#DejaVuSans-46" x="251.130859"/>
     <use xlink:href="#DejaVuSans-75" x="303.150391"/>
     <use xlink:href="#DejaVuSans-6e" x="366.529297"/>
     <use xlink:href="#DejaVuSans-63" x="429.908203"/>
     <use xlink:href="#DejaVuSans-74" x="484.888672"/>
     <use xlink:href="#DejaVuSans-69" x="524.097656"/>
     <use xlink:href="#DejaVuSans-6f" x="551.880859"/>
     <use xlink:href="#DejaVuSans-6e" x="613.0625"/>
     <use xlink:href="#DejaVuSans-20" x="676.441406"/>
     <use xlink:href="#DejaVuSans-6f" x="708.228516"/>
     <use xlink:href="#DejaVuSans-76" x="769.410156"/>
     <use xlink:href="#DejaVuSans-65" x="828.589844"/>
     <use xlink:href="#DejaVuSans-72" x="890.113281"/>
     <use xlink:href="#DejaVuSans-20" x="931.226562"/>
    </g>
    <!--  number of Iterations -->
    <g transform="translate(24.08875 6.096) scale(0.08 -0.08)">
     <use xlink:href="#DejaVuSans-20"/>
     <use xlink:href="#DejaVuSans-6e" x="31.787109"/>
     <use xlink:href="#DejaVuSans-75" x="95.166016"/>
     <use xlink:href="#DejaVuSans-6d" x="158.544922"/>
     <use xlink:href="#DejaVuSans-62" x="255.957031"/>
     <use xlink:href="#DejaVuSans-65" x="319.433594"/>
     <use xlink:href="#DejaVuSans-72" x="380.957031"/>
     <use xlink:href="#DejaVuSans-20" x="422.070312"/>
     <use xlink:href="#DejaVuSans-6f" x="453.857422"/>
     <use xlink:href="#DejaVuSans-66" x="515.039062"/>
     <use xlink:href="#DejaVuSans-20" x="550.244141"/>
     <use xlink:href="#DejaVuSans-49" x="582.03125"/>
     <use xlink:href="#DejaVuSans-74" x="611.523438"/>
     <use xlink:href="#DejaVuSans-65" x="650.732422"/>
     <use xlink:href="#DejaVuSans-72" x="712.255859"/>
     <use xlink:href="#DejaVuSans-61" x="753.369141"/>
     <use xlink:href="#DejaVuSans-74" x="814.648438"/>
     <use xlink:href="#DejaVuSans-69" x="853.857422"/>
     <use xlink:href="#DejaVuSans-6f" x="881.640625"/>
     <use xlink:href="#DejaVuSans-6e" x="942.822266"/>
     <use xlink:href="#DejaVuSans-73" x="1006.201172"/>
    </g>
   </g>
  </g>
 </g>
 <defs>
  <clipPath id="pf8ccf2a1fc">
   <rect x="16.2" y="12.096" width="100.44" height="77.616"/>
  </clipPath>
 </defs>
</svg>
