<?xml version="1.0" encoding="utf-8" standalone="no"?>
<!DOCTYPE svg PUBLIC "-//W3C//DTD SVG 1.1//EN"
  "http://www.w3.org/Graphics/SVG/1.1/DTD/svg11.dtd">
<svg xmlns:xlink="http://www.w3.org/1999/xlink" width="203.9075pt" height="116.72625pt" viewBox="0 0 203.9075 116.72625" xmlns="http://www.w3.org/2000/svg" version="1.1">
 <metadata>
  <rdf:RDF xmlns:dc="http://purl.org/dc/elements/1.1/" xmlns:cc="http://creativecommons.org/ns#" xmlns:rdf="http://www.w3.org/1999/02/22-rdf-syntax-ns#">
   <cc:Work>
    <dc:type rdf:resource="http://purl.org/dc/dcmitype/StillImage"/>
    <dc:date>2025-05-02T19:10:36.774987</dc:date>
    <dc:format>image/svg+xml</dc:format>
    <dc:creator>
     <cc:Agent>
      <dc:title>Matplotlib v3.7.2, https://matplotlib.org/</dc:title>
     </cc:Agent>
    </dc:creator>
   </cc:Work>
  </rdf:RDF>
 </metadata>
 <defs>
  <style type="text/css">*{stroke-linejoin: round; stroke-linecap: butt}</style>
 </defs>
 <g id="figure_1">
  <g id="patch_1">
   <path d="M 0 116.72625 
L 203.9075 116.72625 
L 203.9075 0 
L 0 0 
z
" style="fill: #ffffff"/>
  </g>
  <g id="axes_1">
   <g id="patch_2">
    <path d="M 32.0975 74.36625 
L 97.9415 74.36625 
L 97.9415 18.92625 
L 32.0975 18.92625 
z
" style="fill: #ffffff"/>
   </g>
   <g id="PolyCollection_1">
    <defs>
     <path id="m633a57d0e7" d="M 32.0975 -42.36 
L 32.0975 -42.36 
L 33.021586 -43.08308 
L 33.945673 -43.695533 
L 34.869759 -43.478154 
L 35.793846 -43.651942 
L 36.717932 -42.454349 
L 37.642019 -45.970316 
L 38.566105 -48.61542 
L 39.490192 -50.022002 
L 40.414278 -52.764214 
L 41.338365 -55.606398 
L 42.262451 -58.357491 
L 43.186538 -59.716208 
L 44.110624 -61.026225 
L 45.034711 -61.028916 
L 45.958797 -62.306368 
L 46.882884 -63.16607 
L 47.80697 -65.590543 
L 48.731057 -68.610136 
L 49.655143 -73.180658 
L 50.57923 -80.50228 
L 51.503316 -88.534473 
L 52.427403 -90.100204 
L 53.351489 -87.16078 
L 54.275576 -79.187544 
L 55.199662 -71.598502 
L 56.123749 -64.872638 
L 57.047835 -61.649527 
L 57.971922 -60.364781 
L 58.896008 -57.337347 
L 59.820094 -56.73696 
L 60.744181 -56.544155 
L 61.668267 -56.955414 
L 62.592354 -57.411635 
L 63.51644 -57.354114 
L 64.440527 -57.094516 
L 65.364613 -58.904411 
L 66.2887 -58.685444 
L 67.212786 -59.18354 
L 68.136873 -60.684985 
L 69.060959 -61.487575 
L 69.985046 -62.455189 
L 70.909132 -63.845657 
L 71.833219 -64.509657 
L 72.757305 -66.552878 
L 73.681392 -68.122495 
L 74.605478 -68.690505 
L 75.529565 -69.26567 
L 76.453651 -71.289509 
L 77.377738 -71.014806 
L 78.301824 -71.128877 
L 79.225911 -73.740805 
L 80.149997 -74.817399 
L 81.074084 -75.688304 
L 81.99817 -75.413565 
L 82.922257 -75.564775 
L 83.846343 -72.558593 
L 84.77043 -68.688632 
L 85.694516 -66.874908 
L 86.618602 -64.867539 
L 87.542689 -62.791783 
L 88.466775 -61.178425 
L 89.390862 -59.257709 
L 90.314948 -57.791041 
L 91.239035 -55.603613 
L 92.163121 -55.808918 
L 93.087208 -54.056726 
L 94.011294 -52.880849 
L 94.935381 -52.209062 
L 95.859467 -51.234498 
L 96.783554 -51.299683 
L 97.70764 -49.906634 
L 97.70764 -52.196957 
L 97.70764 -52.196957 
L 96.783554 -52.642608 
L 95.859467 -53.929787 
L 94.935381 -55.282313 
L 94.011294 -55.263498 
L 93.087208 -56.632791 
L 92.163121 -57.128677 
L 91.239035 -58.358332 
L 90.314948 -60.348313 
L 89.390862 -61.327821 
L 88.466775 -62.206922 
L 87.542689 -64.086939 
L 86.618602 -66.342007 
L 85.694516 -68.491076 
L 84.77043 -72.049069 
L 83.846343 -74.56141 
L 82.922257 -77.543924 
L 81.99817 -79.800524 
L 81.074084 -78.216333 
L 80.149997 -77.392504 
L 79.225911 -76.93946 
L 78.301824 -76.887522 
L 77.377738 -75.570131 
L 76.453651 -74.211343 
L 75.529565 -72.773188 
L 74.605478 -71.360981 
L 73.681392 -70.607869 
L 72.757305 -70.245385 
L 71.833219 -68.680881 
L 70.909132 -67.341389 
L 69.985046 -65.583017 
L 69.060959 -64.427638 
L 68.136873 -63.447782 
L 67.212786 -61.85321 
L 66.2887 -61.256234 
L 65.364613 -60.422076 
L 64.440527 -59.40372 
L 63.51644 -59.386411 
L 62.592354 -59.541385 
L 61.668267 -59.329538 
L 60.744181 -58.837823 
L 59.820094 -58.396235 
L 58.896008 -59.753575 
L 57.971922 -62.638804 
L 57.047835 -65.572699 
L 56.123749 -71.115512 
L 55.199662 -78.472789 
L 54.275576 -85.844246 
L 53.351489 -89.567617 
L 52.427403 -93.130238 
L 51.503316 -90.016213 
L 50.57923 -83.17684 
L 49.655143 -76.241256 
L 48.731057 -71.202529 
L 47.80697 -66.591842 
L 46.882884 -66.391095 
L 45.958797 -64.383811 
L 45.034711 -65.129406 
L 44.110624 -64.310879 
L 43.186538 -60.383673 
L 42.262451 -58.919404 
L 41.338365 -58.449972 
L 40.414278 -53.48979 
L 39.490192 -51.175144 
L 38.566105 -48.707201 
L 37.642019 -47.217823 
L 36.717932 -45.090402 
L 35.793846 -45.022961 
L 34.869759 -45.593427 
L 33.945673 -44.544338 
L 33.021586 -43.48838 
L 32.0975 -42.36 
z
" style="stroke: #808080; stroke-opacity: 0.4"/>
    </defs>
    <g clip-path="url(#p4c16c1843a)">
     <use xlink:href="#m633a57d0e7" x="0" y="116.72625" style="fill: #808080; fill-opacity: 0.4; stroke: #808080; stroke-opacity: 0.4"/>
    </g>
   </g>
   <g id="matplotlib.axis_1">
    <g id="xtick_1">
     <g id="line2d_1">
      <path d="M 32.0975 74.36625 
L 32.0975 18.92625 
" clip-path="url(#p4c16c1843a)" style="fill: none; stroke-dasharray: 0.5,0.825; stroke-dashoffset: 0; stroke: #b0b0b0; stroke-width: 0.5"/>
     </g>
     <g id="line2d_2">
      <defs>
       <path id="m56a811e16a" d="M 0 0 
L 0 3.5 
" style="stroke: #000000; stroke-width: 0.8"/>
      </defs>
      <g>
       <use xlink:href="#m56a811e16a" x="32.0975" y="74.36625" style="stroke: #000000; stroke-width: 0.8"/>
      </g>
     </g>
    </g>
    <g id="xtick_2">
     <g id="line2d_3">
      <path d="M 41.233355 74.36625 
L 41.233355 18.92625 
" clip-path="url(#p4c16c1843a)" style="fill: none; stroke-dasharray: 0.5,0.825; stroke-dashoffset: 0; stroke: #b0b0b0; stroke-width: 0.5"/>
     </g>
     <g id="line2d_4">
      <g>
       <use xlink:href="#m56a811e16a" x="41.233355" y="74.36625" style="stroke: #000000; stroke-width: 0.8"/>
      </g>
     </g>
    </g>
    <g id="xtick_3">
     <g id="line2d_5">
      <path d="M 50.36921 74.36625 
L 50.36921 18.92625 
" clip-path="url(#p4c16c1843a)" style="fill: none; stroke-dasharray: 0.5,0.825; stroke-dashoffset: 0; stroke: #b0b0b0; stroke-width: 0.5"/>
     </g>
     <g id="line2d_6">
      <g>
       <use xlink:href="#m56a811e16a" x="50.36921" y="74.36625" style="stroke: #000000; stroke-width: 0.8"/>
      </g>
     </g>
    </g>
    <g id="xtick_4">
     <g id="line2d_7">
      <path d="M 59.505065 74.36625 
L 59.505065 18.92625 
" clip-path="url(#p4c16c1843a)" style="fill: none; stroke-dasharray: 0.5,0.825; stroke-dashoffset: 0; stroke: #b0b0b0; stroke-width: 0.5"/>
     </g>
     <g id="line2d_8">
      <g>
       <use xlink:href="#m56a811e16a" x="59.505065" y="74.36625" style="stroke: #000000; stroke-width: 0.8"/>
      </g>
     </g>
    </g>
    <g id="xtick_5">
     <g id="line2d_9">
      <path d="M 68.64092 74.36625 
L 68.64092 18.92625 
" clip-path="url(#p4c16c1843a)" style="fill: none; stroke-dasharray: 0.5,0.825; stroke-dashoffset: 0; stroke: #b0b0b0; stroke-width: 0.5"/>
     </g>
     <g id="line2d_10">
      <g>
       <use xlink:href="#m56a811e16a" x="68.64092" y="74.36625" style="stroke: #000000; stroke-width: 0.8"/>
      </g>
     </g>
    </g>
    <g id="xtick_6">
     <g id="line2d_11">
      <path d="M 77.776775 74.36625 
L 77.776775 18.92625 
" clip-path="url(#p4c16c1843a)" style="fill: none; stroke-dasharray: 0.5,0.825; stroke-dashoffset: 0; stroke: #b0b0b0; stroke-width: 0.5"/>
     </g>
     <g id="line2d_12">
      <g>
       <use xlink:href="#m56a811e16a" x="77.776775" y="74.36625" style="stroke: #000000; stroke-width: 0.8"/>
      </g>
     </g>
     <g id="text_1">
      <!-- 500 -->
      <g transform="translate(72.771931 85.660938) scale(0.06 -0.06)">
       <defs>
        <path id="ArialMT-35" d="M 266 1200 
L 856 1250 
Q 922 819 1161 601 
Q 1400 384 1738 384 
Q 2144 384 2425 690 
Q 2706 997 2706 1503 
Q 2706 1984 2436 2262 
Q 2166 2541 1728 2541 
Q 1456 2541 1237 2417 
Q 1019 2294 894 2097 
L 366 2166 
L 809 4519 
L 3088 4519 
L 3088 3981 
L 1259 3981 
L 1013 2750 
Q 1425 3038 1878 3038 
Q 2478 3038 2890 2622 
Q 3303 2206 3303 1553 
Q 3303 931 2941 478 
Q 2500 -78 1738 -78 
Q 1113 -78 717 272 
Q 322 622 266 1200 
z
" transform="scale(0.015625)"/>
        <path id="ArialMT-30" d="M 266 2259 
Q 266 3072 433 3567 
Q 600 4063 929 4331 
Q 1259 4600 1759 4600 
Q 2128 4600 2406 4451 
Q 2684 4303 2865 4023 
Q 3047 3744 3150 3342 
Q 3253 2941 3253 2259 
Q 3253 1453 3087 958 
Q 2922 463 2592 192 
Q 2263 -78 1759 -78 
Q 1097 -78 719 397 
Q 266 969 266 2259 
z
M 844 2259 
Q 844 1131 1108 757 
Q 1372 384 1759 384 
Q 2147 384 2411 759 
Q 2675 1134 2675 2259 
Q 2675 3391 2411 3762 
Q 2147 4134 1753 4134 
Q 1366 4134 1134 3806 
Q 844 3388 844 2259 
z
" transform="scale(0.015625)"/>
       </defs>
       <use xlink:href="#ArialMT-35"/>
       <use xlink:href="#ArialMT-30" x="55.615234"/>
       <use xlink:href="#ArialMT-30" x="111.230469"/>
      </g>
     </g>
    </g>
    <g id="xtick_7">
     <g id="line2d_13">
      <path d="M 86.91263 74.36625 
L 86.91263 18.92625 
" clip-path="url(#p4c16c1843a)" style="fill: none; stroke-dasharray: 0.5,0.825; stroke-dashoffset: 0; stroke: #b0b0b0; stroke-width: 0.5"/>
     </g>
     <g id="line2d_14">
      <g>
       <use xlink:href="#m56a811e16a" x="86.91263" y="74.36625" style="stroke: #000000; stroke-width: 0.8"/>
      </g>
     </g>
    </g>
    <g id="xtick_8">
     <g id="line2d_15">
      <path d="M 96.048485 74.36625 
L 96.048485 18.92625 
" clip-path="url(#p4c16c1843a)" style="fill: none; stroke-dasharray: 0.5,0.825; stroke-dashoffset: 0; stroke: #b0b0b0; stroke-width: 0.5"/>
     </g>
     <g id="line2d_16">
      <g>
       <use xlink:href="#m56a811e16a" x="96.048485" y="74.36625" style="stroke: #000000; stroke-width: 0.8"/>
      </g>
     </g>
    </g>
    <g id="text_2">
     <!-- Time (min) -->
     <g transform="translate(50.800906 95.22125) scale(0.06 -0.06)">
      <defs>
       <path id="ArialMT-54" d="M 1659 0 
L 1659 4041 
L 150 4041 
L 150 4581 
L 3781 4581 
L 3781 4041 
L 2266 4041 
L 2266 0 
L 1659 0 
z
" transform="scale(0.015625)"/>
       <path id="ArialMT-69" d="M 425 3934 
L 425 4581 
L 988 4581 
L 988 3934 
L 425 3934 
z
M 425 0 
L 425 3319 
L 988 3319 
L 988 0 
L 425 0 
z
" transform="scale(0.015625)"/>
       <path id="ArialMT-6d" d="M 422 0 
L 422 3319 
L 925 3319 
L 925 2853 
Q 1081 3097 1340 3245 
Q 1600 3394 1931 3394 
Q 2300 3394 2536 3241 
Q 2772 3088 2869 2813 
Q 3263 3394 3894 3394 
Q 4388 3394 4653 3120 
Q 4919 2847 4919 2278 
L 4919 0 
L 4359 0 
L 4359 2091 
Q 4359 2428 4304 2576 
Q 4250 2725 4106 2815 
Q 3963 2906 3769 2906 
Q 3419 2906 3187 2673 
Q 2956 2441 2956 1928 
L 2956 0 
L 2394 0 
L 2394 2156 
Q 2394 2531 2256 2718 
Q 2119 2906 1806 2906 
Q 1569 2906 1367 2781 
Q 1166 2656 1075 2415 
Q 984 2175 984 1722 
L 984 0 
L 422 0 
z
" transform="scale(0.015625)"/>
       <path id="ArialMT-65" d="M 2694 1069 
L 3275 997 
Q 3138 488 2766 206 
Q 2394 -75 1816 -75 
Q 1088 -75 661 373 
Q 234 822 234 1631 
Q 234 2469 665 2931 
Q 1097 3394 1784 3394 
Q 2450 3394 2872 2941 
Q 3294 2488 3294 1666 
Q 3294 1616 3291 1516 
L 816 1516 
Q 847 969 1125 678 
Q 1403 388 1819 388 
Q 2128 388 2347 550 
Q 2566 713 2694 1069 
z
M 847 1978 
L 2700 1978 
Q 2663 2397 2488 2606 
Q 2219 2931 1791 2931 
Q 1403 2931 1139 2672 
Q 875 2413 847 1978 
z
" transform="scale(0.015625)"/>
       <path id="ArialMT-20" transform="scale(0.015625)"/>
       <path id="ArialMT-28" d="M 1497 -1347 
Q 1031 -759 709 28 
Q 388 816 388 1659 
Q 388 2403 628 3084 
Q 909 3875 1497 4659 
L 1900 4659 
Q 1522 4009 1400 3731 
Q 1209 3300 1100 2831 
Q 966 2247 966 1656 
Q 966 153 1900 -1347 
L 1497 -1347 
z
" transform="scale(0.015625)"/>
       <path id="ArialMT-6e" d="M 422 0 
L 422 3319 
L 928 3319 
L 928 2847 
Q 1294 3394 1984 3394 
Q 2284 3394 2536 3286 
Q 2788 3178 2913 3003 
Q 3038 2828 3088 2588 
Q 3119 2431 3119 2041 
L 3119 0 
L 2556 0 
L 2556 2019 
Q 2556 2363 2490 2533 
Q 2425 2703 2258 2804 
Q 2091 2906 1866 2906 
Q 1506 2906 1245 2678 
Q 984 2450 984 1813 
L 984 0 
L 422 0 
z
" transform="scale(0.015625)"/>
       <path id="ArialMT-29" d="M 791 -1347 
L 388 -1347 
Q 1322 153 1322 1656 
Q 1322 2244 1188 2822 
Q 1081 3291 891 3722 
Q 769 4003 388 4659 
L 791 4659 
Q 1378 3875 1659 3084 
Q 1900 2403 1900 1659 
Q 1900 816 1576 28 
Q 1253 -759 791 -1347 
z
" transform="scale(0.015625)"/>
      </defs>
      <use xlink:href="#ArialMT-54"/>
      <use xlink:href="#ArialMT-69" x="57.333984"/>
      <use xlink:href="#ArialMT-6d" x="79.550781"/>
      <use xlink:href="#ArialMT-65" x="162.851562"/>
      <use xlink:href="#ArialMT-20" x="218.466797"/>
      <use xlink:href="#ArialMT-28" x="246.25"/>
      <use xlink:href="#ArialMT-6d" x="279.550781"/>
      <use xlink:href="#ArialMT-69" x="362.851562"/>
      <use xlink:href="#ArialMT-6e" x="385.068359"/>
      <use xlink:href="#ArialMT-29" x="440.683594"/>
     </g>
    </g>
   </g>
   <g id="matplotlib.axis_2">
    <g id="ytick_1">
     <g id="line2d_17">
      <path d="M 32.0975 74.36625 
L 97.9415 74.36625 
" clip-path="url(#p4c16c1843a)" style="fill: none; stroke-dasharray: 0.5,0.825; stroke-dashoffset: 0; stroke: #b0b0b0; stroke-width: 0.5"/>
     </g>
     <g id="line2d_18">
      <defs>
       <path id="m560363e4b4" d="M 0 0 
L -3.5 0 
" style="stroke: #000000; stroke-width: 0.8"/>
      </defs>
      <g>
       <use xlink:href="#m560363e4b4" x="32.0975" y="74.36625" style="stroke: #000000; stroke-width: 0.8"/>
      </g>
     </g>
     <g id="text_3">
      <!-- 0 -->
      <g transform="translate(21.760938 76.513594) scale(0.06 -0.06)">
       <use xlink:href="#ArialMT-30"/>
      </g>
     </g>
    </g>
    <g id="ytick_2">
     <g id="line2d_19">
      <path d="M 32.0975 61.76625 
L 97.9415 61.76625 
" clip-path="url(#p4c16c1843a)" style="fill: none; stroke-dasharray: 0.5,0.825; stroke-dashoffset: 0; stroke: #b0b0b0; stroke-width: 0.5"/>
     </g>
     <g id="line2d_20">
      <g>
       <use xlink:href="#m560363e4b4" x="32.0975" y="61.76625" style="stroke: #000000; stroke-width: 0.8"/>
      </g>
     </g>
    </g>
    <g id="ytick_3">
     <g id="line2d_21">
      <path d="M 32.0975 49.16625 
L 97.9415 49.16625 
" clip-path="url(#p4c16c1843a)" style="fill: none; stroke-dasharray: 0.5,0.825; stroke-dashoffset: 0; stroke: #b0b0b0; stroke-width: 0.5"/>
     </g>
     <g id="line2d_22">
      <g>
       <use xlink:href="#m560363e4b4" x="32.0975" y="49.16625" style="stroke: #000000; stroke-width: 0.8"/>
      </g>
     </g>
     <g id="text_4">
      <!-- 0.5 -->
      <g transform="translate(16.7575 51.313594) scale(0.06 -0.06)">
       <defs>
        <path id="ArialMT-2e" d="M 581 0 
L 581 641 
L 1222 641 
L 1222 0 
L 581 0 
z
" transform="scale(0.015625)"/>
       </defs>
       <use xlink:href="#ArialMT-30"/>
       <use xlink:href="#ArialMT-2e" x="55.615234"/>
       <use xlink:href="#ArialMT-35" x="83.398438"/>
      </g>
     </g>
    </g>
    <g id="ytick_4">
     <g id="line2d_23">
      <path d="M 32.0975 36.56625 
L 97.9415 36.56625 
" clip-path="url(#p4c16c1843a)" style="fill: none; stroke-dasharray: 0.5,0.825; stroke-dashoffset: 0; stroke: #b0b0b0; stroke-width: 0.5"/>
     </g>
     <g id="line2d_24">
      <g>
       <use xlink:href="#m560363e4b4" x="32.0975" y="36.56625" style="stroke: #000000; stroke-width: 0.8"/>
      </g>
     </g>
    </g>
    <g id="ytick_5">
     <g id="line2d_25">
      <path d="M 32.0975 23.96625 
L 97.9415 23.96625 
" clip-path="url(#p4c16c1843a)" style="fill: none; stroke-dasharray: 0.5,0.825; stroke-dashoffset: 0; stroke: #b0b0b0; stroke-width: 0.5"/>
     </g>
     <g id="line2d_26">
      <g>
       <use xlink:href="#m560363e4b4" x="32.0975" y="23.96625" style="stroke: #000000; stroke-width: 0.8"/>
      </g>
     </g>
     <g id="text_5">
      <!-- 1 -->
      <g transform="translate(21.760938 26.113594) scale(0.06 -0.06)">
       <defs>
        <path id="ArialMT-31" d="M 2384 0 
L 1822 0 
L 1822 3584 
Q 1619 3391 1289 3197 
Q 959 3003 697 2906 
L 697 3450 
Q 1169 3672 1522 3987 
Q 1875 4303 2022 4600 
L 2384 4600 
L 2384 0 
z
" transform="scale(0.015625)"/>
       </defs>
       <use xlink:href="#ArialMT-31"/>
      </g>
     </g>
    </g>
    <g id="text_6">
     <!-- Normalized FL signal -->
     <g transform="translate(11.494688 74.709844) rotate(-90) scale(0.06 -0.06)">
      <defs>
       <path id="ArialMT-4e" d="M 488 0 
L 488 4581 
L 1109 4581 
L 3516 984 
L 3516 4581 
L 4097 4581 
L 4097 0 
L 3475 0 
L 1069 3600 
L 1069 0 
L 488 0 
z
" transform="scale(0.015625)"/>
       <path id="ArialMT-6f" d="M 213 1659 
Q 213 2581 725 3025 
Q 1153 3394 1769 3394 
Q 2453 3394 2887 2945 
Q 3322 2497 3322 1706 
Q 3322 1066 3130 698 
Q 2938 331 2570 128 
Q 2203 -75 1769 -75 
Q 1072 -75 642 372 
Q 213 819 213 1659 
z
M 791 1659 
Q 791 1022 1069 705 
Q 1347 388 1769 388 
Q 2188 388 2466 706 
Q 2744 1025 2744 1678 
Q 2744 2294 2464 2611 
Q 2184 2928 1769 2928 
Q 1347 2928 1069 2612 
Q 791 2297 791 1659 
z
" transform="scale(0.015625)"/>
       <path id="ArialMT-72" d="M 416 0 
L 416 3319 
L 922 3319 
L 922 2816 
Q 1116 3169 1280 3281 
Q 1444 3394 1641 3394 
Q 1925 3394 2219 3213 
L 2025 2691 
Q 1819 2813 1613 2813 
Q 1428 2813 1281 2702 
Q 1134 2591 1072 2394 
Q 978 2094 978 1738 
L 978 0 
L 416 0 
z
" transform="scale(0.015625)"/>
       <path id="ArialMT-61" d="M 2588 409 
Q 2275 144 1986 34 
Q 1697 -75 1366 -75 
Q 819 -75 525 192 
Q 231 459 231 875 
Q 231 1119 342 1320 
Q 453 1522 633 1644 
Q 813 1766 1038 1828 
Q 1203 1872 1538 1913 
Q 2219 1994 2541 2106 
Q 2544 2222 2544 2253 
Q 2544 2597 2384 2738 
Q 2169 2928 1744 2928 
Q 1347 2928 1158 2789 
Q 969 2650 878 2297 
L 328 2372 
Q 403 2725 575 2942 
Q 747 3159 1072 3276 
Q 1397 3394 1825 3394 
Q 2250 3394 2515 3294 
Q 2781 3194 2906 3042 
Q 3031 2891 3081 2659 
Q 3109 2516 3109 2141 
L 3109 1391 
Q 3109 606 3145 398 
Q 3181 191 3288 0 
L 2700 0 
Q 2613 175 2588 409 
z
M 2541 1666 
Q 2234 1541 1622 1453 
Q 1275 1403 1131 1340 
Q 988 1278 909 1158 
Q 831 1038 831 891 
Q 831 666 1001 516 
Q 1172 366 1500 366 
Q 1825 366 2078 508 
Q 2331 650 2450 897 
Q 2541 1088 2541 1459 
L 2541 1666 
z
" transform="scale(0.015625)"/>
       <path id="ArialMT-6c" d="M 409 0 
L 409 4581 
L 972 4581 
L 972 0 
L 409 0 
z
" transform="scale(0.015625)"/>
       <path id="ArialMT-7a" d="M 125 0 
L 125 456 
L 2238 2881 
Q 1878 2863 1603 2863 
L 250 2863 
L 250 3319 
L 2963 3319 
L 2963 2947 
L 1166 841 
L 819 456 
Q 1197 484 1528 484 
L 3063 484 
L 3063 0 
L 125 0 
z
" transform="scale(0.015625)"/>
       <path id="ArialMT-64" d="M 2575 0 
L 2575 419 
Q 2259 -75 1647 -75 
Q 1250 -75 917 144 
Q 584 363 401 755 
Q 219 1147 219 1656 
Q 219 2153 384 2558 
Q 550 2963 881 3178 
Q 1213 3394 1622 3394 
Q 1922 3394 2156 3267 
Q 2391 3141 2538 2938 
L 2538 4581 
L 3097 4581 
L 3097 0 
L 2575 0 
z
M 797 1656 
Q 797 1019 1065 703 
Q 1334 388 1700 388 
Q 2069 388 2326 689 
Q 2584 991 2584 1609 
Q 2584 2291 2321 2609 
Q 2059 2928 1675 2928 
Q 1300 2928 1048 2622 
Q 797 2316 797 1656 
z
" transform="scale(0.015625)"/>
       <path id="ArialMT-46" d="M 525 0 
L 525 4581 
L 3616 4581 
L 3616 4041 
L 1131 4041 
L 1131 2622 
L 3281 2622 
L 3281 2081 
L 1131 2081 
L 1131 0 
L 525 0 
z
" transform="scale(0.015625)"/>
       <path id="ArialMT-4c" d="M 469 0 
L 469 4581 
L 1075 4581 
L 1075 541 
L 3331 541 
L 3331 0 
L 469 0 
z
" transform="scale(0.015625)"/>
       <path id="ArialMT-73" d="M 197 991 
L 753 1078 
Q 800 744 1014 566 
Q 1228 388 1613 388 
Q 2000 388 2187 545 
Q 2375 703 2375 916 
Q 2375 1106 2209 1216 
Q 2094 1291 1634 1406 
Q 1016 1563 777 1677 
Q 538 1791 414 1992 
Q 291 2194 291 2438 
Q 291 2659 392 2848 
Q 494 3038 669 3163 
Q 800 3259 1026 3326 
Q 1253 3394 1513 3394 
Q 1903 3394 2198 3281 
Q 2494 3169 2634 2976 
Q 2775 2784 2828 2463 
L 2278 2388 
Q 2241 2644 2061 2787 
Q 1881 2931 1553 2931 
Q 1166 2931 1000 2803 
Q 834 2675 834 2503 
Q 834 2394 903 2306 
Q 972 2216 1119 2156 
Q 1203 2125 1616 2013 
Q 2213 1853 2448 1751 
Q 2684 1650 2818 1456 
Q 2953 1263 2953 975 
Q 2953 694 2789 445 
Q 2625 197 2315 61 
Q 2006 -75 1616 -75 
Q 969 -75 630 194 
Q 291 463 197 991 
z
" transform="scale(0.015625)"/>
       <path id="ArialMT-67" d="M 319 -275 
L 866 -356 
Q 900 -609 1056 -725 
Q 1266 -881 1628 -881 
Q 2019 -881 2231 -725 
Q 2444 -569 2519 -288 
Q 2563 -116 2559 434 
Q 2191 0 1641 0 
Q 956 0 581 494 
Q 206 988 206 1678 
Q 206 2153 378 2554 
Q 550 2956 876 3175 
Q 1203 3394 1644 3394 
Q 2231 3394 2613 2919 
L 2613 3319 
L 3131 3319 
L 3131 450 
Q 3131 -325 2973 -648 
Q 2816 -972 2473 -1159 
Q 2131 -1347 1631 -1347 
Q 1038 -1347 672 -1080 
Q 306 -813 319 -275 
z
M 784 1719 
Q 784 1066 1043 766 
Q 1303 466 1694 466 
Q 2081 466 2343 764 
Q 2606 1063 2606 1700 
Q 2606 2309 2336 2618 
Q 2066 2928 1684 2928 
Q 1309 2928 1046 2623 
Q 784 2319 784 1719 
z
" transform="scale(0.015625)"/>
      </defs>
      <use xlink:href="#ArialMT-4e"/>
      <use xlink:href="#ArialMT-6f" x="72.216797"/>
      <use xlink:href="#ArialMT-72" x="127.832031"/>
      <use xlink:href="#ArialMT-6d" x="161.132812"/>
      <use xlink:href="#ArialMT-61" x="244.433594"/>
      <use xlink:href="#ArialMT-6c" x="300.048828"/>
      <use xlink:href="#ArialMT-69" x="322.265625"/>
      <use xlink:href="#ArialMT-7a" x="344.482422"/>
      <use xlink:href="#ArialMT-65" x="394.482422"/>
      <use xlink:href="#ArialMT-64" x="450.097656"/>
      <use xlink:href="#ArialMT-20" x="505.712891"/>
      <use xlink:href="#ArialMT-46" x="533.496094"/>
      <use xlink:href="#ArialMT-4c" x="594.580078"/>
      <use xlink:href="#ArialMT-20" x="646.445312"/>
      <use xlink:href="#ArialMT-73" x="674.228516"/>
      <use xlink:href="#ArialMT-69" x="724.228516"/>
      <use xlink:href="#ArialMT-67" x="746.445312"/>
      <use xlink:href="#ArialMT-6e" x="802.060547"/>
      <use xlink:href="#ArialMT-61" x="857.675781"/>
      <use xlink:href="#ArialMT-6c" x="913.291016"/>
     </g>
    </g>
   </g>
   <g id="line2d_27">
    <path d="M 32.0975 74.36625 
L 32.4633 74.260485 
L 32.73765 73.896837 
L 33.10345 72.932839 
L 33.5607 71.037785 
L 34.2923 66.931667 
L 38.59045 40.816017 
L 40.05365 33.953791 
L 41.33395 28.993614 
L 42.3399 25.931767 
L 43.16295 24.10067 
L 43.8031 23.168465 
L 44.3518 22.751927 
L 44.80905 22.693854 
L 45.2663 22.909535 
L 45.72355 23.403595 
L 46.27225 24.360187 
L 46.9124 25.951075 
L 47.73545 28.643789 
L 49.01575 33.756631 
L 50.7533 40.635652 
L 51.6678 43.431266 
L 52.49085 45.244387 
L 53.22245 46.303247 
L 53.8626 46.857276 
L 54.50275 47.130457 
L 55.23435 47.184256 
L 56.14885 46.99081 
L 57.42915 46.449759 
L 59.62395 45.233904 
L 63.5563 42.77641 
L 70.8723 38.122453 
L 72.97565 37.110228 
L 74.7132 36.50494 
L 76.3593 36.161594 
L 77.91395 36.062121 
L 79.4686 36.189366 
L 81.02325 36.543126 
L 82.66935 37.15662 
L 84.4069 38.05443 
L 86.2359 39.251655 
L 88.33925 40.90666 
L 90.71695 43.070016 
L 93.7348 46.136292 
L 97.85005 50.605606 
L 97.85005 50.605606 
" clip-path="url(#p4c16c1843a)" style="fill: none; stroke: #49beaa; stroke-linecap: square"/>
   </g>
   <g id="line2d_28">
    <path d="M 32.0975 74.36625 
L 32.73765 74.278907 
L 33.46925 73.92996 
L 35.11535 72.815896 
L 37.5845 70.925358 
L 39.0477 69.516268 
L 40.328 67.967333 
L 41.51685 66.178642 
L 42.7057 63.974545 
L 43.89455 61.27771 
L 45.0834 58.011479 
L 46.27225 54.104709 
L 47.55255 49.116075 
L 48.9243 42.837114 
L 50.5704 34.144147 
L 52.2165 25.438192 
L 52.49085 24.627861 
L 52.67375 24.557106 
L 52.85665 25.146151 
L 53.131 27.541036 
L 54.31985 40.637456 
L 54.86855 43.499865 
L 55.3258 44.871435 
L 55.78305 45.677184 
L 56.33175 46.186197 
L 56.88045 46.398469 
L 57.61205 46.429805 
L 58.70945 46.223264 
L 60.8128 45.549409 
L 65.3853 43.809118 
L 72.3355 40.904503 
L 76.3593 39.322598 
L 78.3712 38.760928 
L 79.74295 38.597871 
L 80.84035 38.682271 
L 81.8463 38.991792 
L 82.7608 39.507201 
L 83.76675 40.355882 
L 84.86415 41.612868 
L 86.14445 43.456074 
L 87.882 46.408029 
L 94.4664 58.039912 
L 96.4783 60.955319 
L 97.85005 62.707853 
L 97.85005 62.707853 
" clip-path="url(#p4c16c1843a)" style="fill: none; stroke: #ffba08; stroke-linecap: square"/>
   </g>
   <g id="line2d_29">
    <path d="M 32.0975 74.36625 
L 32.8291 74.277214 
L 34.01795 73.82647 
L 38.499 71.869012 
L 39.7793 70.965901 
L 40.96815 69.846556 
L 42.06555 68.491041 
L 43.0715 66.89194 
L 44.07745 64.851093 
L 44.99195 62.506835 
L 45.90645 59.576006 
L 46.82095 55.921363 
L 47.8269 50.895172 
L 48.83285 44.686307 
L 50.11315 35.279523 
L 51.4849 25.486109 
L 52.0336 23.023395 
L 52.3994 22.320953 
L 52.5823 22.316303 
L 52.7652 22.56167 
L 53.03955 23.408518 
L 53.40535 25.392968 
L 53.95405 29.826816 
L 55.78305 46.10003 
L 56.4232 49.637421 
L 57.06335 51.963901 
L 57.61205 53.232593 
L 58.16075 54.028806 
L 58.8009 54.550963 
L 59.44105 54.784358 
L 60.2641 54.818193 
L 61.27005 54.611504 
L 62.55035 54.111118 
L 64.19645 53.214547 
L 66.1169 51.899444 
L 68.22025 50.184866 
L 70.78085 47.79682 
L 76.3593 42.480752 
L 77.8225 41.458265 
L 79.01135 40.888785 
L 80.0173 40.638811 
L 80.9318 40.624582 
L 81.8463 40.831601 
L 82.7608 41.269692 
L 83.76675 42.01904 
L 84.86415 43.141169 
L 86.14445 44.806711 
L 87.6991 47.233795 
L 90.0768 51.429409 
L 93.64335 57.68323 
L 95.65525 60.752698 
L 97.48425 63.143377 
L 97.85005 63.574593 
L 97.85005 63.574593 
" clip-path="url(#p4c16c1843a)" style="fill: none; stroke: #207bff; stroke-linecap: square"/>
   </g>
   <g id="line2d_30">
    <path d="M 32.0975 74.36625 
L 32.737899 74.262551 
L 33.286813 73.88717 
L 34.018698 73.071452 
L 38.318522 67.774798 
L 40.605662 65.034195 
L 42.069432 62.932166 
L 43.441716 60.556667 
L 44.722515 57.86873 
L 45.911828 54.855497 
L 47.101141 51.225039 
L 48.290454 46.844623 
L 49.479767 41.571409 
L 50.66908 35.269165 
L 52.132849 26.130345 
L 52.590277 24.068757 
L 52.773249 23.99806 
L 52.95622 24.443234 
L 53.230677 25.902211 
L 53.77959 30.603863 
L 55.609303 47.942589 
L 56.341188 52.387421 
L 56.981587 54.963254 
L 57.530501 56.400512 
L 58.079414 57.310264 
L 58.628328 57.839888 
L 59.268727 58.12567 
L 59.909126 58.17082 
L 60.732497 58.001371 
L 61.830324 57.528701 
L 63.294094 56.630468 
L 65.032321 55.289031 
L 66.953519 53.511469 
L 68.966202 51.328731 
L 71.070371 48.70934 
L 73.723454 45.01831 
L 76.468022 41.247996 
L 77.56585 40.082858 
L 78.38922 39.488498 
L 79.121105 39.216717 
L 79.761505 39.196009 
L 80.401904 39.380385 
L 81.133789 39.831529 
L 81.957159 40.617087 
L 82.963501 41.914749 
L 84.2443 43.972194 
L 86.074012 47.380691 
L 90.739778 56.222327 
L 92.660976 59.312823 
L 94.399203 61.713922 
L 96.137429 63.741513 
L 97.875656 65.424455 
L 97.875656 65.424455 
" clip-path="url(#p4c16c1843a)" style="fill: none; stroke-dasharray: 3.7,1.6; stroke-dashoffset: 0; stroke: #000000"/>
   </g>
   <g id="patch_3">
    <path d="M 32.0975 74.36625 
L 32.0975 18.92625 
" style="fill: none; stroke: #000000; stroke-width: 0.8; stroke-linejoin: miter; stroke-linecap: square"/>
   </g>
   <g id="patch_4">
    <path d="M 97.9415 74.36625 
L 97.9415 18.92625 
" style="fill: none; stroke: #000000; stroke-width: 0.8; stroke-linejoin: miter; stroke-linecap: square"/>
   </g>
   <g id="patch_5">
    <path d="M 32.0975 74.36625 
L 97.9415 74.36625 
" style="fill: none; stroke: #000000; stroke-width: 0.8; stroke-linejoin: miter; stroke-linecap: square"/>
   </g>
   <g id="patch_6">
    <path d="M 32.0975 18.92625 
L 97.9415 18.92625 
" style="fill: none; stroke: #000000; stroke-width: 0.8; stroke-linejoin: miter; stroke-linecap: square"/>
   </g>
   <g id="text_7">
    <!-- GEC-aav -->
    <g transform="translate(48.57075 12.92625) scale(0.08 -0.08)">
     <defs>
      <path id="ArialMT-47" d="M 2638 1797 
L 2638 2334 
L 4578 2338 
L 4578 638 
Q 4131 281 3656 101 
Q 3181 -78 2681 -78 
Q 2006 -78 1454 211 
Q 903 500 622 1047 
Q 341 1594 341 2269 
Q 341 2938 620 3517 
Q 900 4097 1425 4378 
Q 1950 4659 2634 4659 
Q 3131 4659 3532 4498 
Q 3934 4338 4162 4050 
Q 4391 3763 4509 3300 
L 3963 3150 
Q 3859 3500 3706 3700 
Q 3553 3900 3268 4020 
Q 2984 4141 2638 4141 
Q 2222 4141 1919 4014 
Q 1616 3888 1430 3681 
Q 1244 3475 1141 3228 
Q 966 2803 966 2306 
Q 966 1694 1177 1281 
Q 1388 869 1791 669 
Q 2194 469 2647 469 
Q 3041 469 3416 620 
Q 3791 772 3984 944 
L 3984 1797 
L 2638 1797 
z
" transform="scale(0.015625)"/>
      <path id="ArialMT-45" d="M 506 0 
L 506 4581 
L 3819 4581 
L 3819 4041 
L 1113 4041 
L 1113 2638 
L 3647 2638 
L 3647 2100 
L 1113 2100 
L 1113 541 
L 3925 541 
L 3925 0 
L 506 0 
z
" transform="scale(0.015625)"/>
      <path id="ArialMT-43" d="M 3763 1606 
L 4369 1453 
Q 4178 706 3683 314 
Q 3188 -78 2472 -78 
Q 1731 -78 1267 223 
Q 803 525 561 1097 
Q 319 1669 319 2325 
Q 319 3041 592 3573 
Q 866 4106 1370 4382 
Q 1875 4659 2481 4659 
Q 3169 4659 3637 4309 
Q 4106 3959 4291 3325 
L 3694 3184 
Q 3534 3684 3231 3912 
Q 2928 4141 2469 4141 
Q 1941 4141 1586 3887 
Q 1231 3634 1087 3207 
Q 944 2781 944 2328 
Q 944 1744 1114 1308 
Q 1284 872 1643 656 
Q 2003 441 2422 441 
Q 2931 441 3284 734 
Q 3638 1028 3763 1606 
z
" transform="scale(0.015625)"/>
      <path id="ArialMT-2d" d="M 203 1375 
L 203 1941 
L 1931 1941 
L 1931 1375 
L 203 1375 
z
" transform="scale(0.015625)"/>
      <path id="ArialMT-76" d="M 1344 0 
L 81 3319 
L 675 3319 
L 1388 1331 
Q 1503 1009 1600 663 
Q 1675 925 1809 1294 
L 2547 3319 
L 3125 3319 
L 1869 0 
L 1344 0 
z
" transform="scale(0.015625)"/>
     </defs>
     <use xlink:href="#ArialMT-47"/>
     <use xlink:href="#ArialMT-45" x="77.783203"/>
     <use xlink:href="#ArialMT-43" x="144.482422"/>
     <use xlink:href="#ArialMT-2d" x="216.699219"/>
     <use xlink:href="#ArialMT-61" x="250"/>
     <use xlink:href="#ArialMT-61" x="305.615234"/>
     <use xlink:href="#ArialMT-76" x="361.230469"/>
    </g>
   </g>
  </g>
  <g id="axes_2">
   <g id="patch_7">
    <path d="M 130.8635 74.36625 
L 196.7075 74.36625 
L 196.7075 18.92625 
L 130.8635 18.92625 
z
" style="fill: #ffffff"/>
   </g>
   <g id="PolyCollection_2">
    <defs>
     <path id="m7ce28f33dd" d="M 130.8635 -42.36 
L 130.8635 -42.36 
L 131.785545 -42.399967 
L 132.707589 -42.389157 
L 133.629634 -42.581874 
L 134.551679 -42.483963 
L 135.473723 -42.575801 
L 136.395768 -42.763749 
L 137.317812 -42.731514 
L 138.239857 -43.006032 
L 139.161902 -43.06499 
L 140.083946 -43.211236 
L 141.005991 -43.468747 
L 141.928036 -44.021285 
L 142.85008 -44.429011 
L 143.772125 -44.821585 
L 144.694169 -45.387499 
L 145.616214 -45.849412 
L 146.538259 -45.930198 
L 147.460303 -46.649504 
L 148.382348 -47.010283 
L 149.304393 -47.422381 
L 150.226437 -47.770174 
L 151.148482 -48.365969 
L 152.070526 -49.179208 
L 152.992571 -50.001083 
L 153.914616 -51.407776 
L 154.83666 -52.847474 
L 155.758705 -54.706517 
L 156.68075 -57.170259 
L 157.602794 -59.002303 
L 158.524839 -60.695366 
L 159.446883 -62.076879 
L 160.368928 -63.68636 
L 161.290973 -65.581887 
L 162.213017 -65.469541 
L 163.135062 -65.787844 
L 164.057107 -66.34754 
L 164.979151 -68.366589 
L 165.901196 -69.086573 
L 166.82324 -69.949152 
L 167.745285 -71.741232 
L 168.66733 -73.141029 
L 169.589374 -74.364535 
L 170.511419 -76.014118 
L 171.433464 -77.245478 
L 172.355508 -78.411341 
L 173.277553 -79.821254 
L 174.199597 -80.916975 
L 175.121642 -81.379827 
L 176.043687 -81.817266 
L 176.965731 -82.755921 
L 177.887776 -82.915195 
L 178.809821 -83.812496 
L 179.731865 -84.765377 
L 180.65391 -83.620467 
L 181.575954 -85.375388 
L 182.497999 -85.5142 
L 183.420044 -86.484115 
L 184.342088 -86.508491 
L 185.264133 -87.591965 
L 186.186178 -87.820905 
L 187.108222 -86.459544 
L 188.030267 -87.41728 
L 188.952311 -87.311393 
L 189.874356 -86.601529 
L 190.796401 -86.596429 
L 191.718445 -86.071837 
L 192.64049 -86.842732 
L 193.562534 -85.117608 
L 194.484579 -85.412392 
L 195.406624 -84.471729 
L 196.328668 -85.071956 
L 196.328668 -92.718209 
L 196.328668 -92.718209 
L 195.406624 -91.738751 
L 194.484579 -91.811648 
L 193.562534 -91.554924 
L 192.64049 -91.842723 
L 191.718445 -91.89062 
L 190.796401 -90.71297 
L 189.874356 -90.80065 
L 188.952311 -90.775162 
L 188.030267 -90.13861 
L 187.108222 -89.799825 
L 186.186178 -88.875237 
L 185.264133 -88.555854 
L 184.342088 -88.397964 
L 183.420044 -87.022312 
L 182.497999 -88.047162 
L 181.575954 -86.379218 
L 180.65391 -87.787717 
L 179.731865 -86.052916 
L 178.809821 -85.326144 
L 177.887776 -84.382551 
L 176.965731 -83.661738 
L 176.043687 -83.131865 
L 175.121642 -81.72379 
L 174.199597 -82.036689 
L 173.277553 -81.301983 
L 172.355508 -80.711119 
L 171.433464 -79.633454 
L 170.511419 -78.435104 
L 169.589374 -77.507575 
L 168.66733 -76.432697 
L 167.745285 -74.392791 
L 166.82324 -72.972577 
L 165.901196 -72.041808 
L 164.979151 -71.316771 
L 164.057107 -70.018315 
L 163.135062 -68.646377 
L 162.213017 -66.665537 
L 161.290973 -66.554866 
L 160.368928 -65.731903 
L 159.446883 -64.45261 
L 158.524839 -64.260916 
L 157.602794 -64.639266 
L 156.68075 -63.925617 
L 155.758705 -62.540973 
L 154.83666 -60.023575 
L 153.914616 -57.93682 
L 152.992571 -54.755381 
L 152.070526 -52.956031 
L 151.148482 -51.300937 
L 150.226437 -49.875655 
L 149.304393 -48.690371 
L 148.382348 -48.160415 
L 147.460303 -47.718864 
L 146.538259 -47.31596 
L 145.616214 -46.968707 
L 144.694169 -46.675316 
L 143.772125 -46.358811 
L 142.85008 -45.897496 
L 141.928036 -45.698245 
L 141.005991 -45.084531 
L 140.083946 -44.529567 
L 139.161902 -44.004201 
L 138.239857 -43.806381 
L 137.317812 -43.408627 
L 136.395768 -43.271889 
L 135.473723 -43.011046 
L 134.551679 -42.984845 
L 133.629634 -42.814347 
L 132.707589 -42.695408 
L 131.785545 -42.679421 
L 130.8635 -42.36 
z
" style="stroke: #808080; stroke-opacity: 0.4"/>
    </defs>
    <g clip-path="url(#pdc63071404)">
     <use xlink:href="#m7ce28f33dd" x="0" y="116.72625" style="fill: #808080; fill-opacity: 0.4; stroke: #808080; stroke-opacity: 0.4"/>
    </g>
   </g>
   <g id="matplotlib.axis_3">
    <g id="xtick_9">
     <g id="line2d_31">
      <path d="M 130.8635 74.36625 
L 130.8635 18.92625 
" clip-path="url(#pdc63071404)" style="fill: none; stroke-dasharray: 0.5,0.825; stroke-dashoffset: 0; stroke: #b0b0b0; stroke-width: 0.5"/>
     </g>
     <g id="line2d_32">
      <g>
       <use xlink:href="#m56a811e16a" x="130.8635" y="74.36625" style="stroke: #000000; stroke-width: 0.8"/>
      </g>
     </g>
    </g>
    <g id="xtick_10">
     <g id="line2d_33">
      <path d="M 139.999355 74.36625 
L 139.999355 18.92625 
" clip-path="url(#pdc63071404)" style="fill: none; stroke-dasharray: 0.5,0.825; stroke-dashoffset: 0; stroke: #b0b0b0; stroke-width: 0.5"/>
     </g>
     <g id="line2d_34">
      <g>
       <use xlink:href="#m56a811e16a" x="139.999355" y="74.36625" style="stroke: #000000; stroke-width: 0.8"/>
      </g>
     </g>
    </g>
    <g id="xtick_11">
     <g id="line2d_35">
      <path d="M 149.13521 74.36625 
L 149.13521 18.92625 
" clip-path="url(#pdc63071404)" style="fill: none; stroke-dasharray: 0.5,0.825; stroke-dashoffset: 0; stroke: #b0b0b0; stroke-width: 0.5"/>
     </g>
     <g id="line2d_36">
      <g>
       <use xlink:href="#m56a811e16a" x="149.13521" y="74.36625" style="stroke: #000000; stroke-width: 0.8"/>
      </g>
     </g>
    </g>
    <g id="xtick_12">
     <g id="line2d_37">
      <path d="M 158.271065 74.36625 
L 158.271065 18.92625 
" clip-path="url(#pdc63071404)" style="fill: none; stroke-dasharray: 0.5,0.825; stroke-dashoffset: 0; stroke: #b0b0b0; stroke-width: 0.5"/>
     </g>
     <g id="line2d_38">
      <g>
       <use xlink:href="#m56a811e16a" x="158.271065" y="74.36625" style="stroke: #000000; stroke-width: 0.8"/>
      </g>
     </g>
    </g>
    <g id="xtick_13">
     <g id="line2d_39">
      <path d="M 167.40692 74.36625 
L 167.40692 18.92625 
" clip-path="url(#pdc63071404)" style="fill: none; stroke-dasharray: 0.5,0.825; stroke-dashoffset: 0; stroke: #b0b0b0; stroke-width: 0.5"/>
     </g>
     <g id="line2d_40">
      <g>
       <use xlink:href="#m56a811e16a" x="167.40692" y="74.36625" style="stroke: #000000; stroke-width: 0.8"/>
      </g>
     </g>
    </g>
    <g id="xtick_14">
     <g id="line2d_41">
      <path d="M 176.542775 74.36625 
L 176.542775 18.92625 
" clip-path="url(#pdc63071404)" style="fill: none; stroke-dasharray: 0.5,0.825; stroke-dashoffset: 0; stroke: #b0b0b0; stroke-width: 0.5"/>
     </g>
     <g id="line2d_42">
      <g>
       <use xlink:href="#m56a811e16a" x="176.542775" y="74.36625" style="stroke: #000000; stroke-width: 0.8"/>
      </g>
     </g>
     <g id="text_8">
      <!-- 500 -->
      <g transform="translate(171.537931 85.660938) scale(0.06 -0.06)">
       <use xlink:href="#ArialMT-35"/>
       <use xlink:href="#ArialMT-30" x="55.615234"/>
       <use xlink:href="#ArialMT-30" x="111.230469"/>
      </g>
     </g>
    </g>
    <g id="xtick_15">
     <g id="line2d_43">
      <path d="M 185.67863 74.36625 
L 185.67863 18.92625 
" clip-path="url(#pdc63071404)" style="fill: none; stroke-dasharray: 0.5,0.825; stroke-dashoffset: 0; stroke: #b0b0b0; stroke-width: 0.5"/>
     </g>
     <g id="line2d_44">
      <g>
       <use xlink:href="#m56a811e16a" x="185.67863" y="74.36625" style="stroke: #000000; stroke-width: 0.8"/>
      </g>
     </g>
    </g>
    <g id="xtick_16">
     <g id="line2d_45">
      <path d="M 194.814485 74.36625 
L 194.814485 18.92625 
" clip-path="url(#pdc63071404)" style="fill: none; stroke-dasharray: 0.5,0.825; stroke-dashoffset: 0; stroke: #b0b0b0; stroke-width: 0.5"/>
     </g>
     <g id="line2d_46">
      <g>
       <use xlink:href="#m56a811e16a" x="194.814485" y="74.36625" style="stroke: #000000; stroke-width: 0.8"/>
      </g>
     </g>
    </g>
    <g id="text_9">
     <!-- Time (min) -->
     <g transform="translate(149.566906 95.22125) scale(0.06 -0.06)">
      <use xlink:href="#ArialMT-54"/>
      <use xlink:href="#ArialMT-69" x="57.333984"/>
      <use xlink:href="#ArialMT-6d" x="79.550781"/>
      <use xlink:href="#ArialMT-65" x="162.851562"/>
      <use xlink:href="#ArialMT-20" x="218.466797"/>
      <use xlink:href="#ArialMT-28" x="246.25"/>
      <use xlink:href="#ArialMT-6d" x="279.550781"/>
      <use xlink:href="#ArialMT-69" x="362.851562"/>
      <use xlink:href="#ArialMT-6e" x="385.068359"/>
      <use xlink:href="#ArialMT-29" x="440.683594"/>
     </g>
    </g>
   </g>
   <g id="matplotlib.axis_4">
    <g id="ytick_6">
     <g id="line2d_47">
      <path d="M 130.8635 74.36625 
L 196.7075 74.36625 
" clip-path="url(#pdc63071404)" style="fill: none; stroke-dasharray: 0.5,0.825; stroke-dashoffset: 0; stroke: #b0b0b0; stroke-width: 0.5"/>
     </g>
     <g id="line2d_48">
      <g>
       <use xlink:href="#m560363e4b4" x="130.8635" y="74.36625" style="stroke: #000000; stroke-width: 0.8"/>
      </g>
     </g>
     <g id="text_10">
      <!-- 0 -->
      <g transform="translate(120.526938 76.513594) scale(0.06 -0.06)">
       <use xlink:href="#ArialMT-30"/>
      </g>
     </g>
    </g>
    <g id="ytick_7">
     <g id="line2d_49">
      <path d="M 130.8635 60.50625 
L 196.7075 60.50625 
" clip-path="url(#pdc63071404)" style="fill: none; stroke-dasharray: 0.5,0.825; stroke-dashoffset: 0; stroke: #b0b0b0; stroke-width: 0.5"/>
     </g>
     <g id="line2d_50">
      <g>
       <use xlink:href="#m560363e4b4" x="130.8635" y="60.50625" style="stroke: #000000; stroke-width: 0.8"/>
      </g>
     </g>
    </g>
    <g id="ytick_8">
     <g id="line2d_51">
      <path d="M 130.8635 46.64625 
L 196.7075 46.64625 
" clip-path="url(#pdc63071404)" style="fill: none; stroke-dasharray: 0.5,0.825; stroke-dashoffset: 0; stroke: #b0b0b0; stroke-width: 0.5"/>
     </g>
     <g id="line2d_52">
      <g>
       <use xlink:href="#m560363e4b4" x="130.8635" y="46.64625" style="stroke: #000000; stroke-width: 0.8"/>
      </g>
     </g>
     <g id="text_11">
      <!-- 6 -->
      <g transform="translate(120.526938 48.793594) scale(0.06 -0.06)">
       <defs>
        <path id="ArialMT-36" d="M 3184 3459 
L 2625 3416 
Q 2550 3747 2413 3897 
Q 2184 4138 1850 4138 
Q 1581 4138 1378 3988 
Q 1113 3794 959 3422 
Q 806 3050 800 2363 
Q 1003 2672 1297 2822 
Q 1591 2972 1913 2972 
Q 2475 2972 2870 2558 
Q 3266 2144 3266 1488 
Q 3266 1056 3080 686 
Q 2894 316 2569 119 
Q 2244 -78 1831 -78 
Q 1128 -78 684 439 
Q 241 956 241 2144 
Q 241 3472 731 4075 
Q 1159 4600 1884 4600 
Q 2425 4600 2770 4297 
Q 3116 3994 3184 3459 
z
M 888 1484 
Q 888 1194 1011 928 
Q 1134 663 1356 523 
Q 1578 384 1822 384 
Q 2178 384 2434 671 
Q 2691 959 2691 1453 
Q 2691 1928 2437 2201 
Q 2184 2475 1800 2475 
Q 1419 2475 1153 2201 
Q 888 1928 888 1484 
z
" transform="scale(0.015625)"/>
       </defs>
       <use xlink:href="#ArialMT-36"/>
      </g>
     </g>
    </g>
    <g id="ytick_9">
     <g id="line2d_53">
      <path d="M 130.8635 32.78625 
L 196.7075 32.78625 
" clip-path="url(#pdc63071404)" style="fill: none; stroke-dasharray: 0.5,0.825; stroke-dashoffset: 0; stroke: #b0b0b0; stroke-width: 0.5"/>
     </g>
     <g id="line2d_54">
      <g>
       <use xlink:href="#m560363e4b4" x="130.8635" y="32.78625" style="stroke: #000000; stroke-width: 0.8"/>
      </g>
     </g>
    </g>
    <g id="ytick_10">
     <g id="line2d_55">
      <path d="M 130.8635 18.92625 
L 196.7075 18.92625 
" clip-path="url(#pdc63071404)" style="fill: none; stroke-dasharray: 0.5,0.825; stroke-dashoffset: 0; stroke: #b0b0b0; stroke-width: 0.5"/>
     </g>
     <g id="line2d_56">
      <g>
       <use xlink:href="#m560363e4b4" x="130.8635" y="18.92625" style="stroke: #000000; stroke-width: 0.8"/>
      </g>
     </g>
     <g id="text_12">
      <!-- 12 -->
      <g transform="translate(117.190375 21.073594) scale(0.06 -0.06)">
       <defs>
        <path id="ArialMT-32" d="M 3222 541 
L 3222 0 
L 194 0 
Q 188 203 259 391 
Q 375 700 629 1000 
Q 884 1300 1366 1694 
Q 2113 2306 2375 2664 
Q 2638 3022 2638 3341 
Q 2638 3675 2398 3904 
Q 2159 4134 1775 4134 
Q 1369 4134 1125 3890 
Q 881 3647 878 3216 
L 300 3275 
Q 359 3922 746 4261 
Q 1134 4600 1788 4600 
Q 2447 4600 2831 4234 
Q 3216 3869 3216 3328 
Q 3216 3053 3103 2787 
Q 2991 2522 2730 2228 
Q 2469 1934 1863 1422 
Q 1356 997 1212 845 
Q 1069 694 975 541 
L 3222 541 
z
" transform="scale(0.015625)"/>
       </defs>
       <use xlink:href="#ArialMT-31"/>
       <use xlink:href="#ArialMT-32" x="55.615234"/>
      </g>
     </g>
    </g>
    <g id="text_13">
     <!-- Normalized FL signal -->
     <g transform="translate(111.927563 74.709844) rotate(-90) scale(0.06 -0.06)">
      <use xlink:href="#ArialMT-4e"/>
      <use xlink:href="#ArialMT-6f" x="72.216797"/>
      <use xlink:href="#ArialMT-72" x="127.832031"/>
      <use xlink:href="#ArialMT-6d" x="161.132812"/>
      <use xlink:href="#ArialMT-61" x="244.433594"/>
      <use xlink:href="#ArialMT-6c" x="300.048828"/>
      <use xlink:href="#ArialMT-69" x="322.265625"/>
      <use xlink:href="#ArialMT-7a" x="344.482422"/>
      <use xlink:href="#ArialMT-65" x="394.482422"/>
      <use xlink:href="#ArialMT-64" x="450.097656"/>
      <use xlink:href="#ArialMT-20" x="505.712891"/>
      <use xlink:href="#ArialMT-46" x="533.496094"/>
      <use xlink:href="#ArialMT-4c" x="594.580078"/>
      <use xlink:href="#ArialMT-20" x="646.445312"/>
      <use xlink:href="#ArialMT-73" x="674.228516"/>
      <use xlink:href="#ArialMT-69" x="724.228516"/>
      <use xlink:href="#ArialMT-67" x="746.445312"/>
      <use xlink:href="#ArialMT-6e" x="802.060547"/>
      <use xlink:href="#ArialMT-61" x="857.675781"/>
      <use xlink:href="#ArialMT-6c" x="913.291016"/>
     </g>
    </g>
   </g>
   <g id="line2d_57">
    <path d="M 130.8635 74.36625 
L 131.778 74.254214 
L 132.5096 73.924139 
L 133.51555 73.202179 
L 135.0702 71.76849 
L 137.4479 69.247139 
L 140.09995 66.113726 
L 144.9468 60.272909 
L 146.31855 59.032042 
L 147.59885 58.175427 
L 148.9706 57.531268 
L 152.17135 56.139618 
L 153.45165 55.254847 
L 154.8234 54.016628 
L 156.4695 52.194288 
L 158.75575 49.279351 
L 163.9684 42.529054 
L 166.1632 40.09487 
L 168.1751 38.175474 
L 170.187 36.559983 
L 172.1989 35.23144 
L 174.30225 34.11781 
L 176.49705 33.213908 
L 178.87475 32.480059 
L 181.5268 31.898449 
L 184.6361 31.452172 
L 188.477 31.139865 
L 193.50675 30.970909 
L 196.61605 30.945264 
L 196.61605 30.945264 
" clip-path="url(#pdc63071404)" style="fill: none; stroke: #49beaa; stroke-linecap: square"/>
   </g>
   <g id="line2d_58">
    <path d="M 130.8635 74.36625 
L 132.96685 74.254483 
L 135.89325 73.856137 
L 138.1795 73.331454 
L 139.91705 72.71578 
L 141.38025 71.975997 
L 142.752 71.026802 
L 143.94085 69.941336 
L 145.1297 68.546585 
L 146.2271 66.923229 
L 147.3245 64.915459 
L 148.51335 62.237707 
L 149.7022 58.983812 
L 151.7141 53.204417 
L 152.0799 52.907741 
L 153.08585 52.566256 
L 154.2747 52.038452 
L 155.64645 51.175943 
L 157.29255 49.853294 
L 159.30445 47.928779 
L 162.41375 44.595336 
L 167.53495 39.116093 
L 170.27845 36.529303 
L 172.7476 34.504443 
L 175.1253 32.844327 
L 177.41155 31.513116 
L 179.6978 30.428979 
L 182.0755 29.545885 
L 184.4532 28.894281 
L 186.92235 28.446001 
L 189.48295 28.207459 
L 192.22645 28.17443 
L 195.4272 28.363435 
L 196.61605 28.480783 
L 196.61605 28.480783 
" clip-path="url(#pdc63071404)" style="fill: none; stroke: #ffba08; stroke-linecap: square"/>
   </g>
   <g id="line2d_59">
    <path d="M 130.8635 74.36625 
L 133.14975 74.254417 
L 136.1676 73.8765 
L 138.27095 73.406241 
L 139.91705 72.826399 
L 141.38025 72.07349 
L 142.66055 71.159949 
L 143.8494 70.032568 
L 144.9468 68.694877 
L 146.0442 67.017906 
L 147.23305 64.770359 
L 148.51335 61.84777 
L 151.43975 54.848724 
L 152.17135 53.829829 
L 152.8115 53.310163 
L 153.63455 52.965776 
L 156.6524 51.989829 
L 158.1156 51.184916 
L 159.7617 50.019277 
L 161.68215 48.370436 
L 163.9684 46.09994 
L 167.16915 42.577524 
L 174.11935 34.843798 
L 176.7714 32.268971 
L 179.05765 30.353115 
L 181.06955 28.943819 
L 182.99 27.859457 
L 184.91045 27.03121 
L 186.8309 26.444811 
L 188.8428 26.061169 
L 191.0376 25.867783 
L 193.5982 25.872925 
L 196.61605 26.105058 
L 196.61605 26.105058 
" clip-path="url(#pdc63071404)" style="fill: none; stroke: #207bff; stroke-linecap: square"/>
   </g>
   <g id="line2d_60">
    <path d="M 130.8635 74.36625 
L 132.32727 74.261385 
L 133.79104 73.897428 
L 135.803723 73.152254 
L 137.999378 72.112137 
L 139.920576 70.969472 
L 141.658802 69.682453 
L 143.305543 68.176395 
L 144.860799 66.438055 
L 146.324569 64.469813 
L 147.788338 62.133894 
L 149.343594 59.209451 
L 151.996677 53.973115 
L 152.637076 53.490415 
L 153.643418 53.066632 
L 155.839072 52.207482 
L 157.302842 51.34856 
L 158.858098 50.167259 
L 160.68781 48.487351 
L 162.97495 46.070843 
L 166.542889 41.931462 
L 172.032026 35.593734 
L 174.776594 32.773616 
L 176.880764 30.918993 
L 178.61899 29.681547 
L 180.265731 28.79173 
L 181.912472 28.16309 
L 183.650699 27.742121 
L 185.571897 27.508501 
L 187.859037 27.466915 
L 190.603606 27.649003 
L 194.26303 28.126062 
L 196.641656 28.515666 
L 196.641656 28.515666 
" clip-path="url(#pdc63071404)" style="fill: none; stroke-dasharray: 3.7,1.6; stroke-dashoffset: 0; stroke: #000000"/>
   </g>
   <g id="patch_8">
    <path d="M 130.8635 74.36625 
L 130.8635 18.92625 
" style="fill: none; stroke: #000000; stroke-width: 0.8; stroke-linejoin: miter; stroke-linecap: square"/>
   </g>
   <g id="patch_9">
    <path d="M 196.7075 74.36625 
L 196.7075 18.92625 
" style="fill: none; stroke: #000000; stroke-width: 0.8; stroke-linejoin: miter; stroke-linecap: square"/>
   </g>
   <g id="patch_10">
    <path d="M 130.8635 74.36625 
L 196.7075 74.36625 
" style="fill: none; stroke: #000000; stroke-width: 0.8; stroke-linejoin: miter; stroke-linecap: square"/>
   </g>
   <g id="patch_11">
    <path d="M 130.8635 18.92625 
L 196.7075 18.92625 
" style="fill: none; stroke: #000000; stroke-width: 0.8; stroke-linejoin: miter; stroke-linecap: square"/>
   </g>
   <g id="text_14">
    <!-- GEC -->
    <g transform="translate(155.117375 12.92625) scale(0.08 -0.08)">
     <use xlink:href="#ArialMT-47"/>
     <use xlink:href="#ArialMT-45" x="77.783203"/>
     <use xlink:href="#ArialMT-43" x="144.482422"/>
    </g>
   </g>
  </g>
  <g id="legend_1">
   <g id="patch_12">
    <path d="M 16.430469 109.52625 
L 143.344531 109.52625 
Q 144.544531 109.52625 144.544531 108.32625 
L 144.544531 100.350938 
Q 144.544531 99.150938 143.344531 99.150938 
L 16.430469 99.150938 
Q 15.230469 99.150938 15.230469 100.350938 
L 15.230469 108.32625 
Q 15.230469 109.52625 16.430469 109.52625 
z
" style="fill: #ffffff; opacity: 0.8; stroke: #cccccc; stroke-linejoin: miter"/>
   </g>
   <g id="line2d_61">
    <path d="M 17.630469 103.763438 
L 20.030469 103.763438 
L 22.430469 103.763438 
" style="fill: none; stroke: #49beaa; stroke-width: 1.5; stroke-linecap: square"/>
   </g>
   <g id="text_15">
    <!-- Effective -->
    <g transform="translate(23.630469 105.863438) scale(0.06 -0.06)">
     <defs>
      <path id="ArialMT-66" d="M 556 0 
L 556 2881 
L 59 2881 
L 59 3319 
L 556 3319 
L 556 3672 
Q 556 4006 616 4169 
Q 697 4388 901 4523 
Q 1106 4659 1475 4659 
Q 1713 4659 2000 4603 
L 1916 4113 
Q 1741 4144 1584 4144 
Q 1328 4144 1222 4034 
Q 1116 3925 1116 3625 
L 1116 3319 
L 1763 3319 
L 1763 2881 
L 1116 2881 
L 1116 0 
L 556 0 
z
" transform="scale(0.015625)"/>
      <path id="ArialMT-63" d="M 2588 1216 
L 3141 1144 
Q 3050 572 2676 248 
Q 2303 -75 1759 -75 
Q 1078 -75 664 370 
Q 250 816 250 1647 
Q 250 2184 428 2587 
Q 606 2991 970 3192 
Q 1334 3394 1763 3394 
Q 2303 3394 2647 3120 
Q 2991 2847 3088 2344 
L 2541 2259 
Q 2463 2594 2264 2762 
Q 2066 2931 1784 2931 
Q 1359 2931 1093 2626 
Q 828 2322 828 1663 
Q 828 994 1084 691 
Q 1341 388 1753 388 
Q 2084 388 2306 591 
Q 2528 794 2588 1216 
z
" transform="scale(0.015625)"/>
      <path id="ArialMT-74" d="M 1650 503 
L 1731 6 
Q 1494 -44 1306 -44 
Q 1000 -44 831 53 
Q 663 150 594 308 
Q 525 466 525 972 
L 525 2881 
L 113 2881 
L 113 3319 
L 525 3319 
L 525 4141 
L 1084 4478 
L 1084 3319 
L 1650 3319 
L 1650 2881 
L 1084 2881 
L 1084 941 
Q 1084 700 1114 631 
Q 1144 563 1211 522 
Q 1278 481 1403 481 
Q 1497 481 1650 503 
z
" transform="scale(0.015625)"/>
     </defs>
     <use xlink:href="#ArialMT-45"/>
     <use xlink:href="#ArialMT-66" x="66.699219"/>
     <use xlink:href="#ArialMT-66" x="92.732422"/>
     <use xlink:href="#ArialMT-65" x="120.515625"/>
     <use xlink:href="#ArialMT-63" x="176.130859"/>
     <use xlink:href="#ArialMT-74" x="226.130859"/>
     <use xlink:href="#ArialMT-69" x="253.914062"/>
     <use xlink:href="#ArialMT-76" x="276.130859"/>
     <use xlink:href="#ArialMT-65" x="326.130859"/>
    </g>
   </g>
   <g id="line2d_62">
    <path d="M 50.734531 103.763438 
L 53.134531 103.763438 
L 55.534531 103.763438 
" style="fill: none; stroke: #ffba08; stroke-width: 1.5; stroke-linecap: square"/>
   </g>
   <g id="text_16">
    <!-- Hybrid - 1 -->
    <g transform="translate(56.734531 105.863438) scale(0.06 -0.06)">
     <defs>
      <path id="ArialMT-48" d="M 513 0 
L 513 4581 
L 1119 4581 
L 1119 2700 
L 3500 2700 
L 3500 4581 
L 4106 4581 
L 4106 0 
L 3500 0 
L 3500 2159 
L 1119 2159 
L 1119 0 
L 513 0 
z
" transform="scale(0.015625)"/>
      <path id="ArialMT-79" d="M 397 -1278 
L 334 -750 
Q 519 -800 656 -800 
Q 844 -800 956 -737 
Q 1069 -675 1141 -563 
Q 1194 -478 1313 -144 
Q 1328 -97 1363 -6 
L 103 3319 
L 709 3319 
L 1400 1397 
Q 1534 1031 1641 628 
Q 1738 1016 1872 1384 
L 2581 3319 
L 3144 3319 
L 1881 -56 
Q 1678 -603 1566 -809 
Q 1416 -1088 1222 -1217 
Q 1028 -1347 759 -1347 
Q 597 -1347 397 -1278 
z
" transform="scale(0.015625)"/>
      <path id="ArialMT-62" d="M 941 0 
L 419 0 
L 419 4581 
L 981 4581 
L 981 2947 
Q 1338 3394 1891 3394 
Q 2197 3394 2470 3270 
Q 2744 3147 2920 2923 
Q 3097 2700 3197 2384 
Q 3297 2069 3297 1709 
Q 3297 856 2875 390 
Q 2453 -75 1863 -75 
Q 1275 -75 941 416 
L 941 0 
z
M 934 1684 
Q 934 1088 1097 822 
Q 1363 388 1816 388 
Q 2184 388 2453 708 
Q 2722 1028 2722 1663 
Q 2722 2313 2464 2622 
Q 2206 2931 1841 2931 
Q 1472 2931 1203 2611 
Q 934 2291 934 1684 
z
" transform="scale(0.015625)"/>
     </defs>
     <use xlink:href="#ArialMT-48"/>
     <use xlink:href="#ArialMT-79" x="72.216797"/>
     <use xlink:href="#ArialMT-62" x="122.216797"/>
     <use xlink:href="#ArialMT-72" x="177.832031"/>
     <use xlink:href="#ArialMT-69" x="211.132812"/>
     <use xlink:href="#ArialMT-64" x="233.349609"/>
     <use xlink:href="#ArialMT-20" x="288.964844"/>
     <use xlink:href="#ArialMT-2d" x="316.748047"/>
     <use xlink:href="#ArialMT-20" x="350.048828"/>
     <use xlink:href="#ArialMT-31" x="377.832031"/>
    </g>
   </g>
   <g id="line2d_63">
    <path d="M 86.939844 103.763438 
L 89.339844 103.763438 
L 91.739844 103.763438 
" style="fill: none; stroke: #207bff; stroke-width: 1.5; stroke-linecap: square"/>
   </g>
   <g id="text_17">
    <!-- Hybrid - 2 -->
    <g transform="translate(92.939844 105.863438) scale(0.06 -0.06)">
     <use xlink:href="#ArialMT-48"/>
     <use xlink:href="#ArialMT-79" x="72.216797"/>
     <use xlink:href="#ArialMT-62" x="122.216797"/>
     <use xlink:href="#ArialMT-72" x="177.832031"/>
     <use xlink:href="#ArialMT-69" x="211.132812"/>
     <use xlink:href="#ArialMT-64" x="233.349609"/>
     <use xlink:href="#ArialMT-20" x="288.964844"/>
     <use xlink:href="#ArialMT-2d" x="316.748047"/>
     <use xlink:href="#ArialMT-20" x="350.048828"/>
     <use xlink:href="#ArialMT-32" x="377.832031"/>
    </g>
   </g>
   <g id="line2d_64">
    <path d="M 123.145156 103.763438 
L 125.545156 103.763438 
L 127.945156 103.763438 
" style="fill: none; stroke: #000000; stroke-width: 1.5; stroke-linecap: square"/>
   </g>
   <g id="text_18">
    <!-- CRN -->
    <g transform="translate(129.145156 105.863438) scale(0.06 -0.06)">
     <defs>
      <path id="ArialMT-52" d="M 503 0 
L 503 4581 
L 2534 4581 
Q 3147 4581 3465 4457 
Q 3784 4334 3975 4021 
Q 4166 3709 4166 3331 
Q 4166 2844 3850 2509 
Q 3534 2175 2875 2084 
Q 3116 1969 3241 1856 
Q 3506 1613 3744 1247 
L 4541 0 
L 3778 0 
L 3172 953 
Q 2906 1366 2734 1584 
Q 2563 1803 2427 1890 
Q 2291 1978 2150 2013 
Q 2047 2034 1813 2034 
L 1109 2034 
L 1109 0 
L 503 0 
z
M 1109 2559 
L 2413 2559 
Q 2828 2559 3062 2645 
Q 3297 2731 3419 2920 
Q 3541 3109 3541 3331 
Q 3541 3656 3305 3865 
Q 3069 4075 2559 4075 
L 1109 4075 
L 1109 2559 
z
" transform="scale(0.015625)"/>
     </defs>
     <use xlink:href="#ArialMT-43"/>
     <use xlink:href="#ArialMT-52" x="72.216797"/>
     <use xlink:href="#ArialMT-4e" x="144.433594"/>
    </g>
   </g>
  </g>
 </g>
 <defs>
  <clipPath id="p4c16c1843a">
   <rect x="32.0975" y="18.92625" width="65.844" height="55.44"/>
  </clipPath>
  <clipPath id="pdc63071404">
   <rect x="130.8635" y="18.92625" width="65.844" height="55.44"/>
  </clipPath>
 </defs>
</svg>
