<?xml version="1.0" encoding="utf-8" standalone="no"?>
<!DOCTYPE svg PUBLIC "-//W3C//DTD SVG 1.1//EN"
  "http://www.w3.org/Graphics/SVG/1.1/DTD/svg11.dtd">
<svg xmlns:xlink="http://www.w3.org/1999/xlink" width="75.173295pt" height="83.918312pt" viewBox="0 0 75.173295 83.918312" xmlns="http://www.w3.org/2000/svg" version="1.1">
 <metadata>
  <rdf:RDF xmlns:dc="http://purl.org/dc/elements/1.1/" xmlns:cc="http://creativecommons.org/ns#" xmlns:rdf="http://www.w3.org/1999/02/22-rdf-syntax-ns#">
   <cc:Work>
    <dc:type rdf:resource="http://purl.org/dc/dcmitype/StillImage"/>
    <dc:date>2025-05-08T16:20:34.916572</dc:date>
    <dc:format>image/svg+xml</dc:format>
    <dc:creator>
     <cc:Agent>
      <dc:title>Matplotlib v3.7.2, https://matplotlib.org/</dc:title>
     </cc:Agent>
    </dc:creator>
   </cc:Work>
  </rdf:RDF>
 </metadata>
 <defs>
  <style type="text/css">*{stroke-linejoin: round; stroke-linecap: butt}</style>
 </defs>
 <g id="figure_1">
  <g id="patch_1">
   <path d="M 0 83.918312 
L 75.173295 83.918312 
L 75.173295 -0 
L 0 -0 
z
" style="fill: #ffffff"/>
  </g>
  <g id="axes_1">
   <g id="patch_2">
    <path d="M 28.78 63.911438 
L 67.84 63.911438 
L 67.84 25.103437 
L 28.78 25.103437 
z
" style="fill: #ffffff"/>
   </g>
   <g id="matplotlib.axis_1">
    <g id="xtick_1">
     <g id="line2d_1">
      <path d="M 30.555455 63.911438 
L 30.555455 25.103437 
" clip-path="url(#p815194490d)" style="fill: none; stroke: #b0b0b0; stroke-width: 0.8; stroke-linecap: square"/>
     </g>
     <g id="line2d_2">
      <defs>
       <path id="me082264a15" d="M 0 0 
L 0 3.5 
" style="stroke: #000000; stroke-width: 0.8"/>
      </defs>
      <g>
       <use xlink:href="#me082264a15" x="30.555455" y="63.911438" style="stroke: #000000; stroke-width: 0.8"/>
      </g>
     </g>
     <g id="text_1">
      <!-- 0 -->
      <g transform="translate(28.646705 75.4705) scale(0.06 -0.06)">
       <defs>
        <path id="DejaVuSans-30" d="M 2034 4250 
Q 1547 4250 1301 3770 
Q 1056 3291 1056 2328 
Q 1056 1369 1301 889 
Q 1547 409 2034 409 
Q 2525 409 2770 889 
Q 3016 1369 3016 2328 
Q 3016 3291 2770 3770 
Q 2525 4250 2034 4250 
z
M 2034 4750 
Q 2819 4750 3233 4129 
Q 3647 3509 3647 2328 
Q 3647 1150 3233 529 
Q 2819 -91 2034 -91 
Q 1250 -91 836 529 
Q 422 1150 422 2328 
Q 422 3509 836 4129 
Q 1250 4750 2034 4750 
z
" transform="scale(0.015625)"/>
       </defs>
       <use xlink:href="#DejaVuSans-30"/>
      </g>
     </g>
    </g>
    <g id="xtick_2">
     <g id="line2d_3">
      <path d="M 66.064545 63.911438 
L 66.064545 25.103437 
" clip-path="url(#p815194490d)" style="fill: none; stroke: #b0b0b0; stroke-width: 0.8; stroke-linecap: square"/>
     </g>
     <g id="line2d_4">
      <g>
       <use xlink:href="#me082264a15" x="66.064545" y="63.911438" style="stroke: #000000; stroke-width: 0.8"/>
      </g>
     </g>
     <g id="text_2">
      <!-- 1 -->
      <g transform="translate(64.155795 75.4705) scale(0.06 -0.06)">
       <defs>
        <path id="DejaVuSans-31" d="M 794 531 
L 1825 531 
L 1825 4091 
L 703 3866 
L 703 4441 
L 1819 4666 
L 2450 4666 
L 2450 531 
L 3481 531 
L 3481 0 
L 794 0 
L 794 531 
z
" transform="scale(0.015625)"/>
       </defs>
       <use xlink:href="#DejaVuSans-31"/>
      </g>
     </g>
    </g>
   </g>
   <g id="matplotlib.axis_2">
    <g id="ytick_1">
     <g id="line2d_5">
      <path d="M 28.78 49.65455 
L 67.84 49.65455 
" clip-path="url(#p815194490d)" style="fill: none; stroke: #b0b0b0; stroke-width: 0.8; stroke-linecap: square"/>
     </g>
     <g id="line2d_6">
      <defs>
       <path id="mca457df451" d="M 0 0 
L -3.5 0 
" style="stroke: #000000; stroke-width: 0.8"/>
      </defs>
      <g>
       <use xlink:href="#mca457df451" x="28.78" y="49.65455" style="stroke: #000000; stroke-width: 0.8"/>
      </g>
     </g>
     <g id="text_3">
      <!-- $\mathdefault{−2.5}$ -->
      <g transform="translate(7.2 51.934082) scale(0.06 -0.06)">
       <defs>
        <path id="DejaVuSans-2212" d="M 678 2272 
L 4684 2272 
L 4684 1741 
L 678 1741 
L 678 2272 
z
" transform="scale(0.015625)"/>
        <path id="DejaVuSans-32" d="M 1228 531 
L 3431 531 
L 3431 0 
L 469 0 
L 469 531 
Q 828 903 1448 1529 
Q 2069 2156 2228 2338 
Q 2531 2678 2651 2914 
Q 2772 3150 2772 3378 
Q 2772 3750 2511 3984 
Q 2250 4219 1831 4219 
Q 1534 4219 1204 4116 
Q 875 4013 500 3803 
L 500 4441 
Q 881 4594 1212 4672 
Q 1544 4750 1819 4750 
Q 2544 4750 2975 4387 
Q 3406 4025 3406 3419 
Q 3406 3131 3298 2873 
Q 3191 2616 2906 2266 
Q 2828 2175 2409 1742 
Q 1991 1309 1228 531 
z
" transform="scale(0.015625)"/>
        <path id="DejaVuSans-2e" d="M 684 794 
L 1344 794 
L 1344 0 
L 684 0 
L 684 794 
z
" transform="scale(0.015625)"/>
        <path id="DejaVuSans-35" d="M 691 4666 
L 3169 4666 
L 3169 4134 
L 1269 4134 
L 1269 2991 
Q 1406 3038 1543 3061 
Q 1681 3084 1819 3084 
Q 2600 3084 3056 2656 
Q 3513 2228 3513 1497 
Q 3513 744 3044 326 
Q 2575 -91 1722 -91 
Q 1428 -91 1123 -41 
Q 819 9 494 109 
L 494 744 
Q 775 591 1075 516 
Q 1375 441 1709 441 
Q 2250 441 2565 725 
Q 2881 1009 2881 1497 
Q 2881 1984 2565 2268 
Q 2250 2553 1709 2553 
Q 1456 2553 1204 2497 
Q 953 2441 691 2322 
L 691 4666 
z
" transform="scale(0.015625)"/>
       </defs>
       <use xlink:href="#DejaVuSans-2212" transform="translate(0 0.78125)"/>
       <use xlink:href="#DejaVuSans-32" transform="translate(83.789062 0.78125)"/>
       <use xlink:href="#DejaVuSans-2e" transform="translate(147.412109 0.78125)"/>
       <use xlink:href="#DejaVuSans-35" transform="translate(179.199219 0.78125)"/>
      </g>
     </g>
    </g>
    <g id="ytick_2">
     <g id="line2d_7">
      <path d="M 28.78 34.455695 
L 67.84 34.455695 
" clip-path="url(#p815194490d)" style="fill: none; stroke: #b0b0b0; stroke-width: 0.8; stroke-linecap: square"/>
     </g>
     <g id="line2d_8">
      <g>
       <use xlink:href="#mca457df451" x="28.78" y="34.455695" style="stroke: #000000; stroke-width: 0.8"/>
      </g>
     </g>
     <g id="text_4">
      <!-- $\mathdefault{0.0}$ -->
      <g transform="translate(12.18 36.735226) scale(0.06 -0.06)">
       <use xlink:href="#DejaVuSans-30" transform="translate(0 0.78125)"/>
       <use xlink:href="#DejaVuSans-2e" transform="translate(63.623047 0.78125)"/>
       <use xlink:href="#DejaVuSans-30" transform="translate(95.410156 0.78125)"/>
      </g>
     </g>
    </g>
    <g id="text_5">
     <!-- $\times\mathdefault{10^{−2}}\mathdefault{}$ -->
     <g transform="translate(15.109 23.759062) scale(0.06 -0.06)">
      <defs>
       <path id="DejaVuSans-d7" d="M 4488 3438 
L 3059 2003 
L 4488 575 
L 4116 197 
L 2681 1631 
L 1247 197 
L 878 575 
L 2303 2003 
L 878 3438 
L 1247 3816 
L 2681 2381 
L 4116 3816 
L 4488 3438 
z
" transform="scale(0.015625)"/>
      </defs>
      <use xlink:href="#DejaVuSans-d7" transform="translate(0 0.765625)"/>
      <use xlink:href="#DejaVuSans-31" transform="translate(83.789062 0.765625)"/>
      <use xlink:href="#DejaVuSans-30" transform="translate(147.412109 0.765625)"/>
      <use xlink:href="#DejaVuSans-2212" transform="translate(211.992188 39.046875) scale(0.7)"/>
      <use xlink:href="#DejaVuSans-32" transform="translate(270.644531 39.046875) scale(0.7)"/>
     </g>
    </g>
   </g>
   <g id="line2d_9">
    <path d="M 30.555455 34.378592 
L 30.599773 33.244202 
L 30.872689 30.958264 
L 31.404884 29.005446 
L 32.124834 27.755061 
L 32.529437 27.375803 
L 33.384809 27.005343 
L 34.259081 27.013116 
L 35.11666 27.261589 
L 36.326928 27.874805 
L 38.073993 29.074268 
L 41.536434 31.570412 
L 42.735476 32.142586 
L 43.8617 32.438314 
L 45.223549 32.552188 
L 47.696148 32.481604 
L 64.549099 31.67508 
L 65.683911 31.702808 
L 65.844001 31.845547 
L 65.988815 32.567713 
L 66.064545 34.296083 
L 66.007461 37.053762 
L 65.761052 40.790275 
L 65.267487 45.513071 
L 64.469385 50.98403 
L 63.336729 56.366112 
L 61.909919 60.38301 
L 60.308029 62.147437 
L 58.675108 61.74146 
L 57.120642 59.904709 
L 55.702281 57.415713 
L 53.326574 52.29977 
L 48.66039 41.195939 
L 46.384084 35.354283 
L 46.194217 34.371521 
L 46.332986 34.107569 
L 46.750735 33.928901 
L 48.157659 33.650606 
L 51.376826 33.261447 
L 56.137021 32.909459 
L 59.491523 32.852924 
L 61.121486 32.999874 
L 61.60244 33.220791 
L 61.791485 33.606964 
L 61.880387 34.337835 
L 61.782684 35.380181 
L 61.466858 36.183763 
L 60.993566 36.737999 
L 60.257253 37.173791 
L 59.249147 37.455408 
L 57.805478 37.603445 
L 55.406346 37.595126 
L 51.174585 37.327832 
L 44.614392 36.680361 
L 38.075533 35.816685 
L 35.360126 35.381667 
L 35.360126 35.381667 
" clip-path="url(#p815194490d)" style="fill: none; stroke: #ff6347; stroke-width: 0.5; stroke-linecap: square"/>
   </g>
   <g id="line2d_10">
    <path d="M 30.555455 34.437008 
L 30.647899 33.334332 
L 30.962563 32.013458 
L 31.486641 31.001254 
L 31.918451 30.563692 
L 32.636218 30.225083 
L 33.386018 30.176136 
L 34.366118 30.388384 
L 35.696406 30.954363 
L 38.80709 32.394566 
L 40.036544 32.642073 
L 41.492582 32.672211 
L 44.014943 32.451787 
L 61.946623 30.547732 
L 65.210997 30.403546 
L 65.447622 30.448635 
L 65.679081 30.725406 
L 65.883376 31.489514 
L 66.025576 32.904783 
L 66.064545 35.078152 
L 65.952864 38.104697 
L 65.638287 41.973095 
L 65.074718 46.38942 
L 64.244249 50.731464 
L 63.173464 54.30867 
L 61.925123 56.706036 
L 60.57429 57.877447 
L 59.189111 58.012219 
L 57.822534 57.378105 
L 56.511429 56.230492 
L 55.278911 54.777835 
L 53.09208 51.535202 
L 50.513551 46.974541 
L 46.669607 39.480025 
L 44.592986 35.094997 
L 44.450277 34.364552 
L 44.595399 34.12955 
L 45.006366 33.97295 
L 46.536441 33.726915 
L 50.355312 33.348307 
L 54.031864 33.182379 
L 55.845788 33.289637 
L 56.296671 33.457604 
L 56.453951 33.698303 
L 56.566095 34.299166 
L 56.479866 35.202372 
L 56.140559 36.000787 
L 55.596065 36.603028 
L 54.904234 37.014934 
L 53.95004 37.309105 
L 52.571053 37.46872 
L 50.632237 37.445306 
L 47.462308 37.152176 
L 41.589238 36.347581 
L 34.166313 35.13001 
L 34.166313 35.13001 
" clip-path="url(#p815194490d)" style="fill: none; stroke: #803224; stroke-width: 0.5; stroke-linecap: square"/>
   </g>
   <g id="line2d_11">
    <path d="M 30.555455 34.452907 
L 30.657631 33.891571 
L 30.946923 33.402441 
L 31.371142 33.124299 
L 32.028689 33.011198 
L 33.180536 33.110808 
L 35.004272 33.248436 
L 36.553155 33.099903 
L 39.14125 32.590098 
L 45.152559 31.134438 
L 58.607886 27.866681 
L 63.153851 26.896584 
L 63.597418 26.867437 
L 64.040273 26.952198 
L 64.473939 27.207477 
L 64.886974 27.687164 
L 65.264605 28.448732 
L 65.588677 29.533476 
L 65.839594 30.925712 
L 66.064545 34.20695 
L 65.903182 37.350903 
L 65.404984 39.940944 
L 64.638496 41.958331 
L 63.666791 43.474042 
L 62.543972 44.563399 
L 61.315818 45.292966 
L 60.020876 45.720197 
L 58.691459 45.894752 
L 57.354477 45.859808 
L 56.032122 45.653166 
L 54.114492 45.093063 
L 52.315456 44.317531 
L 50.15185 43.086185 
L 48.289015 41.767691 
L 46.390805 40.16558 
L 44.466846 38.234985 
L 42.984921 36.446566 
L 42.163921 35.157719 
L 41.953197 34.483907 
L 42.042857 34.151546 
L 42.343734 33.922261 
L 43.062462 33.711566 
L 45.109554 33.410726 
L 49.623022 32.9782 
L 53.297211 32.826165 
L 54.985803 32.934473 
L 55.478503 33.197958 
L 55.900189 33.669105 
L 56.128047 34.268052 
L 56.100649 34.770185 
L 55.877764 35.221403 
L 55.413717 35.662112 
L 54.670225 36.060881 
L 53.516572 36.41903 
L 51.784541 36.698512 
L 49.476542 36.828482 
L 46.4497 36.758166 
L 42.915502 36.448222 
L 38.757777 35.851763 
L 36.535742 35.45198 
L 36.535742 35.45198 
" clip-path="url(#p815194490d)" style="fill: none; stroke: #000000; stroke-width: 0.5; stroke-linecap: square"/>
   </g>
   <g id="line2d_12">
    <path d="M 30.555455 34.455189 
L 30.66746 34.18243 
L 30.967485 34.018734 
L 31.823916 33.895651 
L 33.649259 33.568191 
L 45.828834 30.952524 
L 47.529551 30.723253 
L 47.961549 30.836105 
L 48.368696 31.16803 
L 48.872917 32.041071 
L 49.424011 33.586565 
L 49.561006 34.527865 
L 49.437547 34.918988 
L 49.187917 35.016698 
L 48.860616 34.882169 
L 48.634147 34.574187 
L 48.656626 34.281677 
L 48.916573 34.000923 
L 49.514467 33.716326 
L 50.716931 33.420837 
L 52.774318 33.164201 
L 56.017298 33.001222 
L 60.292959 33.017988 
L 63.55426 33.221142 
L 64.687907 33.552609 
L 65.750284 34.078778 
L 66.061843 34.425854 
L 65.978735 34.602802 
L 65.598192 34.743123 
L 64.59383 34.832598 
L 63.770747 34.835065 
L 63.770747 34.835065 
" clip-path="url(#p815194490d)" style="fill: none; stroke: #006080; stroke-width: 0.5; stroke-linecap: square"/>
   </g>
   <g id="line2d_13">
    <path d="M 30.555455 34.455375 
L 30.66673 34.230238 
L 31.015005 34.072485 
L 32.717079 33.75163 
L 43.743045 31.649654 
L 44.747903 31.582483 
L 45.077788 31.71659 
L 45.520989 32.193942 
L 46.43148 33.823808 
L 46.775759 34.241408 
L 48.823793 33.472379 
L 50.790705 33.215699 
L 53.829843 33.05671 
L 58.028717 33.069924 
L 62.611291 33.301572 
L 63.981305 33.516175 
L 65.421309 34.005828 
L 66.049926 34.403018 
L 66.000959 34.547795 
L 65.626783 34.647822 
L 65.071896 34.688324 
L 65.071896 34.688324 
" clip-path="url(#p815194490d)" style="fill: none; stroke: #00bfff; stroke-width: 0.5; stroke-linecap: square"/>
   </g>
   <g id="patch_3">
    <path d="M 28.78 63.911437 
L 28.78 25.103437 
" style="fill: none; stroke: #000000; stroke-width: 0.8; stroke-linejoin: miter; stroke-linecap: square"/>
   </g>
   <g id="patch_4">
    <path d="M 67.84 63.911437 
L 67.84 25.103437 
" style="fill: none; stroke: #000000; stroke-width: 0.8; stroke-linejoin: miter; stroke-linecap: square"/>
   </g>
   <g id="patch_5">
    <path d="M 28.78 63.911438 
L 67.84 63.911438 
" style="fill: none; stroke: #000000; stroke-width: 0.8; stroke-linejoin: miter; stroke-linecap: square"/>
   </g>
   <g id="patch_6">
    <path d="M 28.78 25.103437 
L 67.84 25.103437 
" style="fill: none; stroke: #000000; stroke-width: 0.8; stroke-linejoin: miter; stroke-linecap: square"/>
   </g>
   <g id="text_6">
    <!-- $C_{deg}$ rate -->
    <g transform="translate(30.71 13.2) scale(0.08 -0.08)">
     <defs>
      <path id="DejaVuSans-Oblique-43" d="M 4447 4306 
L 4319 3641 
Q 4019 3944 3683 4091 
Q 3347 4238 2956 4238 
Q 2422 4238 2017 3981 
Q 1613 3725 1319 3200 
Q 1131 2863 1032 2486 
Q 934 2109 934 1728 
Q 934 1091 1264 756 
Q 1594 422 2222 422 
Q 2656 422 3056 561 
Q 3456 700 3834 978 
L 3688 231 
Q 3316 72 2936 -9 
Q 2556 -91 2175 -91 
Q 1278 -91 773 396 
Q 269 884 269 1753 
Q 269 2309 461 2846 
Q 653 3384 1013 3828 
Q 1394 4300 1883 4525 
Q 2372 4750 3022 4750 
Q 3422 4750 3780 4639 
Q 4138 4528 4447 4306 
z
" transform="scale(0.015625)"/>
      <path id="DejaVuSans-Oblique-64" d="M 2675 525 
Q 2444 222 2128 65 
Q 1813 -91 1428 -91 
Q 903 -91 598 267 
Q 294 625 294 1247 
Q 294 1766 478 2236 
Q 663 2706 1013 3078 
Q 1244 3325 1534 3454 
Q 1825 3584 2144 3584 
Q 2481 3584 2739 3421 
Q 2997 3259 3138 2956 
L 3513 4863 
L 4091 4863 
L 3144 0 
L 2566 0 
L 2675 525 
z
M 891 1350 
Q 891 897 1095 644 
Q 1300 391 1663 391 
Q 1931 391 2161 520 
Q 2391 650 2566 903 
Q 2750 1166 2856 1509 
Q 2963 1853 2963 2188 
Q 2963 2622 2758 2865 
Q 2553 3109 2194 3109 
Q 1922 3109 1687 2981 
Q 1453 2853 1288 2613 
Q 1106 2353 998 2009 
Q 891 1666 891 1350 
z
" transform="scale(0.015625)"/>
      <path id="DejaVuSans-Oblique-65" d="M 3078 2063 
Q 3088 2113 3092 2166 
Q 3097 2219 3097 2272 
Q 3097 2653 2873 2875 
Q 2650 3097 2266 3097 
Q 1838 3097 1509 2826 
Q 1181 2556 1013 2059 
L 3078 2063 
z
M 3578 1613 
L 903 1613 
Q 884 1494 878 1425 
Q 872 1356 872 1306 
Q 872 872 1139 634 
Q 1406 397 1894 397 
Q 2269 397 2603 481 
Q 2938 566 3225 728 
L 3116 159 
Q 2806 34 2476 -28 
Q 2147 -91 1806 -91 
Q 1078 -91 686 257 
Q 294 606 294 1247 
Q 294 1794 489 2264 
Q 684 2734 1063 3103 
Q 1306 3334 1642 3459 
Q 1978 3584 2356 3584 
Q 2950 3584 3301 3228 
Q 3653 2872 3653 2272 
Q 3653 2128 3634 1964 
Q 3616 1800 3578 1613 
z
" transform="scale(0.015625)"/>
      <path id="DejaVuSans-Oblique-67" d="M 3816 3500 
L 3219 434 
Q 3047 -456 2561 -893 
Q 2075 -1331 1253 -1331 
Q 950 -1331 690 -1286 
Q 431 -1241 206 -1147 
L 313 -588 
Q 525 -725 762 -790 
Q 1000 -856 1269 -856 
Q 1816 -856 2167 -557 
Q 2519 -259 2631 300 
L 2681 563 
Q 2441 288 2122 144 
Q 1803 0 1434 0 
Q 903 0 598 351 
Q 294 703 294 1319 
Q 294 1803 478 2267 
Q 663 2731 997 3091 
Q 1219 3328 1514 3456 
Q 1809 3584 2131 3584 
Q 2484 3584 2746 3420 
Q 3009 3256 3138 2956 
L 3238 3500 
L 3816 3500 
z
M 2950 2216 
Q 2950 2641 2750 2872 
Q 2550 3103 2181 3103 
Q 1953 3103 1747 3012 
Q 1541 2922 1394 2759 
Q 1156 2491 1023 2127 
Q 891 1763 891 1375 
Q 891 944 1092 712 
Q 1294 481 1672 481 
Q 2219 481 2584 976 
Q 2950 1472 2950 2216 
z
" transform="scale(0.015625)"/>
      <path id="DejaVuSans-20" transform="scale(0.015625)"/>
      <path id="DejaVuSans-72" d="M 2631 2963 
Q 2534 3019 2420 3045 
Q 2306 3072 2169 3072 
Q 1681 3072 1420 2755 
Q 1159 2438 1159 1844 
L 1159 0 
L 581 0 
L 581 3500 
L 1159 3500 
L 1159 2956 
Q 1341 3275 1631 3429 
Q 1922 3584 2338 3584 
Q 2397 3584 2469 3576 
Q 2541 3569 2628 3553 
L 2631 2963 
z
" transform="scale(0.015625)"/>
      <path id="DejaVuSans-61" d="M 2194 1759 
Q 1497 1759 1228 1600 
Q 959 1441 959 1056 
Q 959 750 1161 570 
Q 1363 391 1709 391 
Q 2188 391 2477 730 
Q 2766 1069 2766 1631 
L 2766 1759 
L 2194 1759 
z
M 3341 1997 
L 3341 0 
L 2766 0 
L 2766 531 
Q 2569 213 2275 61 
Q 1981 -91 1556 -91 
Q 1019 -91 701 211 
Q 384 513 384 1019 
Q 384 1609 779 1909 
Q 1175 2209 1959 2209 
L 2766 2209 
L 2766 2266 
Q 2766 2663 2505 2880 
Q 2244 3097 1772 3097 
Q 1472 3097 1187 3025 
Q 903 2953 641 2809 
L 641 3341 
Q 956 3463 1253 3523 
Q 1550 3584 1831 3584 
Q 2591 3584 2966 3190 
Q 3341 2797 3341 1997 
z
" transform="scale(0.015625)"/>
      <path id="DejaVuSans-74" d="M 1172 4494 
L 1172 3500 
L 2356 3500 
L 2356 3053 
L 1172 3053 
L 1172 1153 
Q 1172 725 1289 603 
Q 1406 481 1766 481 
L 2356 481 
L 2356 0 
L 1766 0 
Q 1100 0 847 248 
Q 594 497 594 1153 
L 594 3053 
L 172 3053 
L 172 3500 
L 594 3500 
L 594 4494 
L 1172 4494 
z
" transform="scale(0.015625)"/>
      <path id="DejaVuSans-65" d="M 3597 1894 
L 3597 1613 
L 953 1613 
Q 991 1019 1311 708 
Q 1631 397 2203 397 
Q 2534 397 2845 478 
Q 3156 559 3463 722 
L 3463 178 
Q 3153 47 2828 -22 
Q 2503 -91 2169 -91 
Q 1331 -91 842 396 
Q 353 884 353 1716 
Q 353 2575 817 3079 
Q 1281 3584 2069 3584 
Q 2775 3584 3186 3129 
Q 3597 2675 3597 1894 
z
M 3022 2063 
Q 3016 2534 2758 2815 
Q 2500 3097 2075 3097 
Q 1594 3097 1305 2825 
Q 1016 2553 972 2059 
L 3022 2063 
z
" transform="scale(0.015625)"/>
     </defs>
     <use xlink:href="#DejaVuSans-Oblique-43" transform="translate(0 0.78125)"/>
     <use xlink:href="#DejaVuSans-Oblique-64" transform="translate(69.824219 -15.625) scale(0.7)"/>
     <use xlink:href="#DejaVuSans-Oblique-65" transform="translate(114.257812 -15.625) scale(0.7)"/>
     <use xlink:href="#DejaVuSans-Oblique-67" transform="translate(157.324219 -15.625) scale(0.7)"/>
     <use xlink:href="#DejaVuSans-20" transform="translate(204.492188 0.78125)"/>
     <use xlink:href="#DejaVuSans-72" transform="translate(236.279297 0.78125)"/>
     <use xlink:href="#DejaVuSans-61" transform="translate(277.392578 0.78125)"/>
     <use xlink:href="#DejaVuSans-74" transform="translate(338.671875 0.78125)"/>
     <use xlink:href="#DejaVuSans-65" transform="translate(377.880859 0.78125)"/>
    </g>
   </g>
  </g>
 </g>
 <defs>
  <clipPath id="p815194490d">
   <rect x="28.78" y="25.103437" width="39.06" height="38.808"/>
  </clipPath>
 </defs>
</svg>
