<?xml version="1.0" encoding="utf-8" standalone="no"?>
<!DOCTYPE svg PUBLIC "-//W3C//DTD SVG 1.1//EN"
  "http://www.w3.org/Graphics/SVG/1.1/DTD/svg11.dtd">
<svg xmlns:xlink="http://www.w3.org/1999/xlink" width="74.098125pt" height="83.997062pt" viewBox="0 0 74.098125 83.997062" xmlns="http://www.w3.org/2000/svg" version="1.1">
 <metadata>
  <rdf:RDF xmlns:dc="http://purl.org/dc/elements/1.1/" xmlns:cc="http://creativecommons.org/ns#" xmlns:rdf="http://www.w3.org/1999/02/22-rdf-syntax-ns#">
   <cc:Work>
    <dc:type rdf:resource="http://purl.org/dc/dcmitype/StillImage"/>
    <dc:date>2025-05-08T16:20:35.985898</dc:date>
    <dc:format>image/svg+xml</dc:format>
    <dc:creator>
     <cc:Agent>
      <dc:title>Matplotlib v3.7.2, https://matplotlib.org/</dc:title>
     </cc:Agent>
    </dc:creator>
   </cc:Work>
  </rdf:RDF>
 </metadata>
 <defs>
  <style type="text/css">*{stroke-linejoin: round; stroke-linecap: butt}</style>
 </defs>
 <g id="figure_1">
  <g id="patch_1">
   <path d="M 0 83.997062 
L 74.098125 83.997062 
L 74.098125 -0 
L 0 -0 
z
" style="fill: #ffffff"/>
  </g>
  <g id="axes_1">
   <g id="patch_2">
    <path d="M 23.8 63.990188 
L 62.86 63.990188 
L 62.86 25.182187 
L 23.8 25.182187 
z
" style="fill: #ffffff"/>
   </g>
   <g id="matplotlib.axis_1">
    <g id="xtick_1">
     <g id="line2d_1">
      <path d="M 25.575455 63.990188 
L 25.575455 25.182187 
" clip-path="url(#p3d0a821ecc)" style="fill: none; stroke: #b0b0b0; stroke-width: 0.8; stroke-linecap: square"/>
     </g>
     <g id="line2d_2">
      <defs>
       <path id="m70ccfce0b4" d="M 0 0 
L 0 3.5 
" style="stroke: #000000; stroke-width: 0.8"/>
      </defs>
      <g>
       <use xlink:href="#m70ccfce0b4" x="25.575455" y="63.990188" style="stroke: #000000; stroke-width: 0.8"/>
      </g>
     </g>
     <g id="text_1">
      <!-- 0 -->
      <g transform="translate(23.666705 75.54925) scale(0.06 -0.06)">
       <defs>
        <path id="DejaVuSans-30" d="M 2034 4250 
Q 1547 4250 1301 3770 
Q 1056 3291 1056 2328 
Q 1056 1369 1301 889 
Q 1547 409 2034 409 
Q 2525 409 2770 889 
Q 3016 1369 3016 2328 
Q 3016 3291 2770 3770 
Q 2525 4250 2034 4250 
z
M 2034 4750 
Q 2819 4750 3233 4129 
Q 3647 3509 3647 2328 
Q 3647 1150 3233 529 
Q 2819 -91 2034 -91 
Q 1250 -91 836 529 
Q 422 1150 422 2328 
Q 422 3509 836 4129 
Q 1250 4750 2034 4750 
z
" transform="scale(0.015625)"/>
       </defs>
       <use xlink:href="#DejaVuSans-30"/>
      </g>
     </g>
    </g>
    <g id="xtick_2">
     <g id="line2d_3">
      <path d="M 61.084545 63.990188 
L 61.084545 25.182187 
" clip-path="url(#p3d0a821ecc)" style="fill: none; stroke: #b0b0b0; stroke-width: 0.8; stroke-linecap: square"/>
     </g>
     <g id="line2d_4">
      <g>
       <use xlink:href="#m70ccfce0b4" x="61.084545" y="63.990188" style="stroke: #000000; stroke-width: 0.8"/>
      </g>
     </g>
     <g id="text_2">
      <!-- 1 -->
      <g transform="translate(59.175795 75.54925) scale(0.06 -0.06)">
       <defs>
        <path id="DejaVuSans-31" d="M 794 531 
L 1825 531 
L 1825 4091 
L 703 3866 
L 703 4441 
L 1819 4666 
L 2450 4666 
L 2450 531 
L 3481 531 
L 3481 0 
L 794 0 
L 794 531 
z
" transform="scale(0.015625)"/>
       </defs>
       <use xlink:href="#DejaVuSans-31"/>
      </g>
     </g>
    </g>
   </g>
   <g id="matplotlib.axis_2">
    <g id="ytick_1">
     <g id="line2d_5">
      <path d="M 23.8 48.433585 
L 62.86 48.433585 
" clip-path="url(#p3d0a821ecc)" style="fill: none; stroke: #b0b0b0; stroke-width: 0.8; stroke-linecap: square"/>
     </g>
     <g id="line2d_6">
      <defs>
       <path id="m25028084dc" d="M 0 0 
L -3.5 0 
" style="stroke: #000000; stroke-width: 0.8"/>
      </defs>
      <g>
       <use xlink:href="#m25028084dc" x="23.8" y="48.433585" style="stroke: #000000; stroke-width: 0.8"/>
      </g>
     </g>
     <g id="text_3">
      <!-- $\mathdefault{0.0}$ -->
      <g transform="translate(7.2 50.713117) scale(0.06 -0.06)">
       <defs>
        <path id="DejaVuSans-2e" d="M 684 794 
L 1344 794 
L 1344 0 
L 684 0 
L 684 794 
z
" transform="scale(0.015625)"/>
       </defs>
       <use xlink:href="#DejaVuSans-30" transform="translate(0 0.78125)"/>
       <use xlink:href="#DejaVuSans-2e" transform="translate(63.623047 0.78125)"/>
       <use xlink:href="#DejaVuSans-30" transform="translate(95.410156 0.78125)"/>
      </g>
     </g>
    </g>
    <g id="ytick_2">
     <g id="line2d_7">
      <path d="M 23.8 30.117609 
L 62.86 30.117609 
" clip-path="url(#p3d0a821ecc)" style="fill: none; stroke: #b0b0b0; stroke-width: 0.8; stroke-linecap: square"/>
     </g>
     <g id="line2d_8">
      <g>
       <use xlink:href="#m25028084dc" x="23.8" y="30.117609" style="stroke: #000000; stroke-width: 0.8"/>
      </g>
     </g>
     <g id="text_4">
      <!-- $\mathdefault{2.5}$ -->
      <g transform="translate(7.2 32.39714) scale(0.06 -0.06)">
       <defs>
        <path id="DejaVuSans-32" d="M 1228 531 
L 3431 531 
L 3431 0 
L 469 0 
L 469 531 
Q 828 903 1448 1529 
Q 2069 2156 2228 2338 
Q 2531 2678 2651 2914 
Q 2772 3150 2772 3378 
Q 2772 3750 2511 3984 
Q 2250 4219 1831 4219 
Q 1534 4219 1204 4116 
Q 875 4013 500 3803 
L 500 4441 
Q 881 4594 1212 4672 
Q 1544 4750 1819 4750 
Q 2544 4750 2975 4387 
Q 3406 4025 3406 3419 
Q 3406 3131 3298 2873 
Q 3191 2616 2906 2266 
Q 2828 2175 2409 1742 
Q 1991 1309 1228 531 
z
" transform="scale(0.015625)"/>
        <path id="DejaVuSans-35" d="M 691 4666 
L 3169 4666 
L 3169 4134 
L 1269 4134 
L 1269 2991 
Q 1406 3038 1543 3061 
Q 1681 3084 1819 3084 
Q 2600 3084 3056 2656 
Q 3513 2228 3513 1497 
Q 3513 744 3044 326 
Q 2575 -91 1722 -91 
Q 1428 -91 1123 -41 
Q 819 9 494 109 
L 494 744 
Q 775 591 1075 516 
Q 1375 441 1709 441 
Q 2250 441 2565 725 
Q 2881 1009 2881 1497 
Q 2881 1984 2565 2268 
Q 2250 2553 1709 2553 
Q 1456 2553 1204 2497 
Q 953 2441 691 2322 
L 691 4666 
z
" transform="scale(0.015625)"/>
       </defs>
       <use xlink:href="#DejaVuSans-32" transform="translate(0 0.78125)"/>
       <use xlink:href="#DejaVuSans-2e" transform="translate(63.623047 0.78125)"/>
       <use xlink:href="#DejaVuSans-35" transform="translate(95.410156 0.78125)"/>
      </g>
     </g>
    </g>
    <g id="text_5">
     <!-- $\times\mathdefault{10^{−2}}\mathdefault{}$ -->
     <g transform="translate(10.129 23.837812) scale(0.06 -0.06)">
      <defs>
       <path id="DejaVuSans-d7" d="M 4488 3438 
L 3059 2003 
L 4488 575 
L 4116 197 
L 2681 1631 
L 1247 197 
L 878 575 
L 2303 2003 
L 878 3438 
L 1247 3816 
L 2681 2381 
L 4116 3816 
L 4488 3438 
z
" transform="scale(0.015625)"/>
       <path id="DejaVuSans-2212" d="M 678 2272 
L 4684 2272 
L 4684 1741 
L 678 1741 
L 678 2272 
z
" transform="scale(0.015625)"/>
      </defs>
      <use xlink:href="#DejaVuSans-d7" transform="translate(0 0.765625)"/>
      <use xlink:href="#DejaVuSans-31" transform="translate(83.789062 0.765625)"/>
      <use xlink:href="#DejaVuSans-30" transform="translate(147.412109 0.765625)"/>
      <use xlink:href="#DejaVuSans-2212" transform="translate(211.992188 39.046875) scale(0.7)"/>
      <use xlink:href="#DejaVuSans-32" transform="translate(270.644531 39.046875) scale(0.7)"/>
     </g>
    </g>
   </g>
   <g id="line2d_9">
    <path d="M 25.575455 48.429184 
L 25.66264 47.765481 
L 26.060379 46.683287 
L 27.688782 42.575744 
L 29.139081 39.110014 
L 30.725737 35.845914 
L 32.058126 33.527263 
L 33.613624 31.293366 
L 35.373851 29.357316 
L 36.319277 28.564945 
L 37.299812 27.916907 
L 38.308056 27.426977 
L 39.336083 27.102853 
L 40.375745 26.946187 
L 41.418958 26.953074 
L 42.457953 27.114865 
L 43.485483 27.419166 
L 45.480661 28.393261 
L 47.361667 29.739676 
L 49.099171 31.321028 
L 50.676573 33.015169 
L 52.732033 35.55937 
L 54.920628 38.637037 
L 58.029268 43.480356 
L 61.059986 48.536489 
L 60.965024 48.623119 
L 60.965024 48.623119 
" clip-path="url(#p3d0a821ecc)" style="fill: none; stroke: #ff6347; stroke-width: 0.5; stroke-linecap: square"/>
   </g>
   <g id="line2d_10">
    <path d="M 25.575455 48.428419 
L 25.682943 47.60396 
L 25.977521 46.871567 
L 26.420191 46.385016 
L 27.07107 46.035237 
L 29.409479 45.008143 
L 30.914998 44.010887 
L 33.206548 42.20673 
L 42.498625 34.59665 
L 46.168059 31.952073 
L 49.576919 29.741183 
L 51.442608 28.651138 
L 52.413968 28.217225 
L 53.402276 28.019209 
L 54.39283 28.179268 
L 55.365623 28.819187 
L 56.294147 30.082365 
L 57.144494 32.086549 
L 57.878743 34.804101 
L 58.465664 37.979558 
L 58.892101 41.231926 
L 59.297417 46.887816 
L 59.232586 50.916078 
L 58.85111 53.505308 
L 58.275912 54.993997 
L 57.945396 55.419392 
L 57.598745 55.674112 
L 57.243538 55.784967 
L 56.531855 55.666131 
L 55.849311 55.217154 
L 55.221866 54.554286 
L 54.417506 53.340975 
L 53.798711 52.032644 
L 53.267877 50.334128 
L 53.051151 48.807783 
L 53.109331 47.501813 
L 53.398818 46.419915 
L 53.877421 45.547279 
L 54.506485 44.86397 
L 55.25118 44.351166 
L 56.296924 43.926992 
L 57.418192 43.72554 
L 58.33334 43.738868 
L 59.001622 44.00193 
L 59.609864 44.54343 
L 60.274345 45.501091 
L 60.741724 46.547711 
L 61.043727 47.805455 
L 61.058867 48.902114 
L 60.832617 49.794249 
L 60.415576 50.47838 
L 59.856416 50.971235 
L 59.058404 51.3466 
L 58.029412 51.548284 
L 56.813893 51.555377 
L 55.200856 51.329608 
L 53.153014 50.801484 
L 50.227337 49.786245 
L 47.122626 48.745843 
L 46.294591 48.631126 
L 46.294591 48.631126 
" clip-path="url(#p3d0a821ecc)" style="fill: none; stroke: #803224; stroke-width: 0.5; stroke-linecap: square"/>
   </g>
   <g id="line2d_11">
    <path d="M 25.575455 48.430226 
L 25.677631 47.753766 
L 25.966923 47.16432 
L 26.391142 46.829134 
L 26.964371 46.696436 
L 27.881369 46.762181 
L 30.024272 46.978731 
L 31.416174 46.827985 
L 33.633649 46.325074 
L 38.367941 44.974678 
L 54.40773 40.283144 
L 58.173851 39.324182 
L 58.617418 39.289058 
L 59.060273 39.391202 
L 59.493939 39.698836 
L 59.906974 40.276901 
L 60.284605 41.194659 
L 60.608677 42.501872 
L 60.859594 44.17964 
L 61.084545 48.133825 
L 60.923182 51.922569 
L 60.424984 55.043799 
L 59.658496 57.474931 
L 58.686791 59.301498 
L 57.563972 60.61427 
L 56.335818 61.493461 
L 55.040876 62.008314 
L 53.711459 62.218669 
L 52.374477 62.17656 
L 51.052122 61.927538 
L 49.762446 61.511738 
L 47.919791 60.651971 
L 46.217553 59.599552 
L 44.201824 58.043147 
L 42.493312 56.455755 
L 40.48891 54.251637 
L 38.71141 51.914661 
L 37.528863 50.004862 
L 37.034467 48.844437 
L 36.993963 48.239835 
L 37.193407 47.910262 
L 37.637896 47.667839 
L 38.688912 47.408205 
L 41.576524 46.97887 
L 45.702998 46.57164 
L 48.792887 46.47332 
L 50.005803 46.600377 
L 50.498503 46.9179 
L 50.920189 47.485673 
L 51.134915 48.117571 
L 51.137017 48.7294 
L 50.940729 49.283022 
L 50.502722 49.826457 
L 49.782847 50.320499 
L 48.76275 50.732932 
L 47.321596 51.061813 
L 45.324614 51.264546 
L 42.833423 51.278552 
L 39.765437 51.059418 
L 36.281083 50.580839 
L 32.302106 49.802277 
L 31.555743 49.634197 
L 31.555743 49.634197 
" clip-path="url(#p3d0a821ecc)" style="fill: none; stroke: #000000; stroke-width: 0.5; stroke-linecap: square"/>
   </g>
   <g id="line2d_12">
    <path d="M 25.575455 48.431505 
L 25.688285 47.860298 
L 25.954198 47.47626 
L 26.370106 47.285383 
L 26.989234 47.295312 
L 28.053278 47.590385 
L 29.539768 47.972976 
L 30.637462 47.975603 
L 34.008885 47.653747 
L 45.93587 46.267325 
L 59.858599 44.689878 
L 60.220252 44.768156 
L 60.561907 45.141963 
L 60.848107 45.935934 
L 61.034915 47.17794 
L 61.084545 48.701482 
L 60.982703 50.244938 
L 60.737002 51.646422 
L 60.364501 52.858069 
L 59.883772 53.882972 
L 59.312132 54.738719 
L 58.31748 55.747655 
L 57.197097 56.479249 
L 55.987569 56.982911 
L 54.718987 57.298915 
L 52.977915 57.484105 
L 51.222705 57.454841 
L 49.064013 57.187889 
L 46.594959 56.620608 
L 44.319558 55.870278 
L 41.964876 54.860721 
L 39.707758 53.648464 
L 37.534148 52.218209 
L 35.536542 50.633749 
L 33.382051 48.614386 
L 33.311716 48.548391 
L 33.311716 48.548391 
" clip-path="url(#p3d0a821ecc)" style="fill: none; stroke: #006080; stroke-width: 0.5; stroke-linecap: square"/>
   </g>
   <g id="line2d_13">
    <path d="M 25.575455 48.429154 
L 25.671819 47.6726 
L 25.950846 46.915638 
L 26.391517 46.356875 
L 26.939691 46.023938 
L 27.669538 45.862203 
L 28.665106 45.908217 
L 29.938968 46.207067 
L 31.917901 46.934277 
L 34.794326 47.99658 
L 35.872242 48.111874 
L 38.425056 48.055586 
L 47.641933 47.706323 
L 47.641933 47.706323 
" clip-path="url(#p3d0a821ecc)" style="fill: none; stroke: #00bfff; stroke-width: 0.5; stroke-linecap: square"/>
   </g>
   <g id="patch_3">
    <path d="M 23.8 63.990188 
L 23.8 25.182187 
" style="fill: none; stroke: #000000; stroke-width: 0.8; stroke-linejoin: miter; stroke-linecap: square"/>
   </g>
   <g id="patch_4">
    <path d="M 62.86 63.990188 
L 62.86 25.182187 
" style="fill: none; stroke: #000000; stroke-width: 0.8; stroke-linejoin: miter; stroke-linecap: square"/>
   </g>
   <g id="patch_5">
    <path d="M 23.8 63.990188 
L 62.86 63.990188 
" style="fill: none; stroke: #000000; stroke-width: 0.8; stroke-linejoin: miter; stroke-linecap: square"/>
   </g>
   <g id="patch_6">
    <path d="M 23.8 25.182187 
L 62.86 25.182187 
" style="fill: none; stroke: #000000; stroke-width: 0.8; stroke-linejoin: miter; stroke-linecap: square"/>
   </g>
   <g id="text_6">
    <!-- logistic rate -->
    <g transform="translate(19.761875 13.27875) scale(0.08 -0.08)">
     <defs>
      <path id="DejaVuSans-6c" d="M 603 4863 
L 1178 4863 
L 1178 0 
L 603 0 
L 603 4863 
z
" transform="scale(0.015625)"/>
      <path id="DejaVuSans-6f" d="M 1959 3097 
Q 1497 3097 1228 2736 
Q 959 2375 959 1747 
Q 959 1119 1226 758 
Q 1494 397 1959 397 
Q 2419 397 2687 759 
Q 2956 1122 2956 1747 
Q 2956 2369 2687 2733 
Q 2419 3097 1959 3097 
z
M 1959 3584 
Q 2709 3584 3137 3096 
Q 3566 2609 3566 1747 
Q 3566 888 3137 398 
Q 2709 -91 1959 -91 
Q 1206 -91 779 398 
Q 353 888 353 1747 
Q 353 2609 779 3096 
Q 1206 3584 1959 3584 
z
" transform="scale(0.015625)"/>
      <path id="DejaVuSans-67" d="M 2906 1791 
Q 2906 2416 2648 2759 
Q 2391 3103 1925 3103 
Q 1463 3103 1205 2759 
Q 947 2416 947 1791 
Q 947 1169 1205 825 
Q 1463 481 1925 481 
Q 2391 481 2648 825 
Q 2906 1169 2906 1791 
z
M 3481 434 
Q 3481 -459 3084 -895 
Q 2688 -1331 1869 -1331 
Q 1566 -1331 1297 -1286 
Q 1028 -1241 775 -1147 
L 775 -588 
Q 1028 -725 1275 -790 
Q 1522 -856 1778 -856 
Q 2344 -856 2625 -561 
Q 2906 -266 2906 331 
L 2906 616 
Q 2728 306 2450 153 
Q 2172 0 1784 0 
Q 1141 0 747 490 
Q 353 981 353 1791 
Q 353 2603 747 3093 
Q 1141 3584 1784 3584 
Q 2172 3584 2450 3431 
Q 2728 3278 2906 2969 
L 2906 3500 
L 3481 3500 
L 3481 434 
z
" transform="scale(0.015625)"/>
      <path id="DejaVuSans-69" d="M 603 3500 
L 1178 3500 
L 1178 0 
L 603 0 
L 603 3500 
z
M 603 4863 
L 1178 4863 
L 1178 4134 
L 603 4134 
L 603 4863 
z
" transform="scale(0.015625)"/>
      <path id="DejaVuSans-73" d="M 2834 3397 
L 2834 2853 
Q 2591 2978 2328 3040 
Q 2066 3103 1784 3103 
Q 1356 3103 1142 2972 
Q 928 2841 928 2578 
Q 928 2378 1081 2264 
Q 1234 2150 1697 2047 
L 1894 2003 
Q 2506 1872 2764 1633 
Q 3022 1394 3022 966 
Q 3022 478 2636 193 
Q 2250 -91 1575 -91 
Q 1294 -91 989 -36 
Q 684 19 347 128 
L 347 722 
Q 666 556 975 473 
Q 1284 391 1588 391 
Q 1994 391 2212 530 
Q 2431 669 2431 922 
Q 2431 1156 2273 1281 
Q 2116 1406 1581 1522 
L 1381 1569 
Q 847 1681 609 1914 
Q 372 2147 372 2553 
Q 372 3047 722 3315 
Q 1072 3584 1716 3584 
Q 2034 3584 2315 3537 
Q 2597 3491 2834 3397 
z
" transform="scale(0.015625)"/>
      <path id="DejaVuSans-74" d="M 1172 4494 
L 1172 3500 
L 2356 3500 
L 2356 3053 
L 1172 3053 
L 1172 1153 
Q 1172 725 1289 603 
Q 1406 481 1766 481 
L 2356 481 
L 2356 0 
L 1766 0 
Q 1100 0 847 248 
Q 594 497 594 1153 
L 594 3053 
L 172 3053 
L 172 3500 
L 594 3500 
L 594 4494 
L 1172 4494 
z
" transform="scale(0.015625)"/>
      <path id="DejaVuSans-63" d="M 3122 3366 
L 3122 2828 
Q 2878 2963 2633 3030 
Q 2388 3097 2138 3097 
Q 1578 3097 1268 2742 
Q 959 2388 959 1747 
Q 959 1106 1268 751 
Q 1578 397 2138 397 
Q 2388 397 2633 464 
Q 2878 531 3122 666 
L 3122 134 
Q 2881 22 2623 -34 
Q 2366 -91 2075 -91 
Q 1284 -91 818 406 
Q 353 903 353 1747 
Q 353 2603 823 3093 
Q 1294 3584 2113 3584 
Q 2378 3584 2631 3529 
Q 2884 3475 3122 3366 
z
" transform="scale(0.015625)"/>
      <path id="DejaVuSans-20" transform="scale(0.015625)"/>
      <path id="DejaVuSans-72" d="M 2631 2963 
Q 2534 3019 2420 3045 
Q 2306 3072 2169 3072 
Q 1681 3072 1420 2755 
Q 1159 2438 1159 1844 
L 1159 0 
L 581 0 
L 581 3500 
L 1159 3500 
L 1159 2956 
Q 1341 3275 1631 3429 
Q 1922 3584 2338 3584 
Q 2397 3584 2469 3576 
Q 2541 3569 2628 3553 
L 2631 2963 
z
" transform="scale(0.015625)"/>
      <path id="DejaVuSans-61" d="M 2194 1759 
Q 1497 1759 1228 1600 
Q 959 1441 959 1056 
Q 959 750 1161 570 
Q 1363 391 1709 391 
Q 2188 391 2477 730 
Q 2766 1069 2766 1631 
L 2766 1759 
L 2194 1759 
z
M 3341 1997 
L 3341 0 
L 2766 0 
L 2766 531 
Q 2569 213 2275 61 
Q 1981 -91 1556 -91 
Q 1019 -91 701 211 
Q 384 513 384 1019 
Q 384 1609 779 1909 
Q 1175 2209 1959 2209 
L 2766 2209 
L 2766 2266 
Q 2766 2663 2505 2880 
Q 2244 3097 1772 3097 
Q 1472 3097 1187 3025 
Q 903 2953 641 2809 
L 641 3341 
Q 956 3463 1253 3523 
Q 1550 3584 1831 3584 
Q 2591 3584 2966 3190 
Q 3341 2797 3341 1997 
z
" transform="scale(0.015625)"/>
      <path id="DejaVuSans-65" d="M 3597 1894 
L 3597 1613 
L 953 1613 
Q 991 1019 1311 708 
Q 1631 397 2203 397 
Q 2534 397 2845 478 
Q 3156 559 3463 722 
L 3463 178 
Q 3153 47 2828 -22 
Q 2503 -91 2169 -91 
Q 1331 -91 842 396 
Q 353 884 353 1716 
Q 353 2575 817 3079 
Q 1281 3584 2069 3584 
Q 2775 3584 3186 3129 
Q 3597 2675 3597 1894 
z
M 3022 2063 
Q 3016 2534 2758 2815 
Q 2500 3097 2075 3097 
Q 1594 3097 1305 2825 
Q 1016 2553 972 2059 
L 3022 2063 
z
" transform="scale(0.015625)"/>
     </defs>
     <use xlink:href="#DejaVuSans-6c"/>
     <use xlink:href="#DejaVuSans-6f" x="27.783203"/>
     <use xlink:href="#DejaVuSans-67" x="88.964844"/>
     <use xlink:href="#DejaVuSans-69" x="152.441406"/>
     <use xlink:href="#DejaVuSans-73" x="180.224609"/>
     <use xlink:href="#DejaVuSans-74" x="232.324219"/>
     <use xlink:href="#DejaVuSans-69" x="271.533203"/>
     <use xlink:href="#DejaVuSans-63" x="299.316406"/>
     <use xlink:href="#DejaVuSans-20" x="354.296875"/>
     <use xlink:href="#DejaVuSans-72" x="386.083984"/>
     <use xlink:href="#DejaVuSans-61" x="427.197266"/>
     <use xlink:href="#DejaVuSans-74" x="488.476562"/>
     <use xlink:href="#DejaVuSans-65" x="527.685547"/>
    </g>
   </g>
  </g>
 </g>
 <defs>
  <clipPath id="p3d0a821ecc">
   <rect x="23.8" y="25.182187" width="39.06" height="38.808"/>
  </clipPath>
 </defs>
</svg>
