<?xml version="1.0" encoding="utf-8" standalone="no"?>
<!DOCTYPE svg PUBLIC "-//W3C//DTD SVG 1.1//EN"
  "http://www.w3.org/Graphics/SVG/1.1/DTD/svg11.dtd">
<svg xmlns:xlink="http://www.w3.org/1999/xlink" width="71.195pt" height="83.997062pt" viewBox="0 0 71.195 83.997062" xmlns="http://www.w3.org/2000/svg" version="1.1">
 <metadata>
  <rdf:RDF xmlns:dc="http://purl.org/dc/elements/1.1/" xmlns:cc="http://creativecommons.org/ns#" xmlns:rdf="http://www.w3.org/1999/02/22-rdf-syntax-ns#">
   <cc:Work>
    <dc:type rdf:resource="http://purl.org/dc/dcmitype/StillImage"/>
    <dc:date>2025-05-08T16:20:36.176582</dc:date>
    <dc:format>image/svg+xml</dc:format>
    <dc:creator>
     <cc:Agent>
      <dc:title>Matplotlib v3.7.2, https://matplotlib.org/</dc:title>
     </cc:Agent>
    </dc:creator>
   </cc:Work>
  </rdf:RDF>
 </metadata>
 <defs>
  <style type="text/css">*{stroke-linejoin: round; stroke-linecap: butt}</style>
 </defs>
 <g id="figure_1">
  <g id="patch_1">
   <path d="M 0 83.997062 
L 71.195 83.997062 
L 71.195 -0 
L 0 -0 
z
" style="fill: #ffffff"/>
  </g>
  <g id="axes_1">
   <g id="patch_2">
    <path d="M 23.08 63.990188 
L 62.14 63.990188 
L 62.14 25.182187 
L 23.08 25.182187 
z
" style="fill: #ffffff"/>
   </g>
   <g id="matplotlib.axis_1">
    <g id="xtick_1">
     <g id="line2d_1">
      <path d="M 24.855455 63.990188 
L 24.855455 25.182187 
" clip-path="url(#p655dae565f)" style="fill: none; stroke: #b0b0b0; stroke-width: 0.8; stroke-linecap: square"/>
     </g>
     <g id="line2d_2">
      <defs>
       <path id="mbbc3de0f8d" d="M 0 0 
L 0 3.5 
" style="stroke: #000000; stroke-width: 0.8"/>
      </defs>
      <g>
       <use xlink:href="#mbbc3de0f8d" x="24.855455" y="63.990188" style="stroke: #000000; stroke-width: 0.8"/>
      </g>
     </g>
     <g id="text_1">
      <!-- 0 -->
      <g transform="translate(22.946705 75.54925) scale(0.06 -0.06)">
       <defs>
        <path id="DejaVuSans-30" d="M 2034 4250 
Q 1547 4250 1301 3770 
Q 1056 3291 1056 2328 
Q 1056 1369 1301 889 
Q 1547 409 2034 409 
Q 2525 409 2770 889 
Q 3016 1369 3016 2328 
Q 3016 3291 2770 3770 
Q 2525 4250 2034 4250 
z
M 2034 4750 
Q 2819 4750 3233 4129 
Q 3647 3509 3647 2328 
Q 3647 1150 3233 529 
Q 2819 -91 2034 -91 
Q 1250 -91 836 529 
Q 422 1150 422 2328 
Q 422 3509 836 4129 
Q 1250 4750 2034 4750 
z
" transform="scale(0.015625)"/>
       </defs>
       <use xlink:href="#DejaVuSans-30"/>
      </g>
     </g>
    </g>
    <g id="xtick_2">
     <g id="line2d_3">
      <path d="M 60.364545 63.990188 
L 60.364545 25.182187 
" clip-path="url(#p655dae565f)" style="fill: none; stroke: #b0b0b0; stroke-width: 0.8; stroke-linecap: square"/>
     </g>
     <g id="line2d_4">
      <g>
       <use xlink:href="#mbbc3de0f8d" x="60.364545" y="63.990188" style="stroke: #000000; stroke-width: 0.8"/>
      </g>
     </g>
     <g id="text_2">
      <!-- 1 -->
      <g transform="translate(58.455795 75.54925) scale(0.06 -0.06)">
       <defs>
        <path id="DejaVuSans-31" d="M 794 531 
L 1825 531 
L 1825 4091 
L 703 3866 
L 703 4441 
L 1819 4666 
L 2450 4666 
L 2450 531 
L 3481 531 
L 3481 0 
L 794 0 
L 794 531 
z
" transform="scale(0.015625)"/>
       </defs>
       <use xlink:href="#DejaVuSans-31"/>
      </g>
     </g>
    </g>
   </g>
   <g id="matplotlib.axis_2">
    <g id="ytick_1">
     <g id="line2d_5">
      <path d="M 23.08 60.35135 
L 62.14 60.35135 
" clip-path="url(#p655dae565f)" style="fill: none; stroke: #b0b0b0; stroke-width: 0.8; stroke-linecap: square"/>
     </g>
     <g id="line2d_6">
      <defs>
       <path id="mea0c210bee" d="M 0 0 
L -3.5 0 
" style="stroke: #000000; stroke-width: 0.8"/>
      </defs>
      <g>
       <use xlink:href="#mea0c210bee" x="23.08" y="60.35135" style="stroke: #000000; stroke-width: 0.8"/>
      </g>
     </g>
     <g id="text_3">
      <!-- $\mathdefault{−5}$ -->
      <g transform="translate(7.2 62.630881) scale(0.06 -0.06)">
       <defs>
        <path id="DejaVuSans-2212" d="M 678 2272 
L 4684 2272 
L 4684 1741 
L 678 1741 
L 678 2272 
z
" transform="scale(0.015625)"/>
        <path id="DejaVuSans-35" d="M 691 4666 
L 3169 4666 
L 3169 4134 
L 1269 4134 
L 1269 2991 
Q 1406 3038 1543 3061 
Q 1681 3084 1819 3084 
Q 2600 3084 3056 2656 
Q 3513 2228 3513 1497 
Q 3513 744 3044 326 
Q 2575 -91 1722 -91 
Q 1428 -91 1123 -41 
Q 819 9 494 109 
L 494 744 
Q 775 591 1075 516 
Q 1375 441 1709 441 
Q 2250 441 2565 725 
Q 2881 1009 2881 1497 
Q 2881 1984 2565 2268 
Q 2250 2553 1709 2553 
Q 1456 2553 1204 2497 
Q 953 2441 691 2322 
L 691 4666 
z
" transform="scale(0.015625)"/>
       </defs>
       <use xlink:href="#DejaVuSans-2212" transform="translate(0 0.09375)"/>
       <use xlink:href="#DejaVuSans-35" transform="translate(83.789062 0.09375)"/>
      </g>
     </g>
    </g>
    <g id="ytick_2">
     <g id="line2d_7">
      <path d="M 23.08 37.131382 
L 62.14 37.131382 
" clip-path="url(#p655dae565f)" style="fill: none; stroke: #b0b0b0; stroke-width: 0.8; stroke-linecap: square"/>
     </g>
     <g id="line2d_8">
      <g>
       <use xlink:href="#mea0c210bee" x="23.08" y="37.131382" style="stroke: #000000; stroke-width: 0.8"/>
      </g>
     </g>
     <g id="text_4">
      <!-- $\mathdefault{0}$ -->
      <g transform="translate(12.24 39.410913) scale(0.06 -0.06)">
       <use xlink:href="#DejaVuSans-30" transform="translate(0 0.78125)"/>
      </g>
     </g>
    </g>
    <g id="text_5">
     <!-- $\times\mathdefault{10^{−2}}\mathdefault{}$ -->
     <g transform="translate(9.409 23.837812) scale(0.06 -0.06)">
      <defs>
       <path id="DejaVuSans-d7" d="M 4488 3438 
L 3059 2003 
L 4488 575 
L 4116 197 
L 2681 1631 
L 1247 197 
L 878 575 
L 2303 2003 
L 878 3438 
L 1247 3816 
L 2681 2381 
L 4116 3816 
L 4488 3438 
z
" transform="scale(0.015625)"/>
       <path id="DejaVuSans-32" d="M 1228 531 
L 3431 531 
L 3431 0 
L 469 0 
L 469 531 
Q 828 903 1448 1529 
Q 2069 2156 2228 2338 
Q 2531 2678 2651 2914 
Q 2772 3150 2772 3378 
Q 2772 3750 2511 3984 
Q 2250 4219 1831 4219 
Q 1534 4219 1204 4116 
Q 875 4013 500 3803 
L 500 4441 
Q 881 4594 1212 4672 
Q 1544 4750 1819 4750 
Q 2544 4750 2975 4387 
Q 3406 4025 3406 3419 
Q 3406 3131 3298 2873 
Q 3191 2616 2906 2266 
Q 2828 2175 2409 1742 
Q 1991 1309 1228 531 
z
" transform="scale(0.015625)"/>
      </defs>
      <use xlink:href="#DejaVuSans-d7" transform="translate(0 0.765625)"/>
      <use xlink:href="#DejaVuSans-31" transform="translate(83.789062 0.765625)"/>
      <use xlink:href="#DejaVuSans-30" transform="translate(147.412109 0.765625)"/>
      <use xlink:href="#DejaVuSans-2212" transform="translate(211.992188 39.046875) scale(0.7)"/>
      <use xlink:href="#DejaVuSans-32" transform="translate(270.644531 39.046875) scale(0.7)"/>
     </g>
    </g>
   </g>
   <g id="line2d_9">
    <path d="M 24.855455 37.13066 
L 24.968976 36.823208 
L 25.315535 36.553603 
L 25.994792 36.367946 
L 27.672929 36.22554 
L 31.545423 35.870485 
L 50.007518 33.74393 
L 50.516005 33.923687 
L 50.978066 34.374101 
L 51.348197 35.096698 
L 51.67842 36.253604 
L 51.757802 37.397571 
L 51.556472 38.114394 
L 51.185133 38.530105 
L 50.596327 38.767642 
L 49.830129 38.79905 
L 48.743287 38.589003 
L 47.522939 38.119954 
L 46.656722 37.577368 
L 46.383446 37.18036 
L 46.455398 36.935332 
L 46.78924 36.713992 
L 47.612718 36.486521 
L 49.35945 36.273552 
L 52.614268 36.123649 
L 57.221356 36.13487 
L 59.031949 36.291106 
L 59.904205 36.641823 
L 60.33373 37.015547 
L 60.329722 37.24397 
L 60.075311 37.424577 
L 59.398775 37.591526 
L 57.904782 37.701759 
L 55.052067 37.66236 
L 54.342112 37.631524 
L 54.342112 37.631524 
" clip-path="url(#p655dae565f)" style="fill: none; stroke: #00bfff; stroke-width: 0.5; stroke-linecap: square"/>
   </g>
   <g id="line2d_10">
    <path d="M 24.855455 37.12999 
L 24.955719 36.751858 
L 25.262564 36.382925 
L 25.810266 36.118374 
L 26.736238 35.974606 
L 28.893047 35.955748 
L 31.587917 35.836571 
L 35.206079 35.418588 
L 45.372594 33.924036 
L 55.792389 32.506147 
L 57.973205 32.282597 
L 58.708271 32.447467 
L 59.05995 32.676279 
L 59.389567 33.037952 
L 59.937086 34.206786 
L 60.269232 35.744518 
L 60.364545 37.219589 
L 60.252053 38.448479 
L 59.971396 39.42566 
L 59.558692 40.184516 
L 59.044602 40.759833 
L 58.138277 41.344066 
L 57.129614 41.667267 
L 55.713304 41.80399 
L 54.293329 41.709748 
L 52.597876 41.392472 
L 50.479358 40.764301 
L 48.282639 39.885905 
L 46.249254 38.84734 
L 44.925539 37.94426 
L 44.421681 37.368859 
L 44.373785 37.026259 
L 44.573112 36.775361 
L 45.08492 36.544606 
L 46.229182 36.309523 
L 48.704253 36.06885 
L 53.189004 35.875831 
L 57.556385 35.892753 
L 58.553547 36.044383 
L 59.261663 36.384904 
L 59.73409 36.845461 
L 59.81649 37.193495 
L 59.652595 37.488553 
L 59.189425 37.771032 
L 58.299982 38.025801 
L 56.675571 38.235195 
L 54.092453 38.32704 
L 50.1827 38.228881 
L 46.415432 37.99797 
L 46.415432 37.99797 
" clip-path="url(#p655dae565f)" style="fill: none; stroke: #006080; stroke-width: 0.5; stroke-linecap: square"/>
   </g>
   <g id="line2d_11">
    <path d="M 24.855455 37.129252 
L 24.957631 36.700463 
L 25.246923 36.32683 
L 25.749779 36.093302 
L 26.49751 36.028437 
L 28.597811 36.19796 
L 30.166047 36.165142 
L 32.514927 35.859599 
L 37.988128 34.874278 
L 54.896011 31.762132 
L 57.897418 31.334922 
L 58.340273 31.399668 
L 58.773939 31.594669 
L 59.186974 31.961089 
L 59.564605 32.542829 
L 59.888677 33.371435 
L 60.139594 34.434925 
L 60.364545 36.941372 
L 60.203182 39.342951 
L 59.704984 41.321411 
L 58.938496 42.862437 
L 57.966791 44.020247 
L 56.843973 44.852377 
L 55.615818 45.409672 
L 54.320876 45.736022 
L 52.991459 45.86936 
L 50.990252 45.778475 
L 49.042446 45.421256 
L 47.199791 44.876274 
L 44.96541 43.969402 
L 42.589014 42.716815 
L 40.366243 41.262161 
L 38.353122 39.662934 
L 36.888491 38.220865 
L 36.314467 37.391809 
L 36.273963 37.008569 
L 36.473407 36.799661 
L 37.032117 36.62129 
L 38.652507 36.406465 
L 43.411801 36.031656 
L 47.787571 35.886774 
L 49.373862 35.992422 
L 49.918441 36.264434 
L 50.318536 36.701221 
L 50.441524 37.156253 
L 50.327796 37.524757 
L 49.971482 37.892458 
L 49.326412 38.231618 
L 48.153353 38.566548 
L 46.344873 38.822254 
L 43.77654 38.943888 
L 40.348335 38.871587 
L 36.091933 38.547232 
L 31.134877 37.935549 
L 30.835742 37.892416 
L 30.835742 37.892416 
" clip-path="url(#p655dae565f)" style="fill: none; stroke: #000000; stroke-width: 0.5; stroke-linecap: square"/>
   </g>
   <g id="line2d_12">
    <path d="M 24.855455 37.128367 
L 24.975027 36.656952 
L 25.270382 36.35748 
L 25.722863 36.249813 
L 26.505097 36.335075 
L 28.000548 36.511996 
L 29.281636 36.375957 
L 32.201885 35.793041 
L 37.787298 34.436835 
L 55.84833 29.913461 
L 57.545374 29.625911 
L 58.119072 29.727035 
L 58.677682 30.054769 
L 59.201261 30.681512 
L 59.664028 31.684574 
L 60.034213 33.120731 
L 60.277356 34.971288 
L 60.364545 37.10881 
L 60.280807 39.34263 
L 60.026391 41.505773 
L 59.611855 43.498927 
L 59.052635 45.280225 
L 58.365694 46.840029 
L 57.567942 48.183066 
L 56.675618 49.319406 
L 55.704091 50.260573 
L 54.667839 51.018047 
L 53.580476 51.602784 
L 52.454802 52.025153 
L 51.302849 52.29503 
L 50.135904 52.421973 
L 48.964538 52.415415 
L 47.798597 52.284869 
L 45.51868 51.69143 
L 43.359654 50.726127 
L 41.371363 49.483315 
L 39.588513 48.065522 
L 38.029868 46.576306 
L 36.11619 44.408622 
L 34.282702 41.962357 
L 32.360692 38.989999 
L 31.456689 37.259132 
L 31.49619 36.980764 
L 31.780943 36.861747 
L 33.196927 36.65917 
L 38.566436 36.109749 
L 41.598466 35.991458 
L 42.362733 36.094419 
L 42.716364 36.348248 
L 42.974486 36.807882 
L 43.005511 37.321259 
L 42.803193 37.816216 
L 42.385385 38.256442 
L 41.665129 38.679888 
L 40.60167 39.036658 
L 39.031832 39.299173 
L 37.160015 39.381242 
L 34.966977 39.260746 
L 32.424147 38.887848 
L 29.600121 38.231631 
L 25.973542 37.319539 
L 25.973542 37.319539 
" clip-path="url(#p655dae565f)" style="fill: none; stroke: #803224; stroke-width: 0.5; stroke-linecap: square"/>
   </g>
   <g id="line2d_13">
    <path d="M 24.855455 37.127981 
L 24.962815 36.731708 
L 25.196302 36.548254 
L 25.614814 36.531191 
L 27.343468 36.692675 
L 29.077488 36.345631 
L 32.236589 35.480074 
L 36.597268 34.034414 
L 45.612764 30.741651 
L 54.679748 27.535741 
L 56.184986 27.059671 
L 56.963109 26.946187 
L 57.742555 27.104886 
L 58.496409 27.679455 
L 59.187989 28.804565 
L 59.769786 30.623685 
L 60.183178 33.242152 
L 60.364545 36.623864 
L 60.26079 40.525742 
L 59.845464 44.579633 
L 59.121767 48.456303 
L 58.113602 51.951512 
L 56.855402 54.968612 
L 55.385847 57.470948 
L 53.744978 59.447829 
L 51.973109 60.897784 
L 50.110505 61.822452 
L 48.197232 62.226188 
L 46.272887 62.118942 
L 44.376014 61.521219 
L 42.543076 60.469964 
L 40.806966 59.023633 
L 39.195208 57.264052 
L 37.728181 55.292787 
L 36.417878 53.2214 
L 34.272902 49.192446 
L 32.099408 44.396866 
L 29.107318 37.666835 
L 28.905841 37.052565 
L 29.138067 36.961033 
L 31.016351 36.695577 
L 35.4955 36.211976 
L 36.773602 36.2456 
L 37.024903 36.407125 
L 37.22582 36.84165 
L 37.231294 37.401952 
L 37.019052 37.963349 
L 36.604052 38.453315 
L 35.888917 38.896694 
L 35.010708 39.163475 
L 33.886413 39.263975 
L 32.603689 39.159931 
L 31.03577 38.807777 
L 25.40522 37.226343 
L 25.40522 37.226343 
" clip-path="url(#p655dae565f)" style="fill: none; stroke: #ff6347; stroke-width: 0.5; stroke-linecap: square"/>
   </g>
   <g id="patch_3">
    <path d="M 23.08 63.990188 
L 23.08 25.182187 
" style="fill: none; stroke: #000000; stroke-width: 0.8; stroke-linejoin: miter; stroke-linecap: square"/>
   </g>
   <g id="patch_4">
    <path d="M 62.14 63.990188 
L 62.14 25.182187 
" style="fill: none; stroke: #000000; stroke-width: 0.8; stroke-linejoin: miter; stroke-linecap: square"/>
   </g>
   <g id="patch_5">
    <path d="M 23.08 63.990188 
L 62.14 63.990188 
" style="fill: none; stroke: #000000; stroke-width: 0.8; stroke-linejoin: miter; stroke-linecap: square"/>
   </g>
   <g id="patch_6">
    <path d="M 23.08 25.182187 
L 62.14 25.182187 
" style="fill: none; stroke: #000000; stroke-width: 0.8; stroke-linejoin: miter; stroke-linecap: square"/>
   </g>
   <g id="text_6">
    <!-- Protease B -->
    <g transform="translate(21.225 13.27875) scale(0.08 -0.08)">
     <defs>
      <path id="DejaVuSans-50" d="M 1259 4147 
L 1259 2394 
L 2053 2394 
Q 2494 2394 2734 2622 
Q 2975 2850 2975 3272 
Q 2975 3691 2734 3919 
Q 2494 4147 2053 4147 
L 1259 4147 
z
M 628 4666 
L 2053 4666 
Q 2838 4666 3239 4311 
Q 3641 3956 3641 3272 
Q 3641 2581 3239 2228 
Q 2838 1875 2053 1875 
L 1259 1875 
L 1259 0 
L 628 0 
L 628 4666 
z
" transform="scale(0.015625)"/>
      <path id="DejaVuSans-72" d="M 2631 2963 
Q 2534 3019 2420 3045 
Q 2306 3072 2169 3072 
Q 1681 3072 1420 2755 
Q 1159 2438 1159 1844 
L 1159 0 
L 581 0 
L 581 3500 
L 1159 3500 
L 1159 2956 
Q 1341 3275 1631 3429 
Q 1922 3584 2338 3584 
Q 2397 3584 2469 3576 
Q 2541 3569 2628 3553 
L 2631 2963 
z
" transform="scale(0.015625)"/>
      <path id="DejaVuSans-6f" d="M 1959 3097 
Q 1497 3097 1228 2736 
Q 959 2375 959 1747 
Q 959 1119 1226 758 
Q 1494 397 1959 397 
Q 2419 397 2687 759 
Q 2956 1122 2956 1747 
Q 2956 2369 2687 2733 
Q 2419 3097 1959 3097 
z
M 1959 3584 
Q 2709 3584 3137 3096 
Q 3566 2609 3566 1747 
Q 3566 888 3137 398 
Q 2709 -91 1959 -91 
Q 1206 -91 779 398 
Q 353 888 353 1747 
Q 353 2609 779 3096 
Q 1206 3584 1959 3584 
z
" transform="scale(0.015625)"/>
      <path id="DejaVuSans-74" d="M 1172 4494 
L 1172 3500 
L 2356 3500 
L 2356 3053 
L 1172 3053 
L 1172 1153 
Q 1172 725 1289 603 
Q 1406 481 1766 481 
L 2356 481 
L 2356 0 
L 1766 0 
Q 1100 0 847 248 
Q 594 497 594 1153 
L 594 3053 
L 172 3053 
L 172 3500 
L 594 3500 
L 594 4494 
L 1172 4494 
z
" transform="scale(0.015625)"/>
      <path id="DejaVuSans-65" d="M 3597 1894 
L 3597 1613 
L 953 1613 
Q 991 1019 1311 708 
Q 1631 397 2203 397 
Q 2534 397 2845 478 
Q 3156 559 3463 722 
L 3463 178 
Q 3153 47 2828 -22 
Q 2503 -91 2169 -91 
Q 1331 -91 842 396 
Q 353 884 353 1716 
Q 353 2575 817 3079 
Q 1281 3584 2069 3584 
Q 2775 3584 3186 3129 
Q 3597 2675 3597 1894 
z
M 3022 2063 
Q 3016 2534 2758 2815 
Q 2500 3097 2075 3097 
Q 1594 3097 1305 2825 
Q 1016 2553 972 2059 
L 3022 2063 
z
" transform="scale(0.015625)"/>
      <path id="DejaVuSans-61" d="M 2194 1759 
Q 1497 1759 1228 1600 
Q 959 1441 959 1056 
Q 959 750 1161 570 
Q 1363 391 1709 391 
Q 2188 391 2477 730 
Q 2766 1069 2766 1631 
L 2766 1759 
L 2194 1759 
z
M 3341 1997 
L 3341 0 
L 2766 0 
L 2766 531 
Q 2569 213 2275 61 
Q 1981 -91 1556 -91 
Q 1019 -91 701 211 
Q 384 513 384 1019 
Q 384 1609 779 1909 
Q 1175 2209 1959 2209 
L 2766 2209 
L 2766 2266 
Q 2766 2663 2505 2880 
Q 2244 3097 1772 3097 
Q 1472 3097 1187 3025 
Q 903 2953 641 2809 
L 641 3341 
Q 956 3463 1253 3523 
Q 1550 3584 1831 3584 
Q 2591 3584 2966 3190 
Q 3341 2797 3341 1997 
z
" transform="scale(0.015625)"/>
      <path id="DejaVuSans-73" d="M 2834 3397 
L 2834 2853 
Q 2591 2978 2328 3040 
Q 2066 3103 1784 3103 
Q 1356 3103 1142 2972 
Q 928 2841 928 2578 
Q 928 2378 1081 2264 
Q 1234 2150 1697 2047 
L 1894 2003 
Q 2506 1872 2764 1633 
Q 3022 1394 3022 966 
Q 3022 478 2636 193 
Q 2250 -91 1575 -91 
Q 1294 -91 989 -36 
Q 684 19 347 128 
L 347 722 
Q 666 556 975 473 
Q 1284 391 1588 391 
Q 1994 391 2212 530 
Q 2431 669 2431 922 
Q 2431 1156 2273 1281 
Q 2116 1406 1581 1522 
L 1381 1569 
Q 847 1681 609 1914 
Q 372 2147 372 2553 
Q 372 3047 722 3315 
Q 1072 3584 1716 3584 
Q 2034 3584 2315 3537 
Q 2597 3491 2834 3397 
z
" transform="scale(0.015625)"/>
      <path id="DejaVuSans-20" transform="scale(0.015625)"/>
      <path id="DejaVuSans-42" d="M 1259 2228 
L 1259 519 
L 2272 519 
Q 2781 519 3026 730 
Q 3272 941 3272 1375 
Q 3272 1813 3026 2020 
Q 2781 2228 2272 2228 
L 1259 2228 
z
M 1259 4147 
L 1259 2741 
L 2194 2741 
Q 2656 2741 2882 2914 
Q 3109 3088 3109 3444 
Q 3109 3797 2882 3972 
Q 2656 4147 2194 4147 
L 1259 4147 
z
M 628 4666 
L 2241 4666 
Q 2963 4666 3353 4366 
Q 3744 4066 3744 3513 
Q 3744 3084 3544 2831 
Q 3344 2578 2956 2516 
Q 3422 2416 3680 2098 
Q 3938 1781 3938 1306 
Q 3938 681 3513 340 
Q 3088 0 2303 0 
L 628 0 
L 628 4666 
z
" transform="scale(0.015625)"/>
     </defs>
     <use xlink:href="#DejaVuSans-50"/>
     <use xlink:href="#DejaVuSans-72" x="58.552734"/>
     <use xlink:href="#DejaVuSans-6f" x="97.416016"/>
     <use xlink:href="#DejaVuSans-74" x="158.597656"/>
     <use xlink:href="#DejaVuSans-65" x="197.806641"/>
     <use xlink:href="#DejaVuSans-61" x="259.330078"/>
     <use xlink:href="#DejaVuSans-73" x="320.609375"/>
     <use xlink:href="#DejaVuSans-65" x="372.708984"/>
     <use xlink:href="#DejaVuSans-20" x="434.232422"/>
     <use xlink:href="#DejaVuSans-42" x="466.019531"/>
    </g>
   </g>
  </g>
 </g>
 <defs>
  <clipPath id="p655dae565f">
   <rect x="23.08" y="25.182187" width="39.06" height="38.808"/>
  </clipPath>
 </defs>
</svg>
