<?xml version="1.0" encoding="utf-8" standalone="no"?>
<!DOCTYPE svg PUBLIC "-//W3C//DTD SVG 1.1//EN"
  "http://www.w3.org/Graphics/SVG/1.1/DTD/svg11.dtd">
<svg xmlns:xlink="http://www.w3.org/1999/xlink" width="97.36pt" height="94.646875pt" viewBox="0 0 97.36 94.646875" xmlns="http://www.w3.org/2000/svg" version="1.1">
 <metadata>
  <rdf:RDF xmlns:dc="http://purl.org/dc/elements/1.1/" xmlns:cc="http://creativecommons.org/ns#" xmlns:rdf="http://www.w3.org/1999/02/22-rdf-syntax-ns#">
   <cc:Work>
    <dc:type rdf:resource="http://purl.org/dc/dcmitype/StillImage"/>
    <dc:date>2025-05-10T19:42:53.156454</dc:date>
    <dc:format>image/svg+xml</dc:format>
    <dc:creator>
     <cc:Agent>
      <dc:title>Matplotlib v3.7.2, https://matplotlib.org/</dc:title>
     </cc:Agent>
    </dc:creator>
   </cc:Work>
  </rdf:RDF>
 </metadata>
 <defs>
  <style type="text/css">*{stroke-linejoin: round; stroke-linecap: butt}</style>
 </defs>
 <g id="figure_1">
  <g id="patch_1">
   <path d="M -0 94.646875 
L 97.36 94.646875 
L 97.36 0 
L -0 0 
z
" style="fill: #ffffff"/>
  </g>
  <g id="axes_1">
   <g id="patch_2">
    <path d="M 28.78 74.64 
L 90.16 74.64 
L 90.16 19.2 
L 28.78 19.2 
z
" style="fill: #ffffff"/>
   </g>
   <g id="matplotlib.axis_1">
    <g id="xtick_1">
     <g id="line2d_1">
      <path d="M 31.57 74.64 
L 31.57 19.2 
" clip-path="url(#p3465ecf949)" style="fill: none; stroke: #b0b0b0; stroke-width: 0.8; stroke-linecap: square"/>
     </g>
     <g id="line2d_2">
      <defs>
       <path id="m8219db79a8" d="M 0 0 
L 0 3.5 
" style="stroke: #000000; stroke-width: 0.8"/>
      </defs>
      <g>
       <use xlink:href="#m8219db79a8" x="31.57" y="74.64" style="stroke: #000000; stroke-width: 0.8"/>
      </g>
     </g>
     <g id="text_1">
      <!-- 0 -->
      <g transform="translate(29.66125 86.199063) scale(0.06 -0.06)">
       <defs>
        <path id="DejaVuSans-30" d="M 2034 4250 
Q 1547 4250 1301 3770 
Q 1056 3291 1056 2328 
Q 1056 1369 1301 889 
Q 1547 409 2034 409 
Q 2525 409 2770 889 
Q 3016 1369 3016 2328 
Q 3016 3291 2770 3770 
Q 2525 4250 2034 4250 
z
M 2034 4750 
Q 2819 4750 3233 4129 
Q 3647 3509 3647 2328 
Q 3647 1150 3233 529 
Q 2819 -91 2034 -91 
Q 1250 -91 836 529 
Q 422 1150 422 2328 
Q 422 3509 836 4129 
Q 1250 4750 2034 4750 
z
" transform="scale(0.015625)"/>
       </defs>
       <use xlink:href="#DejaVuSans-30"/>
      </g>
     </g>
    </g>
    <g id="xtick_2">
     <g id="line2d_3">
      <path d="M 87.37 74.64 
L 87.37 19.2 
" clip-path="url(#p3465ecf949)" style="fill: none; stroke: #b0b0b0; stroke-width: 0.8; stroke-linecap: square"/>
     </g>
     <g id="line2d_4">
      <g>
       <use xlink:href="#m8219db79a8" x="87.37" y="74.64" style="stroke: #000000; stroke-width: 0.8"/>
      </g>
     </g>
     <g id="text_2">
      <!-- 1 -->
      <g transform="translate(85.46125 86.199063) scale(0.06 -0.06)">
       <defs>
        <path id="DejaVuSans-31" d="M 794 531 
L 1825 531 
L 1825 4091 
L 703 3866 
L 703 4441 
L 1819 4666 
L 2450 4666 
L 2450 531 
L 3481 531 
L 3481 0 
L 794 0 
L 794 531 
z
" transform="scale(0.015625)"/>
       </defs>
       <use xlink:href="#DejaVuSans-31"/>
      </g>
     </g>
    </g>
   </g>
   <g id="matplotlib.axis_2">
    <g id="ytick_1">
     <g id="line2d_5">
      <path d="M 28.78 54.273018 
L 90.16 54.273018 
" clip-path="url(#p3465ecf949)" style="fill: none; stroke: #b0b0b0; stroke-width: 0.8; stroke-linecap: square"/>
     </g>
     <g id="line2d_6">
      <defs>
       <path id="m07664bdc5e" d="M 0 0 
L -3.5 0 
" style="stroke: #000000; stroke-width: 0.8"/>
      </defs>
      <g>
       <use xlink:href="#m07664bdc5e" x="28.78" y="54.273018" style="stroke: #000000; stroke-width: 0.8"/>
      </g>
     </g>
     <g id="text_3">
      <!-- $\mathdefault{−2.5}$ -->
      <g transform="translate(7.2 56.55255) scale(0.06 -0.06)">
       <defs>
        <path id="DejaVuSans-2212" d="M 678 2272 
L 4684 2272 
L 4684 1741 
L 678 1741 
L 678 2272 
z
" transform="scale(0.015625)"/>
        <path id="DejaVuSans-32" d="M 1228 531 
L 3431 531 
L 3431 0 
L 469 0 
L 469 531 
Q 828 903 1448 1529 
Q 2069 2156 2228 2338 
Q 2531 2678 2651 2914 
Q 2772 3150 2772 3378 
Q 2772 3750 2511 3984 
Q 2250 4219 1831 4219 
Q 1534 4219 1204 4116 
Q 875 4013 500 3803 
L 500 4441 
Q 881 4594 1212 4672 
Q 1544 4750 1819 4750 
Q 2544 4750 2975 4387 
Q 3406 4025 3406 3419 
Q 3406 3131 3298 2873 
Q 3191 2616 2906 2266 
Q 2828 2175 2409 1742 
Q 1991 1309 1228 531 
z
" transform="scale(0.015625)"/>
        <path id="DejaVuSans-2e" d="M 684 794 
L 1344 794 
L 1344 0 
L 684 0 
L 684 794 
z
" transform="scale(0.015625)"/>
        <path id="DejaVuSans-35" d="M 691 4666 
L 3169 4666 
L 3169 4134 
L 1269 4134 
L 1269 2991 
Q 1406 3038 1543 3061 
Q 1681 3084 1819 3084 
Q 2600 3084 3056 2656 
Q 3513 2228 3513 1497 
Q 3513 744 3044 326 
Q 2575 -91 1722 -91 
Q 1428 -91 1123 -41 
Q 819 9 494 109 
L 494 744 
Q 775 591 1075 516 
Q 1375 441 1709 441 
Q 2250 441 2565 725 
Q 2881 1009 2881 1497 
Q 2881 1984 2565 2268 
Q 2250 2553 1709 2553 
Q 1456 2553 1204 2497 
Q 953 2441 691 2322 
L 691 4666 
z
" transform="scale(0.015625)"/>
       </defs>
       <use xlink:href="#DejaVuSans-2212" transform="translate(0 0.78125)"/>
       <use xlink:href="#DejaVuSans-32" transform="translate(83.789062 0.78125)"/>
       <use xlink:href="#DejaVuSans-2e" transform="translate(147.412109 0.78125)"/>
       <use xlink:href="#DejaVuSans-35" transform="translate(179.199219 0.78125)"/>
      </g>
     </g>
    </g>
    <g id="ytick_2">
     <g id="line2d_7">
      <path d="M 28.78 32.560368 
L 90.16 32.560368 
" clip-path="url(#p3465ecf949)" style="fill: none; stroke: #b0b0b0; stroke-width: 0.8; stroke-linecap: square"/>
     </g>
     <g id="line2d_8">
      <g>
       <use xlink:href="#m07664bdc5e" x="28.78" y="32.560368" style="stroke: #000000; stroke-width: 0.8"/>
      </g>
     </g>
     <g id="text_4">
      <!-- $\mathdefault{0.0}$ -->
      <g transform="translate(12.18 34.839899) scale(0.06 -0.06)">
       <use xlink:href="#DejaVuSans-30" transform="translate(0 0.78125)"/>
       <use xlink:href="#DejaVuSans-2e" transform="translate(63.623047 0.78125)"/>
       <use xlink:href="#DejaVuSans-30" transform="translate(95.410156 0.78125)"/>
      </g>
     </g>
    </g>
    <g id="text_5">
     <!-- $\times\mathdefault{10^{−2}}\mathdefault{}$ -->
     <g transform="translate(7.297 17.855625) scale(0.06 -0.06)">
      <defs>
       <path id="DejaVuSans-d7" d="M 4488 3438 
L 3059 2003 
L 4488 575 
L 4116 197 
L 2681 1631 
L 1247 197 
L 878 575 
L 2303 2003 
L 878 3438 
L 1247 3816 
L 2681 2381 
L 4116 3816 
L 4488 3438 
z
" transform="scale(0.015625)"/>
      </defs>
      <use xlink:href="#DejaVuSans-d7" transform="translate(0 0.765625)"/>
      <use xlink:href="#DejaVuSans-31" transform="translate(83.789062 0.765625)"/>
      <use xlink:href="#DejaVuSans-30" transform="translate(147.412109 0.765625)"/>
      <use xlink:href="#DejaVuSans-2212" transform="translate(211.992188 39.046875) scale(0.7)"/>
      <use xlink:href="#DejaVuSans-32" transform="translate(270.644531 39.046875) scale(0.7)"/>
     </g>
    </g>
   </g>
   <g id="line2d_9">
    <path d="M 31.57 32.450221 
L 31.639644 30.829663 
L 32.068511 27.564037 
L 32.441477 26.051969 
L 32.904818 24.774298 
L 33.44196 23.755849 
L 34.036168 22.988034 
L 34.671972 22.446237 
L 35.335798 22.099721 
L 36.016129 21.917008 
L 37.389985 21.928113 
L 38.737608 22.283073 
L 40.639458 23.159096 
L 42.88013 24.533019 
L 48.825824 28.438535 
L 50.49546 29.181921 
L 51.915332 29.578268 
L 53.564897 29.796398 
L 55.841646 29.838708 
L 60.534949 29.634216 
L 80.419046 28.649817 
L 86.518092 28.605671 
L 86.77186 28.627672 
L 87.02343 28.831585 
L 87.250996 29.863251 
L 87.37 32.332351 
L 87.280295 36.271892 
L 86.893082 41.609767 
L 86.117479 48.35662 
L 84.863319 56.172275 
L 83.083431 63.860964 
L 80.841301 69.59939 
L 78.324046 72.12 
L 75.758026 71.540032 
L 73.315294 68.916102 
L 71.086441 65.360394 
L 69.100605 61.613704 
L 65.825032 54.822464 
L 58.947154 39.801545 
L 56.641193 34.388684 
L 56.150423 32.748712 
L 56.203277 32.244391 
L 56.465457 31.999833 
L 57.118002 31.78348 
L 59.011968 31.441834 
L 62.917446 30.981923 
L 69.021536 30.498567 
L 74.526545 30.264183 
L 78.062339 30.313406 
L 79.735099 30.5095 
L 80.241371 30.704708 
L 80.468058 30.924147 
L 80.65519 31.347895 
L 80.794893 32.391996 
L 80.715421 33.533707 
L 80.430061 34.503823 
L 79.978774 35.257202 
L 79.401318 35.820802 
L 78.49073 36.344426 
L 77.204531 36.74254 
L 75.539066 36.984395 
L 73.231399 37.084572 
L 69.474295 37.000317 
L 63.186316 36.604344 
L 54.490343 35.82397 
L 45.81972 34.827589 
L 39.120198 33.883185 
L 39.120198 33.883185 
" clip-path="url(#p3465ecf949)" style="fill: none; stroke: #ff6347; stroke-width: 0.8; stroke-linecap: square"/>
   </g>
   <g id="line2d_10">
    <path d="M 31.57 32.533672 
L 31.632953 31.569471 
L 31.838798 30.312121 
L 32.209741 29.071458 
L 32.728441 28.040252 
L 33.36256 27.279611 
L 34.077001 26.783619 
L 34.839771 26.516636 
L 35.624296 26.433473 
L 36.798111 26.557132 
L 38.28967 26.995564 
L 40.571224 27.985519 
L 43.750352 29.369744 
L 45.269387 29.792127 
L 46.799907 29.996328 
L 48.756915 30.012534 
L 51.99431 29.769727 
L 61.691667 28.714028 
L 73.37554 27.527092 
L 80.898978 26.977563 
L 86.028709 26.771584 
L 86.400548 26.835997 
L 86.764271 27.231383 
L 87.085304 28.322966 
L 87.308762 30.344779 
L 87.37 33.449592 
L 87.1945 37.773228 
L 86.700166 43.29951 
L 85.814557 49.608546 
L 84.509534 55.811467 
L 82.826872 60.92176 
L 80.865194 64.346569 
L 78.742456 66.020014 
L 76.565746 66.212545 
L 74.418268 65.306668 
L 72.35796 63.667221 
L 70.421146 61.591997 
L 68.627497 59.30389 
L 65.492272 54.663385 
L 61.846496 48.574529 
L 56.071294 38.244658 
L 53.766441 33.803579 
L 53.406461 32.726137 
L 53.459707 32.27282 
L 53.727934 32.040834 
L 54.368416 31.851857 
L 56.419431 31.550486 
L 61.211274 31.087058 
L 66.602845 30.773172 
L 69.972197 30.773576 
L 71.627354 30.959195 
L 72.020484 31.134523 
L 72.267637 31.478379 
L 72.421435 32.092243 
L 72.412726 33.113226 
L 72.139495 34.113386 
L 71.626886 34.963023 
L 70.91953 35.627986 
L 70.064254 36.118217 
L 68.850003 36.525721 
L 67.263823 36.788045 
L 65.055915 36.8857 
L 62.029621 36.765586 
L 57.40313 36.332384 
L 49.43662 35.334797 
L 39.012565 33.809684 
L 37.244206 33.523675 
L 37.244206 33.523675 
" clip-path="url(#p3465ecf949)" style="fill: none; stroke: #803224; stroke-width: 0.8; stroke-linecap: square"/>
   </g>
   <g id="line2d_11">
    <path d="M 31.57 32.556386 
L 31.683158 31.891581 
L 32.004189 31.257038 
L 32.499428 30.820066 
L 33.101256 30.586039 
L 34.017745 30.495796 
L 35.571201 30.623862 
L 38.118334 30.837538 
L 40.03168 30.741628 
L 42.580129 30.370171 
L 47.289947 29.428774 
L 58.147569 26.983139 
L 72.726757 23.754476 
L 82.105486 21.875795 
L 83.493085 21.72 
L 84.189001 21.841086 
L 84.870476 22.205771 
L 85.51953 22.891038 
L 86.112951 23.978992 
L 86.622207 25.528627 
L 87.016505 27.517534 
L 87.270194 29.809363 
L 87.37 32.205019 
L 87.315855 34.533741 
L 87.116428 36.69638 
L 86.784392 38.653 
L 86.333546 40.396438 
L 85.777484 41.934022 
L 85.129065 43.278419 
L 84.400252 44.443688 
L 83.602099 45.443721 
L 82.744786 46.291702 
L 81.837671 46.999946 
L 80.88935 47.579898 
L 78.899991 48.396665 
L 76.832207 48.818264 
L 74.732379 48.91079 
L 72.638967 48.731906 
L 70.583487 48.332261 
L 68.591344 47.756608 
L 65.764287 46.648705 
L 63.171359 45.348631 
L 60.84001 43.952012 
L 58.155204 42.07024 
L 55.461453 39.865365 
L 53.095015 37.619944 
L 51.102018 35.404469 
L 49.95655 33.816795 
L 49.525475 32.880561 
L 49.500115 32.378758 
L 49.681948 32.05778 
L 50.09444 31.798319 
L 50.957319 31.549721 
L 53.078239 31.225881 
L 58.211576 30.700614 
L 63.913677 30.318862 
L 68.203772 30.238903 
L 69.81968 30.352675 
L 70.493614 30.609312 
L 71.150959 31.130218 
L 71.583413 31.755892 
L 71.769312 32.398115 
L 71.712448 33.00964 
L 71.429717 33.567332 
L 70.944068 34.061494 
L 70.154559 34.554748 
L 69.007058 35.012239 
L 67.286561 35.438285 
L 64.929992 35.764393 
L 61.955385 35.937124 
L 58.257049 35.920698 
L 53.868543 35.673158 
L 48.889699 35.167442 
L 43.240124 34.36314 
L 40.967595 33.983632 
L 40.967595 33.983632 
" clip-path="url(#p3465ecf949)" style="fill: none; stroke: #000000; stroke-width: 0.8; stroke-linecap: square"/>
   </g>
   <g id="line2d_12">
    <path d="M 31.57 32.559645 
L 31.678144 32.248633 
L 31.990483 32.012147 
L 32.645936 31.858284 
L 36.852636 31.206072 
L 52.516433 28.05452 
L 57.900314 27.227207 
L 58.585465 27.277313 
L 59.2499 27.581227 
L 59.853405 28.232048 
L 60.561654 29.554057 
L 61.220588 31.318754 
L 61.438493 32.530867 
L 61.32076 33.117502 
L 61.054265 33.337804 
L 60.696824 33.338044 
L 60.26054 33.113053 
L 59.979373 32.729643 
L 59.986719 32.373744 
L 60.236164 32.047071 
L 60.809919 31.708575 
L 61.870471 31.361023 
L 63.739364 31.00751 
L 66.60419 30.706261 
L 70.783971 30.501516 
L 76.165554 30.465775 
L 81.757153 30.644019 
L 83.759265 30.860575 
L 85.288669 31.29914 
L 86.726387 31.932306 
L 87.313826 32.398141 
L 87.345009 32.657026 
L 87.126724 32.830919 
L 86.501485 32.993918 
L 85.093443 33.097957 
L 83.765459 33.102325 
L 83.765459 33.102325 
" clip-path="url(#p3465ecf949)" style="fill: none; stroke: #006080; stroke-width: 0.8; stroke-linecap: square"/>
   </g>
   <g id="line2d_13">
    <path d="M 31.57 32.559911 
L 31.67111 32.310305 
L 31.999357 32.099639 
L 32.83221 31.91036 
L 38.511619 30.873132 
L 46.757377 29.381334 
L 53.076096 28.449539 
L 53.872419 28.455779 
L 54.39081 28.647361 
L 54.870608 29.059483 
L 55.628892 30.151835 
L 57.039601 32.260021 
L 57.418154 32.03661 
L 58.306306 31.629117 
L 59.670649 31.268794 
L 61.838533 30.936966 
L 65.135305 30.671476 
L 69.695082 30.538626 
L 75.501694 30.600535 
L 81.515788 30.881184 
L 83.741145 31.139302 
L 85.613892 31.648787 
L 87.055836 32.243163 
L 87.369877 32.554853 
L 87.261469 32.696744 
L 86.802059 32.819015 
L 85.810122 32.892696 
L 85.810122 32.892696 
" clip-path="url(#p3465ecf949)" style="fill: none; stroke: #00bfff; stroke-width: 0.8; stroke-linecap: square"/>
   </g>
   <g id="patch_3">
    <path d="M 28.78 74.64 
L 28.78 19.2 
" style="fill: none; stroke: #000000; stroke-width: 0.8; stroke-linejoin: miter; stroke-linecap: square"/>
   </g>
   <g id="patch_4">
    <path d="M 90.16 74.64 
L 90.16 19.2 
" style="fill: none; stroke: #000000; stroke-width: 0.8; stroke-linejoin: miter; stroke-linecap: square"/>
   </g>
   <g id="patch_5">
    <path d="M 28.78 74.64 
L 90.16 74.64 
" style="fill: none; stroke: #000000; stroke-width: 0.8; stroke-linejoin: miter; stroke-linecap: square"/>
   </g>
   <g id="patch_6">
    <path d="M 28.78 19.2 
L 90.16 19.2 
" style="fill: none; stroke: #000000; stroke-width: 0.8; stroke-linejoin: miter; stroke-linecap: square"/>
   </g>
   <g id="text_6">
    <!-- $C_{deg}$ rate -->
    <g transform="translate(41.87 13.2) scale(0.08 -0.08)">
     <defs>
      <path id="DejaVuSans-Oblique-43" d="M 4447 4306 
L 4319 3641 
Q 4019 3944 3683 4091 
Q 3347 4238 2956 4238 
Q 2422 4238 2017 3981 
Q 1613 3725 1319 3200 
Q 1131 2863 1032 2486 
Q 934 2109 934 1728 
Q 934 1091 1264 756 
Q 1594 422 2222 422 
Q 2656 422 3056 561 
Q 3456 700 3834 978 
L 3688 231 
Q 3316 72 2936 -9 
Q 2556 -91 2175 -91 
Q 1278 -91 773 396 
Q 269 884 269 1753 
Q 269 2309 461 2846 
Q 653 3384 1013 3828 
Q 1394 4300 1883 4525 
Q 2372 4750 3022 4750 
Q 3422 4750 3780 4639 
Q 4138 4528 4447 4306 
z
" transform="scale(0.015625)"/>
      <path id="DejaVuSans-Oblique-64" d="M 2675 525 
Q 2444 222 2128 65 
Q 1813 -91 1428 -91 
Q 903 -91 598 267 
Q 294 625 294 1247 
Q 294 1766 478 2236 
Q 663 2706 1013 3078 
Q 1244 3325 1534 3454 
Q 1825 3584 2144 3584 
Q 2481 3584 2739 3421 
Q 2997 3259 3138 2956 
L 3513 4863 
L 4091 4863 
L 3144 0 
L 2566 0 
L 2675 525 
z
M 891 1350 
Q 891 897 1095 644 
Q 1300 391 1663 391 
Q 1931 391 2161 520 
Q 2391 650 2566 903 
Q 2750 1166 2856 1509 
Q 2963 1853 2963 2188 
Q 2963 2622 2758 2865 
Q 2553 3109 2194 3109 
Q 1922 3109 1687 2981 
Q 1453 2853 1288 2613 
Q 1106 2353 998 2009 
Q 891 1666 891 1350 
z
" transform="scale(0.015625)"/>
      <path id="DejaVuSans-Oblique-65" d="M 3078 2063 
Q 3088 2113 3092 2166 
Q 3097 2219 3097 2272 
Q 3097 2653 2873 2875 
Q 2650 3097 2266 3097 
Q 1838 3097 1509 2826 
Q 1181 2556 1013 2059 
L 3078 2063 
z
M 3578 1613 
L 903 1613 
Q 884 1494 878 1425 
Q 872 1356 872 1306 
Q 872 872 1139 634 
Q 1406 397 1894 397 
Q 2269 397 2603 481 
Q 2938 566 3225 728 
L 3116 159 
Q 2806 34 2476 -28 
Q 2147 -91 1806 -91 
Q 1078 -91 686 257 
Q 294 606 294 1247 
Q 294 1794 489 2264 
Q 684 2734 1063 3103 
Q 1306 3334 1642 3459 
Q 1978 3584 2356 3584 
Q 2950 3584 3301 3228 
Q 3653 2872 3653 2272 
Q 3653 2128 3634 1964 
Q 3616 1800 3578 1613 
z
" transform="scale(0.015625)"/>
      <path id="DejaVuSans-Oblique-67" d="M 3816 3500 
L 3219 434 
Q 3047 -456 2561 -893 
Q 2075 -1331 1253 -1331 
Q 950 -1331 690 -1286 
Q 431 -1241 206 -1147 
L 313 -588 
Q 525 -725 762 -790 
Q 1000 -856 1269 -856 
Q 1816 -856 2167 -557 
Q 2519 -259 2631 300 
L 2681 563 
Q 2441 288 2122 144 
Q 1803 0 1434 0 
Q 903 0 598 351 
Q 294 703 294 1319 
Q 294 1803 478 2267 
Q 663 2731 997 3091 
Q 1219 3328 1514 3456 
Q 1809 3584 2131 3584 
Q 2484 3584 2746 3420 
Q 3009 3256 3138 2956 
L 3238 3500 
L 3816 3500 
z
M 2950 2216 
Q 2950 2641 2750 2872 
Q 2550 3103 2181 3103 
Q 1953 3103 1747 3012 
Q 1541 2922 1394 2759 
Q 1156 2491 1023 2127 
Q 891 1763 891 1375 
Q 891 944 1092 712 
Q 1294 481 1672 481 
Q 2219 481 2584 976 
Q 2950 1472 2950 2216 
z
" transform="scale(0.015625)"/>
      <path id="DejaVuSans-20" transform="scale(0.015625)"/>
      <path id="DejaVuSans-72" d="M 2631 2963 
Q 2534 3019 2420 3045 
Q 2306 3072 2169 3072 
Q 1681 3072 1420 2755 
Q 1159 2438 1159 1844 
L 1159 0 
L 581 0 
L 581 3500 
L 1159 3500 
L 1159 2956 
Q 1341 3275 1631 3429 
Q 1922 3584 2338 3584 
Q 2397 3584 2469 3576 
Q 2541 3569 2628 3553 
L 2631 2963 
z
" transform="scale(0.015625)"/>
      <path id="DejaVuSans-61" d="M 2194 1759 
Q 1497 1759 1228 1600 
Q 959 1441 959 1056 
Q 959 750 1161 570 
Q 1363 391 1709 391 
Q 2188 391 2477 730 
Q 2766 1069 2766 1631 
L 2766 1759 
L 2194 1759 
z
M 3341 1997 
L 3341 0 
L 2766 0 
L 2766 531 
Q 2569 213 2275 61 
Q 1981 -91 1556 -91 
Q 1019 -91 701 211 
Q 384 513 384 1019 
Q 384 1609 779 1909 
Q 1175 2209 1959 2209 
L 2766 2209 
L 2766 2266 
Q 2766 2663 2505 2880 
Q 2244 3097 1772 3097 
Q 1472 3097 1187 3025 
Q 903 2953 641 2809 
L 641 3341 
Q 956 3463 1253 3523 
Q 1550 3584 1831 3584 
Q 2591 3584 2966 3190 
Q 3341 2797 3341 1997 
z
" transform="scale(0.015625)"/>
      <path id="DejaVuSans-74" d="M 1172 4494 
L 1172 3500 
L 2356 3500 
L 2356 3053 
L 1172 3053 
L 1172 1153 
Q 1172 725 1289 603 
Q 1406 481 1766 481 
L 2356 481 
L 2356 0 
L 1766 0 
Q 1100 0 847 248 
Q 594 497 594 1153 
L 594 3053 
L 172 3053 
L 172 3500 
L 594 3500 
L 594 4494 
L 1172 4494 
z
" transform="scale(0.015625)"/>
      <path id="DejaVuSans-65" d="M 3597 1894 
L 3597 1613 
L 953 1613 
Q 991 1019 1311 708 
Q 1631 397 2203 397 
Q 2534 397 2845 478 
Q 3156 559 3463 722 
L 3463 178 
Q 3153 47 2828 -22 
Q 2503 -91 2169 -91 
Q 1331 -91 842 396 
Q 353 884 353 1716 
Q 353 2575 817 3079 
Q 1281 3584 2069 3584 
Q 2775 3584 3186 3129 
Q 3597 2675 3597 1894 
z
M 3022 2063 
Q 3016 2534 2758 2815 
Q 2500 3097 2075 3097 
Q 1594 3097 1305 2825 
Q 1016 2553 972 2059 
L 3022 2063 
z
" transform="scale(0.015625)"/>
     </defs>
     <use xlink:href="#DejaVuSans-Oblique-43" transform="translate(0 0.78125)"/>
     <use xlink:href="#DejaVuSans-Oblique-64" transform="translate(69.824219 -15.625) scale(0.7)"/>
     <use xlink:href="#DejaVuSans-Oblique-65" transform="translate(114.257812 -15.625) scale(0.7)"/>
     <use xlink:href="#DejaVuSans-Oblique-67" transform="translate(157.324219 -15.625) scale(0.7)"/>
     <use xlink:href="#DejaVuSans-20" transform="translate(204.492188 0.78125)"/>
     <use xlink:href="#DejaVuSans-72" transform="translate(236.279297 0.78125)"/>
     <use xlink:href="#DejaVuSans-61" transform="translate(277.392578 0.78125)"/>
     <use xlink:href="#DejaVuSans-74" transform="translate(338.671875 0.78125)"/>
     <use xlink:href="#DejaVuSans-65" transform="translate(377.880859 0.78125)"/>
    </g>
   </g>
  </g>
 </g>
 <defs>
  <clipPath id="p3465ecf949">
   <rect x="28.78" y="19.2" width="61.38" height="55.44"/>
  </clipPath>
 </defs>
</svg>
