<?xml version="1.0" encoding="utf-8" standalone="no"?>
<!DOCTYPE svg PUBLIC "-//W3C//DTD SVG 1.1//EN"
  "http://www.w3.org/Graphics/SVG/1.1/DTD/svg11.dtd">
<svg xmlns:xlink="http://www.w3.org/1999/xlink" width="97.263pt" height="94.725625pt" viewBox="0 0 97.263 94.725625" xmlns="http://www.w3.org/2000/svg" version="1.1">
 <metadata>
  <rdf:RDF xmlns:dc="http://purl.org/dc/elements/1.1/" xmlns:cc="http://creativecommons.org/ns#" xmlns:rdf="http://www.w3.org/1999/02/22-rdf-syntax-ns#">
   <cc:Work>
    <dc:type rdf:resource="http://purl.org/dc/dcmitype/StillImage"/>
    <dc:date>2025-05-10T19:42:54.005481</dc:date>
    <dc:format>image/svg+xml</dc:format>
    <dc:creator>
     <cc:Agent>
      <dc:title>Matplotlib v3.7.2, https://matplotlib.org/</dc:title>
     </cc:Agent>
    </dc:creator>
   </cc:Work>
  </rdf:RDF>
 </metadata>
 <defs>
  <style type="text/css">*{stroke-linejoin: round; stroke-linecap: butt}</style>
 </defs>
 <g id="figure_1">
  <g id="patch_1">
   <path d="M 0 94.725625 
L 97.263 94.725625 
L 97.263 0 
L 0 0 
z
" style="fill: #ffffff"/>
  </g>
  <g id="axes_1">
   <g id="patch_2">
    <path d="M 28.683 74.71875 
L 90.063 74.71875 
L 90.063 19.27875 
L 28.683 19.27875 
z
" style="fill: #ffffff"/>
   </g>
   <g id="matplotlib.axis_1">
    <g id="xtick_1">
     <g id="line2d_1">
      <path d="M 31.473 74.71875 
L 31.473 19.27875 
" clip-path="url(#p14e9130f55)" style="fill: none; stroke: #b0b0b0; stroke-width: 0.8; stroke-linecap: square"/>
     </g>
     <g id="line2d_2">
      <defs>
       <path id="mbabe65e4e1" d="M 0 0 
L 0 3.5 
" style="stroke: #000000; stroke-width: 0.8"/>
      </defs>
      <g>
       <use xlink:href="#mbabe65e4e1" x="31.473" y="74.71875" style="stroke: #000000; stroke-width: 0.8"/>
      </g>
     </g>
     <g id="text_1">
      <!-- 0 -->
      <g transform="translate(29.56425 86.277812) scale(0.06 -0.06)">
       <defs>
        <path id="DejaVuSans-30" d="M 2034 4250 
Q 1547 4250 1301 3770 
Q 1056 3291 1056 2328 
Q 1056 1369 1301 889 
Q 1547 409 2034 409 
Q 2525 409 2770 889 
Q 3016 1369 3016 2328 
Q 3016 3291 2770 3770 
Q 2525 4250 2034 4250 
z
M 2034 4750 
Q 2819 4750 3233 4129 
Q 3647 3509 3647 2328 
Q 3647 1150 3233 529 
Q 2819 -91 2034 -91 
Q 1250 -91 836 529 
Q 422 1150 422 2328 
Q 422 3509 836 4129 
Q 1250 4750 2034 4750 
z
" transform="scale(0.015625)"/>
       </defs>
       <use xlink:href="#DejaVuSans-30"/>
      </g>
     </g>
    </g>
    <g id="xtick_2">
     <g id="line2d_3">
      <path d="M 87.273 74.71875 
L 87.273 19.27875 
" clip-path="url(#p14e9130f55)" style="fill: none; stroke: #b0b0b0; stroke-width: 0.8; stroke-linecap: square"/>
     </g>
     <g id="line2d_4">
      <g>
       <use xlink:href="#mbabe65e4e1" x="87.273" y="74.71875" style="stroke: #000000; stroke-width: 0.8"/>
      </g>
     </g>
     <g id="text_2">
      <!-- 1 -->
      <g transform="translate(85.36425 86.277812) scale(0.06 -0.06)">
       <defs>
        <path id="DejaVuSans-31" d="M 794 531 
L 1825 531 
L 1825 4091 
L 703 3866 
L 703 4441 
L 1819 4666 
L 2450 4666 
L 2450 531 
L 3481 531 
L 3481 0 
L 794 0 
L 794 531 
z
" transform="scale(0.015625)"/>
       </defs>
       <use xlink:href="#DejaVuSans-31"/>
      </g>
     </g>
    </g>
   </g>
   <g id="matplotlib.axis_2">
    <g id="ytick_1">
     <g id="line2d_5">
      <path d="M 28.683 74.08883 
L 90.063 74.08883 
" clip-path="url(#p14e9130f55)" style="fill: none; stroke: #b0b0b0; stroke-width: 0.8; stroke-linecap: square"/>
     </g>
     <g id="line2d_6">
      <defs>
       <path id="m2b2391ffcb" d="M 0 0 
L -3.5 0 
" style="stroke: #000000; stroke-width: 0.8"/>
      </defs>
      <g>
       <use xlink:href="#m2b2391ffcb" x="28.683" y="74.08883" style="stroke: #000000; stroke-width: 0.8"/>
      </g>
     </g>
     <g id="text_3">
      <!-- $\mathdefault{−2}$ -->
      <g transform="translate(12.803 76.368361) scale(0.06 -0.06)">
       <defs>
        <path id="DejaVuSans-2212" d="M 678 2272 
L 4684 2272 
L 4684 1741 
L 678 1741 
L 678 2272 
z
" transform="scale(0.015625)"/>
        <path id="DejaVuSans-32" d="M 1228 531 
L 3431 531 
L 3431 0 
L 469 0 
L 469 531 
Q 828 903 1448 1529 
Q 2069 2156 2228 2338 
Q 2531 2678 2651 2914 
Q 2772 3150 2772 3378 
Q 2772 3750 2511 3984 
Q 2250 4219 1831 4219 
Q 1534 4219 1204 4116 
Q 875 4013 500 3803 
L 500 4441 
Q 881 4594 1212 4672 
Q 1544 4750 1819 4750 
Q 2544 4750 2975 4387 
Q 3406 4025 3406 3419 
Q 3406 3131 3298 2873 
Q 3191 2616 2906 2266 
Q 2828 2175 2409 1742 
Q 1991 1309 1228 531 
z
" transform="scale(0.015625)"/>
       </defs>
       <use xlink:href="#DejaVuSans-2212" transform="translate(0 0.78125)"/>
       <use xlink:href="#DejaVuSans-32" transform="translate(83.789062 0.78125)"/>
      </g>
     </g>
    </g>
    <g id="ytick_2">
     <g id="line2d_7">
      <path d="M 28.683 41.892118 
L 90.063 41.892118 
" clip-path="url(#p14e9130f55)" style="fill: none; stroke: #b0b0b0; stroke-width: 0.8; stroke-linecap: square"/>
     </g>
     <g id="line2d_8">
      <g>
       <use xlink:href="#m2b2391ffcb" x="28.683" y="41.892118" style="stroke: #000000; stroke-width: 0.8"/>
      </g>
     </g>
     <g id="text_4">
      <!-- $\mathdefault{0}$ -->
      <g transform="translate(17.843 44.171649) scale(0.06 -0.06)">
       <use xlink:href="#DejaVuSans-30" transform="translate(0 0.78125)"/>
      </g>
     </g>
    </g>
    <g id="text_5">
     <!-- $\times\mathdefault{10^{−2}}\mathdefault{}$ -->
     <g transform="translate(7.2 17.934375) scale(0.06 -0.06)">
      <defs>
       <path id="DejaVuSans-d7" d="M 4488 3438 
L 3059 2003 
L 4488 575 
L 4116 197 
L 2681 1631 
L 1247 197 
L 878 575 
L 2303 2003 
L 878 3438 
L 1247 3816 
L 2681 2381 
L 4116 3816 
L 4488 3438 
z
" transform="scale(0.015625)"/>
      </defs>
      <use xlink:href="#DejaVuSans-d7" transform="translate(0 0.765625)"/>
      <use xlink:href="#DejaVuSans-31" transform="translate(83.789062 0.765625)"/>
      <use xlink:href="#DejaVuSans-30" transform="translate(147.412109 0.765625)"/>
      <use xlink:href="#DejaVuSans-2212" transform="translate(211.992188 39.046875) scale(0.7)"/>
      <use xlink:href="#DejaVuSans-32" transform="translate(270.644531 39.046875) scale(0.7)"/>
     </g>
    </g>
   </g>
   <g id="line2d_9">
    <path d="M 31.473 41.891303 
L 31.573288 41.453396 
L 31.809789 41.231667 
L 32.277781 41.158863 
L 33.392258 41.006106 
L 35.502456 40.356095 
L 44.593067 37.310224 
L 51.355465 34.774675 
L 60.527765 31.078597 
L 63.284206 30.061215 
L 63.694942 30.100155 
L 64.10167 30.308897 
L 64.497936 30.713451 
L 64.876618 31.330211 
L 65.230128 32.169949 
L 65.830204 34.519823 
L 66.23889 37.624775 
L 66.41529 41.102547 
L 66.350263 44.480605 
L 66.064263 47.418406 
L 65.594323 49.772238 
L 64.982029 51.533918 
L 64.266833 52.758742 
L 63.483383 53.522787 
L 62.660901 53.903673 
L 61.823394 53.973319 
L 60.990146 53.795751 
L 60.17629 53.426848 
L 59.016236 52.617929 
L 57.951482 51.617469 
L 56.703551 50.15544 
L 55.430351 48.341711 
L 54.144754 46.121557 
L 53.177365 44.006192 
L 52.726549 42.508143 
L 52.681427 41.614762 
L 52.879093 41.072049 
L 53.270013 40.687558 
L 53.996156 40.32176 
L 55.577081 39.819204 
L 59.336054 38.895744 
L 64.872341 37.765314 
L 70.441559 36.844756 
L 75.267061 36.257602 
L 79.283071 35.976503 
L 82.373608 35.957348 
L 84.205611 36.131673 
L 84.795677 36.337257 
L 85.35476 36.734379 
L 86.018027 37.529772 
L 86.556016 38.520266 
L 87.023209 39.886822 
L 87.249676 41.280831 
L 87.237778 42.627654 
L 86.999678 43.885917 
L 86.552791 45.034606 
L 85.917008 46.064979 
L 85.113048 46.975578 
L 83.955211 47.914314 
L 82.618889 48.693906 
L 80.876708 49.417786 
L 78.98127 49.960684 
L 78.132474 50.142916 
L 78.132474 50.142916 
" clip-path="url(#p14e9130f55)" style="fill: none; stroke: #ff6347; stroke-width: 0.8; stroke-linecap: square"/>
   </g>
   <g id="line2d_10">
    <path d="M 31.473 41.889003 
L 31.574379 41.061178 
L 31.869823 40.342098 
L 32.232938 39.991692 
L 32.718111 39.829848 
L 33.506777 39.850708 
L 35.450908 39.994656 
L 36.751819 39.800785 
L 38.874776 39.217396 
L 43.419923 37.696529 
L 49.821764 35.318426 
L 57.944189 32.050954 
L 75.21949 24.905453 
L 75.811178 24.834344 
L 76.402001 25.007326 
L 76.981697 25.510791 
L 77.537617 26.410132 
L 78.054968 27.764506 
L 78.516998 29.61822 
L 78.905842 31.975969 
L 79.204423 34.776036 
L 79.399156 37.884888 
L 79.48222 41.126803 
L 79.313081 47.371712 
L 79.072344 50.167562 
L 78.739396 52.682065 
L 78.324343 54.905025 
L 77.837291 56.841998 
L 77.28796 58.506679 
L 76.685505 59.916447 
L 76.038444 61.089941 
L 75.354639 62.045821 
L 74.641312 62.802179 
L 73.905073 63.376274 
L 73.151947 63.784449 
L 72.387412 64.042118 
L 71.616424 64.163793 
L 70.072512 64.052927 
L 68.550637 63.551384 
L 67.074747 62.746703 
L 65.663113 61.715378 
L 63.694127 59.885566 
L 61.926467 57.875873 
L 59.89996 55.15126 
L 57.8836 51.969033 
L 56.135831 48.751685 
L 54.835003 45.921744 
L 54.044221 43.732148 
L 53.741858 42.343278 
L 53.747616 41.467483 
L 53.949412 40.901409 
L 54.329271 40.475344 
L 55.004878 40.082905 
L 56.277154 39.637484 
L 59.181484 38.905441 
L 64.422772 37.824723 
L 70.093528 36.876346 
L 75.088892 36.260214 
L 79.311085 35.962091 
L 82.408769 35.944545 
L 84.24387 36.129631 
L 84.833307 36.353324 
L 85.389658 36.769738 
L 86.046802 37.580486 
L 86.577292 38.576181 
L 87.03489 39.940304 
L 87.252709 41.3265 
L 87.23376 42.663108 
L 86.990461 43.910445 
L 86.540258 45.048429 
L 85.90296 46.068803 
L 85.099136 46.97036 
L 83.943396 47.899635 
L 82.610978 48.671315 
L 80.87521 49.387859 
L 78.987729 49.925327 
L 76.697268 50.345638 
L 74.014132 50.604999 
L 70.976281 50.671962 
L 67.649265 50.53045 
L 63.836007 50.145285 
L 59.704679 49.503353 
L 57.648414 49.107108 
L 57.648414 49.107108 
" clip-path="url(#p14e9130f55)" style="fill: none; stroke: #803224; stroke-width: 0.8; stroke-linecap: square"/>
   </g>
   <g id="line2d_11">
    <path d="M 31.473 41.884736 
L 31.586158 40.652474 
L 31.907189 39.476306 
L 32.292726 38.795869 
L 32.754794 38.366641 
L 33.391989 38.112007 
L 34.185794 38.076942 
L 35.474201 38.30267 
L 37.577393 38.676868 
L 38.908845 38.667457 
L 40.408725 38.421367 
L 42.483129 37.832437 
L 45.849877 36.614571 
L 51.840828 34.180758 
L 72.629757 25.569791 
L 80.652065 22.565286 
L 82.699051 21.875927 
L 83.396086 21.79875 
L 84.092001 22.023192 
L 84.773476 22.69916 
L 85.42253 23.969351 
L 86.015951 25.985947 
L 86.525207 28.858302 
L 86.919505 32.54488 
L 87.173194 36.792942 
L 87.273 41.233454 
L 87.218855 45.549902 
L 87.019428 49.558501 
L 86.687392 53.185231 
L 86.236546 56.416813 
L 85.680484 59.26683 
L 85.032064 61.758763 
L 84.303252 63.918669 
L 83.505099 65.7723 
L 82.647786 67.34409 
L 81.74067 68.656868 
L 80.79235 69.73185 
L 79.810713 70.588727 
L 78.802991 71.245783 
L 77.775804 71.720015 
L 76.735206 72.027245 
L 75.686721 72.18223 
L 74.635379 72.19875 
L 73.585749 72.089703 
L 71.507762 71.542523 
L 69.481129 70.62888 
L 67.528465 69.426869 
L 65.667287 68.00582 
L 63.910583 66.427214 
L 61.49009 63.880606 
L 59.340022 61.253954 
L 56.895239 57.831202 
L 54.90843 54.676192 
L 52.998015 51.270384 
L 51.194961 47.591536 
L 50.038793 44.750011 
L 49.514153 42.963935 
L 49.383143 41.854997 
L 49.497866 41.15484 
L 49.812865 40.647206 
L 50.370459 40.239668 
L 51.335378 39.852807 
L 53.329648 39.339963 
L 57.29443 38.57927 
L 61.708654 37.947782 
L 65.423059 37.62878 
L 68.255838 37.594562 
L 69.579867 37.75066 
L 70.137252 38.039806 
L 70.637791 38.561686 
L 71.142671 39.426657 
L 71.534647 40.600346 
L 71.67935 41.785821 
L 71.583439 42.904805 
L 71.2652 43.919678 
L 70.748154 44.815327 
L 70.057559 45.588842 
L 69.065966 46.341829 
L 67.910177 46.944496 
L 66.432789 47.466536 
L 64.626505 47.866519 
L 62.507391 48.112618 
L 59.897685 48.183071 
L 56.873698 48.027624 
L 53.572062 47.632166 
L 49.821216 46.949748 
L 45.849404 45.99833 
L 41.340665 44.679755 
L 40.870596 44.530236 
L 40.870596 44.530236 
" clip-path="url(#p14e9130f55)" style="fill: none; stroke: #000000; stroke-width: 0.8; stroke-linecap: square"/>
   </g>
   <g id="line2d_12">
    <path d="M 31.473 41.881043 
L 31.574905 40.570752 
L 31.847561 39.312373 
L 32.277963 38.325041 
L 32.822574 37.660094 
L 33.439782 37.264724 
L 34.264895 37.041645 
L 35.279863 37.014715 
L 37.589143 37.267343 
L 39.485887 37.353367 
L 41.078396 37.206226 
L 42.9336 36.805391 
L 45.387906 36.033672 
L 49.75564 34.390009 
L 58.577448 31.067411 
L 64.287939 29.170339 
L 69.919867 27.541448 
L 75.665001 26.125137 
L 81.336936 24.954645 
L 83.71503 24.561522 
L 84.316522 24.625473 
L 84.912021 24.984948 
L 85.488592 25.797926 
L 86.027732 27.245507 
L 86.503951 29.508351 
L 86.886222 32.616694 
L 87.146959 36.312828 
L 87.273 40.173936 
L 87.26607 43.871713 
L 87.135767 47.257987 
L 86.894088 50.297668 
L 86.553062 53.001011 
L 86.123977 55.392019 
L 85.617197 57.497235 
L 85.04217 59.342256 
L 84.407486 60.950812 
L 83.720948 62.344625 
L 82.989639 63.543495 
L 82.219991 64.565452 
L 81.417837 65.426895 
L 80.58847 66.142742 
L 78.86685 67.190701 
L 77.088399 67.803758 
L 75.280429 68.06005 
L 73.465326 68.024233 
L 71.661396 67.749879 
L 69.883562 67.281464 
L 67.291583 66.29433 
L 64.816392 65.053147 
L 62.480148 63.635936 
L 59.606298 61.577055 
L 57.025499 59.42728 
L 54.220033 56.744052 
L 51.87061 54.184192 
L 49.610347 51.400359 
L 47.648357 48.655556 
L 45.983341 45.957458 
L 44.955206 43.907303 
L 44.503285 42.584503 
L 44.421449 41.734483 
L 44.579575 41.175181 
L 44.937366 40.758967 
L 45.580455 40.398072 
L 46.681449 40.063766 
L 48.551378 39.750387 
L 50.716873 39.610128 
L 51.813919 39.699178 
L 52.177793 39.922754 
L 52.539758 40.412 
L 52.839174 41.227141 
L 52.907904 42.053276 
L 52.756917 42.803005 
L 52.412606 43.445064 
L 51.832864 44.031801 
L 51.001073 44.524862 
L 49.921051 44.896587 
L 48.504504 45.143273 
L 46.669406 45.222983 
L 44.508494 45.090358 
L 41.895585 44.695858 
L 38.985078 44.021785 
L 35.594137 42.995327 
L 34.121098 42.50283 
L 34.121098 42.50283 
" clip-path="url(#p14e9130f55)" style="fill: none; stroke: #006080; stroke-width: 0.8; stroke-linecap: square"/>
   </g>
   <g id="line2d_13">
    <path d="M 31.473 41.879094 
L 31.582216 40.49903 
L 31.866977 39.20661 
L 32.316736 38.13858 
L 32.896836 37.322131 
L 33.574617 36.721428 
L 34.518802 36.207986 
L 35.743325 35.838206 
L 37.461529 35.5853 
L 46.049289 34.65774 
L 58.532251 32.790789 
L 64.056887 32.274143 
L 69.827025 31.962502 
L 75.017616 31.891506 
L 79.842767 32.046763 
L 83.87395 32.389612 
L 85.503054 32.642086 
L 85.821682 32.833364 
L 86.131041 33.21453 
L 86.423246 33.858646 
L 86.687952 34.825652 
L 87.087794 37.671253 
L 87.26638 40.921704 
L 87.230419 43.755979 
L 87.018054 46.018093 
L 86.667039 47.779838 
L 86.208787 49.133719 
L 85.668682 50.159234 
L 85.067125 50.921162 
L 84.420476 51.471837 
L 83.393888 51.991794 
L 82.32839 52.239085 
L 80.887557 52.278409 
L 79.104835 52.034093 
L 77.047138 51.507951 
L 74.196993 50.529685 
L 70.387182 48.973025 
L 65.648665 46.791274 
L 61.593288 44.692235 
L 59.319546 43.551723 
L 58.788745 43.670231 
L 56.158111 44.541867 
L 54.313794 44.810594 
L 52.039851 44.903149 
L 49.26036 44.787331 
L 45.952201 44.424095 
L 42.056346 43.764549 
L 37.454766 42.747166 
L 35.916428 42.37761 
L 35.916428 42.37761 
" clip-path="url(#p14e9130f55)" style="fill: none; stroke: #00bfff; stroke-width: 0.8; stroke-linecap: square"/>
   </g>
   <g id="patch_3">
    <path d="M 28.683 74.71875 
L 28.683 19.27875 
" style="fill: none; stroke: #000000; stroke-width: 0.8; stroke-linejoin: miter; stroke-linecap: square"/>
   </g>
   <g id="patch_4">
    <path d="M 90.063 74.71875 
L 90.063 19.27875 
" style="fill: none; stroke: #000000; stroke-width: 0.8; stroke-linejoin: miter; stroke-linecap: square"/>
   </g>
   <g id="patch_5">
    <path d="M 28.683 74.71875 
L 90.063 74.71875 
" style="fill: none; stroke: #000000; stroke-width: 0.8; stroke-linejoin: miter; stroke-linecap: square"/>
   </g>
   <g id="patch_6">
    <path d="M 28.683 19.27875 
L 90.063 19.27875 
" style="fill: none; stroke: #000000; stroke-width: 0.8; stroke-linejoin: miter; stroke-linecap: square"/>
   </g>
   <g id="text_6">
    <!-- $C_{max}$ -->
    <g transform="translate(50.333 13.27875) scale(0.08 -0.08)">
     <defs>
      <path id="DejaVuSans-Oblique-43" d="M 4447 4306 
L 4319 3641 
Q 4019 3944 3683 4091 
Q 3347 4238 2956 4238 
Q 2422 4238 2017 3981 
Q 1613 3725 1319 3200 
Q 1131 2863 1032 2486 
Q 934 2109 934 1728 
Q 934 1091 1264 756 
Q 1594 422 2222 422 
Q 2656 422 3056 561 
Q 3456 700 3834 978 
L 3688 231 
Q 3316 72 2936 -9 
Q 2556 -91 2175 -91 
Q 1278 -91 773 396 
Q 269 884 269 1753 
Q 269 2309 461 2846 
Q 653 3384 1013 3828 
Q 1394 4300 1883 4525 
Q 2372 4750 3022 4750 
Q 3422 4750 3780 4639 
Q 4138 4528 4447 4306 
z
" transform="scale(0.015625)"/>
      <path id="DejaVuSans-Oblique-6d" d="M 5747 2113 
L 5338 0 
L 4763 0 
L 5166 2094 
Q 5191 2228 5203 2325 
Q 5216 2422 5216 2491 
Q 5216 2772 5059 2928 
Q 4903 3084 4622 3084 
Q 4203 3084 3875 2770 
Q 3547 2456 3450 1953 
L 3066 0 
L 2491 0 
L 2900 2094 
Q 2925 2209 2937 2307 
Q 2950 2406 2950 2484 
Q 2950 2769 2794 2926 
Q 2638 3084 2363 3084 
Q 1938 3084 1609 2770 
Q 1281 2456 1184 1953 
L 800 0 
L 225 0 
L 909 3500 
L 1484 3500 
L 1375 2956 
Q 1609 3263 1923 3423 
Q 2238 3584 2597 3584 
Q 2978 3584 3223 3384 
Q 3469 3184 3519 2828 
Q 3781 3197 4126 3390 
Q 4472 3584 4856 3584 
Q 5306 3584 5551 3325 
Q 5797 3066 5797 2591 
Q 5797 2488 5784 2364 
Q 5772 2241 5747 2113 
z
" transform="scale(0.015625)"/>
      <path id="DejaVuSans-Oblique-61" d="M 3438 1997 
L 3047 0 
L 2472 0 
L 2578 531 
Q 2325 219 2001 64 
Q 1678 -91 1281 -91 
Q 834 -91 548 182 
Q 263 456 263 884 
Q 263 1497 752 1853 
Q 1241 2209 2100 2209 
L 2900 2209 
L 2931 2363 
Q 2938 2388 2941 2417 
Q 2944 2447 2944 2509 
Q 2944 2788 2717 2942 
Q 2491 3097 2081 3097 
Q 1800 3097 1504 3025 
Q 1209 2953 897 2809 
L 997 3341 
Q 1322 3463 1633 3523 
Q 1944 3584 2234 3584 
Q 2853 3584 3176 3315 
Q 3500 3047 3500 2534 
Q 3500 2431 3484 2292 
Q 3469 2153 3438 1997 
z
M 2816 1759 
L 2241 1759 
Q 1534 1759 1195 1570 
Q 856 1381 856 984 
Q 856 709 1029 553 
Q 1203 397 1509 397 
Q 1978 397 2328 733 
Q 2678 1069 2791 1631 
L 2816 1759 
z
" transform="scale(0.015625)"/>
      <path id="DejaVuSans-Oblique-78" d="M 3841 3500 
L 2234 1784 
L 3219 0 
L 2559 0 
L 1819 1388 
L 531 0 
L -166 0 
L 1556 1844 
L 641 3500 
L 1300 3500 
L 1972 2234 
L 3144 3500 
L 3841 3500 
z
" transform="scale(0.015625)"/>
     </defs>
     <use xlink:href="#DejaVuSans-Oblique-43" transform="translate(0 0.78125)"/>
     <use xlink:href="#DejaVuSans-Oblique-6d" transform="translate(69.824219 -15.625) scale(0.7)"/>
     <use xlink:href="#DejaVuSans-Oblique-61" transform="translate(138.012695 -15.625) scale(0.7)"/>
     <use xlink:href="#DejaVuSans-Oblique-78" transform="translate(180.908203 -15.625) scale(0.7)"/>
    </g>
   </g>
  </g>
 </g>
 <defs>
  <clipPath id="p14e9130f55">
   <rect x="28.683" y="19.27875" width="61.38" height="55.44"/>
  </clipPath>
 </defs>
</svg>
