<?xml version="1.0" encoding="utf-8" standalone="no"?>
<!DOCTYPE svg PUBLIC "-//W3C//DTD SVG 1.1//EN"
  "http://www.w3.org/Graphics/SVG/1.1/DTD/svg11.dtd">
<svg xmlns:xlink="http://www.w3.org/1999/xlink" width="69.473295pt" height="78.093625pt" viewBox="0 0 69.473295 78.093625" xmlns="http://www.w3.org/2000/svg" version="1.1">
 <metadata>
  <rdf:RDF xmlns:dc="http://purl.org/dc/elements/1.1/" xmlns:cc="http://creativecommons.org/ns#" xmlns:rdf="http://www.w3.org/1999/02/22-rdf-syntax-ns#">
   <cc:Work>
    <dc:type rdf:resource="http://purl.org/dc/dcmitype/StillImage"/>
    <dc:date>2025-05-09T10:27:01.492502</dc:date>
    <dc:format>image/svg+xml</dc:format>
    <dc:creator>
     <cc:Agent>
      <dc:title>Matplotlib v3.7.2, https://matplotlib.org/</dc:title>
     </cc:Agent>
    </dc:creator>
   </cc:Work>
  </rdf:RDF>
 </metadata>
 <defs>
  <style type="text/css">*{stroke-linejoin: round; stroke-linecap: butt}</style>
 </defs>
 <g id="figure_1">
  <g id="patch_1">
   <path d="M 0 78.093625 
L 69.473295 78.093625 
L 69.473295 -0 
L 0 -0 
z
" style="fill: #ffffff"/>
  </g>
  <g id="axes_1">
   <g id="patch_2">
    <path d="M 23.08 58.08675 
L 62.14 58.08675 
L 62.14 19.27875 
L 23.08 19.27875 
z
" style="fill: #ffffff"/>
   </g>
   <g id="matplotlib.axis_1">
    <g id="xtick_1">
     <g id="line2d_1">
      <path d="M 24.855455 58.08675 
L 24.855455 19.27875 
" clip-path="url(#p144f6d0d80)" style="fill: none; stroke: #b0b0b0; stroke-width: 0.8; stroke-linecap: square"/>
     </g>
     <g id="line2d_2">
      <defs>
       <path id="mdb89972dfc" d="M 0 0 
L 0 3.5 
" style="stroke: #000000; stroke-width: 0.8"/>
      </defs>
      <g>
       <use xlink:href="#mdb89972dfc" x="24.855455" y="58.08675" style="stroke: #000000; stroke-width: 0.8"/>
      </g>
     </g>
     <g id="text_1">
      <!-- 0 -->
      <g transform="translate(22.946705 69.645812) scale(0.06 -0.06)">
       <defs>
        <path id="DejaVuSans-30" d="M 2034 4250 
Q 1547 4250 1301 3770 
Q 1056 3291 1056 2328 
Q 1056 1369 1301 889 
Q 1547 409 2034 409 
Q 2525 409 2770 889 
Q 3016 1369 3016 2328 
Q 3016 3291 2770 3770 
Q 2525 4250 2034 4250 
z
M 2034 4750 
Q 2819 4750 3233 4129 
Q 3647 3509 3647 2328 
Q 3647 1150 3233 529 
Q 2819 -91 2034 -91 
Q 1250 -91 836 529 
Q 422 1150 422 2328 
Q 422 3509 836 4129 
Q 1250 4750 2034 4750 
z
" transform="scale(0.015625)"/>
       </defs>
       <use xlink:href="#DejaVuSans-30"/>
      </g>
     </g>
    </g>
    <g id="xtick_2">
     <g id="line2d_3">
      <path d="M 60.364545 58.08675 
L 60.364545 19.27875 
" clip-path="url(#p144f6d0d80)" style="fill: none; stroke: #b0b0b0; stroke-width: 0.8; stroke-linecap: square"/>
     </g>
     <g id="line2d_4">
      <g>
       <use xlink:href="#mdb89972dfc" x="60.364545" y="58.08675" style="stroke: #000000; stroke-width: 0.8"/>
      </g>
     </g>
     <g id="text_2">
      <!-- 1 -->
      <g transform="translate(58.455795 69.645812) scale(0.06 -0.06)">
       <defs>
        <path id="DejaVuSans-31" d="M 794 531 
L 1825 531 
L 1825 4091 
L 703 3866 
L 703 4441 
L 1819 4666 
L 2450 4666 
L 2450 531 
L 3481 531 
L 3481 0 
L 794 0 
L 794 531 
z
" transform="scale(0.015625)"/>
       </defs>
       <use xlink:href="#DejaVuSans-31"/>
      </g>
     </g>
    </g>
   </g>
   <g id="matplotlib.axis_2">
    <g id="ytick_1">
     <g id="line2d_5">
      <path d="M 23.08 57.645806 
L 62.14 57.645806 
" clip-path="url(#p144f6d0d80)" style="fill: none; stroke: #b0b0b0; stroke-width: 0.8; stroke-linecap: square"/>
     </g>
     <g id="line2d_6">
      <defs>
       <path id="m209dfe101d" d="M 0 0 
L -3.5 0 
" style="stroke: #000000; stroke-width: 0.8"/>
      </defs>
      <g>
       <use xlink:href="#m209dfe101d" x="23.08" y="57.645806" style="stroke: #000000; stroke-width: 0.8"/>
      </g>
     </g>
     <g id="text_3">
      <!-- $\mathdefault{−2}$ -->
      <g transform="translate(7.2 59.925337) scale(0.06 -0.06)">
       <defs>
        <path id="DejaVuSans-2212" d="M 678 2272 
L 4684 2272 
L 4684 1741 
L 678 1741 
L 678 2272 
z
" transform="scale(0.015625)"/>
        <path id="DejaVuSans-32" d="M 1228 531 
L 3431 531 
L 3431 0 
L 469 0 
L 469 531 
Q 828 903 1448 1529 
Q 2069 2156 2228 2338 
Q 2531 2678 2651 2914 
Q 2772 3150 2772 3378 
Q 2772 3750 2511 3984 
Q 2250 4219 1831 4219 
Q 1534 4219 1204 4116 
Q 875 4013 500 3803 
L 500 4441 
Q 881 4594 1212 4672 
Q 1544 4750 1819 4750 
Q 2544 4750 2975 4387 
Q 3406 4025 3406 3419 
Q 3406 3131 3298 2873 
Q 3191 2616 2906 2266 
Q 2828 2175 2409 1742 
Q 1991 1309 1228 531 
z
" transform="scale(0.015625)"/>
       </defs>
       <use xlink:href="#DejaVuSans-2212" transform="translate(0 0.78125)"/>
       <use xlink:href="#DejaVuSans-32" transform="translate(83.789062 0.78125)"/>
      </g>
     </g>
    </g>
    <g id="ytick_2">
     <g id="line2d_7">
      <path d="M 23.08 35.108107 
L 62.14 35.108107 
" clip-path="url(#p144f6d0d80)" style="fill: none; stroke: #b0b0b0; stroke-width: 0.8; stroke-linecap: square"/>
     </g>
     <g id="line2d_8">
      <g>
       <use xlink:href="#m209dfe101d" x="23.08" y="35.108107" style="stroke: #000000; stroke-width: 0.8"/>
      </g>
     </g>
     <g id="text_4">
      <!-- $\mathdefault{0}$ -->
      <g transform="translate(12.24 37.387639) scale(0.06 -0.06)">
       <use xlink:href="#DejaVuSans-30" transform="translate(0 0.78125)"/>
      </g>
     </g>
    </g>
    <g id="text_5">
     <!-- $\times\mathdefault{10^{−2}}\mathdefault{}$ -->
     <g transform="translate(9.409 17.934375) scale(0.06 -0.06)">
      <defs>
       <path id="DejaVuSans-d7" d="M 4488 3438 
L 3059 2003 
L 4488 575 
L 4116 197 
L 2681 1631 
L 1247 197 
L 878 575 
L 2303 2003 
L 878 3438 
L 1247 3816 
L 2681 2381 
L 4116 3816 
L 4488 3438 
z
" transform="scale(0.015625)"/>
      </defs>
      <use xlink:href="#DejaVuSans-d7" transform="translate(0 0.765625)"/>
      <use xlink:href="#DejaVuSans-31" transform="translate(83.789062 0.765625)"/>
      <use xlink:href="#DejaVuSans-30" transform="translate(147.412109 0.765625)"/>
      <use xlink:href="#DejaVuSans-2212" transform="translate(211.992188 39.046875) scale(0.7)"/>
      <use xlink:href="#DejaVuSans-32" transform="translate(270.644531 39.046875) scale(0.7)"/>
     </g>
    </g>
   </g>
   <g id="line2d_9">
    <path d="M 24.855455 35.107537 
L 24.962616 34.731236 
L 25.207386 34.607192 
L 26.65496 34.30245 
L 32.714549 32.092309 
L 37.826201 29.988944 
L 45.360327 26.853733 
L 45.619154 26.999853 
L 46.112303 27.714773 
L 46.541198 29.04882 
L 46.866428 30.981384 
L 47.054682 33.326898 
L 47.089514 35.764717 
L 46.975323 37.996002 
L 46.73153 39.853349 
L 46.383897 41.290762 
L 45.958547 42.329828 
L 45.479164 43.019023 
L 44.966075 43.413145 
L 44.436183 43.564869 
L 43.903219 43.521854 
L 43.121185 43.182419 
L 42.382968 42.616175 
L 41.494781 41.665368 
L 40.401113 40.12073 
L 39.379335 38.269792 
L 38.622792 36.457853 
L 38.350539 35.316607 
L 38.399756 34.701851 
L 38.649511 34.328309 
L 39.15397 34.023942 
L 40.380833 33.601046 
L 43.563102 32.77599 
L 47.944979 31.865649 
L 51.98648 31.247782 
L 55.149649 30.973064 
L 57.508206 30.966332 
L 58.53915 31.111352 
L 59.028264 31.389693 
L 59.467187 31.899313 
L 59.908283 32.747811 
L 60.246739 33.900127 
L 60.364545 35.063308 
L 60.267835 36.160075 
L 59.973141 37.153553 
L 59.501642 38.02911 
L 58.758364 38.898394 
L 57.840924 39.609945 
L 56.622122 40.24484 
L 55.08799 40.756104 
L 54.547847 40.883666 
L 54.547847 40.883666 
" clip-path="url(#p144f6d0d80)" style="fill: none; stroke: #ff6347; stroke-width: 0.5; stroke-linecap: square"/>
   </g>
   <g id="line2d_10">
    <path d="M 24.855455 35.105927 
L 24.961937 34.361104 
L 25.217744 33.879775 
L 25.557311 33.682479 
L 26.05925 33.667893 
L 27.682823 33.748632 
L 28.848289 33.468561 
L 31.424386 32.56601 
L 36.105591 30.687751 
L 42.366157 27.916297 
L 52.69413 23.217442 
L 53.070659 23.167666 
L 53.446637 23.288754 
L 53.815534 23.641179 
L 54.169302 24.270718 
L 54.498525 25.218779 
L 54.792544 26.516379 
L 55.229997 30.12685 
L 55.406776 34.572387 
L 55.299143 38.943823 
L 54.93407 42.66107 
L 54.360003 45.573024 
L 53.627049 47.725138 
L 52.780134 49.2157 
L 51.857683 50.147017 
L 50.891899 50.613108 
L 49.90938 50.69781 
L 48.931752 50.4753 
L 47.976249 50.01096 
L 47.056246 49.362124 
L 45.763862 48.150138 
L 44.234934 46.296736 
L 42.660263 43.924344 
L 41.243523 41.354607 
L 40.023954 38.695756 
L 39.261937 36.552364 
L 39.01249 35.243564 
L 39.081997 34.592341 
L 39.339615 34.173361 
L 39.830286 33.841659 
L 40.894869 33.450157 
L 43.609911 32.746517 
L 47.939044 31.851778 
L 51.873543 31.250584 
L 55.167158 30.962917 
L 57.531135 30.957774 
L 58.563496 31.113336 
L 59.051192 31.410401 
L 59.486591 31.932891 
L 59.921822 32.786952 
L 60.253005 33.936686 
L 60.364545 35.092536 
L 60.263148 36.180309 
L 59.965494 37.164696 
L 59.492702 38.031787 
L 58.749815 38.892413 
L 57.834517 39.596766 
L 56.619889 40.22522 
L 55.0921 40.731354 
L 53.25987 41.078719 
L 51.155744 41.24366 
L 48.642345 41.206816 
L 45.815787 40.935465 
L 42.653709 40.402393 
L 41.512536 40.1586 
L 41.512536 40.1586 
" clip-path="url(#p144f6d0d80)" style="fill: none; stroke: #803224; stroke-width: 0.5; stroke-linecap: square"/>
   </g>
   <g id="line2d_11">
    <path d="M 24.855455 35.10294 
L 24.957631 34.062465 
L 25.246923 33.155829 
L 25.594252 32.700389 
L 26.076629 32.46203 
L 26.665817 32.446061 
L 27.86568 32.710031 
L 29.022576 32.872738 
L 30.092398 32.777757 
L 31.426331 32.417217 
L 33.662048 31.558213 
L 38.161967 29.550864 
L 51.775952 23.371111 
L 57.0144 21.244894 
L 57.897418 21.04275 
L 58.340273 21.199859 
L 58.773939 21.673037 
L 59.186974 22.56217 
L 59.564605 23.973788 
L 59.888677 25.984436 
L 60.139594 28.565041 
L 60.364545 34.647043 
L 60.203182 40.474576 
L 59.704984 45.275394 
L 58.938496 49.014759 
L 57.96679 51.824235 
L 56.843972 53.843433 
L 56.240496 54.59592 
L 55.615817 55.195734 
L 54.97454 55.655673 
L 53.658677 56.202697 
L 52.322423 56.32275 
L 50.990251 56.090649 
L 49.682218 55.572111 
L 48.414491 54.825201 
L 47.199791 53.901419 
L 45.497553 52.282675 
L 43.957239 50.500049 
L 42.171588 48.051313 
L 40.366243 45.131619 
L 38.766846 42.11328 
L 37.405793 39.0977 
L 36.555986 36.738317 
L 36.261721 35.33131 
L 36.325824 34.592013 
L 36.58316 34.175635 
L 37.071423 33.851338 
L 38.06921 33.502369 
L 40.441224 32.952472 
L 43.836903 32.380862 
L 46.648439 32.113864 
L 48.640509 32.125304 
L 49.285803 32.288418 
L 49.703346 32.672813 
L 50.09979 33.382285 
L 50.375522 34.343554 
L 50.43751 35.301701 
L 50.295817 36.182229 
L 49.971482 36.954889 
L 49.409265 37.695814 
L 48.679037 38.289405 
L 47.701121 38.795675 
L 46.47371 39.181645 
L 44.878314 39.438476 
L 42.943891 39.511775 
L 40.615441 39.361444 
L 38.049047 38.970698 
L 35.151546 38.303629 
L 31.922788 37.328268 
L 30.835743 36.95479 
L 30.835743 36.95479 
" clip-path="url(#p144f6d0d80)" style="fill: none; stroke: #000000; stroke-width: 0.5; stroke-linecap: square"/>
   </g>
   <g id="line2d_12">
    <path d="M 24.855455 35.100355 
L 24.953072 33.953619 
L 25.219859 32.927828 
L 25.622354 32.24246 
L 26.107043 31.868932 
L 26.739349 31.699754 
L 27.706134 31.733648 
L 30.054725 31.927309 
L 31.280746 31.768447 
L 32.842026 31.324823 
L 35.384383 30.327033 
L 43.847376 26.872576 
L 48.079109 25.43872 
L 52.287542 24.24552 
L 56.58705 23.251876 
L 58.100383 22.97669 
L 58.48315 23.021456 
L 58.862104 23.273088 
L 59.229013 23.842173 
L 59.572102 24.85548 
L 59.875151 26.439471 
L 60.118414 28.615311 
L 60.364545 33.90538 
L 60.277215 38.864216 
L 59.906403 42.884332 
L 59.310852 46.03169 
L 58.541036 48.449193 
L 57.638771 50.264072 
L 56.638532 51.582451 
L 55.568712 52.492221 
L 54.45266 53.066078 
L 53.309564 53.364147 
L 52.155161 53.436175 
L 51.002338 53.323356 
L 49.29854 52.88065 
L 47.649098 52.189656 
L 46.073977 51.320828 
L 44.113116 49.978427 
L 41.91356 48.138896 
L 40.00943 46.249836 
L 38.112323 44.060615 
L 36.397402 41.763877 
L 34.86572 39.367473 
L 33.70583 37.160022 
L 33.182734 35.746474 
L 33.099604 34.951112 
L 33.266963 34.487233 
L 33.644089 34.158913 
L 34.374879 33.870659 
L 35.723513 33.608896 
L 37.302831 33.512887 
L 37.89517 33.618315 
L 38.192182 33.944617 
L 38.436281 34.568963 
L 38.491195 35.290151 
L 38.330978 35.923572 
L 37.99001 36.43557 
L 37.452372 36.85907 
L 36.661102 37.192251 
L 35.54975 37.39941 
L 34.086107 37.425869 
L 32.325331 37.229358 
L 30.231307 36.767268 
L 27.763154 35.983117 
L 26.540608 35.535606 
L 26.540608 35.535606 
" clip-path="url(#p144f6d0d80)" style="fill: none; stroke: #006080; stroke-width: 0.5; stroke-linecap: square"/>
   </g>
   <g id="line2d_13">
    <path d="M 24.855455 35.098991 
L 24.959398 33.898005 
L 25.237491 32.831647 
L 25.662662 32.036657 
L 26.192847 31.488625 
L 26.919965 31.07501 
L 27.841903 30.812923 
L 29.508775 30.614985 
L 33.03462 30.223889 
L 38.600981 29.246896 
L 42.884182 28.640232 
L 47.088133 28.267116 
L 51.241844 28.109266 
L 54.982853 28.178558 
L 58.201514 28.456354 
L 59.238216 28.633085 
L 59.44098 28.76698 
L 59.637844 29.033796 
L 59.992242 30.161582 
L 60.246687 32.153502 
L 60.364545 35.471228 
L 60.202307 37.99629 
L 59.840565 39.735325 
L 59.343616 40.895089 
L 58.758077 41.637666 
L 58.117444 42.08105 
L 57.445694 42.3107 
L 56.530417 42.388721 
L 55.391115 42.254665 
L 53.857179 41.839191 
L 51.667399 40.995759 
L 48.442966 39.489717 
L 44.932724 37.607734 
L 42.465852 36.280799 
L 41.862407 36.519925 
L 40.680189 36.93503 
L 39.32603 37.157267 
L 37.545306 37.210613 
L 35.299133 37.046863 
L 32.567977 36.619058 
L 29.304048 35.874078 
L 27.683091 35.447952 
L 27.683091 35.447952 
" clip-path="url(#p144f6d0d80)" style="fill: none; stroke: #00bfff; stroke-width: 0.5; stroke-linecap: square"/>
   </g>
   <g id="patch_3">
    <path d="M 23.08 58.08675 
L 23.08 19.27875 
" style="fill: none; stroke: #000000; stroke-width: 0.8; stroke-linejoin: miter; stroke-linecap: square"/>
   </g>
   <g id="patch_4">
    <path d="M 62.14 58.08675 
L 62.14 19.27875 
" style="fill: none; stroke: #000000; stroke-width: 0.8; stroke-linejoin: miter; stroke-linecap: square"/>
   </g>
   <g id="patch_5">
    <path d="M 23.08 58.08675 
L 62.14 58.08675 
" style="fill: none; stroke: #000000; stroke-width: 0.8; stroke-linejoin: miter; stroke-linecap: square"/>
   </g>
   <g id="patch_6">
    <path d="M 23.08 19.27875 
L 62.14 19.27875 
" style="fill: none; stroke: #000000; stroke-width: 0.8; stroke-linejoin: miter; stroke-linecap: square"/>
   </g>
   <g id="text_6">
    <!-- $C_{max}$ -->
    <g transform="translate(33.57 13.27875) scale(0.08 -0.08)">
     <defs>
      <path id="DejaVuSans-Oblique-43" d="M 4447 4306 
L 4319 3641 
Q 4019 3944 3683 4091 
Q 3347 4238 2956 4238 
Q 2422 4238 2017 3981 
Q 1613 3725 1319 3200 
Q 1131 2863 1032 2486 
Q 934 2109 934 1728 
Q 934 1091 1264 756 
Q 1594 422 2222 422 
Q 2656 422 3056 561 
Q 3456 700 3834 978 
L 3688 231 
Q 3316 72 2936 -9 
Q 2556 -91 2175 -91 
Q 1278 -91 773 396 
Q 269 884 269 1753 
Q 269 2309 461 2846 
Q 653 3384 1013 3828 
Q 1394 4300 1883 4525 
Q 2372 4750 3022 4750 
Q 3422 4750 3780 4639 
Q 4138 4528 4447 4306 
z
" transform="scale(0.015625)"/>
      <path id="DejaVuSans-Oblique-6d" d="M 5747 2113 
L 5338 0 
L 4763 0 
L 5166 2094 
Q 5191 2228 5203 2325 
Q 5216 2422 5216 2491 
Q 5216 2772 5059 2928 
Q 4903 3084 4622 3084 
Q 4203 3084 3875 2770 
Q 3547 2456 3450 1953 
L 3066 0 
L 2491 0 
L 2900 2094 
Q 2925 2209 2937 2307 
Q 2950 2406 2950 2484 
Q 2950 2769 2794 2926 
Q 2638 3084 2363 3084 
Q 1938 3084 1609 2770 
Q 1281 2456 1184 1953 
L 800 0 
L 225 0 
L 909 3500 
L 1484 3500 
L 1375 2956 
Q 1609 3263 1923 3423 
Q 2238 3584 2597 3584 
Q 2978 3584 3223 3384 
Q 3469 3184 3519 2828 
Q 3781 3197 4126 3390 
Q 4472 3584 4856 3584 
Q 5306 3584 5551 3325 
Q 5797 3066 5797 2591 
Q 5797 2488 5784 2364 
Q 5772 2241 5747 2113 
z
" transform="scale(0.015625)"/>
      <path id="DejaVuSans-Oblique-61" d="M 3438 1997 
L 3047 0 
L 2472 0 
L 2578 531 
Q 2325 219 2001 64 
Q 1678 -91 1281 -91 
Q 834 -91 548 182 
Q 263 456 263 884 
Q 263 1497 752 1853 
Q 1241 2209 2100 2209 
L 2900 2209 
L 2931 2363 
Q 2938 2388 2941 2417 
Q 2944 2447 2944 2509 
Q 2944 2788 2717 2942 
Q 2491 3097 2081 3097 
Q 1800 3097 1504 3025 
Q 1209 2953 897 2809 
L 997 3341 
Q 1322 3463 1633 3523 
Q 1944 3584 2234 3584 
Q 2853 3584 3176 3315 
Q 3500 3047 3500 2534 
Q 3500 2431 3484 2292 
Q 3469 2153 3438 1997 
z
M 2816 1759 
L 2241 1759 
Q 1534 1759 1195 1570 
Q 856 1381 856 984 
Q 856 709 1029 553 
Q 1203 397 1509 397 
Q 1978 397 2328 733 
Q 2678 1069 2791 1631 
L 2816 1759 
z
" transform="scale(0.015625)"/>
      <path id="DejaVuSans-Oblique-78" d="M 3841 3500 
L 2234 1784 
L 3219 0 
L 2559 0 
L 1819 1388 
L 531 0 
L -166 0 
L 1556 1844 
L 641 3500 
L 1300 3500 
L 1972 2234 
L 3144 3500 
L 3841 3500 
z
" transform="scale(0.015625)"/>
     </defs>
     <use xlink:href="#DejaVuSans-Oblique-43" transform="translate(0 0.78125)"/>
     <use xlink:href="#DejaVuSans-Oblique-6d" transform="translate(69.824219 -15.625) scale(0.7)"/>
     <use xlink:href="#DejaVuSans-Oblique-61" transform="translate(138.012695 -15.625) scale(0.7)"/>
     <use xlink:href="#DejaVuSans-Oblique-78" transform="translate(180.908203 -15.625) scale(0.7)"/>
    </g>
   </g>
  </g>
 </g>
 <defs>
  <clipPath id="p144f6d0d80">
   <rect x="23.08" y="19.27875" width="39.06" height="38.808"/>
  </clipPath>
 </defs>
</svg>
