<?xml version="1.0" encoding="utf-8" standalone="no"?>
<!DOCTYPE svg PUBLIC "-//W3C//DTD SVG 1.1//EN"
  "http://www.w3.org/Graphics/SVG/1.1/DTD/svg11.dtd">
<svg xmlns:xlink="http://www.w3.org/1999/xlink" width="101.044375pt" height="100.629063pt" viewBox="0 0 101.044375 100.629063" xmlns="http://www.w3.org/2000/svg" version="1.1">
 <metadata>
  <rdf:RDF xmlns:dc="http://purl.org/dc/elements/1.1/" xmlns:cc="http://creativecommons.org/ns#" xmlns:rdf="http://www.w3.org/1999/02/22-rdf-syntax-ns#">
   <cc:Work>
    <dc:type rdf:resource="http://purl.org/dc/dcmitype/StillImage"/>
    <dc:date>2025-05-10T19:42:54.551018</dc:date>
    <dc:format>image/svg+xml</dc:format>
    <dc:creator>
     <cc:Agent>
      <dc:title>Matplotlib v3.7.2, https://matplotlib.org/</dc:title>
     </cc:Agent>
    </dc:creator>
   </cc:Work>
  </rdf:RDF>
 </metadata>
 <defs>
  <style type="text/css">*{stroke-linejoin: round; stroke-linecap: butt}</style>
 </defs>
 <g id="figure_1">
  <g id="patch_1">
   <path d="M -0 100.629063 
L 101.044375 100.629063 
L 101.044375 0 
L -0 0 
z
" style="fill: #ffffff"/>
  </g>
  <g id="axes_1">
   <g id="patch_2">
    <path d="M 28.78 80.622187 
L 90.16 80.622187 
L 90.16 25.182187 
L 28.78 25.182187 
z
" style="fill: #ffffff"/>
   </g>
   <g id="matplotlib.axis_1">
    <g id="xtick_1">
     <g id="line2d_1">
      <path d="M 31.57 80.622187 
L 31.57 25.182187 
" clip-path="url(#pdf2927c1e3)" style="fill: none; stroke: #b0b0b0; stroke-width: 0.8; stroke-linecap: square"/>
     </g>
     <g id="line2d_2">
      <defs>
       <path id="mce20c30ff1" d="M 0 0 
L 0 3.5 
" style="stroke: #000000; stroke-width: 0.8"/>
      </defs>
      <g>
       <use xlink:href="#mce20c30ff1" x="31.57" y="80.622187" style="stroke: #000000; stroke-width: 0.8"/>
      </g>
     </g>
     <g id="text_1">
      <!-- 0 -->
      <g transform="translate(29.66125 92.18125) scale(0.06 -0.06)">
       <defs>
        <path id="DejaVuSans-30" d="M 2034 4250 
Q 1547 4250 1301 3770 
Q 1056 3291 1056 2328 
Q 1056 1369 1301 889 
Q 1547 409 2034 409 
Q 2525 409 2770 889 
Q 3016 1369 3016 2328 
Q 3016 3291 2770 3770 
Q 2525 4250 2034 4250 
z
M 2034 4750 
Q 2819 4750 3233 4129 
Q 3647 3509 3647 2328 
Q 3647 1150 3233 529 
Q 2819 -91 2034 -91 
Q 1250 -91 836 529 
Q 422 1150 422 2328 
Q 422 3509 836 4129 
Q 1250 4750 2034 4750 
z
" transform="scale(0.015625)"/>
       </defs>
       <use xlink:href="#DejaVuSans-30"/>
      </g>
     </g>
    </g>
    <g id="xtick_2">
     <g id="line2d_3">
      <path d="M 87.37 80.622187 
L 87.37 25.182187 
" clip-path="url(#pdf2927c1e3)" style="fill: none; stroke: #b0b0b0; stroke-width: 0.8; stroke-linecap: square"/>
     </g>
     <g id="line2d_4">
      <g>
       <use xlink:href="#mce20c30ff1" x="87.37" y="80.622187" style="stroke: #000000; stroke-width: 0.8"/>
      </g>
     </g>
     <g id="text_2">
      <!-- 1 -->
      <g transform="translate(85.46125 92.18125) scale(0.06 -0.06)">
       <defs>
        <path id="DejaVuSans-31" d="M 794 531 
L 1825 531 
L 1825 4091 
L 703 3866 
L 703 4441 
L 1819 4666 
L 2450 4666 
L 2450 531 
L 3481 531 
L 3481 0 
L 794 0 
L 794 531 
z
" transform="scale(0.015625)"/>
       </defs>
       <use xlink:href="#DejaVuSans-31"/>
      </g>
     </g>
    </g>
   </g>
   <g id="matplotlib.axis_2">
    <g id="ytick_1">
     <g id="line2d_5">
      <path d="M 28.78 64.664025 
L 90.16 64.664025 
" clip-path="url(#pdf2927c1e3)" style="fill: none; stroke: #b0b0b0; stroke-width: 0.8; stroke-linecap: square"/>
     </g>
     <g id="line2d_6">
      <defs>
       <path id="m9cb6efc5e9" d="M 0 0 
L -3.5 0 
" style="stroke: #000000; stroke-width: 0.8"/>
      </defs>
      <g>
       <use xlink:href="#m9cb6efc5e9" x="28.78" y="64.664025" style="stroke: #000000; stroke-width: 0.8"/>
      </g>
     </g>
     <g id="text_3">
      <!-- $\mathdefault{−2.5}$ -->
      <g transform="translate(7.2 66.943556) scale(0.06 -0.06)">
       <defs>
        <path id="DejaVuSans-2212" d="M 678 2272 
L 4684 2272 
L 4684 1741 
L 678 1741 
L 678 2272 
z
" transform="scale(0.015625)"/>
        <path id="DejaVuSans-32" d="M 1228 531 
L 3431 531 
L 3431 0 
L 469 0 
L 469 531 
Q 828 903 1448 1529 
Q 2069 2156 2228 2338 
Q 2531 2678 2651 2914 
Q 2772 3150 2772 3378 
Q 2772 3750 2511 3984 
Q 2250 4219 1831 4219 
Q 1534 4219 1204 4116 
Q 875 4013 500 3803 
L 500 4441 
Q 881 4594 1212 4672 
Q 1544 4750 1819 4750 
Q 2544 4750 2975 4387 
Q 3406 4025 3406 3419 
Q 3406 3131 3298 2873 
Q 3191 2616 2906 2266 
Q 2828 2175 2409 1742 
Q 1991 1309 1228 531 
z
" transform="scale(0.015625)"/>
        <path id="DejaVuSans-2e" d="M 684 794 
L 1344 794 
L 1344 0 
L 684 0 
L 684 794 
z
" transform="scale(0.015625)"/>
        <path id="DejaVuSans-35" d="M 691 4666 
L 3169 4666 
L 3169 4134 
L 1269 4134 
L 1269 2991 
Q 1406 3038 1543 3061 
Q 1681 3084 1819 3084 
Q 2600 3084 3056 2656 
Q 3513 2228 3513 1497 
Q 3513 744 3044 326 
Q 2575 -91 1722 -91 
Q 1428 -91 1123 -41 
Q 819 9 494 109 
L 494 744 
Q 775 591 1075 516 
Q 1375 441 1709 441 
Q 2250 441 2565 725 
Q 2881 1009 2881 1497 
Q 2881 1984 2565 2268 
Q 2250 2553 1709 2553 
Q 1456 2553 1204 2497 
Q 953 2441 691 2322 
L 691 4666 
z
" transform="scale(0.015625)"/>
       </defs>
       <use xlink:href="#DejaVuSans-2212" transform="translate(0 0.78125)"/>
       <use xlink:href="#DejaVuSans-32" transform="translate(83.789062 0.78125)"/>
       <use xlink:href="#DejaVuSans-2e" transform="translate(147.412109 0.78125)"/>
       <use xlink:href="#DejaVuSans-35" transform="translate(179.199219 0.78125)"/>
      </g>
     </g>
    </g>
    <g id="ytick_2">
     <g id="line2d_7">
      <path d="M 28.78 40.283636 
L 90.16 40.283636 
" clip-path="url(#pdf2927c1e3)" style="fill: none; stroke: #b0b0b0; stroke-width: 0.8; stroke-linecap: square"/>
     </g>
     <g id="line2d_8">
      <g>
       <use xlink:href="#m9cb6efc5e9" x="28.78" y="40.283636" style="stroke: #000000; stroke-width: 0.8"/>
      </g>
     </g>
     <g id="text_4">
      <!-- $\mathdefault{0.0}$ -->
      <g transform="translate(12.18 42.563167) scale(0.06 -0.06)">
       <use xlink:href="#DejaVuSans-30" transform="translate(0 0.78125)"/>
       <use xlink:href="#DejaVuSans-2e" transform="translate(63.623047 0.78125)"/>
       <use xlink:href="#DejaVuSans-30" transform="translate(95.410156 0.78125)"/>
      </g>
     </g>
    </g>
    <g id="text_5">
     <!-- $\times\mathdefault{10^{−2}}\mathdefault{}$ -->
     <g transform="translate(7.297 23.837812) scale(0.06 -0.06)">
      <defs>
       <path id="DejaVuSans-d7" d="M 4488 3438 
L 3059 2003 
L 4488 575 
L 4116 197 
L 2681 1631 
L 1247 197 
L 878 575 
L 2303 2003 
L 878 3438 
L 1247 3816 
L 2681 2381 
L 4116 3816 
L 4488 3438 
z
" transform="scale(0.015625)"/>
      </defs>
      <use xlink:href="#DejaVuSans-d7" transform="translate(0 0.765625)"/>
      <use xlink:href="#DejaVuSans-31" transform="translate(83.789062 0.765625)"/>
      <use xlink:href="#DejaVuSans-30" transform="translate(147.412109 0.765625)"/>
      <use xlink:href="#DejaVuSans-2212" transform="translate(211.992188 39.046875) scale(0.7)"/>
      <use xlink:href="#DejaVuSans-32" transform="translate(270.644531 39.046875) scale(0.7)"/>
     </g>
    </g>
   </g>
   <g id="line2d_9">
    <path d="M 31.57 40.276276 
L 31.692834 39.301614 
L 32.03304 38.309422 
L 32.582551 37.502719 
L 33.287333 36.953308 
L 34.09042 36.634648 
L 35.162495 36.477601 
L 36.684719 36.526118 
L 43.442368 37.085185 
L 45.885067 36.875078 
L 49.009155 36.368001 
L 54.061199 35.29307 
L 62.566735 33.23286 
L 84.477688 27.702188 
L 85.199881 27.802726 
L 85.905957 28.435853 
L 86.555696 30.032955 
L 87.079006 33.167852 
L 87.37 38.049073 
L 87.334721 43.94475 
L 86.951036 49.812687 
L 86.244252 55.140185 
L 85.250908 59.828896 
L 84.007566 63.895659 
L 82.548837 67.376037 
L 80.907214 70.30607 
L 79.113183 72.719649 
L 77.195359 74.64852 
L 75.180595 76.122718 
L 73.094069 77.171051 
L 70.959338 77.821599 
L 68.798366 78.102187 
L 66.631525 78.040827 
L 64.477575 77.666094 
L 62.353617 77.007423 
L 60.275043 76.095284 
L 58.255467 74.961213 
L 56.306671 73.637681 
L 54.438555 72.157796 
L 52.659112 70.55483 
L 50.974434 68.861636 
L 47.90453 65.329738 
L 45.242193 61.790532 
L 42.977114 58.425218 
L 40.260317 53.958948 
L 37.204085 48.398018 
L 33.14591 40.384584 
L 33.143692 40.245068 
L 33.202058 40.23077 
L 34.362077 40.144436 
L 35.739144 40.192155 
L 35.750184 40.367474 
L 35.645727 40.475362 
L 35.645727 40.475362 
" clip-path="url(#pdf2927c1e3)" style="fill: none; stroke: #00bfff; stroke-width: 0.8; stroke-linecap: square"/>
   </g>
   <g id="line2d_10">
    <path d="M 31.57 40.27697 
L 31.681248 39.394238 
L 31.989366 38.49563 
L 32.487047 37.765016 
L 33.125353 37.267426 
L 33.852693 36.978822 
L 34.823649 36.836588 
L 36.202297 36.880528 
L 42.322561 37.386864 
L 44.534864 37.196573 
L 47.568301 36.698391 
L 52.463906 35.643005 
L 61.147497 33.518819 
L 84.311422 27.708347 
L 85.032379 27.834363 
L 85.73607 28.442826 
L 86.387396 29.850844 
L 86.929959 32.456078 
L 87.283153 36.438345 
L 87.37 41.354515 
L 87.160605 46.421708 
L 86.667582 51.133902 
L 85.918942 55.336325 
L 84.945009 59.018688 
L 83.774973 62.20646 
L 82.436244 64.930852 
L 80.954438 67.222305 
L 79.353484 69.109391 
L 77.655727 70.618868 
L 75.882034 71.775957 
L 74.051864 72.604654 
L 72.183338 73.128038 
L 70.293274 73.368561 
L 68.397224 73.348309 
L 66.509478 73.089235 
L 64.643074 72.613338 
L 62.809788 71.942792 
L 61.02012 71.100002 
L 59.283279 70.107585 
L 57.607179 68.988277 
L 54.462343 66.459406 
L 51.623137 63.689423 
L 49.107643 60.839569 
L 46.916771 58.046386 
L 44.207935 54.182294 
L 41.538176 49.92254 
L 38.762733 45.020927 
L 36.531109 40.644945 
L 36.460406 40.185969 
L 36.698829 40.100893 
L 38.35923 39.924712 
L 41.936783 39.750272 
L 43.353481 39.847097 
L 43.531625 40.058593 
L 43.560595 40.414388 
L 43.385406 40.755621 
L 42.991445 41.046573 
L 42.278243 41.276538 
L 41.119397 41.391552 
L 39.312767 41.320773 
L 38.405117 41.22611 
L 38.405117 41.22611 
" clip-path="url(#pdf2927c1e3)" style="fill: none; stroke: #006080; stroke-width: 0.8; stroke-linecap: square"/>
   </g>
   <g id="line2d_11">
    <path d="M 31.57 40.279164 
L 31.683158 39.532678 
L 32.004189 38.820172 
L 32.499428 38.329511 
L 33.101256 38.06673 
L 33.885083 37.966528 
L 35.19358 38.058829 
L 38.228983 38.350038 
L 40.03168 38.241435 
L 42.440209 37.851814 
L 46.698644 36.909004 
L 55.76412 34.63366 
L 72.164818 30.528868 
L 82.105487 28.286296 
L 83.493086 28.111359 
L 84.189002 28.247323 
L 84.870477 28.656815 
L 85.519531 29.426279 
L 86.112952 30.647906 
L 86.622208 32.387938 
L 87.016506 34.621215 
L 87.270194 37.194631 
L 87.37 39.88463 
L 87.315855 42.499472 
L 87.116428 44.927825 
L 86.784391 47.124846 
L 86.333546 49.082492 
L 85.777483 50.808991 
L 85.129064 52.318568 
L 84.400251 53.627009 
L 83.602098 54.749912 
L 82.744785 55.70208 
L 81.837669 56.497343 
L 80.889349 57.148551 
L 79.907712 57.667635 
L 77.872803 58.352953 
L 75.78372 58.632955 
L 73.682748 58.576902 
L 71.604762 58.245427 
L 69.578128 57.69196 
L 67.625464 56.963797 
L 64.872225 55.634575 
L 62.364335 54.127753 
L 60.123303 52.543623 
L 57.559081 50.446194 
L 55.005429 48.028044 
L 52.78062 45.599765 
L 50.926504 43.231666 
L 49.880145 41.547859 
L 49.507427 40.557525 
L 49.513371 40.025737 
L 49.715278 39.683828 
L 50.14407 39.40497 
L 51.022688 39.133712 
L 53.07824 38.785185 
L 57.973927 38.218505 
L 63.483544 37.789261 
L 67.606184 37.670022 
L 69.676869 37.7748 
L 70.365984 38.017202 
L 70.954694 38.463089 
L 71.466268 39.140341 
L 71.734868 39.862993 
L 71.757509 40.565053 
L 71.547713 41.21319 
L 71.126963 41.79245 
L 70.402474 42.375008 
L 69.315529 42.919798 
L 67.830735 43.389485 
L 65.941893 43.753835 
L 63.461975 44.006067 
L 60.212792 44.095922 
L 56.335693 43.96451 
L 51.922581 43.58555 
L 46.975031 42.932864 
L 41.437663 41.972347 
L 40.967594 41.88177 
L 40.967594 41.88177 
" clip-path="url(#pdf2927c1e3)" style="fill: none; stroke: #000000; stroke-width: 0.8; stroke-linecap: square"/>
   </g>
   <g id="line2d_12">
    <path d="M 31.57 40.282722 
L 31.676591 39.96036 
L 31.935582 39.819331 
L 32.488049 39.852936 
L 33.347803 39.860323 
L 34.783417 39.564831 
L 44.711116 37.277838 
L 48.907426 36.637067 
L 53.597921 36.148564 
L 59.034485 35.811976 
L 65.039923 35.666784 
L 70.293767 35.758378 
L 74.572802 36.045915 
L 78.254457 36.508896 
L 81.252613 37.09329 
L 83.701234 37.781205 
L 85.533491 38.520627 
L 86.667522 39.212205 
L 87.20662 39.778978 
L 87.369989 40.262404 
L 87.265322 40.664157 
L 86.898734 41.059415 
L 86.168138 41.459956 
L 84.991954 41.832158 
L 83.110651 42.172705 
L 80.447415 42.413314 
L 76.80891 42.506005 
L 72.064572 42.391716 
L 66.098274 42.015837 
L 61.622479 41.62374 
L 61.622479 41.62374 
" clip-path="url(#pdf2927c1e3)" style="fill: none; stroke: #803224; stroke-width: 0.8; stroke-linecap: square"/>
   </g>
   <g id="line2d_13">
    <path d="M 31.57 40.282722 
L 31.67659 39.960364 
L 31.935577 39.819336 
L 32.488039 39.85294 
L 33.347784 39.860327 
L 34.783387 39.564837 
L 44.711035 37.277852 
L 48.907326 36.637081 
L 53.597805 36.148578 
L 59.034353 35.811987 
L 65.03978 35.66679 
L 70.29362 35.758378 
L 74.572658 36.045909 
L 78.254323 36.508883 
L 81.252495 37.093273 
L 83.701135 37.781184 
L 85.533412 38.520593 
L 86.667474 39.212172 
L 87.206595 39.778942 
L 87.369987 40.262369 
L 87.26534 40.66412 
L 86.898776 41.059379 
L 86.168207 41.45992 
L 84.992053 41.832123 
L 83.110787 42.172672 
L 80.447592 42.413287 
L 76.809134 42.505975 
L 72.064847 42.391695 
L 66.0986 42.015823 
L 61.622836 41.623732 
L 61.622836 41.623732 
" clip-path="url(#pdf2927c1e3)" style="fill: none; stroke: #ff6347; stroke-width: 0.8; stroke-linecap: square"/>
   </g>
   <g id="patch_3">
    <path d="M 28.78 80.622187 
L 28.78 25.182187 
" style="fill: none; stroke: #000000; stroke-width: 0.8; stroke-linejoin: miter; stroke-linecap: square"/>
   </g>
   <g id="patch_4">
    <path d="M 90.16 80.622187 
L 90.16 25.182187 
" style="fill: none; stroke: #000000; stroke-width: 0.8; stroke-linejoin: miter; stroke-linecap: square"/>
   </g>
   <g id="patch_5">
    <path d="M 28.78 80.622187 
L 90.16 80.622187 
" style="fill: none; stroke: #000000; stroke-width: 0.8; stroke-linejoin: miter; stroke-linecap: square"/>
   </g>
   <g id="patch_6">
    <path d="M 28.78 25.182187 
L 90.16 25.182187 
" style="fill: none; stroke: #000000; stroke-width: 0.8; stroke-linejoin: miter; stroke-linecap: square"/>
   </g>
   <g id="text_6">
    <!-- amino acid synth -->
    <g transform="translate(25.095625 13.27875) scale(0.08 -0.08)">
     <defs>
      <path id="DejaVuSans-61" d="M 2194 1759 
Q 1497 1759 1228 1600 
Q 959 1441 959 1056 
Q 959 750 1161 570 
Q 1363 391 1709 391 
Q 2188 391 2477 730 
Q 2766 1069 2766 1631 
L 2766 1759 
L 2194 1759 
z
M 3341 1997 
L 3341 0 
L 2766 0 
L 2766 531 
Q 2569 213 2275 61 
Q 1981 -91 1556 -91 
Q 1019 -91 701 211 
Q 384 513 384 1019 
Q 384 1609 779 1909 
Q 1175 2209 1959 2209 
L 2766 2209 
L 2766 2266 
Q 2766 2663 2505 2880 
Q 2244 3097 1772 3097 
Q 1472 3097 1187 3025 
Q 903 2953 641 2809 
L 641 3341 
Q 956 3463 1253 3523 
Q 1550 3584 1831 3584 
Q 2591 3584 2966 3190 
Q 3341 2797 3341 1997 
z
" transform="scale(0.015625)"/>
      <path id="DejaVuSans-6d" d="M 3328 2828 
Q 3544 3216 3844 3400 
Q 4144 3584 4550 3584 
Q 5097 3584 5394 3201 
Q 5691 2819 5691 2113 
L 5691 0 
L 5113 0 
L 5113 2094 
Q 5113 2597 4934 2840 
Q 4756 3084 4391 3084 
Q 3944 3084 3684 2787 
Q 3425 2491 3425 1978 
L 3425 0 
L 2847 0 
L 2847 2094 
Q 2847 2600 2669 2842 
Q 2491 3084 2119 3084 
Q 1678 3084 1418 2786 
Q 1159 2488 1159 1978 
L 1159 0 
L 581 0 
L 581 3500 
L 1159 3500 
L 1159 2956 
Q 1356 3278 1631 3431 
Q 1906 3584 2284 3584 
Q 2666 3584 2933 3390 
Q 3200 3197 3328 2828 
z
" transform="scale(0.015625)"/>
      <path id="DejaVuSans-69" d="M 603 3500 
L 1178 3500 
L 1178 0 
L 603 0 
L 603 3500 
z
M 603 4863 
L 1178 4863 
L 1178 4134 
L 603 4134 
L 603 4863 
z
" transform="scale(0.015625)"/>
      <path id="DejaVuSans-6e" d="M 3513 2113 
L 3513 0 
L 2938 0 
L 2938 2094 
Q 2938 2591 2744 2837 
Q 2550 3084 2163 3084 
Q 1697 3084 1428 2787 
Q 1159 2491 1159 1978 
L 1159 0 
L 581 0 
L 581 3500 
L 1159 3500 
L 1159 2956 
Q 1366 3272 1645 3428 
Q 1925 3584 2291 3584 
Q 2894 3584 3203 3211 
Q 3513 2838 3513 2113 
z
" transform="scale(0.015625)"/>
      <path id="DejaVuSans-6f" d="M 1959 3097 
Q 1497 3097 1228 2736 
Q 959 2375 959 1747 
Q 959 1119 1226 758 
Q 1494 397 1959 397 
Q 2419 397 2687 759 
Q 2956 1122 2956 1747 
Q 2956 2369 2687 2733 
Q 2419 3097 1959 3097 
z
M 1959 3584 
Q 2709 3584 3137 3096 
Q 3566 2609 3566 1747 
Q 3566 888 3137 398 
Q 2709 -91 1959 -91 
Q 1206 -91 779 398 
Q 353 888 353 1747 
Q 353 2609 779 3096 
Q 1206 3584 1959 3584 
z
" transform="scale(0.015625)"/>
      <path id="DejaVuSans-20" transform="scale(0.015625)"/>
      <path id="DejaVuSans-63" d="M 3122 3366 
L 3122 2828 
Q 2878 2963 2633 3030 
Q 2388 3097 2138 3097 
Q 1578 3097 1268 2742 
Q 959 2388 959 1747 
Q 959 1106 1268 751 
Q 1578 397 2138 397 
Q 2388 397 2633 464 
Q 2878 531 3122 666 
L 3122 134 
Q 2881 22 2623 -34 
Q 2366 -91 2075 -91 
Q 1284 -91 818 406 
Q 353 903 353 1747 
Q 353 2603 823 3093 
Q 1294 3584 2113 3584 
Q 2378 3584 2631 3529 
Q 2884 3475 3122 3366 
z
" transform="scale(0.015625)"/>
      <path id="DejaVuSans-64" d="M 2906 2969 
L 2906 4863 
L 3481 4863 
L 3481 0 
L 2906 0 
L 2906 525 
Q 2725 213 2448 61 
Q 2172 -91 1784 -91 
Q 1150 -91 751 415 
Q 353 922 353 1747 
Q 353 2572 751 3078 
Q 1150 3584 1784 3584 
Q 2172 3584 2448 3432 
Q 2725 3281 2906 2969 
z
M 947 1747 
Q 947 1113 1208 752 
Q 1469 391 1925 391 
Q 2381 391 2643 752 
Q 2906 1113 2906 1747 
Q 2906 2381 2643 2742 
Q 2381 3103 1925 3103 
Q 1469 3103 1208 2742 
Q 947 2381 947 1747 
z
" transform="scale(0.015625)"/>
      <path id="DejaVuSans-73" d="M 2834 3397 
L 2834 2853 
Q 2591 2978 2328 3040 
Q 2066 3103 1784 3103 
Q 1356 3103 1142 2972 
Q 928 2841 928 2578 
Q 928 2378 1081 2264 
Q 1234 2150 1697 2047 
L 1894 2003 
Q 2506 1872 2764 1633 
Q 3022 1394 3022 966 
Q 3022 478 2636 193 
Q 2250 -91 1575 -91 
Q 1294 -91 989 -36 
Q 684 19 347 128 
L 347 722 
Q 666 556 975 473 
Q 1284 391 1588 391 
Q 1994 391 2212 530 
Q 2431 669 2431 922 
Q 2431 1156 2273 1281 
Q 2116 1406 1581 1522 
L 1381 1569 
Q 847 1681 609 1914 
Q 372 2147 372 2553 
Q 372 3047 722 3315 
Q 1072 3584 1716 3584 
Q 2034 3584 2315 3537 
Q 2597 3491 2834 3397 
z
" transform="scale(0.015625)"/>
      <path id="DejaVuSans-79" d="M 2059 -325 
Q 1816 -950 1584 -1140 
Q 1353 -1331 966 -1331 
L 506 -1331 
L 506 -850 
L 844 -850 
Q 1081 -850 1212 -737 
Q 1344 -625 1503 -206 
L 1606 56 
L 191 3500 
L 800 3500 
L 1894 763 
L 2988 3500 
L 3597 3500 
L 2059 -325 
z
" transform="scale(0.015625)"/>
      <path id="DejaVuSans-74" d="M 1172 4494 
L 1172 3500 
L 2356 3500 
L 2356 3053 
L 1172 3053 
L 1172 1153 
Q 1172 725 1289 603 
Q 1406 481 1766 481 
L 2356 481 
L 2356 0 
L 1766 0 
Q 1100 0 847 248 
Q 594 497 594 1153 
L 594 3053 
L 172 3053 
L 172 3500 
L 594 3500 
L 594 4494 
L 1172 4494 
z
" transform="scale(0.015625)"/>
      <path id="DejaVuSans-68" d="M 3513 2113 
L 3513 0 
L 2938 0 
L 2938 2094 
Q 2938 2591 2744 2837 
Q 2550 3084 2163 3084 
Q 1697 3084 1428 2787 
Q 1159 2491 1159 1978 
L 1159 0 
L 581 0 
L 581 4863 
L 1159 4863 
L 1159 2956 
Q 1366 3272 1645 3428 
Q 1925 3584 2291 3584 
Q 2894 3584 3203 3211 
Q 3513 2838 3513 2113 
z
" transform="scale(0.015625)"/>
     </defs>
     <use xlink:href="#DejaVuSans-61"/>
     <use xlink:href="#DejaVuSans-6d" x="61.279297"/>
     <use xlink:href="#DejaVuSans-69" x="158.691406"/>
     <use xlink:href="#DejaVuSans-6e" x="186.474609"/>
     <use xlink:href="#DejaVuSans-6f" x="249.853516"/>
     <use xlink:href="#DejaVuSans-20" x="311.035156"/>
     <use xlink:href="#DejaVuSans-61" x="342.822266"/>
     <use xlink:href="#DejaVuSans-63" x="404.101562"/>
     <use xlink:href="#DejaVuSans-69" x="459.082031"/>
     <use xlink:href="#DejaVuSans-64" x="486.865234"/>
     <use xlink:href="#DejaVuSans-20" x="550.341797"/>
     <use xlink:href="#DejaVuSans-73" x="582.128906"/>
     <use xlink:href="#DejaVuSans-79" x="634.228516"/>
     <use xlink:href="#DejaVuSans-6e" x="693.408203"/>
     <use xlink:href="#DejaVuSans-74" x="756.787109"/>
     <use xlink:href="#DejaVuSans-68" x="795.996094"/>
    </g>
   </g>
  </g>
 </g>
 <defs>
  <clipPath id="pdf2927c1e3">
   <rect x="28.78" y="25.182187" width="61.38" height="55.44"/>
  </clipPath>
 </defs>
</svg>
