<?xml version="1.0" encoding="utf-8" standalone="no"?>
<!DOCTYPE svg PUBLIC "-//W3C//DTD SVG 1.1//EN"
  "http://www.w3.org/Graphics/SVG/1.1/DTD/svg11.dtd">
<svg xmlns:xlink="http://www.w3.org/1999/xlink" width="97.263pt" height="94.725625pt" viewBox="0 0 97.263 94.725625" xmlns="http://www.w3.org/2000/svg" version="1.1">
 <metadata>
  <rdf:RDF xmlns:dc="http://purl.org/dc/elements/1.1/" xmlns:cc="http://creativecommons.org/ns#" xmlns:rdf="http://www.w3.org/1999/02/22-rdf-syntax-ns#">
   <cc:Work>
    <dc:type rdf:resource="http://purl.org/dc/dcmitype/StillImage"/>
    <dc:date>2025-05-10T19:42:54.184199</dc:date>
    <dc:format>image/svg+xml</dc:format>
    <dc:creator>
     <cc:Agent>
      <dc:title>Matplotlib v3.7.2, https://matplotlib.org/</dc:title>
     </cc:Agent>
    </dc:creator>
   </cc:Work>
  </rdf:RDF>
 </metadata>
 <defs>
  <style type="text/css">*{stroke-linejoin: round; stroke-linecap: butt}</style>
 </defs>
 <g id="figure_1">
  <g id="patch_1">
   <path d="M 0 94.725625 
L 97.263 94.725625 
L 97.263 0 
L 0 0 
z
" style="fill: #ffffff"/>
  </g>
  <g id="axes_1">
   <g id="patch_2">
    <path d="M 28.683 74.71875 
L 90.063 74.71875 
L 90.063 19.27875 
L 28.683 19.27875 
z
" style="fill: #ffffff"/>
   </g>
   <g id="matplotlib.axis_1">
    <g id="xtick_1">
     <g id="line2d_1">
      <path d="M 31.473 74.71875 
L 31.473 19.27875 
" clip-path="url(#pa69ec80801)" style="fill: none; stroke: #b0b0b0; stroke-width: 0.8; stroke-linecap: square"/>
     </g>
     <g id="line2d_2">
      <defs>
       <path id="m1fa0ca7a11" d="M 0 0 
L 0 3.5 
" style="stroke: #000000; stroke-width: 0.8"/>
      </defs>
      <g>
       <use xlink:href="#m1fa0ca7a11" x="31.473" y="74.71875" style="stroke: #000000; stroke-width: 0.8"/>
      </g>
     </g>
     <g id="text_1">
      <!-- 0 -->
      <g transform="translate(29.56425 86.277812) scale(0.06 -0.06)">
       <defs>
        <path id="DejaVuSans-30" d="M 2034 4250 
Q 1547 4250 1301 3770 
Q 1056 3291 1056 2328 
Q 1056 1369 1301 889 
Q 1547 409 2034 409 
Q 2525 409 2770 889 
Q 3016 1369 3016 2328 
Q 3016 3291 2770 3770 
Q 2525 4250 2034 4250 
z
M 2034 4750 
Q 2819 4750 3233 4129 
Q 3647 3509 3647 2328 
Q 3647 1150 3233 529 
Q 2819 -91 2034 -91 
Q 1250 -91 836 529 
Q 422 1150 422 2328 
Q 422 3509 836 4129 
Q 1250 4750 2034 4750 
z
" transform="scale(0.015625)"/>
       </defs>
       <use xlink:href="#DejaVuSans-30"/>
      </g>
     </g>
    </g>
    <g id="xtick_2">
     <g id="line2d_3">
      <path d="M 87.273 74.71875 
L 87.273 19.27875 
" clip-path="url(#pa69ec80801)" style="fill: none; stroke: #b0b0b0; stroke-width: 0.8; stroke-linecap: square"/>
     </g>
     <g id="line2d_4">
      <g>
       <use xlink:href="#m1fa0ca7a11" x="87.273" y="74.71875" style="stroke: #000000; stroke-width: 0.8"/>
      </g>
     </g>
     <g id="text_2">
      <!-- 1 -->
      <g transform="translate(85.36425 86.277812) scale(0.06 -0.06)">
       <defs>
        <path id="DejaVuSans-31" d="M 794 531 
L 1825 531 
L 1825 4091 
L 703 3866 
L 703 4441 
L 1819 4666 
L 2450 4666 
L 2450 531 
L 3481 531 
L 3481 0 
L 794 0 
L 794 531 
z
" transform="scale(0.015625)"/>
       </defs>
       <use xlink:href="#DejaVuSans-31"/>
      </g>
     </g>
    </g>
   </g>
   <g id="matplotlib.axis_2">
    <g id="ytick_1">
     <g id="line2d_5">
      <path d="M 28.683 52.495033 
L 90.063 52.495033 
" clip-path="url(#pa69ec80801)" style="fill: none; stroke: #b0b0b0; stroke-width: 0.8; stroke-linecap: square"/>
     </g>
     <g id="line2d_6">
      <defs>
       <path id="mfaff341f04" d="M 0 0 
L -3.5 0 
" style="stroke: #000000; stroke-width: 0.8"/>
      </defs>
      <g>
       <use xlink:href="#mfaff341f04" x="28.683" y="52.495033" style="stroke: #000000; stroke-width: 0.8"/>
      </g>
     </g>
     <g id="text_3">
      <!-- $\mathdefault{0.0}$ -->
      <g transform="translate(12.083 54.774564) scale(0.06 -0.06)">
       <defs>
        <path id="DejaVuSans-2e" d="M 684 794 
L 1344 794 
L 1344 0 
L 684 0 
L 684 794 
z
" transform="scale(0.015625)"/>
       </defs>
       <use xlink:href="#DejaVuSans-30" transform="translate(0 0.78125)"/>
       <use xlink:href="#DejaVuSans-2e" transform="translate(63.623047 0.78125)"/>
       <use xlink:href="#DejaVuSans-30" transform="translate(95.410156 0.78125)"/>
      </g>
     </g>
    </g>
    <g id="ytick_2">
     <g id="line2d_7">
      <path d="M 28.683 26.329352 
L 90.063 26.329352 
" clip-path="url(#pa69ec80801)" style="fill: none; stroke: #b0b0b0; stroke-width: 0.8; stroke-linecap: square"/>
     </g>
     <g id="line2d_8">
      <g>
       <use xlink:href="#mfaff341f04" x="28.683" y="26.329352" style="stroke: #000000; stroke-width: 0.8"/>
      </g>
     </g>
     <g id="text_4">
      <!-- $\mathdefault{2.5}$ -->
      <g transform="translate(12.083 28.608883) scale(0.06 -0.06)">
       <defs>
        <path id="DejaVuSans-32" d="M 1228 531 
L 3431 531 
L 3431 0 
L 469 0 
L 469 531 
Q 828 903 1448 1529 
Q 2069 2156 2228 2338 
Q 2531 2678 2651 2914 
Q 2772 3150 2772 3378 
Q 2772 3750 2511 3984 
Q 2250 4219 1831 4219 
Q 1534 4219 1204 4116 
Q 875 4013 500 3803 
L 500 4441 
Q 881 4594 1212 4672 
Q 1544 4750 1819 4750 
Q 2544 4750 2975 4387 
Q 3406 4025 3406 3419 
Q 3406 3131 3298 2873 
Q 3191 2616 2906 2266 
Q 2828 2175 2409 1742 
Q 1991 1309 1228 531 
z
" transform="scale(0.015625)"/>
        <path id="DejaVuSans-35" d="M 691 4666 
L 3169 4666 
L 3169 4134 
L 1269 4134 
L 1269 2991 
Q 1406 3038 1543 3061 
Q 1681 3084 1819 3084 
Q 2600 3084 3056 2656 
Q 3513 2228 3513 1497 
Q 3513 744 3044 326 
Q 2575 -91 1722 -91 
Q 1428 -91 1123 -41 
Q 819 9 494 109 
L 494 744 
Q 775 591 1075 516 
Q 1375 441 1709 441 
Q 2250 441 2565 725 
Q 2881 1009 2881 1497 
Q 2881 1984 2565 2268 
Q 2250 2553 1709 2553 
Q 1456 2553 1204 2497 
Q 953 2441 691 2322 
L 691 4666 
z
" transform="scale(0.015625)"/>
       </defs>
       <use xlink:href="#DejaVuSans-32" transform="translate(0 0.78125)"/>
       <use xlink:href="#DejaVuSans-2e" transform="translate(63.623047 0.78125)"/>
       <use xlink:href="#DejaVuSans-35" transform="translate(95.410156 0.78125)"/>
      </g>
     </g>
    </g>
    <g id="text_5">
     <!-- $\times\mathdefault{10^{−2}}\mathdefault{}$ -->
     <g transform="translate(7.2 17.934375) scale(0.06 -0.06)">
      <defs>
       <path id="DejaVuSans-d7" d="M 4488 3438 
L 3059 2003 
L 4488 575 
L 4116 197 
L 2681 1631 
L 1247 197 
L 878 575 
L 2303 2003 
L 878 3438 
L 1247 3816 
L 2681 2381 
L 4116 3816 
L 4488 3438 
z
" transform="scale(0.015625)"/>
       <path id="DejaVuSans-2212" d="M 678 2272 
L 4684 2272 
L 4684 1741 
L 678 1741 
L 678 2272 
z
" transform="scale(0.015625)"/>
      </defs>
      <use xlink:href="#DejaVuSans-d7" transform="translate(0 0.765625)"/>
      <use xlink:href="#DejaVuSans-31" transform="translate(83.789062 0.765625)"/>
      <use xlink:href="#DejaVuSans-30" transform="translate(147.412109 0.765625)"/>
      <use xlink:href="#DejaVuSans-2212" transform="translate(211.992188 39.046875) scale(0.7)"/>
      <use xlink:href="#DejaVuSans-32" transform="translate(270.644531 39.046875) scale(0.7)"/>
     </g>
    </g>
   </g>
   <g id="line2d_9">
    <path d="M 31.473 52.488745 
L 31.564245 51.731085 
L 31.897533 50.734632 
L 37.072985 39.175645 
L 38.651384 36.131691 
L 40.568814 32.85901 
L 42.839435 29.570949 
L 44.104409 28.009005 
L 45.450337 26.553774 
L 46.87048 25.243219 
L 48.356149 24.11126 
L 49.896991 23.185493 
L 51.481373 22.485592 
L 53.096844 22.022558 
L 54.730599 21.79875 
L 56.369934 21.808589 
L 58.00264 22.039718 
L 59.61733 22.474434 
L 61.203683 23.091181 
L 62.752611 23.865997 
L 64.256346 24.773796 
L 67.103915 26.888642 
L 69.710603 29.248141 
L 72.059229 31.693811 
L 75.096691 35.26617 
L 78.306188 39.478546 
L 82.47185 45.418991 
L 87.259969 52.585743 
L 87.085181 52.765794 
L 87.085181 52.765794 
" clip-path="url(#pa69ec80801)" style="fill: none; stroke: #ff6347; stroke-width: 0.8; stroke-linecap: square"/>
   </g>
   <g id="line2d_10">
    <path d="M 31.473 52.487652 
L 31.585005 51.546165 
L 31.88632 50.643125 
L 32.360572 49.944262 
L 32.959326 49.466359 
L 33.823254 49.068821 
L 37.24067 47.73471 
L 39.213173 46.599132 
L 41.710769 44.893345 
L 46.092001 41.597459 
L 54.152232 35.503068 
L 59.13975 31.995842 
L 63.832807 28.950014 
L 69.189588 25.7916 
L 72.121384 24.234394 
L 73.647807 23.614517 
L 75.200862 23.331638 
L 76.757448 23.560293 
L 78.286122 24.474464 
L 79.745231 26.279004 
L 81.08149 29.142124 
L 82.23531 33.02434 
L 83.157615 37.560707 
L 83.827731 42.206948 
L 84.254616 46.521708 
L 84.464656 50.286791 
L 84.490077 53.450484 
L 84.362778 56.04145 
L 84.111928 58.11701 
L 83.763316 59.74035 
L 83.339373 60.971986 
L 82.859434 61.867049 
L 82.340052 62.474757 
L 81.795313 62.838642 
L 81.237131 62.997006 
L 80.675507 62.983427 
L 80.118772 62.827241 
L 79.046204 62.185845 
L 78.060218 61.23889 
L 77.186326 60.109547 
L 76.114608 58.262462 
L 75.34191 56.400922 
L 74.860398 54.637638 
L 74.649094 53.029601 
L 74.680906 51.599886 
L 74.926793 50.352123 
L 75.358068 49.279762 
L 75.947519 48.371737 
L 76.669841 47.615806 
L 77.799475 46.824608 
L 79.073262 46.26004 
L 80.444857 45.904663 
L 81.87087 45.749391 
L 82.949676 45.788293 
L 83.656941 45.987237 
L 84.331997 46.386152 
L 85.243786 47.254401 
L 85.999828 48.305755 
L 86.734281 49.800927 
L 87.151957 51.253306 
L 87.273 52.570962 
L 87.131527 53.710393 
L 86.76749 54.657599 
L 86.221762 55.416168 
L 85.533271 55.999625 
L 84.525467 56.511269 
L 83.409463 56.818752 
L 81.995783 56.974079 
L 80.324602 56.938357 
L 78.248849 56.671845 
L 75.551885 56.077524 
L 72.120205 55.062868 
L 65.106346 52.900164 
L 64.031642 52.777234 
L 64.031642 52.777234 
" clip-path="url(#pa69ec80801)" style="fill: none; stroke: #803224; stroke-width: 0.8; stroke-linecap: square"/>
   </g>
   <g id="line2d_11">
    <path d="M 31.473 52.490233 
L 31.586158 51.689084 
L 31.907189 50.924404 
L 32.402428 50.397813 
L 33.004256 50.11579 
L 33.788083 50.008251 
L 35.09658 50.107312 
L 38.131983 50.419845 
L 39.818216 50.317396 
L 42.067986 49.941925 
L 46.034032 49.017497 
L 54.108707 46.86054 
L 72.067817 42.025957 
L 81.32612 39.773994 
L 82.699051 39.481599 
L 83.396085 39.431422 
L 84.092 39.577342 
L 84.773476 40.016819 
L 85.42253 40.842627 
L 86.015951 42.153709 
L 86.525207 44.021157 
L 86.919505 46.417968 
L 87.173194 49.179825 
L 87.273 52.066804 
L 87.218855 54.873122 
L 87.019429 57.479295 
L 86.687392 59.837197 
L 86.236547 61.938195 
L 85.680484 63.791121 
L 85.032065 65.41124 
L 84.303252 66.815493 
L 83.5051 68.020622 
L 82.647786 69.042515 
L 81.740671 69.896011 
L 80.792351 70.594905 
L 79.810714 71.151998 
L 78.802992 71.57918 
L 76.735207 72.087249 
L 74.63538 72.19875 
L 72.541967 71.98318 
L 70.486487 71.501574 
L 68.494344 70.807859 
L 66.585529 69.949869 
L 63.910583 68.446413 
L 61.490091 66.790744 
L 59.340023 65.083042 
L 56.895239 62.857763 
L 54.478212 60.330467 
L 52.389657 57.825745 
L 50.667656 55.409478 
L 49.714876 53.703607 
L 49.397132 52.702338 
L 49.432628 52.163431 
L 49.690785 51.78045 
L 50.203525 51.48312 
L 51.265081 51.183909 
L 53.688925 50.784889 
L 58.843299 50.180302 
L 63.960896 49.786176 
L 67.808172 49.692514 
L 69.579866 49.802483 
L 70.268982 50.062635 
L 70.857692 50.541172 
L 71.369266 51.268017 
L 71.637867 52.043583 
L 71.660508 52.797056 
L 71.450713 53.492654 
L 71.029963 54.114331 
L 70.305474 54.739548 
L 69.367639 55.258449 
L 68.083986 55.729498 
L 66.238617 56.154156 
L 64.000165 56.440452 
L 60.988257 56.583116 
L 57.51445 56.517188 
L 53.373621 56.207225 
L 48.7927 55.636788 
L 43.616071 54.758394 
L 40.870596 54.210193 
L 40.870596 54.210193 
" clip-path="url(#pa69ec80801)" style="fill: none; stroke: #000000; stroke-width: 0.8; stroke-linecap: square"/>
   </g>
   <g id="line2d_12">
    <path d="M 31.473 52.49206 
L 31.573744 51.881369 
L 31.864282 51.324922 
L 32.299107 50.985666 
L 32.898038 50.832183 
L 33.781003 50.882508 
L 35.16931 51.230606 
L 37.452119 51.808689 
L 38.747049 51.868603 
L 41.262549 51.702139 
L 50.560043 50.789195 
L 85.6319 47.165189 
L 86.190241 47.459914 
L 86.69164 48.277166 
L 87.072098 49.741963 
L 87.263365 51.763608 
L 87.222558 53.995937 
L 86.946641 56.11604 
L 86.457243 57.984744 
L 85.783279 59.579749 
L 84.953195 60.919556 
L 83.992759 62.031794 
L 82.924755 62.943704 
L 81.769194 63.679835 
L 80.54363 64.26177 
L 78.607201 64.886109 
L 76.591806 65.259054 
L 74.53401 65.424347 
L 71.775822 65.382541 
L 69.053185 65.102102 
L 65.76742 64.495775 
L 62.672869 63.680503 
L 59.816165 62.722097 
L 56.744011 61.461591 
L 53.680906 59.944859 
L 50.862159 58.288211 
L 48.266114 56.506895 
L 45.658959 54.437299 
L 43.629982 52.65904 
L 43.629982 52.65904 
" clip-path="url(#pa69ec80801)" style="fill: none; stroke: #006080; stroke-width: 0.8; stroke-linecap: square"/>
   </g>
   <g id="line2d_13">
    <path d="M 31.473 52.488702 
L 31.572581 51.635017 
L 31.852852 50.73477 
L 32.313986 49.967044 
L 32.916913 49.408696 
L 33.6168 49.05268 
L 34.568236 48.839439 
L 35.745692 48.826359 
L 37.269363 49.052938 
L 39.301358 49.604636 
L 42.380111 50.707177 
L 45.493635 51.767255 
L 46.896074 51.998997 
L 48.70176 52.034056 
L 56.58221 51.796324 
L 66.148894 51.456086 
L 66.148894 51.456086 
" clip-path="url(#pa69ec80801)" style="fill: none; stroke: #00bfff; stroke-width: 0.8; stroke-linecap: square"/>
   </g>
   <g id="patch_3">
    <path d="M 28.683 74.71875 
L 28.683 19.27875 
" style="fill: none; stroke: #000000; stroke-width: 0.8; stroke-linejoin: miter; stroke-linecap: square"/>
   </g>
   <g id="patch_4">
    <path d="M 90.063 74.71875 
L 90.063 19.27875 
" style="fill: none; stroke: #000000; stroke-width: 0.8; stroke-linejoin: miter; stroke-linecap: square"/>
   </g>
   <g id="patch_5">
    <path d="M 28.683 74.71875 
L 90.063 74.71875 
" style="fill: none; stroke: #000000; stroke-width: 0.8; stroke-linejoin: miter; stroke-linecap: square"/>
   </g>
   <g id="patch_6">
    <path d="M 28.683 19.27875 
L 90.063 19.27875 
" style="fill: none; stroke: #000000; stroke-width: 0.8; stroke-linejoin: miter; stroke-linecap: square"/>
   </g>
   <g id="text_6">
    <!-- logistic rate -->
    <g transform="translate(35.804875 13.27875) scale(0.08 -0.08)">
     <defs>
      <path id="DejaVuSans-6c" d="M 603 4863 
L 1178 4863 
L 1178 0 
L 603 0 
L 603 4863 
z
" transform="scale(0.015625)"/>
      <path id="DejaVuSans-6f" d="M 1959 3097 
Q 1497 3097 1228 2736 
Q 959 2375 959 1747 
Q 959 1119 1226 758 
Q 1494 397 1959 397 
Q 2419 397 2687 759 
Q 2956 1122 2956 1747 
Q 2956 2369 2687 2733 
Q 2419 3097 1959 3097 
z
M 1959 3584 
Q 2709 3584 3137 3096 
Q 3566 2609 3566 1747 
Q 3566 888 3137 398 
Q 2709 -91 1959 -91 
Q 1206 -91 779 398 
Q 353 888 353 1747 
Q 353 2609 779 3096 
Q 1206 3584 1959 3584 
z
" transform="scale(0.015625)"/>
      <path id="DejaVuSans-67" d="M 2906 1791 
Q 2906 2416 2648 2759 
Q 2391 3103 1925 3103 
Q 1463 3103 1205 2759 
Q 947 2416 947 1791 
Q 947 1169 1205 825 
Q 1463 481 1925 481 
Q 2391 481 2648 825 
Q 2906 1169 2906 1791 
z
M 3481 434 
Q 3481 -459 3084 -895 
Q 2688 -1331 1869 -1331 
Q 1566 -1331 1297 -1286 
Q 1028 -1241 775 -1147 
L 775 -588 
Q 1028 -725 1275 -790 
Q 1522 -856 1778 -856 
Q 2344 -856 2625 -561 
Q 2906 -266 2906 331 
L 2906 616 
Q 2728 306 2450 153 
Q 2172 0 1784 0 
Q 1141 0 747 490 
Q 353 981 353 1791 
Q 353 2603 747 3093 
Q 1141 3584 1784 3584 
Q 2172 3584 2450 3431 
Q 2728 3278 2906 2969 
L 2906 3500 
L 3481 3500 
L 3481 434 
z
" transform="scale(0.015625)"/>
      <path id="DejaVuSans-69" d="M 603 3500 
L 1178 3500 
L 1178 0 
L 603 0 
L 603 3500 
z
M 603 4863 
L 1178 4863 
L 1178 4134 
L 603 4134 
L 603 4863 
z
" transform="scale(0.015625)"/>
      <path id="DejaVuSans-73" d="M 2834 3397 
L 2834 2853 
Q 2591 2978 2328 3040 
Q 2066 3103 1784 3103 
Q 1356 3103 1142 2972 
Q 928 2841 928 2578 
Q 928 2378 1081 2264 
Q 1234 2150 1697 2047 
L 1894 2003 
Q 2506 1872 2764 1633 
Q 3022 1394 3022 966 
Q 3022 478 2636 193 
Q 2250 -91 1575 -91 
Q 1294 -91 989 -36 
Q 684 19 347 128 
L 347 722 
Q 666 556 975 473 
Q 1284 391 1588 391 
Q 1994 391 2212 530 
Q 2431 669 2431 922 
Q 2431 1156 2273 1281 
Q 2116 1406 1581 1522 
L 1381 1569 
Q 847 1681 609 1914 
Q 372 2147 372 2553 
Q 372 3047 722 3315 
Q 1072 3584 1716 3584 
Q 2034 3584 2315 3537 
Q 2597 3491 2834 3397 
z
" transform="scale(0.015625)"/>
      <path id="DejaVuSans-74" d="M 1172 4494 
L 1172 3500 
L 2356 3500 
L 2356 3053 
L 1172 3053 
L 1172 1153 
Q 1172 725 1289 603 
Q 1406 481 1766 481 
L 2356 481 
L 2356 0 
L 1766 0 
Q 1100 0 847 248 
Q 594 497 594 1153 
L 594 3053 
L 172 3053 
L 172 3500 
L 594 3500 
L 594 4494 
L 1172 4494 
z
" transform="scale(0.015625)"/>
      <path id="DejaVuSans-63" d="M 3122 3366 
L 3122 2828 
Q 2878 2963 2633 3030 
Q 2388 3097 2138 3097 
Q 1578 3097 1268 2742 
Q 959 2388 959 1747 
Q 959 1106 1268 751 
Q 1578 397 2138 397 
Q 2388 397 2633 464 
Q 2878 531 3122 666 
L 3122 134 
Q 2881 22 2623 -34 
Q 2366 -91 2075 -91 
Q 1284 -91 818 406 
Q 353 903 353 1747 
Q 353 2603 823 3093 
Q 1294 3584 2113 3584 
Q 2378 3584 2631 3529 
Q 2884 3475 3122 3366 
z
" transform="scale(0.015625)"/>
      <path id="DejaVuSans-20" transform="scale(0.015625)"/>
      <path id="DejaVuSans-72" d="M 2631 2963 
Q 2534 3019 2420 3045 
Q 2306 3072 2169 3072 
Q 1681 3072 1420 2755 
Q 1159 2438 1159 1844 
L 1159 0 
L 581 0 
L 581 3500 
L 1159 3500 
L 1159 2956 
Q 1341 3275 1631 3429 
Q 1922 3584 2338 3584 
Q 2397 3584 2469 3576 
Q 2541 3569 2628 3553 
L 2631 2963 
z
" transform="scale(0.015625)"/>
      <path id="DejaVuSans-61" d="M 2194 1759 
Q 1497 1759 1228 1600 
Q 959 1441 959 1056 
Q 959 750 1161 570 
Q 1363 391 1709 391 
Q 2188 391 2477 730 
Q 2766 1069 2766 1631 
L 2766 1759 
L 2194 1759 
z
M 3341 1997 
L 3341 0 
L 2766 0 
L 2766 531 
Q 2569 213 2275 61 
Q 1981 -91 1556 -91 
Q 1019 -91 701 211 
Q 384 513 384 1019 
Q 384 1609 779 1909 
Q 1175 2209 1959 2209 
L 2766 2209 
L 2766 2266 
Q 2766 2663 2505 2880 
Q 2244 3097 1772 3097 
Q 1472 3097 1187 3025 
Q 903 2953 641 2809 
L 641 3341 
Q 956 3463 1253 3523 
Q 1550 3584 1831 3584 
Q 2591 3584 2966 3190 
Q 3341 2797 3341 1997 
z
" transform="scale(0.015625)"/>
      <path id="DejaVuSans-65" d="M 3597 1894 
L 3597 1613 
L 953 1613 
Q 991 1019 1311 708 
Q 1631 397 2203 397 
Q 2534 397 2845 478 
Q 3156 559 3463 722 
L 3463 178 
Q 3153 47 2828 -22 
Q 2503 -91 2169 -91 
Q 1331 -91 842 396 
Q 353 884 353 1716 
Q 353 2575 817 3079 
Q 1281 3584 2069 3584 
Q 2775 3584 3186 3129 
Q 3597 2675 3597 1894 
z
M 3022 2063 
Q 3016 2534 2758 2815 
Q 2500 3097 2075 3097 
Q 1594 3097 1305 2825 
Q 1016 2553 972 2059 
L 3022 2063 
z
" transform="scale(0.015625)"/>
     </defs>
     <use xlink:href="#DejaVuSans-6c"/>
     <use xlink:href="#DejaVuSans-6f" x="27.783203"/>
     <use xlink:href="#DejaVuSans-67" x="88.964844"/>
     <use xlink:href="#DejaVuSans-69" x="152.441406"/>
     <use xlink:href="#DejaVuSans-73" x="180.224609"/>
     <use xlink:href="#DejaVuSans-74" x="232.324219"/>
     <use xlink:href="#DejaVuSans-69" x="271.533203"/>
     <use xlink:href="#DejaVuSans-63" x="299.316406"/>
     <use xlink:href="#DejaVuSans-20" x="354.296875"/>
     <use xlink:href="#DejaVuSans-72" x="386.083984"/>
     <use xlink:href="#DejaVuSans-61" x="427.197266"/>
     <use xlink:href="#DejaVuSans-74" x="488.476562"/>
     <use xlink:href="#DejaVuSans-65" x="527.685547"/>
    </g>
   </g>
  </g>
 </g>
 <defs>
  <clipPath id="pa69ec80801">
   <rect x="28.683" y="19.27875" width="61.38" height="55.44"/>
  </clipPath>
 </defs>
</svg>
