<?xml version="1.0" encoding="utf-8" standalone="no"?>
<!DOCTYPE svg PUBLIC "-//W3C//DTD SVG 1.1//EN"
  "http://www.w3.org/Graphics/SVG/1.1/DTD/svg11.dtd">
<svg xmlns:xlink="http://www.w3.org/1999/xlink" width="97.36pt" height="94.725625pt" viewBox="0 0 97.36 94.725625" xmlns="http://www.w3.org/2000/svg" version="1.1">
 <metadata>
  <rdf:RDF xmlns:dc="http://purl.org/dc/elements/1.1/" xmlns:cc="http://creativecommons.org/ns#" xmlns:rdf="http://www.w3.org/1999/02/22-rdf-syntax-ns#">
   <cc:Work>
    <dc:type rdf:resource="http://purl.org/dc/dcmitype/StillImage"/>
    <dc:date>2025-05-10T19:42:52.955277</dc:date>
    <dc:format>image/svg+xml</dc:format>
    <dc:creator>
     <cc:Agent>
      <dc:title>Matplotlib v3.7.2, https://matplotlib.org/</dc:title>
     </cc:Agent>
    </dc:creator>
   </cc:Work>
  </rdf:RDF>
 </metadata>
 <defs>
  <style type="text/css">*{stroke-linejoin: round; stroke-linecap: butt}</style>
 </defs>
 <g id="figure_1">
  <g id="patch_1">
   <path d="M -0 94.725625 
L 97.36 94.725625 
L 97.36 0 
L -0 0 
z
" style="fill: #ffffff"/>
  </g>
  <g id="axes_1">
   <g id="patch_2">
    <path d="M 28.78 74.71875 
L 90.16 74.71875 
L 90.16 19.27875 
L 28.78 19.27875 
z
" style="fill: #ffffff"/>
   </g>
   <g id="matplotlib.axis_1">
    <g id="xtick_1">
     <g id="line2d_1">
      <path d="M 31.57 74.71875 
L 31.57 19.27875 
" clip-path="url(#p8a94e8ef2f)" style="fill: none; stroke: #b0b0b0; stroke-width: 0.8; stroke-linecap: square"/>
     </g>
     <g id="line2d_2">
      <defs>
       <path id="mcdd3b30ced" d="M 0 0 
L 0 3.5 
" style="stroke: #000000; stroke-width: 0.8"/>
      </defs>
      <g>
       <use xlink:href="#mcdd3b30ced" x="31.57" y="74.71875" style="stroke: #000000; stroke-width: 0.8"/>
      </g>
     </g>
     <g id="text_1">
      <!-- 0 -->
      <g transform="translate(29.66125 86.277812) scale(0.06 -0.06)">
       <defs>
        <path id="DejaVuSans-30" d="M 2034 4250 
Q 1547 4250 1301 3770 
Q 1056 3291 1056 2328 
Q 1056 1369 1301 889 
Q 1547 409 2034 409 
Q 2525 409 2770 889 
Q 3016 1369 3016 2328 
Q 3016 3291 2770 3770 
Q 2525 4250 2034 4250 
z
M 2034 4750 
Q 2819 4750 3233 4129 
Q 3647 3509 3647 2328 
Q 3647 1150 3233 529 
Q 2819 -91 2034 -91 
Q 1250 -91 836 529 
Q 422 1150 422 2328 
Q 422 3509 836 4129 
Q 1250 4750 2034 4750 
z
" transform="scale(0.015625)"/>
       </defs>
       <use xlink:href="#DejaVuSans-30"/>
      </g>
     </g>
    </g>
    <g id="xtick_2">
     <g id="line2d_3">
      <path d="M 87.37 74.71875 
L 87.37 19.27875 
" clip-path="url(#p8a94e8ef2f)" style="fill: none; stroke: #b0b0b0; stroke-width: 0.8; stroke-linecap: square"/>
     </g>
     <g id="line2d_4">
      <g>
       <use xlink:href="#mcdd3b30ced" x="87.37" y="74.71875" style="stroke: #000000; stroke-width: 0.8"/>
      </g>
     </g>
     <g id="text_2">
      <!-- 1 -->
      <g transform="translate(85.46125 86.277812) scale(0.06 -0.06)">
       <defs>
        <path id="DejaVuSans-31" d="M 794 531 
L 1825 531 
L 1825 4091 
L 703 3866 
L 703 4441 
L 1819 4666 
L 2450 4666 
L 2450 531 
L 3481 531 
L 3481 0 
L 794 0 
L 794 531 
z
" transform="scale(0.015625)"/>
       </defs>
       <use xlink:href="#DejaVuSans-31"/>
      </g>
     </g>
    </g>
   </g>
   <g id="matplotlib.axis_2">
    <g id="ytick_1">
     <g id="line2d_5">
      <path d="M 28.78 59.418627 
L 90.16 59.418627 
" clip-path="url(#p8a94e8ef2f)" style="fill: none; stroke: #b0b0b0; stroke-width: 0.8; stroke-linecap: square"/>
     </g>
     <g id="line2d_6">
      <defs>
       <path id="mbf2f87e2de" d="M 0 0 
L -3.5 0 
" style="stroke: #000000; stroke-width: 0.8"/>
      </defs>
      <g>
       <use xlink:href="#mbf2f87e2de" x="28.78" y="59.418627" style="stroke: #000000; stroke-width: 0.8"/>
      </g>
     </g>
     <g id="text_3">
      <!-- $\mathdefault{−2.5}$ -->
      <g transform="translate(7.2 61.698158) scale(0.06 -0.06)">
       <defs>
        <path id="DejaVuSans-2212" d="M 678 2272 
L 4684 2272 
L 4684 1741 
L 678 1741 
L 678 2272 
z
" transform="scale(0.015625)"/>
        <path id="DejaVuSans-32" d="M 1228 531 
L 3431 531 
L 3431 0 
L 469 0 
L 469 531 
Q 828 903 1448 1529 
Q 2069 2156 2228 2338 
Q 2531 2678 2651 2914 
Q 2772 3150 2772 3378 
Q 2772 3750 2511 3984 
Q 2250 4219 1831 4219 
Q 1534 4219 1204 4116 
Q 875 4013 500 3803 
L 500 4441 
Q 881 4594 1212 4672 
Q 1544 4750 1819 4750 
Q 2544 4750 2975 4387 
Q 3406 4025 3406 3419 
Q 3406 3131 3298 2873 
Q 3191 2616 2906 2266 
Q 2828 2175 2409 1742 
Q 1991 1309 1228 531 
z
" transform="scale(0.015625)"/>
        <path id="DejaVuSans-2e" d="M 684 794 
L 1344 794 
L 1344 0 
L 684 0 
L 684 794 
z
" transform="scale(0.015625)"/>
        <path id="DejaVuSans-35" d="M 691 4666 
L 3169 4666 
L 3169 4134 
L 1269 4134 
L 1269 2991 
Q 1406 3038 1543 3061 
Q 1681 3084 1819 3084 
Q 2600 3084 3056 2656 
Q 3513 2228 3513 1497 
Q 3513 744 3044 326 
Q 2575 -91 1722 -91 
Q 1428 -91 1123 -41 
Q 819 9 494 109 
L 494 744 
Q 775 591 1075 516 
Q 1375 441 1709 441 
Q 2250 441 2565 725 
Q 2881 1009 2881 1497 
Q 2881 1984 2565 2268 
Q 2250 2553 1709 2553 
Q 1456 2553 1204 2497 
Q 953 2441 691 2322 
L 691 4666 
z
" transform="scale(0.015625)"/>
       </defs>
       <use xlink:href="#DejaVuSans-2212" transform="translate(0 0.78125)"/>
       <use xlink:href="#DejaVuSans-32" transform="translate(83.789062 0.78125)"/>
       <use xlink:href="#DejaVuSans-2e" transform="translate(147.412109 0.78125)"/>
       <use xlink:href="#DejaVuSans-35" transform="translate(179.199219 0.78125)"/>
      </g>
     </g>
    </g>
    <g id="ytick_2">
     <g id="line2d_7">
      <path d="M 28.78 34.326415 
L 90.16 34.326415 
" clip-path="url(#p8a94e8ef2f)" style="fill: none; stroke: #b0b0b0; stroke-width: 0.8; stroke-linecap: square"/>
     </g>
     <g id="line2d_8">
      <g>
       <use xlink:href="#mbf2f87e2de" x="28.78" y="34.326415" style="stroke: #000000; stroke-width: 0.8"/>
      </g>
     </g>
     <g id="text_4">
      <!-- $\mathdefault{0.0}$ -->
      <g transform="translate(12.18 36.605946) scale(0.06 -0.06)">
       <use xlink:href="#DejaVuSans-30" transform="translate(0 0.78125)"/>
       <use xlink:href="#DejaVuSans-2e" transform="translate(63.623047 0.78125)"/>
       <use xlink:href="#DejaVuSans-30" transform="translate(95.410156 0.78125)"/>
      </g>
     </g>
    </g>
    <g id="text_5">
     <!-- $\times\mathdefault{10^{−2}}\mathdefault{}$ -->
     <g transform="translate(7.297 17.934375) scale(0.06 -0.06)">
      <defs>
       <path id="DejaVuSans-d7" d="M 4488 3438 
L 3059 2003 
L 4488 575 
L 4116 197 
L 2681 1631 
L 1247 197 
L 878 575 
L 2303 2003 
L 878 3438 
L 1247 3816 
L 2681 2381 
L 4116 3816 
L 4488 3438 
z
" transform="scale(0.015625)"/>
      </defs>
      <use xlink:href="#DejaVuSans-d7" transform="translate(0 0.765625)"/>
      <use xlink:href="#DejaVuSans-31" transform="translate(83.789062 0.765625)"/>
      <use xlink:href="#DejaVuSans-30" transform="translate(147.412109 0.765625)"/>
      <use xlink:href="#DejaVuSans-2212" transform="translate(211.992188 39.046875) scale(0.7)"/>
      <use xlink:href="#DejaVuSans-32" transform="translate(270.644531 39.046875) scale(0.7)"/>
     </g>
    </g>
   </g>
   <g id="line2d_9">
    <path d="M 31.57 34.23752 
L 31.616701 32.966483 
L 31.918527 30.084714 
L 32.560626 27.117398 
L 32.999357 25.842637 
L 33.503936 24.757304 
L 34.063345 23.870755 
L 34.6665 23.178963 
L 35.302829 22.669662 
L 35.962613 22.325923 
L 36.637162 22.128619 
L 38.001279 22.095066 
L 39.347212 22.42113 
L 40.642304 22.981651 
L 42.447997 24.054398 
L 45.036186 25.960465 
L 49.387348 29.271753 
L 50.912919 30.160366 
L 52.404432 30.761917 
L 53.9049 31.095346 
L 55.653047 31.23274 
L 58.410199 31.189993 
L 65.240447 30.789914 
L 82.967613 29.726991 
L 86.58438 29.661357 
L 86.843295 29.771752 
L 87.090813 30.345493 
L 87.285933 31.815511 
L 87.37 34.401317 
L 87.277605 38.231953 
L 86.935744 43.413168 
L 86.26725 49.836492 
L 85.21118 56.88414 
L 83.759059 63.435898 
L 81.9745 68.404396 
L 79.969933 71.286438 
L 77.86492 72.19875 
L 75.758913 71.575595 
L 73.723188 69.902087 
L 71.803258 67.590009 
L 70.024613 64.947799 
L 68.39847 62.190171 
L 65.604029 56.84108 
L 62.443841 50.064152 
L 59.225706 42.508151 
L 57.058498 36.846693 
L 56.477397 34.768639 
L 56.466917 34.038287 
L 56.654613 33.689477 
L 57.088994 33.426728 
L 58.145421 33.12958 
L 60.67885 32.680958 
L 65.175291 32.124759 
L 71.69914 31.548791 
L 77.430382 31.248847 
L 81.219146 31.249338 
L 83.390983 31.436341 
L 84.168714 31.661274 
L 84.587974 32.037066 
L 84.817291 32.554416 
L 85.022044 33.707256 
L 85.017507 34.996176 
L 84.804228 36.179082 
L 84.409426 37.164965 
L 83.86767 37.943896 
L 83.211842 38.53911 
L 82.207504 39.103193 
L 81.10091 39.47114 
L 79.628917 39.74161 
L 77.484117 39.899823 
L 74.379354 39.889944 
L 69.531034 39.634404 
L 62.286954 39.020995 
L 53.82548 38.085224 
L 45.679135 36.966084 
L 40.139682 36.060018 
L 40.139682 36.060018 
" clip-path="url(#p8a94e8ef2f)" style="fill: none; stroke: #ff6347; stroke-width: 0.8; stroke-linecap: square"/>
   </g>
   <g id="line2d_10">
    <path d="M 31.57 34.299616 
L 31.692618 32.75372 
L 32.118774 30.803754 
L 32.576573 29.668971 
L 33.147681 28.775391 
L 33.803863 28.136859 
L 34.517548 27.733641 
L 35.264376 27.531174 
L 36.403818 27.519122 
L 37.523195 27.748727 
L 38.93226 28.260671 
L 41.365623 29.439829 
L 43.95194 30.640479 
L 45.475412 31.110115 
L 47.015692 31.343193 
L 48.820689 31.371532 
L 51.526757 31.164114 
L 57.786308 30.399584 
L 73.77507 28.436359 
L 81.048778 27.783988 
L 85.886482 27.513708 
L 86.265344 27.570546 
L 86.637666 27.935398 
L 86.975961 28.932675 
L 87.237395 30.782575 
L 87.37 33.654059 
L 87.312154 37.700916 
L 86.99479 42.931994 
L 86.355301 48.99057 
L 85.364284 55.108509 
L 84.044543 60.430198 
L 82.461808 64.415096 
L 80.698986 66.93928 
L 78.835587 68.149653 
L 76.938184 68.298613 
L 75.058222 67.647825 
L 73.233181 66.428025 
L 71.488848 64.82781 
L 69.841734 62.994693 
L 66.8714 59.047637 
L 64.341963 55.164129 
L 61.312294 50.018919 
L 57.896794 43.70138 
L 54.928501 37.71869 
L 53.929632 35.295487 
L 53.731226 34.295143 
L 53.846307 33.887521 
L 54.170079 33.629457 
L 54.897091 33.408249 
L 57.024189 33.066726 
L 61.752537 32.551281 
L 67.142369 32.172005 
L 70.691046 32.120736 
L 72.716778 32.292815 
L 73.363838 32.534441 
L 73.637018 32.902653 
L 73.823713 33.562707 
L 73.871086 34.690615 
L 73.660743 35.839048 
L 73.207861 36.854235 
L 72.549711 37.680917 
L 71.729307 38.315767 
L 70.787368 38.778824 
L 69.491982 39.158809 
L 67.834806 39.394423 
L 65.557777 39.459478 
L 62.459561 39.291091 
L 57.988091 38.800431 
L 50.557845 37.730735 
L 40.66135 36.07906 
L 37.524924 35.499918 
L 37.524924 35.499918 
" clip-path="url(#p8a94e8ef2f)" style="fill: none; stroke: #803224; stroke-width: 0.8; stroke-linecap: square"/>
   </g>
   <g id="line2d_11">
    <path d="M 31.57 34.321813 
L 31.683158 33.553531 
L 32.004189 32.820223 
L 32.499428 32.315236 
L 33.101256 32.044783 
L 33.885083 31.941655 
L 35.19358 32.036653 
L 38.228983 32.336363 
L 40.03168 32.224589 
L 42.440208 31.823593 
L 46.698644 30.853255 
L 55.76412 28.511479 
L 72.164818 24.286842 
L 81.423122 22.127267 
L 82.796052 21.846868 
L 83.493086 21.79875 
L 84.189002 21.938683 
L 84.870477 22.360132 
L 85.519531 23.152061 
L 86.112952 24.409355 
L 86.622208 26.20019 
L 87.016506 28.498671 
L 87.270194 31.147222 
L 87.37 33.91576 
L 87.315855 36.606946 
L 87.116428 39.106198 
L 86.784391 41.367365 
L 86.333546 43.382167 
L 85.777483 45.159075 
L 85.129064 46.712727 
L 84.400251 48.059368 
L 83.602098 49.215056 
L 82.744785 50.195024 
L 81.837669 51.013505 
L 80.889349 51.683727 
L 79.907712 52.217966 
L 78.89999 52.627623 
L 76.832205 53.114843 
L 74.732378 53.221771 
L 72.638965 53.015044 
L 70.583485 52.553196 
L 68.591342 51.887941 
L 66.682527 51.065151 
L 64.007582 49.623376 
L 61.587089 48.035632 
L 58.781066 45.854608 
L 56.454122 43.75302 
L 54.16995 41.399418 
L 51.956398 38.768306 
L 50.479057 36.681073 
L 49.697898 35.225365 
L 49.480739 34.372993 
L 49.570521 33.911476 
L 49.867501 33.579212 
L 50.467459 33.296156 
L 51.721267 33.00016 
L 54.829781 32.552573 
L 60.336254 31.982104 
L 65.225049 31.67834 
L 68.798591 31.662349 
L 69.960548 31.814987 
L 70.616687 32.157359 
L 71.150959 32.673664 
L 71.583413 33.396721 
L 71.769312 34.138909 
L 71.712449 34.845615 
L 71.429717 35.490113 
L 70.944069 36.06119 
L 70.15456 36.631221 
L 69.007059 37.159918 
L 67.470334 37.61084 
L 65.339089 37.980832 
L 62.604392 38.204727 
L 59.341139 38.239735 
L 55.49937 38.058179 
L 50.992933 37.615933 
L 45.946404 36.886526 
L 40.967596 35.971209 
L 40.967596 35.971209 
" clip-path="url(#p8a94e8ef2f)" style="fill: none; stroke: #000000; stroke-width: 0.8; stroke-linecap: square"/>
   </g>
   <g id="line2d_12">
    <path d="M 31.57 34.325488 
L 31.670963 33.956165 
L 31.965645 33.664615 
L 32.517934 33.487828 
L 38.690204 32.329792 
L 49.209717 29.849412 
L 55.747428 28.559272 
L 59.111909 28.065811 
L 59.801563 28.256284 
L 60.451396 28.81469 
L 61.015986 29.753502 
L 61.80144 31.758784 
L 62.254379 33.478755 
L 62.336188 34.482048 
L 62.209051 35.019043 
L 61.924861 35.281135 
L 61.544733 35.284759 
L 61.114832 35.058478 
L 60.786758 34.657426 
L 60.712384 34.241608 
L 60.884057 33.856559 
L 61.324349 33.485146 
L 62.127158 33.115994 
L 63.538204 32.732908 
L 65.712626 32.384585 
L 68.978085 32.09977 
L 73.360042 31.948842 
L 78.637744 31.994361 
L 82.986877 32.227916 
L 84.204394 32.4751 
L 85.62188 32.998694 
L 86.826 33.659366 
L 87.322942 34.153009 
L 87.343606 34.443093 
L 87.116874 34.650568 
L 86.526606 34.834176 
L 85.262969 34.958812 
L 83.575335 34.969549 
L 83.575335 34.969549 
" clip-path="url(#p8a94e8ef2f)" style="fill: none; stroke: #006080; stroke-width: 0.8; stroke-linecap: square"/>
   </g>
   <g id="line2d_13">
    <path d="M 31.57 34.325812 
L 31.671305 34.012591 
L 31.971126 33.764043 
L 32.599427 33.580004 
L 40.633782 31.944291 
L 47.788896 30.506439 
L 53.790626 29.507277 
L 54.59831 29.515887 
L 55.123978 29.741468 
L 55.610352 30.226547 
L 56.377752 31.515452 
L 57.785032 34.00412 
L 58.255818 33.658892 
L 59.086017 33.241191 
L 60.370676 32.857436 
L 62.39915 32.498424 
L 65.378842 32.210413 
L 69.437979 32.048637 
L 74.644519 32.071107 
L 80.263095 32.313785 
L 83.506142 32.626836 
L 85.076879 33.065763 
L 86.689512 33.736686 
L 87.319762 34.192433 
L 87.343184 34.411624 
L 87.105557 34.558456 
L 86.397575 34.682719 
L 85.701651 34.722884 
L 85.701651 34.722884 
" clip-path="url(#p8a94e8ef2f)" style="fill: none; stroke: #00bfff; stroke-width: 0.8; stroke-linecap: square"/>
   </g>
   <g id="patch_3">
    <path d="M 28.78 74.71875 
L 28.78 19.27875 
" style="fill: none; stroke: #000000; stroke-width: 0.8; stroke-linejoin: miter; stroke-linecap: square"/>
   </g>
   <g id="patch_4">
    <path d="M 90.16 74.71875 
L 90.16 19.27875 
" style="fill: none; stroke: #000000; stroke-width: 0.8; stroke-linejoin: miter; stroke-linecap: square"/>
   </g>
   <g id="patch_5">
    <path d="M 28.78 74.71875 
L 90.16 74.71875 
" style="fill: none; stroke: #000000; stroke-width: 0.8; stroke-linejoin: miter; stroke-linecap: square"/>
   </g>
   <g id="patch_6">
    <path d="M 28.78 19.27875 
L 90.16 19.27875 
" style="fill: none; stroke: #000000; stroke-width: 0.8; stroke-linejoin: miter; stroke-linecap: square"/>
   </g>
   <g id="text_6">
    <!-- Protease Max -->
    <g transform="translate(32.559375 13.27875) scale(0.08 -0.08)">
     <defs>
      <path id="DejaVuSans-50" d="M 1259 4147 
L 1259 2394 
L 2053 2394 
Q 2494 2394 2734 2622 
Q 2975 2850 2975 3272 
Q 2975 3691 2734 3919 
Q 2494 4147 2053 4147 
L 1259 4147 
z
M 628 4666 
L 2053 4666 
Q 2838 4666 3239 4311 
Q 3641 3956 3641 3272 
Q 3641 2581 3239 2228 
Q 2838 1875 2053 1875 
L 1259 1875 
L 1259 0 
L 628 0 
L 628 4666 
z
" transform="scale(0.015625)"/>
      <path id="DejaVuSans-72" d="M 2631 2963 
Q 2534 3019 2420 3045 
Q 2306 3072 2169 3072 
Q 1681 3072 1420 2755 
Q 1159 2438 1159 1844 
L 1159 0 
L 581 0 
L 581 3500 
L 1159 3500 
L 1159 2956 
Q 1341 3275 1631 3429 
Q 1922 3584 2338 3584 
Q 2397 3584 2469 3576 
Q 2541 3569 2628 3553 
L 2631 2963 
z
" transform="scale(0.015625)"/>
      <path id="DejaVuSans-6f" d="M 1959 3097 
Q 1497 3097 1228 2736 
Q 959 2375 959 1747 
Q 959 1119 1226 758 
Q 1494 397 1959 397 
Q 2419 397 2687 759 
Q 2956 1122 2956 1747 
Q 2956 2369 2687 2733 
Q 2419 3097 1959 3097 
z
M 1959 3584 
Q 2709 3584 3137 3096 
Q 3566 2609 3566 1747 
Q 3566 888 3137 398 
Q 2709 -91 1959 -91 
Q 1206 -91 779 398 
Q 353 888 353 1747 
Q 353 2609 779 3096 
Q 1206 3584 1959 3584 
z
" transform="scale(0.015625)"/>
      <path id="DejaVuSans-74" d="M 1172 4494 
L 1172 3500 
L 2356 3500 
L 2356 3053 
L 1172 3053 
L 1172 1153 
Q 1172 725 1289 603 
Q 1406 481 1766 481 
L 2356 481 
L 2356 0 
L 1766 0 
Q 1100 0 847 248 
Q 594 497 594 1153 
L 594 3053 
L 172 3053 
L 172 3500 
L 594 3500 
L 594 4494 
L 1172 4494 
z
" transform="scale(0.015625)"/>
      <path id="DejaVuSans-65" d="M 3597 1894 
L 3597 1613 
L 953 1613 
Q 991 1019 1311 708 
Q 1631 397 2203 397 
Q 2534 397 2845 478 
Q 3156 559 3463 722 
L 3463 178 
Q 3153 47 2828 -22 
Q 2503 -91 2169 -91 
Q 1331 -91 842 396 
Q 353 884 353 1716 
Q 353 2575 817 3079 
Q 1281 3584 2069 3584 
Q 2775 3584 3186 3129 
Q 3597 2675 3597 1894 
z
M 3022 2063 
Q 3016 2534 2758 2815 
Q 2500 3097 2075 3097 
Q 1594 3097 1305 2825 
Q 1016 2553 972 2059 
L 3022 2063 
z
" transform="scale(0.015625)"/>
      <path id="DejaVuSans-61" d="M 2194 1759 
Q 1497 1759 1228 1600 
Q 959 1441 959 1056 
Q 959 750 1161 570 
Q 1363 391 1709 391 
Q 2188 391 2477 730 
Q 2766 1069 2766 1631 
L 2766 1759 
L 2194 1759 
z
M 3341 1997 
L 3341 0 
L 2766 0 
L 2766 531 
Q 2569 213 2275 61 
Q 1981 -91 1556 -91 
Q 1019 -91 701 211 
Q 384 513 384 1019 
Q 384 1609 779 1909 
Q 1175 2209 1959 2209 
L 2766 2209 
L 2766 2266 
Q 2766 2663 2505 2880 
Q 2244 3097 1772 3097 
Q 1472 3097 1187 3025 
Q 903 2953 641 2809 
L 641 3341 
Q 956 3463 1253 3523 
Q 1550 3584 1831 3584 
Q 2591 3584 2966 3190 
Q 3341 2797 3341 1997 
z
" transform="scale(0.015625)"/>
      <path id="DejaVuSans-73" d="M 2834 3397 
L 2834 2853 
Q 2591 2978 2328 3040 
Q 2066 3103 1784 3103 
Q 1356 3103 1142 2972 
Q 928 2841 928 2578 
Q 928 2378 1081 2264 
Q 1234 2150 1697 2047 
L 1894 2003 
Q 2506 1872 2764 1633 
Q 3022 1394 3022 966 
Q 3022 478 2636 193 
Q 2250 -91 1575 -91 
Q 1294 -91 989 -36 
Q 684 19 347 128 
L 347 722 
Q 666 556 975 473 
Q 1284 391 1588 391 
Q 1994 391 2212 530 
Q 2431 669 2431 922 
Q 2431 1156 2273 1281 
Q 2116 1406 1581 1522 
L 1381 1569 
Q 847 1681 609 1914 
Q 372 2147 372 2553 
Q 372 3047 722 3315 
Q 1072 3584 1716 3584 
Q 2034 3584 2315 3537 
Q 2597 3491 2834 3397 
z
" transform="scale(0.015625)"/>
      <path id="DejaVuSans-20" transform="scale(0.015625)"/>
      <path id="DejaVuSans-4d" d="M 628 4666 
L 1569 4666 
L 2759 1491 
L 3956 4666 
L 4897 4666 
L 4897 0 
L 4281 0 
L 4281 4097 
L 3078 897 
L 2444 897 
L 1241 4097 
L 1241 0 
L 628 0 
L 628 4666 
z
" transform="scale(0.015625)"/>
      <path id="DejaVuSans-78" d="M 3513 3500 
L 2247 1797 
L 3578 0 
L 2900 0 
L 1881 1375 
L 863 0 
L 184 0 
L 1544 1831 
L 300 3500 
L 978 3500 
L 1906 2253 
L 2834 3500 
L 3513 3500 
z
" transform="scale(0.015625)"/>
     </defs>
     <use xlink:href="#DejaVuSans-50"/>
     <use xlink:href="#DejaVuSans-72" x="58.552734"/>
     <use xlink:href="#DejaVuSans-6f" x="97.416016"/>
     <use xlink:href="#DejaVuSans-74" x="158.597656"/>
     <use xlink:href="#DejaVuSans-65" x="197.806641"/>
     <use xlink:href="#DejaVuSans-61" x="259.330078"/>
     <use xlink:href="#DejaVuSans-73" x="320.609375"/>
     <use xlink:href="#DejaVuSans-65" x="372.708984"/>
     <use xlink:href="#DejaVuSans-20" x="434.232422"/>
     <use xlink:href="#DejaVuSans-4d" x="466.019531"/>
     <use xlink:href="#DejaVuSans-61" x="552.298828"/>
     <use xlink:href="#DejaVuSans-78" x="613.578125"/>
    </g>
   </g>
  </g>
 </g>
 <defs>
  <clipPath id="p8a94e8ef2f">
   <rect x="28.78" y="19.27875" width="61.38" height="55.44"/>
  </clipPath>
 </defs>
</svg>
