<?xml version="1.0" encoding="utf-8" standalone="no"?>
<!DOCTYPE svg PUBLIC "-//W3C//DTD SVG 1.1//EN"
  "http://www.w3.org/Graphics/SVG/1.1/DTD/svg11.dtd">
<svg xmlns:xlink="http://www.w3.org/1999/xlink" width="82.420625pt" height="83.997062pt" viewBox="0 0 82.420625 83.997062" xmlns="http://www.w3.org/2000/svg" version="1.1">
 <metadata>
  <rdf:RDF xmlns:dc="http://purl.org/dc/elements/1.1/" xmlns:cc="http://creativecommons.org/ns#" xmlns:rdf="http://www.w3.org/1999/02/22-rdf-syntax-ns#">
   <cc:Work>
    <dc:type rdf:resource="http://purl.org/dc/dcmitype/StillImage"/>
    <dc:date>2025-05-09T10:27:00.935207</dc:date>
    <dc:format>image/svg+xml</dc:format>
    <dc:creator>
     <cc:Agent>
      <dc:title>Matplotlib v3.7.2, https://matplotlib.org/</dc:title>
     </cc:Agent>
    </dc:creator>
   </cc:Work>
  </rdf:RDF>
 </metadata>
 <defs>
  <style type="text/css">*{stroke-linejoin: round; stroke-linecap: butt}</style>
 </defs>
 <g id="figure_1">
  <g id="patch_1">
   <path d="M 0 83.997062 
L 82.420625 83.997062 
L 82.420625 -0 
L 0 -0 
z
" style="fill: #ffffff"/>
  </g>
  <g id="axes_1">
   <g id="patch_2">
    <path d="M 28.78 63.990188 
L 67.84 63.990188 
L 67.84 25.182187 
L 28.78 25.182187 
z
" style="fill: #ffffff"/>
   </g>
   <g id="matplotlib.axis_1">
    <g id="xtick_1">
     <g id="line2d_1">
      <path d="M 30.555455 63.990188 
L 30.555455 25.182187 
" clip-path="url(#p6bc3a5e9e5)" style="fill: none; stroke: #b0b0b0; stroke-width: 0.8; stroke-linecap: square"/>
     </g>
     <g id="line2d_2">
      <defs>
       <path id="mfe579a653f" d="M 0 0 
L 0 3.5 
" style="stroke: #000000; stroke-width: 0.8"/>
      </defs>
      <g>
       <use xlink:href="#mfe579a653f" x="30.555455" y="63.990188" style="stroke: #000000; stroke-width: 0.8"/>
      </g>
     </g>
     <g id="text_1">
      <!-- 0 -->
      <g transform="translate(28.646705 75.54925) scale(0.06 -0.06)">
       <defs>
        <path id="DejaVuSans-30" d="M 2034 4250 
Q 1547 4250 1301 3770 
Q 1056 3291 1056 2328 
Q 1056 1369 1301 889 
Q 1547 409 2034 409 
Q 2525 409 2770 889 
Q 3016 1369 3016 2328 
Q 3016 3291 2770 3770 
Q 2525 4250 2034 4250 
z
M 2034 4750 
Q 2819 4750 3233 4129 
Q 3647 3509 3647 2328 
Q 3647 1150 3233 529 
Q 2819 -91 2034 -91 
Q 1250 -91 836 529 
Q 422 1150 422 2328 
Q 422 3509 836 4129 
Q 1250 4750 2034 4750 
z
" transform="scale(0.015625)"/>
       </defs>
       <use xlink:href="#DejaVuSans-30"/>
      </g>
     </g>
    </g>
    <g id="xtick_2">
     <g id="line2d_3">
      <path d="M 66.064545 63.990188 
L 66.064545 25.182187 
" clip-path="url(#p6bc3a5e9e5)" style="fill: none; stroke: #b0b0b0; stroke-width: 0.8; stroke-linecap: square"/>
     </g>
     <g id="line2d_4">
      <g>
       <use xlink:href="#mfe579a653f" x="66.064545" y="63.990188" style="stroke: #000000; stroke-width: 0.8"/>
      </g>
     </g>
     <g id="text_2">
      <!-- 1 -->
      <g transform="translate(64.155795 75.54925) scale(0.06 -0.06)">
       <defs>
        <path id="DejaVuSans-31" d="M 794 531 
L 1825 531 
L 1825 4091 
L 703 3866 
L 703 4441 
L 1819 4666 
L 2450 4666 
L 2450 531 
L 3481 531 
L 3481 0 
L 794 0 
L 794 531 
z
" transform="scale(0.015625)"/>
       </defs>
       <use xlink:href="#DejaVuSans-31"/>
      </g>
     </g>
    </g>
   </g>
   <g id="matplotlib.axis_2">
    <g id="ytick_1">
     <g id="line2d_5">
      <path d="M 28.78 53.280101 
L 67.84 53.280101 
" clip-path="url(#p6bc3a5e9e5)" style="fill: none; stroke: #b0b0b0; stroke-width: 0.8; stroke-linecap: square"/>
     </g>
     <g id="line2d_6">
      <defs>
       <path id="mda7f6f6021" d="M 0 0 
L -3.5 0 
" style="stroke: #000000; stroke-width: 0.8"/>
      </defs>
      <g>
       <use xlink:href="#mda7f6f6021" x="28.78" y="53.280101" style="stroke: #000000; stroke-width: 0.8"/>
      </g>
     </g>
     <g id="text_3">
      <!-- $\mathdefault{−2.5}$ -->
      <g transform="translate(7.2 55.559633) scale(0.06 -0.06)">
       <defs>
        <path id="DejaVuSans-2212" d="M 678 2272 
L 4684 2272 
L 4684 1741 
L 678 1741 
L 678 2272 
z
" transform="scale(0.015625)"/>
        <path id="DejaVuSans-32" d="M 1228 531 
L 3431 531 
L 3431 0 
L 469 0 
L 469 531 
Q 828 903 1448 1529 
Q 2069 2156 2228 2338 
Q 2531 2678 2651 2914 
Q 2772 3150 2772 3378 
Q 2772 3750 2511 3984 
Q 2250 4219 1831 4219 
Q 1534 4219 1204 4116 
Q 875 4013 500 3803 
L 500 4441 
Q 881 4594 1212 4672 
Q 1544 4750 1819 4750 
Q 2544 4750 2975 4387 
Q 3406 4025 3406 3419 
Q 3406 3131 3298 2873 
Q 3191 2616 2906 2266 
Q 2828 2175 2409 1742 
Q 1991 1309 1228 531 
z
" transform="scale(0.015625)"/>
        <path id="DejaVuSans-2e" d="M 684 794 
L 1344 794 
L 1344 0 
L 684 0 
L 684 794 
z
" transform="scale(0.015625)"/>
        <path id="DejaVuSans-35" d="M 691 4666 
L 3169 4666 
L 3169 4134 
L 1269 4134 
L 1269 2991 
Q 1406 3038 1543 3061 
Q 1681 3084 1819 3084 
Q 2600 3084 3056 2656 
Q 3513 2228 3513 1497 
Q 3513 744 3044 326 
Q 2575 -91 1722 -91 
Q 1428 -91 1123 -41 
Q 819 9 494 109 
L 494 744 
Q 775 591 1075 516 
Q 1375 441 1709 441 
Q 2250 441 2565 725 
Q 2881 1009 2881 1497 
Q 2881 1984 2565 2268 
Q 2250 2553 1709 2553 
Q 1456 2553 1204 2497 
Q 953 2441 691 2322 
L 691 4666 
z
" transform="scale(0.015625)"/>
       </defs>
       <use xlink:href="#DejaVuSans-2212" transform="translate(0 0.78125)"/>
       <use xlink:href="#DejaVuSans-32" transform="translate(83.789062 0.78125)"/>
       <use xlink:href="#DejaVuSans-2e" transform="translate(147.412109 0.78125)"/>
       <use xlink:href="#DejaVuSans-35" transform="translate(179.199219 0.78125)"/>
      </g>
     </g>
    </g>
    <g id="ytick_2">
     <g id="line2d_7">
      <path d="M 28.78 35.715553 
L 67.84 35.715553 
" clip-path="url(#p6bc3a5e9e5)" style="fill: none; stroke: #b0b0b0; stroke-width: 0.8; stroke-linecap: square"/>
     </g>
     <g id="line2d_8">
      <g>
       <use xlink:href="#mda7f6f6021" x="28.78" y="35.715553" style="stroke: #000000; stroke-width: 0.8"/>
      </g>
     </g>
     <g id="text_4">
      <!-- $\mathdefault{0.0}$ -->
      <g transform="translate(12.18 37.995084) scale(0.06 -0.06)">
       <use xlink:href="#DejaVuSans-30" transform="translate(0 0.78125)"/>
       <use xlink:href="#DejaVuSans-2e" transform="translate(63.623047 0.78125)"/>
       <use xlink:href="#DejaVuSans-30" transform="translate(95.410156 0.78125)"/>
      </g>
     </g>
    </g>
    <g id="text_5">
     <!-- $\times\mathdefault{10^{−2}}\mathdefault{}$ -->
     <g transform="translate(15.109 23.837812) scale(0.06 -0.06)">
      <defs>
       <path id="DejaVuSans-d7" d="M 4488 3438 
L 3059 2003 
L 4488 575 
L 4116 197 
L 2681 1631 
L 1247 197 
L 878 575 
L 2303 2003 
L 878 3438 
L 1247 3816 
L 2681 2381 
L 4116 3816 
L 4488 3438 
z
" transform="scale(0.015625)"/>
      </defs>
      <use xlink:href="#DejaVuSans-d7" transform="translate(0 0.765625)"/>
      <use xlink:href="#DejaVuSans-31" transform="translate(83.789062 0.765625)"/>
      <use xlink:href="#DejaVuSans-30" transform="translate(147.412109 0.765625)"/>
      <use xlink:href="#DejaVuSans-2212" transform="translate(211.992188 39.046875) scale(0.7)"/>
      <use xlink:href="#DejaVuSans-32" transform="translate(270.644531 39.046875) scale(0.7)"/>
     </g>
    </g>
   </g>
   <g id="line2d_9">
    <path d="M 30.555455 35.653326 
L 30.654825 33.815393 
L 30.954955 31.673196 
L 31.465045 29.776909 
L 32.142129 28.396591 
L 32.930891 27.555826 
L 33.780012 27.177096 
L 34.648087 27.153609 
L 35.50459 27.381853 
L 36.7244 28.009759 
L 38.177434 29.065239 
L 42.864585 32.799319 
L 43.938755 33.261197 
L 45.107806 33.49902 
L 46.645569 33.553052 
L 49.918719 33.384685 
L 65.399283 32.444093 
L 65.72937 32.527289 
L 65.886881 32.928908 
L 66.011049 33.95792 
L 66.064545 35.767985 
L 66.005749 38.449429 
L 65.788201 42.07628 
L 65.362796 46.572607 
L 64.690751 51.50596 
L 63.766674 56.092191 
L 62.631046 59.57014 
L 61.355412 61.587569 
L 60.015858 62.226188 
L 58.675672 61.789979 
L 57.38021 60.618523 
L 56.158437 59.000069 
L 55.026572 57.150522 
L 53.055011 53.308058 
L 50.793932 48.17569 
L 48.15454 41.442768 
L 46.624399 36.971159 
L 46.380453 35.684699 
L 46.49649 35.295837 
L 46.826999 35.07196 
L 47.73044 34.81673 
L 50.071721 34.413298 
L 54.298507 33.926733 
L 59.089468 33.585052 
L 62.150365 33.561599 
L 63.734823 33.737936 
L 64.12033 33.911435 
L 64.371715 34.271875 
L 64.540939 34.990444 
L 64.567504 36.184386 
L 64.359803 37.258884 
L 63.959752 38.081369 
L 63.418445 38.664439 
L 62.608314 39.134781 
L 61.518666 39.444653 
L 59.970532 39.608901 
L 57.601105 39.603131 
L 53.599233 39.340773 
L 47.561878 38.711905 
L 41.131642 37.822097 
L 36.008889 36.929075 
L 36.008889 36.929075 
" clip-path="url(#p6bc3a5e9e5)" style="fill: none; stroke: #ff6347; stroke-width: 0.5; stroke-linecap: square"/>
   </g>
   <g id="line2d_10">
    <path d="M 30.555455 35.696794 
L 30.633484 34.614667 
L 30.904674 33.24969 
L 31.369808 32.12012 
L 31.977004 31.382864 
L 32.667025 31.01387 
L 33.389929 30.930476 
L 34.343851 31.111171 
L 35.452574 31.571917 
L 39.404353 33.464143 
L 40.59477 33.642464 
L 42.059227 33.617269 
L 44.89168 33.294878 
L 60.896695 31.232974 
L 65.120488 30.946658 
L 65.361583 30.986445 
L 65.598515 31.241841 
L 65.813793 31.939935 
L 65.980161 33.234865 
L 66.064545 35.244904 
L 66.027735 38.077704 
L 65.825775 41.739459 
L 65.418828 45.980461 
L 64.788181 50.263019 
L 63.948345 53.988201 
L 62.94115 56.77763 
L 61.819355 58.544559 
L 60.633555 59.391819 
L 59.426117 59.496092 
L 58.229778 59.04054 
L 57.068388 58.18668 
L 55.958358 57.066529 
L 53.929871 54.415402 
L 52.180667 51.639719 
L 50.064898 47.823377 
L 47.308869 42.278028 
L 45.207478 37.571228 
L 44.676155 35.933168 
L 44.716394 35.434492 
L 44.96231 35.214969 
L 45.601709 35.028312 
L 47.761925 34.697361 
L 51.928346 34.285291 
L 55.137719 34.164551 
L 56.739768 34.292033 
L 57.151533 34.461171 
L 57.325375 34.71892 
L 57.466633 35.367402 
L 57.427796 36.379462 
L 57.137616 37.319054 
L 56.633453 38.063704 
L 55.967832 38.599683 
L 55.1904 38.955291 
L 53.98983 39.223582 
L 52.365721 39.310935 
L 50.037217 39.174138 
L 46.286846 38.689406 
L 39.745674 37.587642 
L 34.344952 36.537005 
L 34.344952 36.537005 
" clip-path="url(#p6bc3a5e9e5)" style="fill: none; stroke: #803224; stroke-width: 0.5; stroke-linecap: square"/>
   </g>
   <g id="line2d_11">
    <path d="M 30.555455 35.712331 
L 30.657631 35.063624 
L 30.946923 34.498361 
L 31.371142 34.176926 
L 31.944371 34.049672 
L 32.861369 34.112719 
L 35.004272 34.320385 
L 36.396174 34.175824 
L 38.613649 33.693545 
L 43.347941 32.39855 
L 59.387731 27.89949 
L 63.153851 26.97987 
L 63.597419 26.946187 
L 64.040274 27.044141 
L 64.47394 27.339155 
L 64.886974 27.893505 
L 65.264606 28.773611 
L 65.588678 30.027195 
L 65.839595 31.636132 
L 66.064545 35.428094 
L 65.903181 39.061401 
L 65.404984 42.054579 
L 64.638495 44.385971 
L 63.66679 46.137602 
L 62.543971 47.396516 
L 61.315817 48.239639 
L 60.020875 48.733368 
L 58.691458 48.935092 
L 57.354476 48.894711 
L 56.032121 48.655904 
L 54.11449 48.008621 
L 52.315454 47.112378 
L 50.66541 46.060677 
L 48.725738 44.548108 
L 46.733243 42.671863 
L 44.937241 40.666655 
L 43.377114 38.606934 
L 42.310103 36.843986 
L 41.970181 35.912869 
L 42.010332 35.425095 
L 42.254238 35.152813 
L 42.81132 34.920412 
L 44.188172 34.644624 
L 47.816678 34.178064 
L 51.785317 33.869672 
L 54.434357 33.862103 
L 55.073862 33.992439 
L 55.550269 34.331154 
L 55.943988 34.891879 
L 56.128047 35.498705 
L 56.100649 36.078993 
L 55.877764 36.600443 
L 55.413718 37.109748 
L 54.670225 37.570585 
L 53.630469 37.953123 
L 52.173711 38.255293 
L 50.167234 38.436709 
L 47.538122 38.433906 
L 44.366606 38.194047 
L 40.751276 37.691129 
L 36.594256 36.879739 
L 36.535743 36.866909 
L 36.535743 36.866909 
" clip-path="url(#p6bc3a5e9e5)" style="fill: none; stroke: #000000; stroke-width: 0.5; stroke-linecap: square"/>
   </g>
   <g id="line2d_12">
    <path d="M 30.555455 35.714904 
L 30.664711 35.383011 
L 30.959419 35.180597 
L 31.662509 35.061885 
L 33.339743 34.769307 
L 37.095395 33.771248 
L 42.765348 32.354249 
L 47.639008 31.357054 
L 48.303159 31.37381 
L 48.732665 31.624505 
L 49.122659 32.161158 
L 49.579715 33.253487 
L 50.04725 34.928271 
L 50.12583 35.921294 
L 49.969441 36.320228 
L 49.73378 36.404946 
L 49.410787 36.272158 
L 49.136903 35.920464 
L 49.122905 35.554967 
L 49.354209 35.230555 
L 49.876322 34.919745 
L 50.898857 34.600098 
L 52.631736 34.31219 
L 55.322864 34.104032 
L 59.00503 34.049663 
L 62.822863 34.203818 
L 63.984046 34.399123 
L 65.087778 34.855086 
L 65.894599 35.404135 
L 66.063504 35.736615 
L 65.936318 35.921729 
L 65.509781 36.074705 
L 64.497798 36.166089 
L 63.649759 36.165747 
L 63.649759 36.165747 
" clip-path="url(#p6bc3a5e9e5)" style="fill: none; stroke: #006080; stroke-width: 0.5; stroke-linecap: square"/>
   </g>
   <g id="line2d_13">
    <path d="M 30.555455 35.715131 
L 30.65729 35.443482 
L 30.961951 35.257934 
L 31.888699 35.069561 
L 34.568923 34.471012 
L 41.149621 32.986847 
L 45.038654 32.323542 
L 45.544349 32.50609 
L 45.993547 33.068254 
L 46.827954 34.808475 
L 47.237748 35.489946 
L 47.249283 35.483917 
L 48.583796 34.770581 
L 49.982195 34.465361 
L 52.220444 34.223617 
L 55.462123 34.110876 
L 59.613439 34.195788 
L 63.3601 34.477449 
L 64.467646 34.78236 
L 65.710145 35.349928 
L 66.063149 35.697097 
L 65.970064 35.844086 
L 65.556402 35.952306 
L 65.002869 35.993081 
L 65.002869 35.993081 
" clip-path="url(#p6bc3a5e9e5)" style="fill: none; stroke: #00bfff; stroke-width: 0.5; stroke-linecap: square"/>
   </g>
   <g id="patch_3">
    <path d="M 28.78 63.990188 
L 28.78 25.182187 
" style="fill: none; stroke: #000000; stroke-width: 0.8; stroke-linejoin: miter; stroke-linecap: square"/>
   </g>
   <g id="patch_4">
    <path d="M 67.84 63.990188 
L 67.84 25.182187 
" style="fill: none; stroke: #000000; stroke-width: 0.8; stroke-linejoin: miter; stroke-linecap: square"/>
   </g>
   <g id="patch_5">
    <path d="M 28.78 63.990188 
L 67.84 63.990188 
" style="fill: none; stroke: #000000; stroke-width: 0.8; stroke-linejoin: miter; stroke-linecap: square"/>
   </g>
   <g id="patch_6">
    <path d="M 28.78 25.182187 
L 67.84 25.182187 
" style="fill: none; stroke: #000000; stroke-width: 0.8; stroke-linejoin: miter; stroke-linecap: square"/>
   </g>
   <g id="text_6">
    <!-- Protease Max -->
    <g transform="translate(21.399375 13.27875) scale(0.08 -0.08)">
     <defs>
      <path id="DejaVuSans-50" d="M 1259 4147 
L 1259 2394 
L 2053 2394 
Q 2494 2394 2734 2622 
Q 2975 2850 2975 3272 
Q 2975 3691 2734 3919 
Q 2494 4147 2053 4147 
L 1259 4147 
z
M 628 4666 
L 2053 4666 
Q 2838 4666 3239 4311 
Q 3641 3956 3641 3272 
Q 3641 2581 3239 2228 
Q 2838 1875 2053 1875 
L 1259 1875 
L 1259 0 
L 628 0 
L 628 4666 
z
" transform="scale(0.015625)"/>
      <path id="DejaVuSans-72" d="M 2631 2963 
Q 2534 3019 2420 3045 
Q 2306 3072 2169 3072 
Q 1681 3072 1420 2755 
Q 1159 2438 1159 1844 
L 1159 0 
L 581 0 
L 581 3500 
L 1159 3500 
L 1159 2956 
Q 1341 3275 1631 3429 
Q 1922 3584 2338 3584 
Q 2397 3584 2469 3576 
Q 2541 3569 2628 3553 
L 2631 2963 
z
" transform="scale(0.015625)"/>
      <path id="DejaVuSans-6f" d="M 1959 3097 
Q 1497 3097 1228 2736 
Q 959 2375 959 1747 
Q 959 1119 1226 758 
Q 1494 397 1959 397 
Q 2419 397 2687 759 
Q 2956 1122 2956 1747 
Q 2956 2369 2687 2733 
Q 2419 3097 1959 3097 
z
M 1959 3584 
Q 2709 3584 3137 3096 
Q 3566 2609 3566 1747 
Q 3566 888 3137 398 
Q 2709 -91 1959 -91 
Q 1206 -91 779 398 
Q 353 888 353 1747 
Q 353 2609 779 3096 
Q 1206 3584 1959 3584 
z
" transform="scale(0.015625)"/>
      <path id="DejaVuSans-74" d="M 1172 4494 
L 1172 3500 
L 2356 3500 
L 2356 3053 
L 1172 3053 
L 1172 1153 
Q 1172 725 1289 603 
Q 1406 481 1766 481 
L 2356 481 
L 2356 0 
L 1766 0 
Q 1100 0 847 248 
Q 594 497 594 1153 
L 594 3053 
L 172 3053 
L 172 3500 
L 594 3500 
L 594 4494 
L 1172 4494 
z
" transform="scale(0.015625)"/>
      <path id="DejaVuSans-65" d="M 3597 1894 
L 3597 1613 
L 953 1613 
Q 991 1019 1311 708 
Q 1631 397 2203 397 
Q 2534 397 2845 478 
Q 3156 559 3463 722 
L 3463 178 
Q 3153 47 2828 -22 
Q 2503 -91 2169 -91 
Q 1331 -91 842 396 
Q 353 884 353 1716 
Q 353 2575 817 3079 
Q 1281 3584 2069 3584 
Q 2775 3584 3186 3129 
Q 3597 2675 3597 1894 
z
M 3022 2063 
Q 3016 2534 2758 2815 
Q 2500 3097 2075 3097 
Q 1594 3097 1305 2825 
Q 1016 2553 972 2059 
L 3022 2063 
z
" transform="scale(0.015625)"/>
      <path id="DejaVuSans-61" d="M 2194 1759 
Q 1497 1759 1228 1600 
Q 959 1441 959 1056 
Q 959 750 1161 570 
Q 1363 391 1709 391 
Q 2188 391 2477 730 
Q 2766 1069 2766 1631 
L 2766 1759 
L 2194 1759 
z
M 3341 1997 
L 3341 0 
L 2766 0 
L 2766 531 
Q 2569 213 2275 61 
Q 1981 -91 1556 -91 
Q 1019 -91 701 211 
Q 384 513 384 1019 
Q 384 1609 779 1909 
Q 1175 2209 1959 2209 
L 2766 2209 
L 2766 2266 
Q 2766 2663 2505 2880 
Q 2244 3097 1772 3097 
Q 1472 3097 1187 3025 
Q 903 2953 641 2809 
L 641 3341 
Q 956 3463 1253 3523 
Q 1550 3584 1831 3584 
Q 2591 3584 2966 3190 
Q 3341 2797 3341 1997 
z
" transform="scale(0.015625)"/>
      <path id="DejaVuSans-73" d="M 2834 3397 
L 2834 2853 
Q 2591 2978 2328 3040 
Q 2066 3103 1784 3103 
Q 1356 3103 1142 2972 
Q 928 2841 928 2578 
Q 928 2378 1081 2264 
Q 1234 2150 1697 2047 
L 1894 2003 
Q 2506 1872 2764 1633 
Q 3022 1394 3022 966 
Q 3022 478 2636 193 
Q 2250 -91 1575 -91 
Q 1294 -91 989 -36 
Q 684 19 347 128 
L 347 722 
Q 666 556 975 473 
Q 1284 391 1588 391 
Q 1994 391 2212 530 
Q 2431 669 2431 922 
Q 2431 1156 2273 1281 
Q 2116 1406 1581 1522 
L 1381 1569 
Q 847 1681 609 1914 
Q 372 2147 372 2553 
Q 372 3047 722 3315 
Q 1072 3584 1716 3584 
Q 2034 3584 2315 3537 
Q 2597 3491 2834 3397 
z
" transform="scale(0.015625)"/>
      <path id="DejaVuSans-20" transform="scale(0.015625)"/>
      <path id="DejaVuSans-4d" d="M 628 4666 
L 1569 4666 
L 2759 1491 
L 3956 4666 
L 4897 4666 
L 4897 0 
L 4281 0 
L 4281 4097 
L 3078 897 
L 2444 897 
L 1241 4097 
L 1241 0 
L 628 0 
L 628 4666 
z
" transform="scale(0.015625)"/>
      <path id="DejaVuSans-78" d="M 3513 3500 
L 2247 1797 
L 3578 0 
L 2900 0 
L 1881 1375 
L 863 0 
L 184 0 
L 1544 1831 
L 300 3500 
L 978 3500 
L 1906 2253 
L 2834 3500 
L 3513 3500 
z
" transform="scale(0.015625)"/>
     </defs>
     <use xlink:href="#DejaVuSans-50"/>
     <use xlink:href="#DejaVuSans-72" x="58.552734"/>
     <use xlink:href="#DejaVuSans-6f" x="97.416016"/>
     <use xlink:href="#DejaVuSans-74" x="158.597656"/>
     <use xlink:href="#DejaVuSans-65" x="197.806641"/>
     <use xlink:href="#DejaVuSans-61" x="259.330078"/>
     <use xlink:href="#DejaVuSans-73" x="320.609375"/>
     <use xlink:href="#DejaVuSans-65" x="372.708984"/>
     <use xlink:href="#DejaVuSans-20" x="434.232422"/>
     <use xlink:href="#DejaVuSans-4d" x="466.019531"/>
     <use xlink:href="#DejaVuSans-61" x="552.298828"/>
     <use xlink:href="#DejaVuSans-78" x="613.578125"/>
    </g>
   </g>
  </g>
 </g>
 <defs>
  <clipPath id="p6bc3a5e9e5">
   <rect x="28.78" y="25.182187" width="39.06" height="38.808"/>
  </clipPath>
 </defs>
</svg>
