<?xml version="1.0" encoding="utf-8" standalone="no"?>
<!DOCTYPE svg PUBLIC "-//W3C//DTD SVG 1.1//EN"
  "http://www.w3.org/Graphics/SVG/1.1/DTD/svg11.dtd">
<svg xmlns:xlink="http://www.w3.org/1999/xlink" width="71.378125pt" height="83.997062pt" viewBox="0 0 71.378125 83.997062" xmlns="http://www.w3.org/2000/svg" version="1.1">
 <metadata>
  <rdf:RDF xmlns:dc="http://purl.org/dc/elements/1.1/" xmlns:cc="http://creativecommons.org/ns#" xmlns:rdf="http://www.w3.org/1999/02/22-rdf-syntax-ns#">
   <cc:Work>
    <dc:type rdf:resource="http://purl.org/dc/dcmitype/StillImage"/>
    <dc:date>2025-05-09T10:27:01.305477</dc:date>
    <dc:format>image/svg+xml</dc:format>
    <dc:creator>
     <cc:Agent>
      <dc:title>Matplotlib v3.7.2, https://matplotlib.org/</dc:title>
     </cc:Agent>
    </dc:creator>
   </cc:Work>
  </rdf:RDF>
 </metadata>
 <defs>
  <style type="text/css">*{stroke-linejoin: round; stroke-linecap: butt}</style>
 </defs>
 <g id="figure_1">
  <g id="patch_1">
   <path d="M 0 83.997062 
L 71.378125 83.997062 
L 71.378125 -0 
L 0 -0 
z
" style="fill: #ffffff"/>
  </g>
  <g id="axes_1">
   <g id="patch_2">
    <path d="M 23.08 63.990188 
L 62.14 63.990188 
L 62.14 25.182187 
L 23.08 25.182187 
z
" style="fill: #ffffff"/>
   </g>
   <g id="matplotlib.axis_1">
    <g id="xtick_1">
     <g id="line2d_1">
      <path d="M 24.855455 63.990188 
L 24.855455 25.182187 
" clip-path="url(#p61c33e227e)" style="fill: none; stroke: #b0b0b0; stroke-width: 0.8; stroke-linecap: square"/>
     </g>
     <g id="line2d_2">
      <defs>
       <path id="me71d8e7cde" d="M 0 0 
L 0 3.5 
" style="stroke: #000000; stroke-width: 0.8"/>
      </defs>
      <g>
       <use xlink:href="#me71d8e7cde" x="24.855455" y="63.990188" style="stroke: #000000; stroke-width: 0.8"/>
      </g>
     </g>
     <g id="text_1">
      <!-- 0 -->
      <g transform="translate(22.946705 75.54925) scale(0.06 -0.06)">
       <defs>
        <path id="DejaVuSans-30" d="M 2034 4250 
Q 1547 4250 1301 3770 
Q 1056 3291 1056 2328 
Q 1056 1369 1301 889 
Q 1547 409 2034 409 
Q 2525 409 2770 889 
Q 3016 1369 3016 2328 
Q 3016 3291 2770 3770 
Q 2525 4250 2034 4250 
z
M 2034 4750 
Q 2819 4750 3233 4129 
Q 3647 3509 3647 2328 
Q 3647 1150 3233 529 
Q 2819 -91 2034 -91 
Q 1250 -91 836 529 
Q 422 1150 422 2328 
Q 422 3509 836 4129 
Q 1250 4750 2034 4750 
z
" transform="scale(0.015625)"/>
       </defs>
       <use xlink:href="#DejaVuSans-30"/>
      </g>
     </g>
    </g>
    <g id="xtick_2">
     <g id="line2d_3">
      <path d="M 60.364545 63.990188 
L 60.364545 25.182187 
" clip-path="url(#p61c33e227e)" style="fill: none; stroke: #b0b0b0; stroke-width: 0.8; stroke-linecap: square"/>
     </g>
     <g id="line2d_4">
      <g>
       <use xlink:href="#me71d8e7cde" x="60.364545" y="63.990188" style="stroke: #000000; stroke-width: 0.8"/>
      </g>
     </g>
     <g id="text_2">
      <!-- 1 -->
      <g transform="translate(58.455795 75.54925) scale(0.06 -0.06)">
       <defs>
        <path id="DejaVuSans-31" d="M 794 531 
L 1825 531 
L 1825 4091 
L 703 3866 
L 703 4441 
L 1819 4666 
L 2450 4666 
L 2450 531 
L 3481 531 
L 3481 0 
L 794 0 
L 794 531 
z
" transform="scale(0.015625)"/>
       </defs>
       <use xlink:href="#DejaVuSans-31"/>
      </g>
     </g>
    </g>
   </g>
   <g id="matplotlib.axis_2">
    <g id="ytick_1">
     <g id="line2d_5">
      <path d="M 23.08 63.044374 
L 62.14 63.044374 
" clip-path="url(#p61c33e227e)" style="fill: none; stroke: #b0b0b0; stroke-width: 0.8; stroke-linecap: square"/>
     </g>
     <g id="line2d_6">
      <defs>
       <path id="m51e90fd7b4" d="M 0 0 
L -3.5 0 
" style="stroke: #000000; stroke-width: 0.8"/>
      </defs>
      <g>
       <use xlink:href="#m51e90fd7b4" x="23.08" y="63.044374" style="stroke: #000000; stroke-width: 0.8"/>
      </g>
     </g>
     <g id="text_3">
      <!-- $\mathdefault{−5}$ -->
      <g transform="translate(7.2 65.323905) scale(0.06 -0.06)">
       <defs>
        <path id="DejaVuSans-2212" d="M 678 2272 
L 4684 2272 
L 4684 1741 
L 678 1741 
L 678 2272 
z
" transform="scale(0.015625)"/>
        <path id="DejaVuSans-35" d="M 691 4666 
L 3169 4666 
L 3169 4134 
L 1269 4134 
L 1269 2991 
Q 1406 3038 1543 3061 
Q 1681 3084 1819 3084 
Q 2600 3084 3056 2656 
Q 3513 2228 3513 1497 
Q 3513 744 3044 326 
Q 2575 -91 1722 -91 
Q 1428 -91 1123 -41 
Q 819 9 494 109 
L 494 744 
Q 775 591 1075 516 
Q 1375 441 1709 441 
Q 2250 441 2565 725 
Q 2881 1009 2881 1497 
Q 2881 1984 2565 2268 
Q 2250 2553 1709 2553 
Q 1456 2553 1204 2497 
Q 953 2441 691 2322 
L 691 4666 
z
" transform="scale(0.015625)"/>
       </defs>
       <use xlink:href="#DejaVuSans-2212" transform="translate(0 0.09375)"/>
       <use xlink:href="#DejaVuSans-35" transform="translate(83.789062 0.09375)"/>
      </g>
     </g>
    </g>
    <g id="ytick_2">
     <g id="line2d_7">
      <path d="M 23.08 37.397724 
L 62.14 37.397724 
" clip-path="url(#p61c33e227e)" style="fill: none; stroke: #b0b0b0; stroke-width: 0.8; stroke-linecap: square"/>
     </g>
     <g id="line2d_8">
      <g>
       <use xlink:href="#m51e90fd7b4" x="23.08" y="37.397724" style="stroke: #000000; stroke-width: 0.8"/>
      </g>
     </g>
     <g id="text_4">
      <!-- $\mathdefault{0}$ -->
      <g transform="translate(12.24 39.677255) scale(0.06 -0.06)">
       <use xlink:href="#DejaVuSans-30" transform="translate(0 0.78125)"/>
      </g>
     </g>
    </g>
    <g id="text_5">
     <!-- $\times\mathdefault{10^{−2}}\mathdefault{}$ -->
     <g transform="translate(9.409 23.837812) scale(0.06 -0.06)">
      <defs>
       <path id="DejaVuSans-d7" d="M 4488 3438 
L 3059 2003 
L 4488 575 
L 4116 197 
L 2681 1631 
L 1247 197 
L 878 575 
L 2303 2003 
L 878 3438 
L 1247 3816 
L 2681 2381 
L 4116 3816 
L 4488 3438 
z
" transform="scale(0.015625)"/>
       <path id="DejaVuSans-32" d="M 1228 531 
L 3431 531 
L 3431 0 
L 469 0 
L 469 531 
Q 828 903 1448 1529 
Q 2069 2156 2228 2338 
Q 2531 2678 2651 2914 
Q 2772 3150 2772 3378 
Q 2772 3750 2511 3984 
Q 2250 4219 1831 4219 
Q 1534 4219 1204 4116 
Q 875 4013 500 3803 
L 500 4441 
Q 881 4594 1212 4672 
Q 1544 4750 1819 4750 
Q 2544 4750 2975 4387 
Q 3406 4025 3406 3419 
Q 3406 3131 3298 2873 
Q 3191 2616 2906 2266 
Q 2828 2175 2409 1742 
Q 1991 1309 1228 531 
z
" transform="scale(0.015625)"/>
      </defs>
      <use xlink:href="#DejaVuSans-d7" transform="translate(0 0.765625)"/>
      <use xlink:href="#DejaVuSans-31" transform="translate(83.789062 0.765625)"/>
      <use xlink:href="#DejaVuSans-30" transform="translate(147.412109 0.765625)"/>
      <use xlink:href="#DejaVuSans-2212" transform="translate(211.992188 39.046875) scale(0.7)"/>
      <use xlink:href="#DejaVuSans-32" transform="translate(270.644531 39.046875) scale(0.7)"/>
     </g>
    </g>
   </g>
   <g id="line2d_9">
    <path d="M 24.855455 37.391779 
L 24.95056 36.955892 
L 25.193285 36.715415 
L 25.590775 36.681523 
L 27.551638 36.875285 
L 29.405602 36.439423 
L 32.904983 35.384803 
L 38.432042 33.460244 
L 55.798243 27.244475 
L 56.509138 27.033633 
L 57.233204 26.946187 
L 57.956206 27.144637 
L 58.652796 27.769173 
L 59.289328 28.948053 
L 59.822696 30.820129 
L 60.200029 33.484186 
L 60.364545 36.890955 
L 60.270194 40.779589 
L 59.896309 44.771764 
L 59.249221 48.545411 
L 58.352855 51.916446 
L 57.23903 54.811 
L 55.941899 57.212447 
L 54.495581 59.127212 
L 52.93334 60.56929 
L 51.28736 61.554744 
L 49.588678 62.100678 
L 47.86711 62.226188 
L 46.151051 61.954266 
L 44.467132 61.314092 
L 42.839708 60.343203 
L 41.290214 59.088938 
L 39.836449 57.608498 
L 38.491929 55.967083 
L 37.265427 54.234026 
L 35.177562 50.758634 
L 32.895798 46.254544 
L 28.79641 37.255813 
L 29.209755 37.139126 
L 32.184583 36.697204 
L 35.968135 36.293541 
L 37.359268 36.324423 
L 37.637939 36.492797 
L 37.879988 36.941961 
L 37.939136 37.522535 
L 37.792626 38.113757 
L 37.450071 38.646388 
L 36.819308 39.159281 
L 36.008312 39.51243 
L 34.923666 39.723508 
L 33.622268 39.734141 
L 32.072866 39.502687 
L 30.275329 38.990386 
L 25.786666 37.574937 
L 25.461687 37.510533 
L 25.461687 37.510533 
" clip-path="url(#p61c33e227e)" style="fill: none; stroke: #00bfff; stroke-width: 0.5; stroke-linecap: square"/>
   </g>
   <g id="line2d_10">
    <path d="M 24.855455 37.39401 
L 24.944034 36.941852 
L 25.21973 36.569164 
L 25.600833 36.425066 
L 26.208206 36.451167 
L 28.268469 36.698042 
L 29.684448 36.485632 
L 32.935186 35.734801 
L 39.255214 34.026024 
L 53.324281 30.181932 
L 57.042865 29.272631 
L 57.609043 29.226451 
L 58.174219 29.347562 
L 58.723629 29.718319 
L 59.237472 30.416409 
L 59.690228 31.525307 
L 60.050538 33.104782 
L 60.284608 35.129786 
L 60.364545 37.455794 
L 60.276567 39.872637 
L 60.021881 42.200944 
L 59.611537 44.337324 
L 59.061058 46.240301 
L 58.387237 47.902099 
L 57.606674 49.329582 
L 56.735211 50.5349 
L 55.787765 51.531517 
L 54.778315 52.332716 
L 53.71994 52.951127 
L 52.624868 53.398667 
L 51.504528 53.686643 
L 50.369584 53.825914 
L 49.229961 53.827079 
L 48.094856 53.70066 
L 45.871329 53.107797 
L 43.757712 52.135891 
L 41.80003 50.879807 
L 40.030762 49.43953 
L 38.468438 47.914738 
L 36.521069 45.663476 
L 34.60847 43.056426 
L 32.680845 40.024271 
L 31.423375 37.688658 
L 31.390572 37.26372 
L 31.618861 37.113737 
L 32.466636 36.948631 
L 36.870275 36.406153 
L 40.691473 36.12076 
L 42.375195 36.167701 
L 42.772522 36.368004 
L 43.11236 36.819763 
L 43.240055 37.36754 
L 43.137486 37.916585 
L 42.81557 38.417894 
L 42.196859 38.912845 
L 41.231048 39.345795 
L 39.908539 39.665717 
L 38.269729 39.832969 
L 36.238795 39.816773 
L 33.842356 39.56009 
L 31.31957 39.056726 
L 28.092975 38.157298 
L 26.030949 37.61588 
L 26.030949 37.61588 
" clip-path="url(#p61c33e227e)" style="fill: none; stroke: #006080; stroke-width: 0.5; stroke-linecap: square"/>
   </g>
   <g id="line2d_11">
    <path d="M 24.855455 37.395372 
L 24.957631 36.921771 
L 25.246923 36.50909 
L 25.671142 36.274421 
L 26.328689 36.178997 
L 27.636399 36.28084 
L 29.445506 36.375668 
L 31.175855 36.209782 
L 34.482774 35.622772 
L 43.962177 33.639955 
L 54.085324 31.617198 
L 57.897419 30.995486 
L 58.340274 31.066998 
L 58.77394 31.282378 
L 59.186974 31.687092 
L 59.564606 32.32963 
L 59.888678 33.244833 
L 60.139595 34.419467 
L 60.364545 37.187859 
L 60.203181 39.840422 
L 59.704984 42.025648 
L 58.938495 43.727723 
L 57.96679 45.006535 
L 56.843971 45.925628 
L 55.615817 46.541166 
L 54.320875 46.901622 
L 52.991458 47.048894 
L 51.654476 47.019412 
L 49.682218 46.712484 
L 47.799841 46.170969 
L 45.497552 45.215206 
L 43.481824 44.12554 
L 41.393961 42.742913 
L 39.237241 41.012367 
L 37.536352 39.357353 
L 36.507365 38.062666 
L 36.253197 37.421527 
L 36.342857 37.141112 
L 36.675317 36.935573 
L 37.54038 36.740829 
L 40.239385 36.435195 
L 45.164073 36.08576 
L 48.64051 36.040018 
L 49.459979 36.170283 
L 49.982847 36.495648 
L 50.349231 36.986135 
L 50.437511 37.485843 
L 50.295818 37.88664 
L 49.91168 38.284278 
L 49.241012 38.649254 
L 48.153354 38.982877 
L 46.473711 39.251908 
L 44.053434 39.395059 
L 40.884404 39.346629 
L 36.984324 39.055923 
L 32.430838 38.484561 
L 30.835742 38.238293 
L 30.835742 38.238293 
" clip-path="url(#p61c33e227e)" style="fill: none; stroke: #000000; stroke-width: 0.5; stroke-linecap: square"/>
   </g>
   <g id="line2d_12">
    <path d="M 24.855455 37.396204 
L 24.955629 36.97853 
L 25.262728 36.569905 
L 25.734725 36.302978 
L 26.563482 36.131107 
L 28.181711 36.093637 
L 31.114216 36.007896 
L 34.215828 35.651954 
L 40.803214 34.611027 
L 53.723595 32.585076 
L 57.958483 32.051153 
L 58.692693 32.22618 
L 59.044418 32.472871 
L 59.374564 32.864411 
L 59.672078 33.421696 
L 60.123641 34.959503 
L 60.341918 36.661774 
L 60.335118 38.162625 
L 60.140037 39.381663 
L 59.794704 40.342361 
L 59.332248 41.082934 
L 58.780616 41.638758 
L 57.836031 42.191591 
L 56.805569 42.480987 
L 55.736705 42.573327 
L 54.311344 42.478 
L 52.606685 42.132837 
L 50.474155 41.438052 
L 48.26275 40.458617 
L 46.22023 39.296926 
L 44.962225 38.349059 
L 44.420684 37.692402 
L 44.352094 37.304668 
L 44.535715 37.023362 
L 44.986959 36.782788 
L 45.966248 36.539969 
L 48.025567 36.291272 
L 51.949318 36.064939 
L 56.429533 36.016865 
L 58.191034 36.161212 
L 58.873854 36.466486 
L 59.407193 36.931562 
L 59.587602 37.335093 
L 59.506416 37.684694 
L 59.204224 37.973546 
L 58.548649 38.263362 
L 57.367711 38.517644 
L 55.425176 38.689864 
L 52.408735 38.713075 
L 48.081279 38.506749 
L 46.076501 38.356589 
L 46.076501 38.356589 
" clip-path="url(#p61c33e227e)" style="fill: none; stroke: #803224; stroke-width: 0.5; stroke-linecap: square"/>
   </g>
   <g id="line2d_13">
    <path d="M 24.855455 37.39693 
L 24.969444 37.055397 
L 25.27496 36.777496 
L 25.889171 36.565472 
L 27.157746 36.419724 
L 31.64929 35.98136 
L 50.348817 33.621851 
L 50.862403 33.814558 
L 51.330652 34.302393 
L 51.708392 35.091618 
L 52.051208 36.368713 
L 52.145439 37.645796 
L 51.95425 38.456543 
L 51.587691 38.934717 
L 51.122899 39.182153 
L 50.482985 39.2764 
L 49.58938 39.172831 
L 48.476331 38.815722 
L 47.38154 38.244012 
L 46.785139 37.721275 
L 46.659091 37.36933 
L 46.792083 37.116342 
L 47.215636 36.87561 
L 48.158101 36.639588 
L 50.034736 36.428218 
L 53.461506 36.289653 
L 57.749541 36.333062 
L 59.082084 36.487341 
L 59.89701 36.850057 
L 60.323379 37.247861 
L 60.337517 37.508905 
L 60.114864 37.705199 
L 59.52249 37.889457 
L 58.258289 38.023228 
L 55.856101 38.026823 
L 54.205299 37.956294 
L 54.205299 37.956294 
" clip-path="url(#p61c33e227e)" style="fill: none; stroke: #ff6347; stroke-width: 0.5; stroke-linecap: square"/>
   </g>
   <g id="patch_3">
    <path d="M 23.08 63.990188 
L 23.08 25.182187 
" style="fill: none; stroke: #000000; stroke-width: 0.8; stroke-linejoin: miter; stroke-linecap: square"/>
   </g>
   <g id="patch_4">
    <path d="M 62.14 63.990188 
L 62.14 25.182187 
" style="fill: none; stroke: #000000; stroke-width: 0.8; stroke-linejoin: miter; stroke-linecap: square"/>
   </g>
   <g id="patch_5">
    <path d="M 23.08 63.990188 
L 62.14 63.990188 
" style="fill: none; stroke: #000000; stroke-width: 0.8; stroke-linejoin: miter; stroke-linecap: square"/>
   </g>
   <g id="patch_6">
    <path d="M 23.08 25.182187 
L 62.14 25.182187 
" style="fill: none; stroke: #000000; stroke-width: 0.8; stroke-linejoin: miter; stroke-linecap: square"/>
   </g>
   <g id="text_6">
    <!-- Protease U -->
    <g transform="translate(21.041875 13.27875) scale(0.08 -0.08)">
     <defs>
      <path id="DejaVuSans-50" d="M 1259 4147 
L 1259 2394 
L 2053 2394 
Q 2494 2394 2734 2622 
Q 2975 2850 2975 3272 
Q 2975 3691 2734 3919 
Q 2494 4147 2053 4147 
L 1259 4147 
z
M 628 4666 
L 2053 4666 
Q 2838 4666 3239 4311 
Q 3641 3956 3641 3272 
Q 3641 2581 3239 2228 
Q 2838 1875 2053 1875 
L 1259 1875 
L 1259 0 
L 628 0 
L 628 4666 
z
" transform="scale(0.015625)"/>
      <path id="DejaVuSans-72" d="M 2631 2963 
Q 2534 3019 2420 3045 
Q 2306 3072 2169 3072 
Q 1681 3072 1420 2755 
Q 1159 2438 1159 1844 
L 1159 0 
L 581 0 
L 581 3500 
L 1159 3500 
L 1159 2956 
Q 1341 3275 1631 3429 
Q 1922 3584 2338 3584 
Q 2397 3584 2469 3576 
Q 2541 3569 2628 3553 
L 2631 2963 
z
" transform="scale(0.015625)"/>
      <path id="DejaVuSans-6f" d="M 1959 3097 
Q 1497 3097 1228 2736 
Q 959 2375 959 1747 
Q 959 1119 1226 758 
Q 1494 397 1959 397 
Q 2419 397 2687 759 
Q 2956 1122 2956 1747 
Q 2956 2369 2687 2733 
Q 2419 3097 1959 3097 
z
M 1959 3584 
Q 2709 3584 3137 3096 
Q 3566 2609 3566 1747 
Q 3566 888 3137 398 
Q 2709 -91 1959 -91 
Q 1206 -91 779 398 
Q 353 888 353 1747 
Q 353 2609 779 3096 
Q 1206 3584 1959 3584 
z
" transform="scale(0.015625)"/>
      <path id="DejaVuSans-74" d="M 1172 4494 
L 1172 3500 
L 2356 3500 
L 2356 3053 
L 1172 3053 
L 1172 1153 
Q 1172 725 1289 603 
Q 1406 481 1766 481 
L 2356 481 
L 2356 0 
L 1766 0 
Q 1100 0 847 248 
Q 594 497 594 1153 
L 594 3053 
L 172 3053 
L 172 3500 
L 594 3500 
L 594 4494 
L 1172 4494 
z
" transform="scale(0.015625)"/>
      <path id="DejaVuSans-65" d="M 3597 1894 
L 3597 1613 
L 953 1613 
Q 991 1019 1311 708 
Q 1631 397 2203 397 
Q 2534 397 2845 478 
Q 3156 559 3463 722 
L 3463 178 
Q 3153 47 2828 -22 
Q 2503 -91 2169 -91 
Q 1331 -91 842 396 
Q 353 884 353 1716 
Q 353 2575 817 3079 
Q 1281 3584 2069 3584 
Q 2775 3584 3186 3129 
Q 3597 2675 3597 1894 
z
M 3022 2063 
Q 3016 2534 2758 2815 
Q 2500 3097 2075 3097 
Q 1594 3097 1305 2825 
Q 1016 2553 972 2059 
L 3022 2063 
z
" transform="scale(0.015625)"/>
      <path id="DejaVuSans-61" d="M 2194 1759 
Q 1497 1759 1228 1600 
Q 959 1441 959 1056 
Q 959 750 1161 570 
Q 1363 391 1709 391 
Q 2188 391 2477 730 
Q 2766 1069 2766 1631 
L 2766 1759 
L 2194 1759 
z
M 3341 1997 
L 3341 0 
L 2766 0 
L 2766 531 
Q 2569 213 2275 61 
Q 1981 -91 1556 -91 
Q 1019 -91 701 211 
Q 384 513 384 1019 
Q 384 1609 779 1909 
Q 1175 2209 1959 2209 
L 2766 2209 
L 2766 2266 
Q 2766 2663 2505 2880 
Q 2244 3097 1772 3097 
Q 1472 3097 1187 3025 
Q 903 2953 641 2809 
L 641 3341 
Q 956 3463 1253 3523 
Q 1550 3584 1831 3584 
Q 2591 3584 2966 3190 
Q 3341 2797 3341 1997 
z
" transform="scale(0.015625)"/>
      <path id="DejaVuSans-73" d="M 2834 3397 
L 2834 2853 
Q 2591 2978 2328 3040 
Q 2066 3103 1784 3103 
Q 1356 3103 1142 2972 
Q 928 2841 928 2578 
Q 928 2378 1081 2264 
Q 1234 2150 1697 2047 
L 1894 2003 
Q 2506 1872 2764 1633 
Q 3022 1394 3022 966 
Q 3022 478 2636 193 
Q 2250 -91 1575 -91 
Q 1294 -91 989 -36 
Q 684 19 347 128 
L 347 722 
Q 666 556 975 473 
Q 1284 391 1588 391 
Q 1994 391 2212 530 
Q 2431 669 2431 922 
Q 2431 1156 2273 1281 
Q 2116 1406 1581 1522 
L 1381 1569 
Q 847 1681 609 1914 
Q 372 2147 372 2553 
Q 372 3047 722 3315 
Q 1072 3584 1716 3584 
Q 2034 3584 2315 3537 
Q 2597 3491 2834 3397 
z
" transform="scale(0.015625)"/>
      <path id="DejaVuSans-20" transform="scale(0.015625)"/>
      <path id="DejaVuSans-55" d="M 556 4666 
L 1191 4666 
L 1191 1831 
Q 1191 1081 1462 751 
Q 1734 422 2344 422 
Q 2950 422 3222 751 
Q 3494 1081 3494 1831 
L 3494 4666 
L 4128 4666 
L 4128 1753 
Q 4128 841 3676 375 
Q 3225 -91 2344 -91 
Q 1459 -91 1007 375 
Q 556 841 556 1753 
L 556 4666 
z
" transform="scale(0.015625)"/>
     </defs>
     <use xlink:href="#DejaVuSans-50"/>
     <use xlink:href="#DejaVuSans-72" x="58.552734"/>
     <use xlink:href="#DejaVuSans-6f" x="97.416016"/>
     <use xlink:href="#DejaVuSans-74" x="158.597656"/>
     <use xlink:href="#DejaVuSans-65" x="197.806641"/>
     <use xlink:href="#DejaVuSans-61" x="259.330078"/>
     <use xlink:href="#DejaVuSans-73" x="320.609375"/>
     <use xlink:href="#DejaVuSans-65" x="372.708984"/>
     <use xlink:href="#DejaVuSans-20" x="434.232422"/>
     <use xlink:href="#DejaVuSans-55" x="466.019531"/>
    </g>
   </g>
  </g>
 </g>
 <defs>
  <clipPath id="p61c33e227e">
   <rect x="23.08" y="25.182187" width="39.06" height="38.808"/>
  </clipPath>
 </defs>
</svg>
