<?xml version="1.0" encoding="utf-8" standalone="no"?>
<!DOCTYPE svg PUBLIC "-//W3C//DTD SVG 1.1//EN"
  "http://www.w3.org/Graphics/SVG/1.1/DTD/svg11.dtd">
<svg xmlns:xlink="http://www.w3.org/1999/xlink" width="97.263pt" height="94.725625pt" viewBox="0 0 97.263 94.725625" xmlns="http://www.w3.org/2000/svg" version="1.1">
 <metadata>
  <rdf:RDF xmlns:dc="http://purl.org/dc/elements/1.1/" xmlns:cc="http://creativecommons.org/ns#" xmlns:rdf="http://www.w3.org/1999/02/22-rdf-syntax-ns#">
   <cc:Work>
    <dc:type rdf:resource="http://purl.org/dc/dcmitype/StillImage"/>
    <dc:date>2025-05-10T19:42:54.367616</dc:date>
    <dc:format>image/svg+xml</dc:format>
    <dc:creator>
     <cc:Agent>
      <dc:title>Matplotlib v3.7.2, https://matplotlib.org/</dc:title>
     </cc:Agent>
    </dc:creator>
   </cc:Work>
  </rdf:RDF>
 </metadata>
 <defs>
  <style type="text/css">*{stroke-linejoin: round; stroke-linecap: butt}</style>
 </defs>
 <g id="figure_1">
  <g id="patch_1">
   <path d="M 0 94.725625 
L 97.263 94.725625 
L 97.263 0 
L 0 0 
z
" style="fill: #ffffff"/>
  </g>
  <g id="axes_1">
   <g id="patch_2">
    <path d="M 28.683 74.71875 
L 90.063 74.71875 
L 90.063 19.27875 
L 28.683 19.27875 
z
" style="fill: #ffffff"/>
   </g>
   <g id="matplotlib.axis_1">
    <g id="xtick_1">
     <g id="line2d_1">
      <path d="M 31.473 74.71875 
L 31.473 19.27875 
" clip-path="url(#pf1c0bd2fb0)" style="fill: none; stroke: #b0b0b0; stroke-width: 0.8; stroke-linecap: square"/>
     </g>
     <g id="line2d_2">
      <defs>
       <path id="m1f7b88e71a" d="M 0 0 
L 0 3.5 
" style="stroke: #000000; stroke-width: 0.8"/>
      </defs>
      <g>
       <use xlink:href="#m1f7b88e71a" x="31.473" y="74.71875" style="stroke: #000000; stroke-width: 0.8"/>
      </g>
     </g>
     <g id="text_1">
      <!-- 0 -->
      <g transform="translate(29.56425 86.277812) scale(0.06 -0.06)">
       <defs>
        <path id="DejaVuSans-30" d="M 2034 4250 
Q 1547 4250 1301 3770 
Q 1056 3291 1056 2328 
Q 1056 1369 1301 889 
Q 1547 409 2034 409 
Q 2525 409 2770 889 
Q 3016 1369 3016 2328 
Q 3016 3291 2770 3770 
Q 2525 4250 2034 4250 
z
M 2034 4750 
Q 2819 4750 3233 4129 
Q 3647 3509 3647 2328 
Q 3647 1150 3233 529 
Q 2819 -91 2034 -91 
Q 1250 -91 836 529 
Q 422 1150 422 2328 
Q 422 3509 836 4129 
Q 1250 4750 2034 4750 
z
" transform="scale(0.015625)"/>
       </defs>
       <use xlink:href="#DejaVuSans-30"/>
      </g>
     </g>
    </g>
    <g id="xtick_2">
     <g id="line2d_3">
      <path d="M 87.273 74.71875 
L 87.273 19.27875 
" clip-path="url(#pf1c0bd2fb0)" style="fill: none; stroke: #b0b0b0; stroke-width: 0.8; stroke-linecap: square"/>
     </g>
     <g id="line2d_4">
      <g>
       <use xlink:href="#m1f7b88e71a" x="87.273" y="74.71875" style="stroke: #000000; stroke-width: 0.8"/>
      </g>
     </g>
     <g id="text_2">
      <!-- 1 -->
      <g transform="translate(85.36425 86.277812) scale(0.06 -0.06)">
       <defs>
        <path id="DejaVuSans-31" d="M 794 531 
L 1825 531 
L 1825 4091 
L 703 3866 
L 703 4441 
L 1819 4666 
L 2450 4666 
L 2450 531 
L 3481 531 
L 3481 0 
L 794 0 
L 794 531 
z
" transform="scale(0.015625)"/>
       </defs>
       <use xlink:href="#DejaVuSans-31"/>
      </g>
     </g>
    </g>
   </g>
   <g id="matplotlib.axis_2">
    <g id="ytick_1">
     <g id="line2d_5">
      <path d="M 28.683 69.520411 
L 90.063 69.520411 
" clip-path="url(#pf1c0bd2fb0)" style="fill: none; stroke: #b0b0b0; stroke-width: 0.8; stroke-linecap: square"/>
     </g>
     <g id="line2d_6">
      <defs>
       <path id="m71d563f508" d="M 0 0 
L -3.5 0 
" style="stroke: #000000; stroke-width: 0.8"/>
      </defs>
      <g>
       <use xlink:href="#m71d563f508" x="28.683" y="69.520411" style="stroke: #000000; stroke-width: 0.8"/>
      </g>
     </g>
     <g id="text_3">
      <!-- $\mathdefault{−5}$ -->
      <g transform="translate(12.803 71.799942) scale(0.06 -0.06)">
       <defs>
        <path id="DejaVuSans-2212" d="M 678 2272 
L 4684 2272 
L 4684 1741 
L 678 1741 
L 678 2272 
z
" transform="scale(0.015625)"/>
        <path id="DejaVuSans-35" d="M 691 4666 
L 3169 4666 
L 3169 4134 
L 1269 4134 
L 1269 2991 
Q 1406 3038 1543 3061 
Q 1681 3084 1819 3084 
Q 2600 3084 3056 2656 
Q 3513 2228 3513 1497 
Q 3513 744 3044 326 
Q 2575 -91 1722 -91 
Q 1428 -91 1123 -41 
Q 819 9 494 109 
L 494 744 
Q 775 591 1075 516 
Q 1375 441 1709 441 
Q 2250 441 2565 725 
Q 2881 1009 2881 1497 
Q 2881 1984 2565 2268 
Q 2250 2553 1709 2553 
Q 1456 2553 1204 2497 
Q 953 2441 691 2322 
L 691 4666 
z
" transform="scale(0.015625)"/>
       </defs>
       <use xlink:href="#DejaVuSans-2212" transform="translate(0 0.09375)"/>
       <use xlink:href="#DejaVuSans-35" transform="translate(83.789062 0.09375)"/>
      </g>
     </g>
    </g>
    <g id="ytick_2">
     <g id="line2d_7">
      <path d="M 28.683 36.349028 
L 90.063 36.349028 
" clip-path="url(#pf1c0bd2fb0)" style="fill: none; stroke: #b0b0b0; stroke-width: 0.8; stroke-linecap: square"/>
     </g>
     <g id="line2d_8">
      <g>
       <use xlink:href="#m71d563f508" x="28.683" y="36.349028" style="stroke: #000000; stroke-width: 0.8"/>
      </g>
     </g>
     <g id="text_4">
      <!-- $\mathdefault{0}$ -->
      <g transform="translate(17.843 38.628559) scale(0.06 -0.06)">
       <use xlink:href="#DejaVuSans-30" transform="translate(0 0.78125)"/>
      </g>
     </g>
    </g>
    <g id="text_5">
     <!-- $\times\mathdefault{10^{−2}}\mathdefault{}$ -->
     <g transform="translate(7.2 17.934375) scale(0.06 -0.06)">
      <defs>
       <path id="DejaVuSans-d7" d="M 4488 3438 
L 3059 2003 
L 4488 575 
L 4116 197 
L 2681 1631 
L 1247 197 
L 878 575 
L 2303 2003 
L 878 3438 
L 1247 3816 
L 2681 2381 
L 4116 3816 
L 4488 3438 
z
" transform="scale(0.015625)"/>
       <path id="DejaVuSans-32" d="M 1228 531 
L 3431 531 
L 3431 0 
L 469 0 
L 469 531 
Q 828 903 1448 1529 
Q 2069 2156 2228 2338 
Q 2531 2678 2651 2914 
Q 2772 3150 2772 3378 
Q 2772 3750 2511 3984 
Q 2250 4219 1831 4219 
Q 1534 4219 1204 4116 
Q 875 4013 500 3803 
L 500 4441 
Q 881 4594 1212 4672 
Q 1544 4750 1819 4750 
Q 2544 4750 2975 4387 
Q 3406 4025 3406 3419 
Q 3406 3131 3298 2873 
Q 3191 2616 2906 2266 
Q 2828 2175 2409 1742 
Q 1991 1309 1228 531 
z
" transform="scale(0.015625)"/>
      </defs>
      <use xlink:href="#DejaVuSans-d7" transform="translate(0 0.765625)"/>
      <use xlink:href="#DejaVuSans-31" transform="translate(83.789062 0.765625)"/>
      <use xlink:href="#DejaVuSans-30" transform="translate(147.412109 0.765625)"/>
      <use xlink:href="#DejaVuSans-2212" transform="translate(211.992188 39.046875) scale(0.7)"/>
      <use xlink:href="#DejaVuSans-32" transform="translate(270.644531 39.046875) scale(0.7)"/>
     </g>
    </g>
   </g>
   <g id="line2d_9">
    <path d="M 31.473 36.347996 
L 31.58523 36.003405 
L 31.939765 35.656674 
L 32.571557 35.395341 
L 33.734572 35.201821 
L 37.131673 34.978898 
L 42.137984 34.531615 
L 54.273406 33.125814 
L 66.621163 31.812299 
L 70.588347 31.48063 
L 71.402387 31.598915 
L 72.17323 32.032611 
L 72.835833 32.891391 
L 73.324789 34.015999 
L 73.707847 35.570913 
L 73.748117 36.729298 
L 73.541637 37.543966 
L 73.164775 38.094531 
L 72.675658 38.445242 
L 71.922942 38.686542 
L 70.91991 38.742955 
L 69.553234 38.560341 
L 67.886274 38.079466 
L 66.368549 37.402945 
L 65.546196 36.81943 
L 65.302701 36.418996 
L 65.373048 36.121704 
L 65.710904 35.855802 
L 66.454841 35.590893 
L 67.974667 35.317669 
L 70.715563 35.074554 
L 75.336562 34.904739 
L 81.367891 34.903187 
L 84.760119 35.064737 
L 85.914575 35.371275 
L 86.898827 35.860001 
L 87.257122 36.255819 
L 87.218278 36.509869 
L 86.918956 36.725932 
L 86.175754 36.938695 
L 84.673677 37.11044 
L 81.952073 37.175617 
L 77.809175 37.063516 
L 77.809175 37.063516 
" clip-path="url(#pf1c0bd2fb0)" style="fill: none; stroke: #00bfff; stroke-width: 0.8; stroke-linecap: square"/>
   </g>
   <g id="line2d_10">
    <path d="M 31.473 36.34704 
L 31.588493 35.891026 
L 31.943807 35.41365 
L 32.51141 35.060343 
L 33.349919 34.81733 
L 34.707746 34.682929 
L 38.100407 34.668062 
L 41.59022 34.533158 
L 45.968221 34.113436 
L 54.193096 33.056475 
L 75.808789 30.235101 
L 83.51518 29.422193 
L 84.097328 29.48229 
L 84.670284 29.657721 
L 85.222921 29.984595 
L 85.740891 30.50127 
L 86.206615 31.234289 
L 86.601279 32.171033 
L 87.123221 34.367794 
L 87.273 36.475038 
L 87.096226 38.230596 
L 86.655194 39.626568 
L 86.006659 40.710648 
L 85.198803 41.532529 
L 84.27193 42.13573 
L 83.259578 42.557349 
L 81.640211 42.916834 
L 79.963907 43.024182 
L 77.732517 42.88955 
L 75.068233 42.4363 
L 72.181471 41.676521 
L 69.331987 40.697898 
L 66.501931 39.501619 
L 64.171701 38.284899 
L 62.828937 37.362855 
L 62.250648 36.741045 
L 62.121452 36.317301 
L 62.245844 36.022451 
L 62.647216 35.734208 
L 63.481015 35.453373 
L 65.159582 35.162074 
L 68.319838 34.872025 
L 73.767844 34.612672 
L 80.126893 34.523259 
L 83.739349 34.647895 
L 84.803446 34.923863 
L 85.710064 35.392625 
L 86.245701 35.887309 
L 86.416458 36.296059 
L 86.327313 36.658408 
L 86.011278 36.970363 
L 85.348295 37.291683 
L 84.135329 37.606844 
L 82.128562 37.873486 
L 79.132238 38.033787 
L 74.700032 38.029941 
L 68.61637 37.785845 
L 65.352964 37.58701 
L 65.352964 37.58701 
" clip-path="url(#pf1c0bd2fb0)" style="fill: none; stroke: #006080; stroke-width: 0.8; stroke-linecap: square"/>
   </g>
   <g id="line2d_11">
    <path d="M 31.473 36.345986 
L 31.586158 35.83816 
L 31.907189 35.35345 
L 32.402428 35.019659 
L 33.132062 34.820278 
L 34.185794 34.77676 
L 36.901418 34.991077 
L 39.020791 35.015716 
L 41.534928 34.797107 
L 46.034032 34.144715 
L 56.658635 32.33206 
L 74.361706 29.346389 
L 82.699051 28.100177 
L 83.396085 28.068371 
L 84.092 28.160865 
L 84.773476 28.439438 
L 85.42253 28.962894 
L 86.015951 29.793952 
L 86.525207 30.977675 
L 86.919505 32.496946 
L 87.173194 34.247611 
L 87.273 36.077586 
L 87.218855 37.856432 
L 87.019429 39.508412 
L 86.687392 41.00302 
L 86.236547 42.334784 
L 85.680484 43.509301 
L 85.032065 44.53625 
L 84.303252 45.426366 
L 83.5051 46.190264 
L 82.647786 46.838013 
L 80.792351 47.82203 
L 78.802991 48.445936 
L 76.735207 48.767984 
L 74.63538 48.838662 
L 72.541967 48.702018 
L 70.486487 48.396741 
L 67.528465 47.696345 
L 64.775227 46.792091 
L 62.267336 45.767018 
L 59.340022 44.328217 
L 56.357122 42.579916 
L 53.691765 40.743303 
L 51.400123 38.883613 
L 50.038793 37.526791 
L 49.45157 36.655442 
L 49.403115 36.210302 
L 49.618278 35.940985 
L 50.150157 35.721662 
L 51.406453 35.499399 
L 54.931369 35.160444 
L 61.845647 34.717059 
L 67.359618 34.570753 
L 69.722681 34.662633 
L 70.519687 34.915304 
L 71.142671 35.33299 
L 71.534647 35.816678 
L 71.67935 36.305222 
L 71.583439 36.766366 
L 71.265199 37.184603 
L 70.644419 37.610318 
L 69.655063 38.013385 
L 68.083983 38.399265 
L 65.844891 38.709763 
L 62.722738 38.905855 
L 58.592662 38.925232 
L 53.57206 38.714554 
L 47.811467 38.246121 
L 41.149522 37.472878 
L 40.870595 37.436219 
L 40.870595 37.436219 
" clip-path="url(#pf1c0bd2fb0)" style="fill: none; stroke: #000000; stroke-width: 0.8; stroke-linecap: square"/>
   </g>
   <g id="line2d_12">
    <path d="M 31.473 36.344721 
L 31.563839 35.87835 
L 31.865981 35.417288 
L 32.31795 35.168345 
L 32.942145 35.087913 
L 34.065295 35.211447 
L 36.117971 35.46444 
L 37.652683 35.372907 
L 40.39403 34.942533 
L 45.773986 33.858886 
L 54.981966 31.752328 
L 74.468123 27.255137 
L 81.940756 25.696385 
L 82.842874 25.626926 
L 83.744399 25.771389 
L 84.622215 26.239581 
L 85.444982 27.134927 
L 86.172186 28.567873 
L 86.753907 30.619526 
L 87.135987 33.263179 
L 87.273 36.316783 
L 87.141412 39.507954 
L 86.741614 42.598158 
L 86.0902 45.44552 
L 85.211427 47.990232 
L 84.131948 50.218523 
L 82.878338 52.137147 
L 81.476114 53.760491 
L 79.949429 55.105015 
L 78.321032 56.187121 
L 76.612319 57.02246 
L 74.843404 57.625843 
L 73.033191 58.011382 
L 71.199421 58.192729 
L 69.358702 58.18336 
L 67.526509 57.996867 
L 65.717162 57.647235 
L 63.943783 57.149096 
L 62.218231 56.517915 
L 60.551027 55.770093 
L 57.426571 53.994646 
L 54.624949 51.969228 
L 52.175649 49.841776 
L 50.084097 47.746376 
L 47.580542 44.884311 
L 45.248371 41.860008 
L 42.874158 38.398415 
L 41.886755 36.653319 
L 41.837372 36.233782 
L 42.038346 36.055073 
L 42.668812 35.90902 
L 45.82728 35.538807 
L 52.896421 34.897885 
L 57.097112 34.716717 
L 58.728235 34.7946 
L 59.224773 34.983736 
L 59.711937 35.431237 
L 59.9796 36.007409 
L 59.994518 36.620281 
L 59.754153 37.213993 
L 59.273885 37.757156 
L 58.416648 38.319903 
L 57.302335 38.775023 
L 55.750746 39.1684 
L 53.750164 39.445872 
L 51.349498 39.562154 
L 48.400475 39.4731 
L 45.150717 39.136826 
L 41.77843 38.5592 
L 37.627865 37.600503 
L 33.229994 36.617824 
L 33.229994 36.617824 
" clip-path="url(#pf1c0bd2fb0)" style="fill: none; stroke: #803224; stroke-width: 0.8; stroke-linecap: square"/>
   </g>
   <g id="line2d_13">
    <path d="M 31.473 36.34417 
L 31.557942 35.932006 
L 31.808817 35.611327 
L 32.225153 35.474991 
L 32.947344 35.538392 
L 34.684438 35.777484 
L 36.000818 35.633444 
L 38.921576 35.045758 
L 43.071925 33.990017 
L 48.512994 32.372223 
L 57.400258 29.461275 
L 75.012546 23.674137 
L 80.705121 21.96087 
L 81.927885 21.79875 
L 83.15273 22.025462 
L 84.337357 22.846275 
L 85.424126 24.453574 
L 86.338378 27.052318 
L 86.987993 30.792985 
L 87.273 35.624002 
L 87.109955 41.198114 
L 86.4573 46.989386 
L 85.320063 52.527486 
L 83.735804 57.520643 
L 81.758631 61.830786 
L 79.449331 65.405551 
L 76.870822 68.229667 
L 74.086457 70.30103 
L 71.159508 71.621985 
L 68.152936 72.19875 
L 65.128965 72.045542 
L 62.148165 71.191652 
L 59.267834 69.68986 
L 56.539661 67.623672 
L 54.006898 65.109985 
L 51.701571 62.293892 
L 49.642523 59.334768 
L 47.834972 56.386666 
L 44.936573 51.004575 
L 41.395254 43.610265 
L 38.628024 37.955523 
L 37.813443 36.269301 
L 38.015148 36.147933 
L 38.953063 35.997104 
L 46.098198 35.18362 
L 49.313248 35.008422 
L 50.306746 35.118366 
L 50.679624 35.412996 
L 50.912146 35.935126 
L 50.946324 36.570858 
L 50.761136 37.224588 
L 50.361988 37.833637 
L 49.77096 38.359944 
L 48.811299 38.870901 
L 47.673626 39.205922 
L 46.176543 39.384678 
L 44.39182 39.333972 
L 42.470638 39.043286 
L 40.055723 38.430301 
L 34.215578 36.818284 
L 32.336917 36.484686 
L 32.336917 36.484686 
" clip-path="url(#pf1c0bd2fb0)" style="fill: none; stroke: #ff6347; stroke-width: 0.8; stroke-linecap: square"/>
   </g>
   <g id="patch_3">
    <path d="M 28.683 74.71875 
L 28.683 19.27875 
" style="fill: none; stroke: #000000; stroke-width: 0.8; stroke-linejoin: miter; stroke-linecap: square"/>
   </g>
   <g id="patch_4">
    <path d="M 90.063 74.71875 
L 90.063 19.27875 
" style="fill: none; stroke: #000000; stroke-width: 0.8; stroke-linejoin: miter; stroke-linecap: square"/>
   </g>
   <g id="patch_5">
    <path d="M 28.683 74.71875 
L 90.063 74.71875 
" style="fill: none; stroke: #000000; stroke-width: 0.8; stroke-linejoin: miter; stroke-linecap: square"/>
   </g>
   <g id="patch_6">
    <path d="M 28.683 19.27875 
L 90.063 19.27875 
" style="fill: none; stroke: #000000; stroke-width: 0.8; stroke-linejoin: miter; stroke-linecap: square"/>
   </g>
   <g id="text_6">
    <!-- Protease B -->
    <g transform="translate(37.988 13.27875) scale(0.08 -0.08)">
     <defs>
      <path id="DejaVuSans-50" d="M 1259 4147 
L 1259 2394 
L 2053 2394 
Q 2494 2394 2734 2622 
Q 2975 2850 2975 3272 
Q 2975 3691 2734 3919 
Q 2494 4147 2053 4147 
L 1259 4147 
z
M 628 4666 
L 2053 4666 
Q 2838 4666 3239 4311 
Q 3641 3956 3641 3272 
Q 3641 2581 3239 2228 
Q 2838 1875 2053 1875 
L 1259 1875 
L 1259 0 
L 628 0 
L 628 4666 
z
" transform="scale(0.015625)"/>
      <path id="DejaVuSans-72" d="M 2631 2963 
Q 2534 3019 2420 3045 
Q 2306 3072 2169 3072 
Q 1681 3072 1420 2755 
Q 1159 2438 1159 1844 
L 1159 0 
L 581 0 
L 581 3500 
L 1159 3500 
L 1159 2956 
Q 1341 3275 1631 3429 
Q 1922 3584 2338 3584 
Q 2397 3584 2469 3576 
Q 2541 3569 2628 3553 
L 2631 2963 
z
" transform="scale(0.015625)"/>
      <path id="DejaVuSans-6f" d="M 1959 3097 
Q 1497 3097 1228 2736 
Q 959 2375 959 1747 
Q 959 1119 1226 758 
Q 1494 397 1959 397 
Q 2419 397 2687 759 
Q 2956 1122 2956 1747 
Q 2956 2369 2687 2733 
Q 2419 3097 1959 3097 
z
M 1959 3584 
Q 2709 3584 3137 3096 
Q 3566 2609 3566 1747 
Q 3566 888 3137 398 
Q 2709 -91 1959 -91 
Q 1206 -91 779 398 
Q 353 888 353 1747 
Q 353 2609 779 3096 
Q 1206 3584 1959 3584 
z
" transform="scale(0.015625)"/>
      <path id="DejaVuSans-74" d="M 1172 4494 
L 1172 3500 
L 2356 3500 
L 2356 3053 
L 1172 3053 
L 1172 1153 
Q 1172 725 1289 603 
Q 1406 481 1766 481 
L 2356 481 
L 2356 0 
L 1766 0 
Q 1100 0 847 248 
Q 594 497 594 1153 
L 594 3053 
L 172 3053 
L 172 3500 
L 594 3500 
L 594 4494 
L 1172 4494 
z
" transform="scale(0.015625)"/>
      <path id="DejaVuSans-65" d="M 3597 1894 
L 3597 1613 
L 953 1613 
Q 991 1019 1311 708 
Q 1631 397 2203 397 
Q 2534 397 2845 478 
Q 3156 559 3463 722 
L 3463 178 
Q 3153 47 2828 -22 
Q 2503 -91 2169 -91 
Q 1331 -91 842 396 
Q 353 884 353 1716 
Q 353 2575 817 3079 
Q 1281 3584 2069 3584 
Q 2775 3584 3186 3129 
Q 3597 2675 3597 1894 
z
M 3022 2063 
Q 3016 2534 2758 2815 
Q 2500 3097 2075 3097 
Q 1594 3097 1305 2825 
Q 1016 2553 972 2059 
L 3022 2063 
z
" transform="scale(0.015625)"/>
      <path id="DejaVuSans-61" d="M 2194 1759 
Q 1497 1759 1228 1600 
Q 959 1441 959 1056 
Q 959 750 1161 570 
Q 1363 391 1709 391 
Q 2188 391 2477 730 
Q 2766 1069 2766 1631 
L 2766 1759 
L 2194 1759 
z
M 3341 1997 
L 3341 0 
L 2766 0 
L 2766 531 
Q 2569 213 2275 61 
Q 1981 -91 1556 -91 
Q 1019 -91 701 211 
Q 384 513 384 1019 
Q 384 1609 779 1909 
Q 1175 2209 1959 2209 
L 2766 2209 
L 2766 2266 
Q 2766 2663 2505 2880 
Q 2244 3097 1772 3097 
Q 1472 3097 1187 3025 
Q 903 2953 641 2809 
L 641 3341 
Q 956 3463 1253 3523 
Q 1550 3584 1831 3584 
Q 2591 3584 2966 3190 
Q 3341 2797 3341 1997 
z
" transform="scale(0.015625)"/>
      <path id="DejaVuSans-73" d="M 2834 3397 
L 2834 2853 
Q 2591 2978 2328 3040 
Q 2066 3103 1784 3103 
Q 1356 3103 1142 2972 
Q 928 2841 928 2578 
Q 928 2378 1081 2264 
Q 1234 2150 1697 2047 
L 1894 2003 
Q 2506 1872 2764 1633 
Q 3022 1394 3022 966 
Q 3022 478 2636 193 
Q 2250 -91 1575 -91 
Q 1294 -91 989 -36 
Q 684 19 347 128 
L 347 722 
Q 666 556 975 473 
Q 1284 391 1588 391 
Q 1994 391 2212 530 
Q 2431 669 2431 922 
Q 2431 1156 2273 1281 
Q 2116 1406 1581 1522 
L 1381 1569 
Q 847 1681 609 1914 
Q 372 2147 372 2553 
Q 372 3047 722 3315 
Q 1072 3584 1716 3584 
Q 2034 3584 2315 3537 
Q 2597 3491 2834 3397 
z
" transform="scale(0.015625)"/>
      <path id="DejaVuSans-20" transform="scale(0.015625)"/>
      <path id="DejaVuSans-42" d="M 1259 2228 
L 1259 519 
L 2272 519 
Q 2781 519 3026 730 
Q 3272 941 3272 1375 
Q 3272 1813 3026 2020 
Q 2781 2228 2272 2228 
L 1259 2228 
z
M 1259 4147 
L 1259 2741 
L 2194 2741 
Q 2656 2741 2882 2914 
Q 3109 3088 3109 3444 
Q 3109 3797 2882 3972 
Q 2656 4147 2194 4147 
L 1259 4147 
z
M 628 4666 
L 2241 4666 
Q 2963 4666 3353 4366 
Q 3744 4066 3744 3513 
Q 3744 3084 3544 2831 
Q 3344 2578 2956 2516 
Q 3422 2416 3680 2098 
Q 3938 1781 3938 1306 
Q 3938 681 3513 340 
Q 3088 0 2303 0 
L 628 0 
L 628 4666 
z
" transform="scale(0.015625)"/>
     </defs>
     <use xlink:href="#DejaVuSans-50"/>
     <use xlink:href="#DejaVuSans-72" x="58.552734"/>
     <use xlink:href="#DejaVuSans-6f" x="97.416016"/>
     <use xlink:href="#DejaVuSans-74" x="158.597656"/>
     <use xlink:href="#DejaVuSans-65" x="197.806641"/>
     <use xlink:href="#DejaVuSans-61" x="259.330078"/>
     <use xlink:href="#DejaVuSans-73" x="320.609375"/>
     <use xlink:href="#DejaVuSans-65" x="372.708984"/>
     <use xlink:href="#DejaVuSans-20" x="434.232422"/>
     <use xlink:href="#DejaVuSans-42" x="466.019531"/>
    </g>
   </g>
  </g>
 </g>
 <defs>
  <clipPath id="pf1c0bd2fb0">
   <rect x="28.683" y="19.27875" width="61.38" height="55.44"/>
  </clipPath>
 </defs>
</svg>
