<?xml version="1.0" encoding="utf-8" standalone="no"?>
<!DOCTYPE svg PUBLIC "-//W3C//DTD SVG 1.1//EN"
  "http://www.w3.org/Graphics/SVG/1.1/DTD/svg11.dtd">
<svg xmlns:xlink="http://www.w3.org/1999/xlink" width="97.263pt" height="94.725625pt" viewBox="0 0 97.263 94.725625" xmlns="http://www.w3.org/2000/svg" version="1.1">
 <metadata>
  <rdf:RDF xmlns:dc="http://purl.org/dc/elements/1.1/" xmlns:cc="http://creativecommons.org/ns#" xmlns:rdf="http://www.w3.org/1999/02/22-rdf-syntax-ns#">
   <cc:Work>
    <dc:type rdf:resource="http://purl.org/dc/dcmitype/StillImage"/>
    <dc:date>2025-05-10T19:42:53.338878</dc:date>
    <dc:format>image/svg+xml</dc:format>
    <dc:creator>
     <cc:Agent>
      <dc:title>Matplotlib v3.7.2, https://matplotlib.org/</dc:title>
     </cc:Agent>
    </dc:creator>
   </cc:Work>
  </rdf:RDF>
 </metadata>
 <defs>
  <style type="text/css">*{stroke-linejoin: round; stroke-linecap: butt}</style>
 </defs>
 <g id="figure_1">
  <g id="patch_1">
   <path d="M 0 94.725625 
L 97.263 94.725625 
L 97.263 0 
L 0 0 
z
" style="fill: #ffffff"/>
  </g>
  <g id="axes_1">
   <g id="patch_2">
    <path d="M 28.683 74.71875 
L 90.063 74.71875 
L 90.063 19.27875 
L 28.683 19.27875 
z
" style="fill: #ffffff"/>
   </g>
   <g id="matplotlib.axis_1">
    <g id="xtick_1">
     <g id="line2d_1">
      <path d="M 31.473 74.71875 
L 31.473 19.27875 
" clip-path="url(#pb4cc680833)" style="fill: none; stroke: #b0b0b0; stroke-width: 0.8; stroke-linecap: square"/>
     </g>
     <g id="line2d_2">
      <defs>
       <path id="mc793f6723d" d="M 0 0 
L 0 3.5 
" style="stroke: #000000; stroke-width: 0.8"/>
      </defs>
      <g>
       <use xlink:href="#mc793f6723d" x="31.473" y="74.71875" style="stroke: #000000; stroke-width: 0.8"/>
      </g>
     </g>
     <g id="text_1">
      <!-- 0 -->
      <g transform="translate(29.56425 86.277812) scale(0.06 -0.06)">
       <defs>
        <path id="DejaVuSans-30" d="M 2034 4250 
Q 1547 4250 1301 3770 
Q 1056 3291 1056 2328 
Q 1056 1369 1301 889 
Q 1547 409 2034 409 
Q 2525 409 2770 889 
Q 3016 1369 3016 2328 
Q 3016 3291 2770 3770 
Q 2525 4250 2034 4250 
z
M 2034 4750 
Q 2819 4750 3233 4129 
Q 3647 3509 3647 2328 
Q 3647 1150 3233 529 
Q 2819 -91 2034 -91 
Q 1250 -91 836 529 
Q 422 1150 422 2328 
Q 422 3509 836 4129 
Q 1250 4750 2034 4750 
z
" transform="scale(0.015625)"/>
       </defs>
       <use xlink:href="#DejaVuSans-30"/>
      </g>
     </g>
    </g>
    <g id="xtick_2">
     <g id="line2d_3">
      <path d="M 87.273 74.71875 
L 87.273 19.27875 
" clip-path="url(#pb4cc680833)" style="fill: none; stroke: #b0b0b0; stroke-width: 0.8; stroke-linecap: square"/>
     </g>
     <g id="line2d_4">
      <g>
       <use xlink:href="#mc793f6723d" x="87.273" y="74.71875" style="stroke: #000000; stroke-width: 0.8"/>
      </g>
     </g>
     <g id="text_2">
      <!-- 1 -->
      <g transform="translate(85.36425 86.277812) scale(0.06 -0.06)">
       <defs>
        <path id="DejaVuSans-31" d="M 794 531 
L 1825 531 
L 1825 4091 
L 703 3866 
L 703 4441 
L 1819 4666 
L 2450 4666 
L 2450 531 
L 3481 531 
L 3481 0 
L 794 0 
L 794 531 
z
" transform="scale(0.015625)"/>
       </defs>
       <use xlink:href="#DejaVuSans-31"/>
      </g>
     </g>
    </g>
   </g>
   <g id="matplotlib.axis_2">
    <g id="ytick_1">
     <g id="line2d_5">
      <path d="M 28.683 73.367588 
L 90.063 73.367588 
" clip-path="url(#pb4cc680833)" style="fill: none; stroke: #b0b0b0; stroke-width: 0.8; stroke-linecap: square"/>
     </g>
     <g id="line2d_6">
      <defs>
       <path id="m4ef8a43c63" d="M 0 0 
L -3.5 0 
" style="stroke: #000000; stroke-width: 0.8"/>
      </defs>
      <g>
       <use xlink:href="#m4ef8a43c63" x="28.683" y="73.367588" style="stroke: #000000; stroke-width: 0.8"/>
      </g>
     </g>
     <g id="text_3">
      <!-- $\mathdefault{−5}$ -->
      <g transform="translate(12.803 75.647119) scale(0.06 -0.06)">
       <defs>
        <path id="DejaVuSans-2212" d="M 678 2272 
L 4684 2272 
L 4684 1741 
L 678 1741 
L 678 2272 
z
" transform="scale(0.015625)"/>
        <path id="DejaVuSans-35" d="M 691 4666 
L 3169 4666 
L 3169 4134 
L 1269 4134 
L 1269 2991 
Q 1406 3038 1543 3061 
Q 1681 3084 1819 3084 
Q 2600 3084 3056 2656 
Q 3513 2228 3513 1497 
Q 3513 744 3044 326 
Q 2575 -91 1722 -91 
Q 1428 -91 1123 -41 
Q 819 9 494 109 
L 494 744 
Q 775 591 1075 516 
Q 1375 441 1709 441 
Q 2250 441 2565 725 
Q 2881 1009 2881 1497 
Q 2881 1984 2565 2268 
Q 2250 2553 1709 2553 
Q 1456 2553 1204 2497 
Q 953 2441 691 2322 
L 691 4666 
z
" transform="scale(0.015625)"/>
       </defs>
       <use xlink:href="#DejaVuSans-2212" transform="translate(0 0.09375)"/>
       <use xlink:href="#DejaVuSans-35" transform="translate(83.789062 0.09375)"/>
      </g>
     </g>
    </g>
    <g id="ytick_2">
     <g id="line2d_7">
      <path d="M 28.683 36.729516 
L 90.063 36.729516 
" clip-path="url(#pb4cc680833)" style="fill: none; stroke: #b0b0b0; stroke-width: 0.8; stroke-linecap: square"/>
     </g>
     <g id="line2d_8">
      <g>
       <use xlink:href="#m4ef8a43c63" x="28.683" y="36.729516" style="stroke: #000000; stroke-width: 0.8"/>
      </g>
     </g>
     <g id="text_4">
      <!-- $\mathdefault{0}$ -->
      <g transform="translate(17.843 39.009048) scale(0.06 -0.06)">
       <use xlink:href="#DejaVuSans-30" transform="translate(0 0.78125)"/>
      </g>
     </g>
    </g>
    <g id="text_5">
     <!-- $\times\mathdefault{10^{−2}}\mathdefault{}$ -->
     <g transform="translate(7.2 17.934375) scale(0.06 -0.06)">
      <defs>
       <path id="DejaVuSans-d7" d="M 4488 3438 
L 3059 2003 
L 4488 575 
L 4116 197 
L 2681 1631 
L 1247 197 
L 878 575 
L 2303 2003 
L 878 3438 
L 1247 3816 
L 2681 2381 
L 4116 3816 
L 4488 3438 
z
" transform="scale(0.015625)"/>
       <path id="DejaVuSans-32" d="M 1228 531 
L 3431 531 
L 3431 0 
L 469 0 
L 469 531 
Q 828 903 1448 1529 
Q 2069 2156 2228 2338 
Q 2531 2678 2651 2914 
Q 2772 3150 2772 3378 
Q 2772 3750 2511 3984 
Q 2250 4219 1831 4219 
Q 1534 4219 1204 4116 
Q 875 4013 500 3803 
L 500 4441 
Q 881 4594 1212 4672 
Q 1544 4750 1819 4750 
Q 2544 4750 2975 4387 
Q 3406 4025 3406 3419 
Q 3406 3131 3298 2873 
Q 3191 2616 2906 2266 
Q 2828 2175 2409 1742 
Q 1991 1309 1228 531 
z
" transform="scale(0.015625)"/>
      </defs>
      <use xlink:href="#DejaVuSans-d7" transform="translate(0 0.765625)"/>
      <use xlink:href="#DejaVuSans-31" transform="translate(83.789062 0.765625)"/>
      <use xlink:href="#DejaVuSans-30" transform="translate(147.412109 0.765625)"/>
      <use xlink:href="#DejaVuSans-2212" transform="translate(211.992188 39.046875) scale(0.7)"/>
      <use xlink:href="#DejaVuSans-32" transform="translate(270.644531 39.046875) scale(0.7)"/>
     </g>
    </g>
   </g>
   <g id="line2d_9">
    <path d="M 31.473 36.721024 
L 31.577765 36.192095 
L 31.860473 35.829785 
L 32.234303 35.699033 
L 32.858263 35.744451 
L 34.917822 36.073193 
L 36.252345 35.887857 
L 39.285411 35.195632 
L 44.122259 33.853915 
L 51.177382 31.639263 
L 81.214502 21.923673 
L 82.352321 21.79875 
L 83.488467 22.082249 
L 84.583109 22.974444 
L 85.583372 24.658558 
L 86.421523 27.332952 
L 87.014475 31.138748 
L 87.273 36.005561 
L 87.124734 41.560752 
L 86.5372 47.263859 
L 85.520347 52.654784 
L 84.111772 57.470548 
L 82.361475 61.605624 
L 80.323126 65.036263 
L 78.050341 67.771642 
L 75.595392 69.831753 
L 73.008851 71.239545 
L 70.339494 72.019451 
L 67.634173 72.19875 
L 64.937509 71.81029 
L 62.29135 70.895756 
L 59.73397 69.508771 
L 57.29905 67.716965 
L 55.014563 65.602051 
L 52.901746 63.257172 
L 50.974386 60.781376 
L 49.238634 58.271991 
L 46.33167 53.486018 
L 43.21443 47.650451 
L 38.424199 38.437992 
L 37.53566 36.717775 
L 37.650818 36.53558 
L 38.102122 36.398704 
L 40.463372 36.053617 
L 47.086748 35.281597 
L 50.153371 35.119433 
L 51.237473 35.232501 
L 51.654615 35.539053 
L 51.940123 36.078427 
L 52.040106 36.736426 
L 51.93357 37.420416 
L 51.622524 38.070513 
L 51.123378 38.650356 
L 50.273342 39.246026 
L 49.226506 39.682617 
L 47.796662 39.995908 
L 46.272928 40.098652 
L 44.493767 40.00042 
L 42.36378 39.641575 
L 39.989946 39.004748 
L 33.357811 37.063549 
L 32.425651 36.890672 
L 32.425651 36.890672 
" clip-path="url(#pb4cc680833)" style="fill: none; stroke: #00bfff; stroke-width: 0.8; stroke-linecap: square"/>
   </g>
   <g id="line2d_10">
    <path d="M 31.473 36.724211 
L 31.567021 36.196831 
L 31.87491 35.683847 
L 32.333326 35.408604 
L 32.964777 35.322035 
L 34.00052 35.446031 
L 36.160543 35.747525 
L 37.541843 35.66256 
L 40.013454 35.24768 
L 45.115129 34.13484 
L 53.737959 32.005354 
L 74.667442 26.782523 
L 82.053216 25.122241 
L 82.942925 25.056269 
L 83.831059 25.229285 
L 84.694418 25.758937 
L 85.501885 26.756209 
L 86.213358 28.34035 
L 86.77956 30.596742 
L 87.147383 33.489605 
L 87.273 36.812473 
L 87.134749 40.265107 
L 86.734527 43.59126 
L 86.089701 46.643231 
L 85.224663 49.36177 
L 84.165802 51.735766 
L 82.939202 53.775028 
L 81.56976 55.496911 
L 80.080917 56.920649 
L 78.494639 58.06522 
L 76.831477 58.948664 
L 75.110649 59.588007 
L 73.350115 59.9994 
L 71.566632 60.198359 
L 69.775796 60.200024 
L 67.99206 60.019426 
L 66.228729 59.671735 
L 64.497946 59.172478 
L 62.810653 58.537697 
L 61.176547 57.78404 
L 58.10019 55.989636 
L 55.319912 53.932097 
L 52.864831 51.753823 
L 50.743081 49.584718 
L 48.159744 46.569895 
L 45.688353 43.292647 
L 43.049357 39.358877 
L 41.794018 37.145136 
L 41.706919 36.613354 
L 41.879999 36.415002 
L 42.405874 36.249294 
L 44.396565 35.963903 
L 51.127491 35.241867 
L 55.942938 34.919156 
L 58.732604 34.929511 
L 59.392187 35.109561 
L 59.838778 35.446387 
L 60.220575 36.029454 
L 60.363086 36.686396 
L 60.253541 37.343452 
L 59.900802 37.958313 
L 59.325767 38.508294 
L 58.380648 39.067807 
L 56.991693 39.575477 
L 55.373147 39.930638 
L 53.342785 40.164069 
L 50.68717 40.23081 
L 47.805271 40.074252 
L 44.675053 39.680343 
L 41.275983 39.020327 
L 37.087923 37.956204 
L 33.320205 37.041167 
L 33.320205 37.041167 
" clip-path="url(#pb4cc680833)" style="fill: none; stroke: #006080; stroke-width: 0.8; stroke-linecap: square"/>
   </g>
   <g id="line2d_11">
    <path d="M 31.473 36.726156 
L 31.586158 36.165258 
L 31.907189 35.629893 
L 32.402428 35.261218 
L 33.132062 35.040999 
L 34.185794 34.992933 
L 36.555795 35.202454 
L 38.685938 35.269436 
L 40.897958 35.095393 
L 44.626927 34.538452 
L 52.383234 33.115897 
L 75.555393 28.78784 
L 82.699052 27.618591 
L 83.396086 27.583462 
L 84.092002 27.685623 
L 84.773477 27.993308 
L 85.422531 28.571471 
L 86.015952 29.489382 
L 86.525208 30.796815 
L 86.919506 32.474863 
L 87.173194 34.408487 
L 87.273 36.42971 
L 87.218855 38.39446 
L 87.019428 40.219086 
L 86.687391 41.869892 
L 86.236546 43.340837 
L 85.680483 44.6381 
L 85.032064 45.772373 
L 84.303251 46.755514 
L 83.505098 47.599246 
L 82.647785 48.31469 
L 81.740669 48.912237 
L 79.810712 49.791576 
L 77.775803 50.306513 
L 75.68672 50.516902 
L 73.585748 50.474785 
L 71.507762 50.22572 
L 69.481128 49.809853 
L 66.585528 48.949943 
L 63.910582 47.897348 
L 61.490089 46.738185 
L 58.684066 45.145888 
L 55.847095 43.247346 
L 53.333757 41.28466 
L 51.194961 39.323764 
L 49.944591 37.906421 
L 49.45157 37.067954 
L 49.393035 36.619184 
L 49.553697 36.333481 
L 49.949149 36.104514 
L 50.86032 35.876832 
L 53.154082 35.585692 
L 58.967032 35.100458 
L 64.980978 34.800195 
L 68.996992 34.796451 
L 70.001927 34.932386 
L 70.750567 35.28565 
L 71.300442 35.781447 
L 71.610365 36.323066 
L 71.673374 36.855401 
L 71.500967 37.350211 
L 71.113708 37.794488 
L 70.422963 38.243036 
L 69.367639 38.664231 
L 67.733735 39.063202 
L 65.444545 39.378351 
L 62.29151 39.567562 
L 58.376159 39.570052 
L 53.572061 39.342259 
L 47.971694 38.842312 
L 41.735716 38.054887 
L 40.870594 37.930329 
L 40.870594 37.930329 
" clip-path="url(#pb4cc680833)" style="fill: none; stroke: #000000; stroke-width: 0.8; stroke-linecap: square"/>
   </g>
   <g id="line2d_12">
    <path d="M 31.473 36.727344 
L 31.588357 36.223779 
L 31.943858 35.69529 
L 32.512333 35.303427 
L 33.352754 35.033397 
L 34.574107 34.890658 
L 37.266923 34.869643 
L 40.858149 34.774112 
L 44.543468 34.435082 
L 50.632025 33.623282 
L 81.191456 29.308687 
L 83.492045 29.091558 
L 84.07333 29.153983 
L 84.645803 29.341596 
L 85.198514 29.694012 
L 85.717315 30.253355 
L 86.184837 31.049476 
L 86.582388 32.070321 
L 87.112878 34.477341 
L 87.273 36.799681 
L 87.106579 38.742349 
L 86.674929 40.292647 
L 86.034257 41.50111 
L 85.232458 42.421225 
L 84.309726 43.100065 
L 83.29962 43.577898 
L 82.230037 43.889003 
L 80.563501 44.105588 
L 78.875412 44.092138 
L 76.666995 43.823063 
L 74.071129 43.234183 
L 71.297285 42.34677 
L 68.594662 41.254967 
L 65.949347 39.954681 
L 63.816097 38.655844 
L 62.630822 37.68457 
L 62.163111 37.035794 
L 62.110577 36.596579 
L 62.287903 36.292262 
L 62.738991 35.995531 
L 63.616069 35.706571 
L 65.327089 35.405691 
L 68.493836 35.103039 
L 73.904261 34.830281 
L 79.882272 34.741718 
L 83.443265 34.877767 
L 84.371419 35.131503 
L 85.214361 35.576202 
L 85.817 36.123816 
L 86.043213 36.585495 
L 86.00227 36.998708 
L 85.726342 37.356565 
L 85.177154 37.693581 
L 84.12792 38.043831 
L 82.441238 38.34538 
L 79.930717 38.5562 
L 76.210316 38.627207 
L 71.156913 38.486904 
L 64.820358 38.099323 
L 64.820358 38.099323 
" clip-path="url(#pb4cc680833)" style="fill: none; stroke: #803224; stroke-width: 0.8; stroke-linecap: square"/>
   </g>
   <g id="line2d_13">
    <path d="M 31.473 36.728382 
L 31.585615 36.345931 
L 31.885399 36.000922 
L 32.422214 35.717012 
L 33.374521 35.494224 
L 35.412486 35.311271 
L 40.815115 34.856486 
L 48.531441 33.905309 
L 64.13368 31.990009 
L 71.121039 31.305383 
L 71.942564 31.430362 
L 72.722161 31.898152 
L 73.39562 32.832012 
L 73.897364 34.065931 
L 74.300024 35.788506 
L 74.357261 37.083905 
L 74.163521 38.003865 
L 73.794649 38.632858 
L 73.308864 39.039804 
L 72.554141 39.328552 
L 71.540391 39.411181 
L 70.340598 39.265384 
L 68.908843 38.870044 
L 67.385286 38.223788 
L 66.26535 37.517749 
L 65.798327 36.983174 
L 65.747151 36.622452 
L 65.944845 36.327542 
L 66.446881 36.044342 
L 67.464944 35.758791 
L 69.334748 35.487404 
L 72.677059 35.253883 
L 77.757742 35.133225 
L 83.279356 35.213184 
L 85.055718 35.379252 
L 86.133834 35.741572 
L 86.971003 36.24545 
L 87.263722 36.650577 
L 87.217608 36.909795 
L 86.945095 37.13627 
L 86.257007 37.370191 
L 84.88763 37.564559 
L 82.499406 37.657461 
L 78.530033 37.569613 
L 77.594185 37.527474 
L 77.594185 37.527474 
" clip-path="url(#pb4cc680833)" style="fill: none; stroke: #ff6347; stroke-width: 0.8; stroke-linecap: square"/>
   </g>
   <g id="patch_3">
    <path d="M 28.683 74.71875 
L 28.683 19.27875 
" style="fill: none; stroke: #000000; stroke-width: 0.8; stroke-linejoin: miter; stroke-linecap: square"/>
   </g>
   <g id="patch_4">
    <path d="M 90.063 74.71875 
L 90.063 19.27875 
" style="fill: none; stroke: #000000; stroke-width: 0.8; stroke-linejoin: miter; stroke-linecap: square"/>
   </g>
   <g id="patch_5">
    <path d="M 28.683 74.71875 
L 90.063 74.71875 
" style="fill: none; stroke: #000000; stroke-width: 0.8; stroke-linejoin: miter; stroke-linecap: square"/>
   </g>
   <g id="patch_6">
    <path d="M 28.683 19.27875 
L 90.063 19.27875 
" style="fill: none; stroke: #000000; stroke-width: 0.8; stroke-linejoin: miter; stroke-linecap: square"/>
   </g>
   <g id="text_6">
    <!-- Protease U -->
    <g transform="translate(37.804875 13.27875) scale(0.08 -0.08)">
     <defs>
      <path id="DejaVuSans-50" d="M 1259 4147 
L 1259 2394 
L 2053 2394 
Q 2494 2394 2734 2622 
Q 2975 2850 2975 3272 
Q 2975 3691 2734 3919 
Q 2494 4147 2053 4147 
L 1259 4147 
z
M 628 4666 
L 2053 4666 
Q 2838 4666 3239 4311 
Q 3641 3956 3641 3272 
Q 3641 2581 3239 2228 
Q 2838 1875 2053 1875 
L 1259 1875 
L 1259 0 
L 628 0 
L 628 4666 
z
" transform="scale(0.015625)"/>
      <path id="DejaVuSans-72" d="M 2631 2963 
Q 2534 3019 2420 3045 
Q 2306 3072 2169 3072 
Q 1681 3072 1420 2755 
Q 1159 2438 1159 1844 
L 1159 0 
L 581 0 
L 581 3500 
L 1159 3500 
L 1159 2956 
Q 1341 3275 1631 3429 
Q 1922 3584 2338 3584 
Q 2397 3584 2469 3576 
Q 2541 3569 2628 3553 
L 2631 2963 
z
" transform="scale(0.015625)"/>
      <path id="DejaVuSans-6f" d="M 1959 3097 
Q 1497 3097 1228 2736 
Q 959 2375 959 1747 
Q 959 1119 1226 758 
Q 1494 397 1959 397 
Q 2419 397 2687 759 
Q 2956 1122 2956 1747 
Q 2956 2369 2687 2733 
Q 2419 3097 1959 3097 
z
M 1959 3584 
Q 2709 3584 3137 3096 
Q 3566 2609 3566 1747 
Q 3566 888 3137 398 
Q 2709 -91 1959 -91 
Q 1206 -91 779 398 
Q 353 888 353 1747 
Q 353 2609 779 3096 
Q 1206 3584 1959 3584 
z
" transform="scale(0.015625)"/>
      <path id="DejaVuSans-74" d="M 1172 4494 
L 1172 3500 
L 2356 3500 
L 2356 3053 
L 1172 3053 
L 1172 1153 
Q 1172 725 1289 603 
Q 1406 481 1766 481 
L 2356 481 
L 2356 0 
L 1766 0 
Q 1100 0 847 248 
Q 594 497 594 1153 
L 594 3053 
L 172 3053 
L 172 3500 
L 594 3500 
L 594 4494 
L 1172 4494 
z
" transform="scale(0.015625)"/>
      <path id="DejaVuSans-65" d="M 3597 1894 
L 3597 1613 
L 953 1613 
Q 991 1019 1311 708 
Q 1631 397 2203 397 
Q 2534 397 2845 478 
Q 3156 559 3463 722 
L 3463 178 
Q 3153 47 2828 -22 
Q 2503 -91 2169 -91 
Q 1331 -91 842 396 
Q 353 884 353 1716 
Q 353 2575 817 3079 
Q 1281 3584 2069 3584 
Q 2775 3584 3186 3129 
Q 3597 2675 3597 1894 
z
M 3022 2063 
Q 3016 2534 2758 2815 
Q 2500 3097 2075 3097 
Q 1594 3097 1305 2825 
Q 1016 2553 972 2059 
L 3022 2063 
z
" transform="scale(0.015625)"/>
      <path id="DejaVuSans-61" d="M 2194 1759 
Q 1497 1759 1228 1600 
Q 959 1441 959 1056 
Q 959 750 1161 570 
Q 1363 391 1709 391 
Q 2188 391 2477 730 
Q 2766 1069 2766 1631 
L 2766 1759 
L 2194 1759 
z
M 3341 1997 
L 3341 0 
L 2766 0 
L 2766 531 
Q 2569 213 2275 61 
Q 1981 -91 1556 -91 
Q 1019 -91 701 211 
Q 384 513 384 1019 
Q 384 1609 779 1909 
Q 1175 2209 1959 2209 
L 2766 2209 
L 2766 2266 
Q 2766 2663 2505 2880 
Q 2244 3097 1772 3097 
Q 1472 3097 1187 3025 
Q 903 2953 641 2809 
L 641 3341 
Q 956 3463 1253 3523 
Q 1550 3584 1831 3584 
Q 2591 3584 2966 3190 
Q 3341 2797 3341 1997 
z
" transform="scale(0.015625)"/>
      <path id="DejaVuSans-73" d="M 2834 3397 
L 2834 2853 
Q 2591 2978 2328 3040 
Q 2066 3103 1784 3103 
Q 1356 3103 1142 2972 
Q 928 2841 928 2578 
Q 928 2378 1081 2264 
Q 1234 2150 1697 2047 
L 1894 2003 
Q 2506 1872 2764 1633 
Q 3022 1394 3022 966 
Q 3022 478 2636 193 
Q 2250 -91 1575 -91 
Q 1294 -91 989 -36 
Q 684 19 347 128 
L 347 722 
Q 666 556 975 473 
Q 1284 391 1588 391 
Q 1994 391 2212 530 
Q 2431 669 2431 922 
Q 2431 1156 2273 1281 
Q 2116 1406 1581 1522 
L 1381 1569 
Q 847 1681 609 1914 
Q 372 2147 372 2553 
Q 372 3047 722 3315 
Q 1072 3584 1716 3584 
Q 2034 3584 2315 3537 
Q 2597 3491 2834 3397 
z
" transform="scale(0.015625)"/>
      <path id="DejaVuSans-20" transform="scale(0.015625)"/>
      <path id="DejaVuSans-55" d="M 556 4666 
L 1191 4666 
L 1191 1831 
Q 1191 1081 1462 751 
Q 1734 422 2344 422 
Q 2950 422 3222 751 
Q 3494 1081 3494 1831 
L 3494 4666 
L 4128 4666 
L 4128 1753 
Q 4128 841 3676 375 
Q 3225 -91 2344 -91 
Q 1459 -91 1007 375 
Q 556 841 556 1753 
L 556 4666 
z
" transform="scale(0.015625)"/>
     </defs>
     <use xlink:href="#DejaVuSans-50"/>
     <use xlink:href="#DejaVuSans-72" x="58.552734"/>
     <use xlink:href="#DejaVuSans-6f" x="97.416016"/>
     <use xlink:href="#DejaVuSans-74" x="158.597656"/>
     <use xlink:href="#DejaVuSans-65" x="197.806641"/>
     <use xlink:href="#DejaVuSans-61" x="259.330078"/>
     <use xlink:href="#DejaVuSans-73" x="320.609375"/>
     <use xlink:href="#DejaVuSans-65" x="372.708984"/>
     <use xlink:href="#DejaVuSans-20" x="434.232422"/>
     <use xlink:href="#DejaVuSans-55" x="466.019531"/>
    </g>
   </g>
  </g>
 </g>
 <defs>
  <clipPath id="pb4cc680833">
   <rect x="28.683" y="19.27875" width="61.38" height="55.44"/>
  </clipPath>
 </defs>
</svg>
